%TF.GenerationSoftware,KiCad,Pcbnew,5.1.10-88a1d61d58~90~ubuntu21.04.1*%
%TF.CreationDate,2021-08-24T17:57:03+02:00*%
%TF.ProjectId,hendrik,68656e64-7269-46b2-9e6b-696361645f70,rev?*%
%TF.SameCoordinates,Original*%
%TF.FileFunction,Soldermask,Top*%
%TF.FilePolarity,Negative*%
%FSLAX46Y46*%
G04 Gerber Fmt 4.6, Leading zero omitted, Abs format (unit mm)*
G04 Created by KiCad (PCBNEW 5.1.10-88a1d61d58~90~ubuntu21.04.1) date 2021-08-24 17:57:03*
%MOMM*%
%LPD*%
G01*
G04 APERTURE LIST*
%ADD10O,1.700000X1.700000*%
%ADD11R,1.700000X1.700000*%
%ADD12C,2.000000*%
%ADD13R,1.500000X1.050000*%
%ADD14O,1.500000X1.050000*%
%ADD15R,2.000000X1.500000*%
%ADD16R,2.000000X3.800000*%
%ADD17R,1.205000X1.550000*%
%ADD18R,1.910000X0.610000*%
%ADD19R,1.200000X0.900000*%
G04 APERTURE END LIST*
%TO.C,C6*%
G36*
G01*
X155813999Y-91070000D02*
X157114001Y-91070000D01*
G75*
G02*
X157364000Y-91319999I0J-249999D01*
G01*
X157364000Y-91970001D01*
G75*
G02*
X157114001Y-92220000I-249999J0D01*
G01*
X155813999Y-92220000D01*
G75*
G02*
X155564000Y-91970001I0J249999D01*
G01*
X155564000Y-91319999D01*
G75*
G02*
X155813999Y-91070000I249999J0D01*
G01*
G37*
G36*
G01*
X155813999Y-88120000D02*
X157114001Y-88120000D01*
G75*
G02*
X157364000Y-88369999I0J-249999D01*
G01*
X157364000Y-89020001D01*
G75*
G02*
X157114001Y-89270000I-249999J0D01*
G01*
X155813999Y-89270000D01*
G75*
G02*
X155564000Y-89020001I0J249999D01*
G01*
X155564000Y-88369999D01*
G75*
G02*
X155813999Y-88120000I249999J0D01*
G01*
G37*
%TD*%
D10*
%TO.C,Jult1*%
X136906000Y-112776000D03*
X136906000Y-110236000D03*
X139446000Y-112776000D03*
X139446000Y-110236000D03*
X141986000Y-112776000D03*
X141986000Y-110236000D03*
X144526000Y-112776000D03*
X144526000Y-110236000D03*
X147066000Y-112776000D03*
X147066000Y-110236000D03*
X149606000Y-112776000D03*
X149606000Y-110236000D03*
X152146000Y-112776000D03*
X152146000Y-110236000D03*
X154686000Y-112776000D03*
D11*
X154686000Y-110236000D03*
%TD*%
D10*
%TO.C,Jpwm2*%
X113284000Y-103378000D03*
X113284000Y-105918000D03*
D11*
X113284000Y-108458000D03*
%TD*%
D10*
%TO.C,Jpwm1*%
X113284000Y-93980000D03*
X113284000Y-96520000D03*
D11*
X113284000Y-99060000D03*
%TD*%
%TO.C,C4*%
G36*
G01*
X146923999Y-78116000D02*
X148224001Y-78116000D01*
G75*
G02*
X148474000Y-78365999I0J-249999D01*
G01*
X148474000Y-79016001D01*
G75*
G02*
X148224001Y-79266000I-249999J0D01*
G01*
X146923999Y-79266000D01*
G75*
G02*
X146674000Y-79016001I0J249999D01*
G01*
X146674000Y-78365999D01*
G75*
G02*
X146923999Y-78116000I249999J0D01*
G01*
G37*
G36*
G01*
X146923999Y-75166000D02*
X148224001Y-75166000D01*
G75*
G02*
X148474000Y-75415999I0J-249999D01*
G01*
X148474000Y-76066001D01*
G75*
G02*
X148224001Y-76316000I-249999J0D01*
G01*
X146923999Y-76316000D01*
G75*
G02*
X146674000Y-76066001I0J249999D01*
G01*
X146674000Y-75415999D01*
G75*
G02*
X146923999Y-75166000I249999J0D01*
G01*
G37*
%TD*%
D12*
%TO.C,START*%
X161036000Y-78128000D03*
X156536000Y-78128000D03*
X161036000Y-71628000D03*
X156536000Y-71628000D03*
%TD*%
%TO.C,RESET*%
X125580000Y-95250000D03*
X125580000Y-90750000D03*
X132080000Y-95250000D03*
X132080000Y-90750000D03*
%TD*%
%TO.C,Ro2*%
G36*
G01*
X136769001Y-70474000D02*
X135518999Y-70474000D01*
G75*
G02*
X135269000Y-70224001I0J249999D01*
G01*
X135269000Y-69598999D01*
G75*
G02*
X135518999Y-69349000I249999J0D01*
G01*
X136769001Y-69349000D01*
G75*
G02*
X137019000Y-69598999I0J-249999D01*
G01*
X137019000Y-70224001D01*
G75*
G02*
X136769001Y-70474000I-249999J0D01*
G01*
G37*
G36*
G01*
X136769001Y-73399000D02*
X135518999Y-73399000D01*
G75*
G02*
X135269000Y-73149001I0J249999D01*
G01*
X135269000Y-72523999D01*
G75*
G02*
X135518999Y-72274000I249999J0D01*
G01*
X136769001Y-72274000D01*
G75*
G02*
X137019000Y-72523999I0J-249999D01*
G01*
X137019000Y-73149001D01*
G75*
G02*
X136769001Y-73399000I-249999J0D01*
G01*
G37*
%TD*%
%TO.C,Ro1*%
G36*
G01*
X138566999Y-72274000D02*
X139817001Y-72274000D01*
G75*
G02*
X140067000Y-72523999I0J-249999D01*
G01*
X140067000Y-73149001D01*
G75*
G02*
X139817001Y-73399000I-249999J0D01*
G01*
X138566999Y-73399000D01*
G75*
G02*
X138317000Y-73149001I0J249999D01*
G01*
X138317000Y-72523999D01*
G75*
G02*
X138566999Y-72274000I249999J0D01*
G01*
G37*
G36*
G01*
X138566999Y-69349000D02*
X139817001Y-69349000D01*
G75*
G02*
X140067000Y-69598999I0J-249999D01*
G01*
X140067000Y-70224001D01*
G75*
G02*
X139817001Y-70474000I-249999J0D01*
G01*
X138566999Y-70474000D01*
G75*
G02*
X138317000Y-70224001I0J249999D01*
G01*
X138317000Y-69598999D01*
G75*
G02*
X138566999Y-69349000I249999J0D01*
G01*
G37*
%TD*%
%TO.C,R5*%
G36*
G01*
X155330999Y-98436000D02*
X156581001Y-98436000D01*
G75*
G02*
X156831000Y-98685999I0J-249999D01*
G01*
X156831000Y-99311001D01*
G75*
G02*
X156581001Y-99561000I-249999J0D01*
G01*
X155330999Y-99561000D01*
G75*
G02*
X155081000Y-99311001I0J249999D01*
G01*
X155081000Y-98685999D01*
G75*
G02*
X155330999Y-98436000I249999J0D01*
G01*
G37*
G36*
G01*
X155330999Y-95511000D02*
X156581001Y-95511000D01*
G75*
G02*
X156831000Y-95760999I0J-249999D01*
G01*
X156831000Y-96386001D01*
G75*
G02*
X156581001Y-96636000I-249999J0D01*
G01*
X155330999Y-96636000D01*
G75*
G02*
X155081000Y-96386001I0J249999D01*
G01*
X155081000Y-95760999D01*
G75*
G02*
X155330999Y-95511000I249999J0D01*
G01*
G37*
%TD*%
%TO.C,R4*%
G36*
G01*
X158632999Y-98436000D02*
X159883001Y-98436000D01*
G75*
G02*
X160133000Y-98685999I0J-249999D01*
G01*
X160133000Y-99311001D01*
G75*
G02*
X159883001Y-99561000I-249999J0D01*
G01*
X158632999Y-99561000D01*
G75*
G02*
X158383000Y-99311001I0J249999D01*
G01*
X158383000Y-98685999D01*
G75*
G02*
X158632999Y-98436000I249999J0D01*
G01*
G37*
G36*
G01*
X158632999Y-95511000D02*
X159883001Y-95511000D01*
G75*
G02*
X160133000Y-95760999I0J-249999D01*
G01*
X160133000Y-96386001D01*
G75*
G02*
X159883001Y-96636000I-249999J0D01*
G01*
X158632999Y-96636000D01*
G75*
G02*
X158383000Y-96386001I0J249999D01*
G01*
X158383000Y-95760999D01*
G75*
G02*
X158632999Y-95511000I249999J0D01*
G01*
G37*
%TD*%
%TO.C,R3*%
G36*
G01*
X133721001Y-70474000D02*
X132470999Y-70474000D01*
G75*
G02*
X132221000Y-70224001I0J249999D01*
G01*
X132221000Y-69598999D01*
G75*
G02*
X132470999Y-69349000I249999J0D01*
G01*
X133721001Y-69349000D01*
G75*
G02*
X133971000Y-69598999I0J-249999D01*
G01*
X133971000Y-70224001D01*
G75*
G02*
X133721001Y-70474000I-249999J0D01*
G01*
G37*
G36*
G01*
X133721001Y-73399000D02*
X132470999Y-73399000D01*
G75*
G02*
X132221000Y-73149001I0J249999D01*
G01*
X132221000Y-72523999D01*
G75*
G02*
X132470999Y-72274000I249999J0D01*
G01*
X133721001Y-72274000D01*
G75*
G02*
X133971000Y-72523999I0J-249999D01*
G01*
X133971000Y-73149001D01*
G75*
G02*
X133721001Y-73399000I-249999J0D01*
G01*
G37*
%TD*%
%TO.C,R2*%
G36*
G01*
X151774999Y-79578500D02*
X153025001Y-79578500D01*
G75*
G02*
X153275000Y-79828499I0J-249999D01*
G01*
X153275000Y-80453501D01*
G75*
G02*
X153025001Y-80703500I-249999J0D01*
G01*
X151774999Y-80703500D01*
G75*
G02*
X151525000Y-80453501I0J249999D01*
G01*
X151525000Y-79828499D01*
G75*
G02*
X151774999Y-79578500I249999J0D01*
G01*
G37*
G36*
G01*
X151774999Y-76653500D02*
X153025001Y-76653500D01*
G75*
G02*
X153275000Y-76903499I0J-249999D01*
G01*
X153275000Y-77528501D01*
G75*
G02*
X153025001Y-77778500I-249999J0D01*
G01*
X151774999Y-77778500D01*
G75*
G02*
X151525000Y-77528501I0J249999D01*
G01*
X151525000Y-76903499D01*
G75*
G02*
X151774999Y-76653500I249999J0D01*
G01*
G37*
%TD*%
%TO.C,R1*%
G36*
G01*
X121040999Y-91070000D02*
X122291001Y-91070000D01*
G75*
G02*
X122541000Y-91319999I0J-249999D01*
G01*
X122541000Y-91945001D01*
G75*
G02*
X122291001Y-92195000I-249999J0D01*
G01*
X121040999Y-92195000D01*
G75*
G02*
X120791000Y-91945001I0J249999D01*
G01*
X120791000Y-91319999D01*
G75*
G02*
X121040999Y-91070000I249999J0D01*
G01*
G37*
G36*
G01*
X121040999Y-88145000D02*
X122291001Y-88145000D01*
G75*
G02*
X122541000Y-88394999I0J-249999D01*
G01*
X122541000Y-89020001D01*
G75*
G02*
X122291001Y-89270000I-249999J0D01*
G01*
X121040999Y-89270000D01*
G75*
G02*
X120791000Y-89020001I0J249999D01*
G01*
X120791000Y-88394999D01*
G75*
G02*
X121040999Y-88145000I249999J0D01*
G01*
G37*
%TD*%
D13*
%TO.C,Q1*%
X122428000Y-74676000D03*
D14*
X122428000Y-77216000D03*
X122428000Y-75946000D03*
%TD*%
%TO.C,Lo1*%
G36*
G01*
X135141000Y-66353000D02*
X135141000Y-64203000D01*
G75*
G02*
X135391000Y-63953000I250000J0D01*
G01*
X136141000Y-63953000D01*
G75*
G02*
X136391000Y-64203000I0J-250000D01*
G01*
X136391000Y-66353000D01*
G75*
G02*
X136141000Y-66603000I-250000J0D01*
G01*
X135391000Y-66603000D01*
G75*
G02*
X135141000Y-66353000I0J250000D01*
G01*
G37*
G36*
G01*
X132341000Y-66353000D02*
X132341000Y-64203000D01*
G75*
G02*
X132591000Y-63953000I250000J0D01*
G01*
X133341000Y-63953000D01*
G75*
G02*
X133591000Y-64203000I0J-250000D01*
G01*
X133591000Y-66353000D01*
G75*
G02*
X133341000Y-66603000I-250000J0D01*
G01*
X132591000Y-66603000D01*
G75*
G02*
X132341000Y-66353000I0J250000D01*
G01*
G37*
%TD*%
D10*
%TO.C,Jvac1*%
X112776000Y-74168000D03*
D11*
X112776000Y-71628000D03*
%TD*%
D10*
%TO.C,Juart1*%
X165100000Y-72644000D03*
X165100000Y-70104000D03*
X165100000Y-67564000D03*
D11*
X165100000Y-65024000D03*
%TD*%
D10*
%TO.C,Jpow1*%
X112776000Y-67564000D03*
D11*
X112776000Y-65024000D03*
%TD*%
D10*
%TO.C,Jodo1*%
X160528000Y-65024000D03*
X160528000Y-67564000D03*
X157988000Y-65024000D03*
X157988000Y-67564000D03*
X155448000Y-65024000D03*
D11*
X155448000Y-67564000D03*
%TD*%
D10*
%TO.C,Jir1*%
X165354000Y-94742000D03*
X162814000Y-94742000D03*
X165354000Y-92202000D03*
X162814000Y-92202000D03*
X165354000Y-89662000D03*
X162814000Y-89662000D03*
X165354000Y-87122000D03*
X162814000Y-87122000D03*
X165354000Y-84582000D03*
X162814000Y-84582000D03*
X165354000Y-82042000D03*
D11*
X162814000Y-82042000D03*
%TD*%
D10*
%TO.C,Ji2c1*%
X164846000Y-112522000D03*
X164846000Y-109982000D03*
X164846000Y-107442000D03*
X164846000Y-104902000D03*
X164846000Y-102362000D03*
D11*
X164846000Y-99822000D03*
%TD*%
D10*
%TO.C,Jdbg1*%
X113284000Y-113030000D03*
X115824000Y-113030000D03*
X118364000Y-113030000D03*
X120904000Y-113030000D03*
D11*
X123444000Y-113030000D03*
%TD*%
D10*
%TO.C,Jbat1*%
X113284000Y-80264000D03*
X113284000Y-82804000D03*
X113284000Y-85344000D03*
D11*
X113284000Y-87884000D03*
%TD*%
%TO.C,ICtrig1*%
G36*
G01*
X155287000Y-102473000D02*
X155287000Y-102273000D01*
G75*
G02*
X155387000Y-102173000I100000J0D01*
G01*
X156662000Y-102173000D01*
G75*
G02*
X156762000Y-102273000I0J-100000D01*
G01*
X156762000Y-102473000D01*
G75*
G02*
X156662000Y-102573000I-100000J0D01*
G01*
X155387000Y-102573000D01*
G75*
G02*
X155287000Y-102473000I0J100000D01*
G01*
G37*
G36*
G01*
X155287000Y-103123000D02*
X155287000Y-102923000D01*
G75*
G02*
X155387000Y-102823000I100000J0D01*
G01*
X156662000Y-102823000D01*
G75*
G02*
X156762000Y-102923000I0J-100000D01*
G01*
X156762000Y-103123000D01*
G75*
G02*
X156662000Y-103223000I-100000J0D01*
G01*
X155387000Y-103223000D01*
G75*
G02*
X155287000Y-103123000I0J100000D01*
G01*
G37*
G36*
G01*
X155287000Y-103773000D02*
X155287000Y-103573000D01*
G75*
G02*
X155387000Y-103473000I100000J0D01*
G01*
X156662000Y-103473000D01*
G75*
G02*
X156762000Y-103573000I0J-100000D01*
G01*
X156762000Y-103773000D01*
G75*
G02*
X156662000Y-103873000I-100000J0D01*
G01*
X155387000Y-103873000D01*
G75*
G02*
X155287000Y-103773000I0J100000D01*
G01*
G37*
G36*
G01*
X155287000Y-104423000D02*
X155287000Y-104223000D01*
G75*
G02*
X155387000Y-104123000I100000J0D01*
G01*
X156662000Y-104123000D01*
G75*
G02*
X156762000Y-104223000I0J-100000D01*
G01*
X156762000Y-104423000D01*
G75*
G02*
X156662000Y-104523000I-100000J0D01*
G01*
X155387000Y-104523000D01*
G75*
G02*
X155287000Y-104423000I0J100000D01*
G01*
G37*
G36*
G01*
X155287000Y-105073000D02*
X155287000Y-104873000D01*
G75*
G02*
X155387000Y-104773000I100000J0D01*
G01*
X156662000Y-104773000D01*
G75*
G02*
X156762000Y-104873000I0J-100000D01*
G01*
X156762000Y-105073000D01*
G75*
G02*
X156662000Y-105173000I-100000J0D01*
G01*
X155387000Y-105173000D01*
G75*
G02*
X155287000Y-105073000I0J100000D01*
G01*
G37*
G36*
G01*
X155287000Y-105723000D02*
X155287000Y-105523000D01*
G75*
G02*
X155387000Y-105423000I100000J0D01*
G01*
X156662000Y-105423000D01*
G75*
G02*
X156762000Y-105523000I0J-100000D01*
G01*
X156762000Y-105723000D01*
G75*
G02*
X156662000Y-105823000I-100000J0D01*
G01*
X155387000Y-105823000D01*
G75*
G02*
X155287000Y-105723000I0J100000D01*
G01*
G37*
G36*
G01*
X155287000Y-106373000D02*
X155287000Y-106173000D01*
G75*
G02*
X155387000Y-106073000I100000J0D01*
G01*
X156662000Y-106073000D01*
G75*
G02*
X156762000Y-106173000I0J-100000D01*
G01*
X156762000Y-106373000D01*
G75*
G02*
X156662000Y-106473000I-100000J0D01*
G01*
X155387000Y-106473000D01*
G75*
G02*
X155287000Y-106373000I0J100000D01*
G01*
G37*
G36*
G01*
X155287000Y-107023000D02*
X155287000Y-106823000D01*
G75*
G02*
X155387000Y-106723000I100000J0D01*
G01*
X156662000Y-106723000D01*
G75*
G02*
X156762000Y-106823000I0J-100000D01*
G01*
X156762000Y-107023000D01*
G75*
G02*
X156662000Y-107123000I-100000J0D01*
G01*
X155387000Y-107123000D01*
G75*
G02*
X155287000Y-107023000I0J100000D01*
G01*
G37*
G36*
G01*
X149562000Y-107023000D02*
X149562000Y-106823000D01*
G75*
G02*
X149662000Y-106723000I100000J0D01*
G01*
X150937000Y-106723000D01*
G75*
G02*
X151037000Y-106823000I0J-100000D01*
G01*
X151037000Y-107023000D01*
G75*
G02*
X150937000Y-107123000I-100000J0D01*
G01*
X149662000Y-107123000D01*
G75*
G02*
X149562000Y-107023000I0J100000D01*
G01*
G37*
G36*
G01*
X149562000Y-106373000D02*
X149562000Y-106173000D01*
G75*
G02*
X149662000Y-106073000I100000J0D01*
G01*
X150937000Y-106073000D01*
G75*
G02*
X151037000Y-106173000I0J-100000D01*
G01*
X151037000Y-106373000D01*
G75*
G02*
X150937000Y-106473000I-100000J0D01*
G01*
X149662000Y-106473000D01*
G75*
G02*
X149562000Y-106373000I0J100000D01*
G01*
G37*
G36*
G01*
X149562000Y-105723000D02*
X149562000Y-105523000D01*
G75*
G02*
X149662000Y-105423000I100000J0D01*
G01*
X150937000Y-105423000D01*
G75*
G02*
X151037000Y-105523000I0J-100000D01*
G01*
X151037000Y-105723000D01*
G75*
G02*
X150937000Y-105823000I-100000J0D01*
G01*
X149662000Y-105823000D01*
G75*
G02*
X149562000Y-105723000I0J100000D01*
G01*
G37*
G36*
G01*
X149562000Y-105073000D02*
X149562000Y-104873000D01*
G75*
G02*
X149662000Y-104773000I100000J0D01*
G01*
X150937000Y-104773000D01*
G75*
G02*
X151037000Y-104873000I0J-100000D01*
G01*
X151037000Y-105073000D01*
G75*
G02*
X150937000Y-105173000I-100000J0D01*
G01*
X149662000Y-105173000D01*
G75*
G02*
X149562000Y-105073000I0J100000D01*
G01*
G37*
G36*
G01*
X149562000Y-104423000D02*
X149562000Y-104223000D01*
G75*
G02*
X149662000Y-104123000I100000J0D01*
G01*
X150937000Y-104123000D01*
G75*
G02*
X151037000Y-104223000I0J-100000D01*
G01*
X151037000Y-104423000D01*
G75*
G02*
X150937000Y-104523000I-100000J0D01*
G01*
X149662000Y-104523000D01*
G75*
G02*
X149562000Y-104423000I0J100000D01*
G01*
G37*
G36*
G01*
X149562000Y-103773000D02*
X149562000Y-103573000D01*
G75*
G02*
X149662000Y-103473000I100000J0D01*
G01*
X150937000Y-103473000D01*
G75*
G02*
X151037000Y-103573000I0J-100000D01*
G01*
X151037000Y-103773000D01*
G75*
G02*
X150937000Y-103873000I-100000J0D01*
G01*
X149662000Y-103873000D01*
G75*
G02*
X149562000Y-103773000I0J100000D01*
G01*
G37*
G36*
G01*
X149562000Y-103123000D02*
X149562000Y-102923000D01*
G75*
G02*
X149662000Y-102823000I100000J0D01*
G01*
X150937000Y-102823000D01*
G75*
G02*
X151037000Y-102923000I0J-100000D01*
G01*
X151037000Y-103123000D01*
G75*
G02*
X150937000Y-103223000I-100000J0D01*
G01*
X149662000Y-103223000D01*
G75*
G02*
X149562000Y-103123000I0J100000D01*
G01*
G37*
G36*
G01*
X149562000Y-102473000D02*
X149562000Y-102273000D01*
G75*
G02*
X149662000Y-102173000I100000J0D01*
G01*
X150937000Y-102173000D01*
G75*
G02*
X151037000Y-102273000I0J-100000D01*
G01*
X151037000Y-102473000D01*
G75*
G02*
X150937000Y-102573000I-100000J0D01*
G01*
X149662000Y-102573000D01*
G75*
G02*
X149562000Y-102473000I0J100000D01*
G01*
G37*
%TD*%
%TO.C,ICecho1*%
G36*
G01*
X136929000Y-101878000D02*
X136629000Y-101878000D01*
G75*
G02*
X136479000Y-101728000I0J150000D01*
G01*
X136479000Y-100078000D01*
G75*
G02*
X136629000Y-99928000I150000J0D01*
G01*
X136929000Y-99928000D01*
G75*
G02*
X137079000Y-100078000I0J-150000D01*
G01*
X137079000Y-101728000D01*
G75*
G02*
X136929000Y-101878000I-150000J0D01*
G01*
G37*
G36*
G01*
X138199000Y-101878000D02*
X137899000Y-101878000D01*
G75*
G02*
X137749000Y-101728000I0J150000D01*
G01*
X137749000Y-100078000D01*
G75*
G02*
X137899000Y-99928000I150000J0D01*
G01*
X138199000Y-99928000D01*
G75*
G02*
X138349000Y-100078000I0J-150000D01*
G01*
X138349000Y-101728000D01*
G75*
G02*
X138199000Y-101878000I-150000J0D01*
G01*
G37*
G36*
G01*
X139469000Y-101878000D02*
X139169000Y-101878000D01*
G75*
G02*
X139019000Y-101728000I0J150000D01*
G01*
X139019000Y-100078000D01*
G75*
G02*
X139169000Y-99928000I150000J0D01*
G01*
X139469000Y-99928000D01*
G75*
G02*
X139619000Y-100078000I0J-150000D01*
G01*
X139619000Y-101728000D01*
G75*
G02*
X139469000Y-101878000I-150000J0D01*
G01*
G37*
G36*
G01*
X140739000Y-101878000D02*
X140439000Y-101878000D01*
G75*
G02*
X140289000Y-101728000I0J150000D01*
G01*
X140289000Y-100078000D01*
G75*
G02*
X140439000Y-99928000I150000J0D01*
G01*
X140739000Y-99928000D01*
G75*
G02*
X140889000Y-100078000I0J-150000D01*
G01*
X140889000Y-101728000D01*
G75*
G02*
X140739000Y-101878000I-150000J0D01*
G01*
G37*
G36*
G01*
X142009000Y-101878000D02*
X141709000Y-101878000D01*
G75*
G02*
X141559000Y-101728000I0J150000D01*
G01*
X141559000Y-100078000D01*
G75*
G02*
X141709000Y-99928000I150000J0D01*
G01*
X142009000Y-99928000D01*
G75*
G02*
X142159000Y-100078000I0J-150000D01*
G01*
X142159000Y-101728000D01*
G75*
G02*
X142009000Y-101878000I-150000J0D01*
G01*
G37*
G36*
G01*
X143279000Y-101878000D02*
X142979000Y-101878000D01*
G75*
G02*
X142829000Y-101728000I0J150000D01*
G01*
X142829000Y-100078000D01*
G75*
G02*
X142979000Y-99928000I150000J0D01*
G01*
X143279000Y-99928000D01*
G75*
G02*
X143429000Y-100078000I0J-150000D01*
G01*
X143429000Y-101728000D01*
G75*
G02*
X143279000Y-101878000I-150000J0D01*
G01*
G37*
G36*
G01*
X144549000Y-101878000D02*
X144249000Y-101878000D01*
G75*
G02*
X144099000Y-101728000I0J150000D01*
G01*
X144099000Y-100078000D01*
G75*
G02*
X144249000Y-99928000I150000J0D01*
G01*
X144549000Y-99928000D01*
G75*
G02*
X144699000Y-100078000I0J-150000D01*
G01*
X144699000Y-101728000D01*
G75*
G02*
X144549000Y-101878000I-150000J0D01*
G01*
G37*
G36*
G01*
X145819000Y-101878000D02*
X145519000Y-101878000D01*
G75*
G02*
X145369000Y-101728000I0J150000D01*
G01*
X145369000Y-100078000D01*
G75*
G02*
X145519000Y-99928000I150000J0D01*
G01*
X145819000Y-99928000D01*
G75*
G02*
X145969000Y-100078000I0J-150000D01*
G01*
X145969000Y-101728000D01*
G75*
G02*
X145819000Y-101878000I-150000J0D01*
G01*
G37*
G36*
G01*
X145819000Y-106828000D02*
X145519000Y-106828000D01*
G75*
G02*
X145369000Y-106678000I0J150000D01*
G01*
X145369000Y-105028000D01*
G75*
G02*
X145519000Y-104878000I150000J0D01*
G01*
X145819000Y-104878000D01*
G75*
G02*
X145969000Y-105028000I0J-150000D01*
G01*
X145969000Y-106678000D01*
G75*
G02*
X145819000Y-106828000I-150000J0D01*
G01*
G37*
G36*
G01*
X144549000Y-106828000D02*
X144249000Y-106828000D01*
G75*
G02*
X144099000Y-106678000I0J150000D01*
G01*
X144099000Y-105028000D01*
G75*
G02*
X144249000Y-104878000I150000J0D01*
G01*
X144549000Y-104878000D01*
G75*
G02*
X144699000Y-105028000I0J-150000D01*
G01*
X144699000Y-106678000D01*
G75*
G02*
X144549000Y-106828000I-150000J0D01*
G01*
G37*
G36*
G01*
X143279000Y-106828000D02*
X142979000Y-106828000D01*
G75*
G02*
X142829000Y-106678000I0J150000D01*
G01*
X142829000Y-105028000D01*
G75*
G02*
X142979000Y-104878000I150000J0D01*
G01*
X143279000Y-104878000D01*
G75*
G02*
X143429000Y-105028000I0J-150000D01*
G01*
X143429000Y-106678000D01*
G75*
G02*
X143279000Y-106828000I-150000J0D01*
G01*
G37*
G36*
G01*
X142009000Y-106828000D02*
X141709000Y-106828000D01*
G75*
G02*
X141559000Y-106678000I0J150000D01*
G01*
X141559000Y-105028000D01*
G75*
G02*
X141709000Y-104878000I150000J0D01*
G01*
X142009000Y-104878000D01*
G75*
G02*
X142159000Y-105028000I0J-150000D01*
G01*
X142159000Y-106678000D01*
G75*
G02*
X142009000Y-106828000I-150000J0D01*
G01*
G37*
G36*
G01*
X140739000Y-106828000D02*
X140439000Y-106828000D01*
G75*
G02*
X140289000Y-106678000I0J150000D01*
G01*
X140289000Y-105028000D01*
G75*
G02*
X140439000Y-104878000I150000J0D01*
G01*
X140739000Y-104878000D01*
G75*
G02*
X140889000Y-105028000I0J-150000D01*
G01*
X140889000Y-106678000D01*
G75*
G02*
X140739000Y-106828000I-150000J0D01*
G01*
G37*
G36*
G01*
X139469000Y-106828000D02*
X139169000Y-106828000D01*
G75*
G02*
X139019000Y-106678000I0J150000D01*
G01*
X139019000Y-105028000D01*
G75*
G02*
X139169000Y-104878000I150000J0D01*
G01*
X139469000Y-104878000D01*
G75*
G02*
X139619000Y-105028000I0J-150000D01*
G01*
X139619000Y-106678000D01*
G75*
G02*
X139469000Y-106828000I-150000J0D01*
G01*
G37*
G36*
G01*
X138199000Y-106828000D02*
X137899000Y-106828000D01*
G75*
G02*
X137749000Y-106678000I0J150000D01*
G01*
X137749000Y-105028000D01*
G75*
G02*
X137899000Y-104878000I150000J0D01*
G01*
X138199000Y-104878000D01*
G75*
G02*
X138349000Y-105028000I0J-150000D01*
G01*
X138349000Y-106678000D01*
G75*
G02*
X138199000Y-106828000I-150000J0D01*
G01*
G37*
G36*
G01*
X136929000Y-106828000D02*
X136629000Y-106828000D01*
G75*
G02*
X136479000Y-106678000I0J150000D01*
G01*
X136479000Y-105028000D01*
G75*
G02*
X136629000Y-104878000I150000J0D01*
G01*
X136929000Y-104878000D01*
G75*
G02*
X137079000Y-105028000I0J-150000D01*
G01*
X137079000Y-106678000D01*
G75*
G02*
X136929000Y-106828000I-150000J0D01*
G01*
G37*
%TD*%
%TO.C,ICbat1*%
G36*
G01*
X133835000Y-85320000D02*
X134135000Y-85320000D01*
G75*
G02*
X134285000Y-85470000I0J-150000D01*
G01*
X134285000Y-87120000D01*
G75*
G02*
X134135000Y-87270000I-150000J0D01*
G01*
X133835000Y-87270000D01*
G75*
G02*
X133685000Y-87120000I0J150000D01*
G01*
X133685000Y-85470000D01*
G75*
G02*
X133835000Y-85320000I150000J0D01*
G01*
G37*
G36*
G01*
X132565000Y-85320000D02*
X132865000Y-85320000D01*
G75*
G02*
X133015000Y-85470000I0J-150000D01*
G01*
X133015000Y-87120000D01*
G75*
G02*
X132865000Y-87270000I-150000J0D01*
G01*
X132565000Y-87270000D01*
G75*
G02*
X132415000Y-87120000I0J150000D01*
G01*
X132415000Y-85470000D01*
G75*
G02*
X132565000Y-85320000I150000J0D01*
G01*
G37*
G36*
G01*
X131295000Y-85320000D02*
X131595000Y-85320000D01*
G75*
G02*
X131745000Y-85470000I0J-150000D01*
G01*
X131745000Y-87120000D01*
G75*
G02*
X131595000Y-87270000I-150000J0D01*
G01*
X131295000Y-87270000D01*
G75*
G02*
X131145000Y-87120000I0J150000D01*
G01*
X131145000Y-85470000D01*
G75*
G02*
X131295000Y-85320000I150000J0D01*
G01*
G37*
G36*
G01*
X130025000Y-85320000D02*
X130325000Y-85320000D01*
G75*
G02*
X130475000Y-85470000I0J-150000D01*
G01*
X130475000Y-87120000D01*
G75*
G02*
X130325000Y-87270000I-150000J0D01*
G01*
X130025000Y-87270000D01*
G75*
G02*
X129875000Y-87120000I0J150000D01*
G01*
X129875000Y-85470000D01*
G75*
G02*
X130025000Y-85320000I150000J0D01*
G01*
G37*
G36*
G01*
X128755000Y-85320000D02*
X129055000Y-85320000D01*
G75*
G02*
X129205000Y-85470000I0J-150000D01*
G01*
X129205000Y-87120000D01*
G75*
G02*
X129055000Y-87270000I-150000J0D01*
G01*
X128755000Y-87270000D01*
G75*
G02*
X128605000Y-87120000I0J150000D01*
G01*
X128605000Y-85470000D01*
G75*
G02*
X128755000Y-85320000I150000J0D01*
G01*
G37*
G36*
G01*
X127485000Y-85320000D02*
X127785000Y-85320000D01*
G75*
G02*
X127935000Y-85470000I0J-150000D01*
G01*
X127935000Y-87120000D01*
G75*
G02*
X127785000Y-87270000I-150000J0D01*
G01*
X127485000Y-87270000D01*
G75*
G02*
X127335000Y-87120000I0J150000D01*
G01*
X127335000Y-85470000D01*
G75*
G02*
X127485000Y-85320000I150000J0D01*
G01*
G37*
G36*
G01*
X126215000Y-85320000D02*
X126515000Y-85320000D01*
G75*
G02*
X126665000Y-85470000I0J-150000D01*
G01*
X126665000Y-87120000D01*
G75*
G02*
X126515000Y-87270000I-150000J0D01*
G01*
X126215000Y-87270000D01*
G75*
G02*
X126065000Y-87120000I0J150000D01*
G01*
X126065000Y-85470000D01*
G75*
G02*
X126215000Y-85320000I150000J0D01*
G01*
G37*
G36*
G01*
X124945000Y-85320000D02*
X125245000Y-85320000D01*
G75*
G02*
X125395000Y-85470000I0J-150000D01*
G01*
X125395000Y-87120000D01*
G75*
G02*
X125245000Y-87270000I-150000J0D01*
G01*
X124945000Y-87270000D01*
G75*
G02*
X124795000Y-87120000I0J150000D01*
G01*
X124795000Y-85470000D01*
G75*
G02*
X124945000Y-85320000I150000J0D01*
G01*
G37*
G36*
G01*
X124945000Y-80370000D02*
X125245000Y-80370000D01*
G75*
G02*
X125395000Y-80520000I0J-150000D01*
G01*
X125395000Y-82170000D01*
G75*
G02*
X125245000Y-82320000I-150000J0D01*
G01*
X124945000Y-82320000D01*
G75*
G02*
X124795000Y-82170000I0J150000D01*
G01*
X124795000Y-80520000D01*
G75*
G02*
X124945000Y-80370000I150000J0D01*
G01*
G37*
G36*
G01*
X126215000Y-80370000D02*
X126515000Y-80370000D01*
G75*
G02*
X126665000Y-80520000I0J-150000D01*
G01*
X126665000Y-82170000D01*
G75*
G02*
X126515000Y-82320000I-150000J0D01*
G01*
X126215000Y-82320000D01*
G75*
G02*
X126065000Y-82170000I0J150000D01*
G01*
X126065000Y-80520000D01*
G75*
G02*
X126215000Y-80370000I150000J0D01*
G01*
G37*
G36*
G01*
X127485000Y-80370000D02*
X127785000Y-80370000D01*
G75*
G02*
X127935000Y-80520000I0J-150000D01*
G01*
X127935000Y-82170000D01*
G75*
G02*
X127785000Y-82320000I-150000J0D01*
G01*
X127485000Y-82320000D01*
G75*
G02*
X127335000Y-82170000I0J150000D01*
G01*
X127335000Y-80520000D01*
G75*
G02*
X127485000Y-80370000I150000J0D01*
G01*
G37*
G36*
G01*
X128755000Y-80370000D02*
X129055000Y-80370000D01*
G75*
G02*
X129205000Y-80520000I0J-150000D01*
G01*
X129205000Y-82170000D01*
G75*
G02*
X129055000Y-82320000I-150000J0D01*
G01*
X128755000Y-82320000D01*
G75*
G02*
X128605000Y-82170000I0J150000D01*
G01*
X128605000Y-80520000D01*
G75*
G02*
X128755000Y-80370000I150000J0D01*
G01*
G37*
G36*
G01*
X130025000Y-80370000D02*
X130325000Y-80370000D01*
G75*
G02*
X130475000Y-80520000I0J-150000D01*
G01*
X130475000Y-82170000D01*
G75*
G02*
X130325000Y-82320000I-150000J0D01*
G01*
X130025000Y-82320000D01*
G75*
G02*
X129875000Y-82170000I0J150000D01*
G01*
X129875000Y-80520000D01*
G75*
G02*
X130025000Y-80370000I150000J0D01*
G01*
G37*
G36*
G01*
X131295000Y-80370000D02*
X131595000Y-80370000D01*
G75*
G02*
X131745000Y-80520000I0J-150000D01*
G01*
X131745000Y-82170000D01*
G75*
G02*
X131595000Y-82320000I-150000J0D01*
G01*
X131295000Y-82320000D01*
G75*
G02*
X131145000Y-82170000I0J150000D01*
G01*
X131145000Y-80520000D01*
G75*
G02*
X131295000Y-80370000I150000J0D01*
G01*
G37*
G36*
G01*
X132565000Y-80370000D02*
X132865000Y-80370000D01*
G75*
G02*
X133015000Y-80520000I0J-150000D01*
G01*
X133015000Y-82170000D01*
G75*
G02*
X132865000Y-82320000I-150000J0D01*
G01*
X132565000Y-82320000D01*
G75*
G02*
X132415000Y-82170000I0J150000D01*
G01*
X132415000Y-80520000D01*
G75*
G02*
X132565000Y-80370000I150000J0D01*
G01*
G37*
G36*
G01*
X133835000Y-80370000D02*
X134135000Y-80370000D01*
G75*
G02*
X134285000Y-80520000I0J-150000D01*
G01*
X134285000Y-82170000D01*
G75*
G02*
X134135000Y-82320000I-150000J0D01*
G01*
X133835000Y-82320000D01*
G75*
G02*
X133685000Y-82170000I0J150000D01*
G01*
X133685000Y-80520000D01*
G75*
G02*
X133835000Y-80370000I150000J0D01*
G01*
G37*
%TD*%
D15*
%TO.C,IC3*%
X143662000Y-65772000D03*
X143662000Y-70372000D03*
X143662000Y-68072000D03*
D16*
X149962000Y-68072000D03*
%TD*%
D17*
%TO.C,IC2*%
X122333500Y-69583000D03*
X122333500Y-71133000D03*
X123538500Y-69583000D03*
X123538500Y-71133000D03*
D18*
X125716000Y-68453000D03*
X125716000Y-69723000D03*
X125716000Y-70993000D03*
X125716000Y-72263000D03*
X120156000Y-72263000D03*
X120156000Y-70993000D03*
X120156000Y-69723000D03*
X120156000Y-68453000D03*
%TD*%
%TO.C,IC1*%
G36*
G01*
X144182000Y-83392000D02*
X144182000Y-82067000D01*
G75*
G02*
X144257000Y-81992000I75000J0D01*
G01*
X144407000Y-81992000D01*
G75*
G02*
X144482000Y-82067000I0J-75000D01*
G01*
X144482000Y-83392000D01*
G75*
G02*
X144407000Y-83467000I-75000J0D01*
G01*
X144257000Y-83467000D01*
G75*
G02*
X144182000Y-83392000I0J75000D01*
G01*
G37*
G36*
G01*
X144682000Y-83392000D02*
X144682000Y-82067000D01*
G75*
G02*
X144757000Y-81992000I75000J0D01*
G01*
X144907000Y-81992000D01*
G75*
G02*
X144982000Y-82067000I0J-75000D01*
G01*
X144982000Y-83392000D01*
G75*
G02*
X144907000Y-83467000I-75000J0D01*
G01*
X144757000Y-83467000D01*
G75*
G02*
X144682000Y-83392000I0J75000D01*
G01*
G37*
G36*
G01*
X145182000Y-83392000D02*
X145182000Y-82067000D01*
G75*
G02*
X145257000Y-81992000I75000J0D01*
G01*
X145407000Y-81992000D01*
G75*
G02*
X145482000Y-82067000I0J-75000D01*
G01*
X145482000Y-83392000D01*
G75*
G02*
X145407000Y-83467000I-75000J0D01*
G01*
X145257000Y-83467000D01*
G75*
G02*
X145182000Y-83392000I0J75000D01*
G01*
G37*
G36*
G01*
X145682000Y-83392000D02*
X145682000Y-82067000D01*
G75*
G02*
X145757000Y-81992000I75000J0D01*
G01*
X145907000Y-81992000D01*
G75*
G02*
X145982000Y-82067000I0J-75000D01*
G01*
X145982000Y-83392000D01*
G75*
G02*
X145907000Y-83467000I-75000J0D01*
G01*
X145757000Y-83467000D01*
G75*
G02*
X145682000Y-83392000I0J75000D01*
G01*
G37*
G36*
G01*
X146182000Y-83392000D02*
X146182000Y-82067000D01*
G75*
G02*
X146257000Y-81992000I75000J0D01*
G01*
X146407000Y-81992000D01*
G75*
G02*
X146482000Y-82067000I0J-75000D01*
G01*
X146482000Y-83392000D01*
G75*
G02*
X146407000Y-83467000I-75000J0D01*
G01*
X146257000Y-83467000D01*
G75*
G02*
X146182000Y-83392000I0J75000D01*
G01*
G37*
G36*
G01*
X146682000Y-83392000D02*
X146682000Y-82067000D01*
G75*
G02*
X146757000Y-81992000I75000J0D01*
G01*
X146907000Y-81992000D01*
G75*
G02*
X146982000Y-82067000I0J-75000D01*
G01*
X146982000Y-83392000D01*
G75*
G02*
X146907000Y-83467000I-75000J0D01*
G01*
X146757000Y-83467000D01*
G75*
G02*
X146682000Y-83392000I0J75000D01*
G01*
G37*
G36*
G01*
X147182000Y-83392000D02*
X147182000Y-82067000D01*
G75*
G02*
X147257000Y-81992000I75000J0D01*
G01*
X147407000Y-81992000D01*
G75*
G02*
X147482000Y-82067000I0J-75000D01*
G01*
X147482000Y-83392000D01*
G75*
G02*
X147407000Y-83467000I-75000J0D01*
G01*
X147257000Y-83467000D01*
G75*
G02*
X147182000Y-83392000I0J75000D01*
G01*
G37*
G36*
G01*
X147682000Y-83392000D02*
X147682000Y-82067000D01*
G75*
G02*
X147757000Y-81992000I75000J0D01*
G01*
X147907000Y-81992000D01*
G75*
G02*
X147982000Y-82067000I0J-75000D01*
G01*
X147982000Y-83392000D01*
G75*
G02*
X147907000Y-83467000I-75000J0D01*
G01*
X147757000Y-83467000D01*
G75*
G02*
X147682000Y-83392000I0J75000D01*
G01*
G37*
G36*
G01*
X148182000Y-83392000D02*
X148182000Y-82067000D01*
G75*
G02*
X148257000Y-81992000I75000J0D01*
G01*
X148407000Y-81992000D01*
G75*
G02*
X148482000Y-82067000I0J-75000D01*
G01*
X148482000Y-83392000D01*
G75*
G02*
X148407000Y-83467000I-75000J0D01*
G01*
X148257000Y-83467000D01*
G75*
G02*
X148182000Y-83392000I0J75000D01*
G01*
G37*
G36*
G01*
X148682000Y-83392000D02*
X148682000Y-82067000D01*
G75*
G02*
X148757000Y-81992000I75000J0D01*
G01*
X148907000Y-81992000D01*
G75*
G02*
X148982000Y-82067000I0J-75000D01*
G01*
X148982000Y-83392000D01*
G75*
G02*
X148907000Y-83467000I-75000J0D01*
G01*
X148757000Y-83467000D01*
G75*
G02*
X148682000Y-83392000I0J75000D01*
G01*
G37*
G36*
G01*
X149182000Y-83392000D02*
X149182000Y-82067000D01*
G75*
G02*
X149257000Y-81992000I75000J0D01*
G01*
X149407000Y-81992000D01*
G75*
G02*
X149482000Y-82067000I0J-75000D01*
G01*
X149482000Y-83392000D01*
G75*
G02*
X149407000Y-83467000I-75000J0D01*
G01*
X149257000Y-83467000D01*
G75*
G02*
X149182000Y-83392000I0J75000D01*
G01*
G37*
G36*
G01*
X149682000Y-83392000D02*
X149682000Y-82067000D01*
G75*
G02*
X149757000Y-81992000I75000J0D01*
G01*
X149907000Y-81992000D01*
G75*
G02*
X149982000Y-82067000I0J-75000D01*
G01*
X149982000Y-83392000D01*
G75*
G02*
X149907000Y-83467000I-75000J0D01*
G01*
X149757000Y-83467000D01*
G75*
G02*
X149682000Y-83392000I0J75000D01*
G01*
G37*
G36*
G01*
X150182000Y-83392000D02*
X150182000Y-82067000D01*
G75*
G02*
X150257000Y-81992000I75000J0D01*
G01*
X150407000Y-81992000D01*
G75*
G02*
X150482000Y-82067000I0J-75000D01*
G01*
X150482000Y-83392000D01*
G75*
G02*
X150407000Y-83467000I-75000J0D01*
G01*
X150257000Y-83467000D01*
G75*
G02*
X150182000Y-83392000I0J75000D01*
G01*
G37*
G36*
G01*
X150682000Y-83392000D02*
X150682000Y-82067000D01*
G75*
G02*
X150757000Y-81992000I75000J0D01*
G01*
X150907000Y-81992000D01*
G75*
G02*
X150982000Y-82067000I0J-75000D01*
G01*
X150982000Y-83392000D01*
G75*
G02*
X150907000Y-83467000I-75000J0D01*
G01*
X150757000Y-83467000D01*
G75*
G02*
X150682000Y-83392000I0J75000D01*
G01*
G37*
G36*
G01*
X151182000Y-83392000D02*
X151182000Y-82067000D01*
G75*
G02*
X151257000Y-81992000I75000J0D01*
G01*
X151407000Y-81992000D01*
G75*
G02*
X151482000Y-82067000I0J-75000D01*
G01*
X151482000Y-83392000D01*
G75*
G02*
X151407000Y-83467000I-75000J0D01*
G01*
X151257000Y-83467000D01*
G75*
G02*
X151182000Y-83392000I0J75000D01*
G01*
G37*
G36*
G01*
X151682000Y-83392000D02*
X151682000Y-82067000D01*
G75*
G02*
X151757000Y-81992000I75000J0D01*
G01*
X151907000Y-81992000D01*
G75*
G02*
X151982000Y-82067000I0J-75000D01*
G01*
X151982000Y-83392000D01*
G75*
G02*
X151907000Y-83467000I-75000J0D01*
G01*
X151757000Y-83467000D01*
G75*
G02*
X151682000Y-83392000I0J75000D01*
G01*
G37*
G36*
G01*
X153007000Y-84717000D02*
X153007000Y-84567000D01*
G75*
G02*
X153082000Y-84492000I75000J0D01*
G01*
X154407000Y-84492000D01*
G75*
G02*
X154482000Y-84567000I0J-75000D01*
G01*
X154482000Y-84717000D01*
G75*
G02*
X154407000Y-84792000I-75000J0D01*
G01*
X153082000Y-84792000D01*
G75*
G02*
X153007000Y-84717000I0J75000D01*
G01*
G37*
G36*
G01*
X153007000Y-85217000D02*
X153007000Y-85067000D01*
G75*
G02*
X153082000Y-84992000I75000J0D01*
G01*
X154407000Y-84992000D01*
G75*
G02*
X154482000Y-85067000I0J-75000D01*
G01*
X154482000Y-85217000D01*
G75*
G02*
X154407000Y-85292000I-75000J0D01*
G01*
X153082000Y-85292000D01*
G75*
G02*
X153007000Y-85217000I0J75000D01*
G01*
G37*
G36*
G01*
X153007000Y-85717000D02*
X153007000Y-85567000D01*
G75*
G02*
X153082000Y-85492000I75000J0D01*
G01*
X154407000Y-85492000D01*
G75*
G02*
X154482000Y-85567000I0J-75000D01*
G01*
X154482000Y-85717000D01*
G75*
G02*
X154407000Y-85792000I-75000J0D01*
G01*
X153082000Y-85792000D01*
G75*
G02*
X153007000Y-85717000I0J75000D01*
G01*
G37*
G36*
G01*
X153007000Y-86217000D02*
X153007000Y-86067000D01*
G75*
G02*
X153082000Y-85992000I75000J0D01*
G01*
X154407000Y-85992000D01*
G75*
G02*
X154482000Y-86067000I0J-75000D01*
G01*
X154482000Y-86217000D01*
G75*
G02*
X154407000Y-86292000I-75000J0D01*
G01*
X153082000Y-86292000D01*
G75*
G02*
X153007000Y-86217000I0J75000D01*
G01*
G37*
G36*
G01*
X153007000Y-86717000D02*
X153007000Y-86567000D01*
G75*
G02*
X153082000Y-86492000I75000J0D01*
G01*
X154407000Y-86492000D01*
G75*
G02*
X154482000Y-86567000I0J-75000D01*
G01*
X154482000Y-86717000D01*
G75*
G02*
X154407000Y-86792000I-75000J0D01*
G01*
X153082000Y-86792000D01*
G75*
G02*
X153007000Y-86717000I0J75000D01*
G01*
G37*
G36*
G01*
X153007000Y-87217000D02*
X153007000Y-87067000D01*
G75*
G02*
X153082000Y-86992000I75000J0D01*
G01*
X154407000Y-86992000D01*
G75*
G02*
X154482000Y-87067000I0J-75000D01*
G01*
X154482000Y-87217000D01*
G75*
G02*
X154407000Y-87292000I-75000J0D01*
G01*
X153082000Y-87292000D01*
G75*
G02*
X153007000Y-87217000I0J75000D01*
G01*
G37*
G36*
G01*
X153007000Y-87717000D02*
X153007000Y-87567000D01*
G75*
G02*
X153082000Y-87492000I75000J0D01*
G01*
X154407000Y-87492000D01*
G75*
G02*
X154482000Y-87567000I0J-75000D01*
G01*
X154482000Y-87717000D01*
G75*
G02*
X154407000Y-87792000I-75000J0D01*
G01*
X153082000Y-87792000D01*
G75*
G02*
X153007000Y-87717000I0J75000D01*
G01*
G37*
G36*
G01*
X153007000Y-88217000D02*
X153007000Y-88067000D01*
G75*
G02*
X153082000Y-87992000I75000J0D01*
G01*
X154407000Y-87992000D01*
G75*
G02*
X154482000Y-88067000I0J-75000D01*
G01*
X154482000Y-88217000D01*
G75*
G02*
X154407000Y-88292000I-75000J0D01*
G01*
X153082000Y-88292000D01*
G75*
G02*
X153007000Y-88217000I0J75000D01*
G01*
G37*
G36*
G01*
X153007000Y-88717000D02*
X153007000Y-88567000D01*
G75*
G02*
X153082000Y-88492000I75000J0D01*
G01*
X154407000Y-88492000D01*
G75*
G02*
X154482000Y-88567000I0J-75000D01*
G01*
X154482000Y-88717000D01*
G75*
G02*
X154407000Y-88792000I-75000J0D01*
G01*
X153082000Y-88792000D01*
G75*
G02*
X153007000Y-88717000I0J75000D01*
G01*
G37*
G36*
G01*
X153007000Y-89217000D02*
X153007000Y-89067000D01*
G75*
G02*
X153082000Y-88992000I75000J0D01*
G01*
X154407000Y-88992000D01*
G75*
G02*
X154482000Y-89067000I0J-75000D01*
G01*
X154482000Y-89217000D01*
G75*
G02*
X154407000Y-89292000I-75000J0D01*
G01*
X153082000Y-89292000D01*
G75*
G02*
X153007000Y-89217000I0J75000D01*
G01*
G37*
G36*
G01*
X153007000Y-89717000D02*
X153007000Y-89567000D01*
G75*
G02*
X153082000Y-89492000I75000J0D01*
G01*
X154407000Y-89492000D01*
G75*
G02*
X154482000Y-89567000I0J-75000D01*
G01*
X154482000Y-89717000D01*
G75*
G02*
X154407000Y-89792000I-75000J0D01*
G01*
X153082000Y-89792000D01*
G75*
G02*
X153007000Y-89717000I0J75000D01*
G01*
G37*
G36*
G01*
X153007000Y-90217000D02*
X153007000Y-90067000D01*
G75*
G02*
X153082000Y-89992000I75000J0D01*
G01*
X154407000Y-89992000D01*
G75*
G02*
X154482000Y-90067000I0J-75000D01*
G01*
X154482000Y-90217000D01*
G75*
G02*
X154407000Y-90292000I-75000J0D01*
G01*
X153082000Y-90292000D01*
G75*
G02*
X153007000Y-90217000I0J75000D01*
G01*
G37*
G36*
G01*
X153007000Y-90717000D02*
X153007000Y-90567000D01*
G75*
G02*
X153082000Y-90492000I75000J0D01*
G01*
X154407000Y-90492000D01*
G75*
G02*
X154482000Y-90567000I0J-75000D01*
G01*
X154482000Y-90717000D01*
G75*
G02*
X154407000Y-90792000I-75000J0D01*
G01*
X153082000Y-90792000D01*
G75*
G02*
X153007000Y-90717000I0J75000D01*
G01*
G37*
G36*
G01*
X153007000Y-91217000D02*
X153007000Y-91067000D01*
G75*
G02*
X153082000Y-90992000I75000J0D01*
G01*
X154407000Y-90992000D01*
G75*
G02*
X154482000Y-91067000I0J-75000D01*
G01*
X154482000Y-91217000D01*
G75*
G02*
X154407000Y-91292000I-75000J0D01*
G01*
X153082000Y-91292000D01*
G75*
G02*
X153007000Y-91217000I0J75000D01*
G01*
G37*
G36*
G01*
X153007000Y-91717000D02*
X153007000Y-91567000D01*
G75*
G02*
X153082000Y-91492000I75000J0D01*
G01*
X154407000Y-91492000D01*
G75*
G02*
X154482000Y-91567000I0J-75000D01*
G01*
X154482000Y-91717000D01*
G75*
G02*
X154407000Y-91792000I-75000J0D01*
G01*
X153082000Y-91792000D01*
G75*
G02*
X153007000Y-91717000I0J75000D01*
G01*
G37*
G36*
G01*
X153007000Y-92217000D02*
X153007000Y-92067000D01*
G75*
G02*
X153082000Y-91992000I75000J0D01*
G01*
X154407000Y-91992000D01*
G75*
G02*
X154482000Y-92067000I0J-75000D01*
G01*
X154482000Y-92217000D01*
G75*
G02*
X154407000Y-92292000I-75000J0D01*
G01*
X153082000Y-92292000D01*
G75*
G02*
X153007000Y-92217000I0J75000D01*
G01*
G37*
G36*
G01*
X151682000Y-94717000D02*
X151682000Y-93392000D01*
G75*
G02*
X151757000Y-93317000I75000J0D01*
G01*
X151907000Y-93317000D01*
G75*
G02*
X151982000Y-93392000I0J-75000D01*
G01*
X151982000Y-94717000D01*
G75*
G02*
X151907000Y-94792000I-75000J0D01*
G01*
X151757000Y-94792000D01*
G75*
G02*
X151682000Y-94717000I0J75000D01*
G01*
G37*
G36*
G01*
X151182000Y-94717000D02*
X151182000Y-93392000D01*
G75*
G02*
X151257000Y-93317000I75000J0D01*
G01*
X151407000Y-93317000D01*
G75*
G02*
X151482000Y-93392000I0J-75000D01*
G01*
X151482000Y-94717000D01*
G75*
G02*
X151407000Y-94792000I-75000J0D01*
G01*
X151257000Y-94792000D01*
G75*
G02*
X151182000Y-94717000I0J75000D01*
G01*
G37*
G36*
G01*
X150682000Y-94717000D02*
X150682000Y-93392000D01*
G75*
G02*
X150757000Y-93317000I75000J0D01*
G01*
X150907000Y-93317000D01*
G75*
G02*
X150982000Y-93392000I0J-75000D01*
G01*
X150982000Y-94717000D01*
G75*
G02*
X150907000Y-94792000I-75000J0D01*
G01*
X150757000Y-94792000D01*
G75*
G02*
X150682000Y-94717000I0J75000D01*
G01*
G37*
G36*
G01*
X150182000Y-94717000D02*
X150182000Y-93392000D01*
G75*
G02*
X150257000Y-93317000I75000J0D01*
G01*
X150407000Y-93317000D01*
G75*
G02*
X150482000Y-93392000I0J-75000D01*
G01*
X150482000Y-94717000D01*
G75*
G02*
X150407000Y-94792000I-75000J0D01*
G01*
X150257000Y-94792000D01*
G75*
G02*
X150182000Y-94717000I0J75000D01*
G01*
G37*
G36*
G01*
X149682000Y-94717000D02*
X149682000Y-93392000D01*
G75*
G02*
X149757000Y-93317000I75000J0D01*
G01*
X149907000Y-93317000D01*
G75*
G02*
X149982000Y-93392000I0J-75000D01*
G01*
X149982000Y-94717000D01*
G75*
G02*
X149907000Y-94792000I-75000J0D01*
G01*
X149757000Y-94792000D01*
G75*
G02*
X149682000Y-94717000I0J75000D01*
G01*
G37*
G36*
G01*
X149182000Y-94717000D02*
X149182000Y-93392000D01*
G75*
G02*
X149257000Y-93317000I75000J0D01*
G01*
X149407000Y-93317000D01*
G75*
G02*
X149482000Y-93392000I0J-75000D01*
G01*
X149482000Y-94717000D01*
G75*
G02*
X149407000Y-94792000I-75000J0D01*
G01*
X149257000Y-94792000D01*
G75*
G02*
X149182000Y-94717000I0J75000D01*
G01*
G37*
G36*
G01*
X148682000Y-94717000D02*
X148682000Y-93392000D01*
G75*
G02*
X148757000Y-93317000I75000J0D01*
G01*
X148907000Y-93317000D01*
G75*
G02*
X148982000Y-93392000I0J-75000D01*
G01*
X148982000Y-94717000D01*
G75*
G02*
X148907000Y-94792000I-75000J0D01*
G01*
X148757000Y-94792000D01*
G75*
G02*
X148682000Y-94717000I0J75000D01*
G01*
G37*
G36*
G01*
X148182000Y-94717000D02*
X148182000Y-93392000D01*
G75*
G02*
X148257000Y-93317000I75000J0D01*
G01*
X148407000Y-93317000D01*
G75*
G02*
X148482000Y-93392000I0J-75000D01*
G01*
X148482000Y-94717000D01*
G75*
G02*
X148407000Y-94792000I-75000J0D01*
G01*
X148257000Y-94792000D01*
G75*
G02*
X148182000Y-94717000I0J75000D01*
G01*
G37*
G36*
G01*
X147682000Y-94717000D02*
X147682000Y-93392000D01*
G75*
G02*
X147757000Y-93317000I75000J0D01*
G01*
X147907000Y-93317000D01*
G75*
G02*
X147982000Y-93392000I0J-75000D01*
G01*
X147982000Y-94717000D01*
G75*
G02*
X147907000Y-94792000I-75000J0D01*
G01*
X147757000Y-94792000D01*
G75*
G02*
X147682000Y-94717000I0J75000D01*
G01*
G37*
G36*
G01*
X147182000Y-94717000D02*
X147182000Y-93392000D01*
G75*
G02*
X147257000Y-93317000I75000J0D01*
G01*
X147407000Y-93317000D01*
G75*
G02*
X147482000Y-93392000I0J-75000D01*
G01*
X147482000Y-94717000D01*
G75*
G02*
X147407000Y-94792000I-75000J0D01*
G01*
X147257000Y-94792000D01*
G75*
G02*
X147182000Y-94717000I0J75000D01*
G01*
G37*
G36*
G01*
X146682000Y-94717000D02*
X146682000Y-93392000D01*
G75*
G02*
X146757000Y-93317000I75000J0D01*
G01*
X146907000Y-93317000D01*
G75*
G02*
X146982000Y-93392000I0J-75000D01*
G01*
X146982000Y-94717000D01*
G75*
G02*
X146907000Y-94792000I-75000J0D01*
G01*
X146757000Y-94792000D01*
G75*
G02*
X146682000Y-94717000I0J75000D01*
G01*
G37*
G36*
G01*
X146182000Y-94717000D02*
X146182000Y-93392000D01*
G75*
G02*
X146257000Y-93317000I75000J0D01*
G01*
X146407000Y-93317000D01*
G75*
G02*
X146482000Y-93392000I0J-75000D01*
G01*
X146482000Y-94717000D01*
G75*
G02*
X146407000Y-94792000I-75000J0D01*
G01*
X146257000Y-94792000D01*
G75*
G02*
X146182000Y-94717000I0J75000D01*
G01*
G37*
G36*
G01*
X145682000Y-94717000D02*
X145682000Y-93392000D01*
G75*
G02*
X145757000Y-93317000I75000J0D01*
G01*
X145907000Y-93317000D01*
G75*
G02*
X145982000Y-93392000I0J-75000D01*
G01*
X145982000Y-94717000D01*
G75*
G02*
X145907000Y-94792000I-75000J0D01*
G01*
X145757000Y-94792000D01*
G75*
G02*
X145682000Y-94717000I0J75000D01*
G01*
G37*
G36*
G01*
X145182000Y-94717000D02*
X145182000Y-93392000D01*
G75*
G02*
X145257000Y-93317000I75000J0D01*
G01*
X145407000Y-93317000D01*
G75*
G02*
X145482000Y-93392000I0J-75000D01*
G01*
X145482000Y-94717000D01*
G75*
G02*
X145407000Y-94792000I-75000J0D01*
G01*
X145257000Y-94792000D01*
G75*
G02*
X145182000Y-94717000I0J75000D01*
G01*
G37*
G36*
G01*
X144682000Y-94717000D02*
X144682000Y-93392000D01*
G75*
G02*
X144757000Y-93317000I75000J0D01*
G01*
X144907000Y-93317000D01*
G75*
G02*
X144982000Y-93392000I0J-75000D01*
G01*
X144982000Y-94717000D01*
G75*
G02*
X144907000Y-94792000I-75000J0D01*
G01*
X144757000Y-94792000D01*
G75*
G02*
X144682000Y-94717000I0J75000D01*
G01*
G37*
G36*
G01*
X144182000Y-94717000D02*
X144182000Y-93392000D01*
G75*
G02*
X144257000Y-93317000I75000J0D01*
G01*
X144407000Y-93317000D01*
G75*
G02*
X144482000Y-93392000I0J-75000D01*
G01*
X144482000Y-94717000D01*
G75*
G02*
X144407000Y-94792000I-75000J0D01*
G01*
X144257000Y-94792000D01*
G75*
G02*
X144182000Y-94717000I0J75000D01*
G01*
G37*
G36*
G01*
X141682000Y-92217000D02*
X141682000Y-92067000D01*
G75*
G02*
X141757000Y-91992000I75000J0D01*
G01*
X143082000Y-91992000D01*
G75*
G02*
X143157000Y-92067000I0J-75000D01*
G01*
X143157000Y-92217000D01*
G75*
G02*
X143082000Y-92292000I-75000J0D01*
G01*
X141757000Y-92292000D01*
G75*
G02*
X141682000Y-92217000I0J75000D01*
G01*
G37*
G36*
G01*
X141682000Y-91717000D02*
X141682000Y-91567000D01*
G75*
G02*
X141757000Y-91492000I75000J0D01*
G01*
X143082000Y-91492000D01*
G75*
G02*
X143157000Y-91567000I0J-75000D01*
G01*
X143157000Y-91717000D01*
G75*
G02*
X143082000Y-91792000I-75000J0D01*
G01*
X141757000Y-91792000D01*
G75*
G02*
X141682000Y-91717000I0J75000D01*
G01*
G37*
G36*
G01*
X141682000Y-91217000D02*
X141682000Y-91067000D01*
G75*
G02*
X141757000Y-90992000I75000J0D01*
G01*
X143082000Y-90992000D01*
G75*
G02*
X143157000Y-91067000I0J-75000D01*
G01*
X143157000Y-91217000D01*
G75*
G02*
X143082000Y-91292000I-75000J0D01*
G01*
X141757000Y-91292000D01*
G75*
G02*
X141682000Y-91217000I0J75000D01*
G01*
G37*
G36*
G01*
X141682000Y-90717000D02*
X141682000Y-90567000D01*
G75*
G02*
X141757000Y-90492000I75000J0D01*
G01*
X143082000Y-90492000D01*
G75*
G02*
X143157000Y-90567000I0J-75000D01*
G01*
X143157000Y-90717000D01*
G75*
G02*
X143082000Y-90792000I-75000J0D01*
G01*
X141757000Y-90792000D01*
G75*
G02*
X141682000Y-90717000I0J75000D01*
G01*
G37*
G36*
G01*
X141682000Y-90217000D02*
X141682000Y-90067000D01*
G75*
G02*
X141757000Y-89992000I75000J0D01*
G01*
X143082000Y-89992000D01*
G75*
G02*
X143157000Y-90067000I0J-75000D01*
G01*
X143157000Y-90217000D01*
G75*
G02*
X143082000Y-90292000I-75000J0D01*
G01*
X141757000Y-90292000D01*
G75*
G02*
X141682000Y-90217000I0J75000D01*
G01*
G37*
G36*
G01*
X141682000Y-89717000D02*
X141682000Y-89567000D01*
G75*
G02*
X141757000Y-89492000I75000J0D01*
G01*
X143082000Y-89492000D01*
G75*
G02*
X143157000Y-89567000I0J-75000D01*
G01*
X143157000Y-89717000D01*
G75*
G02*
X143082000Y-89792000I-75000J0D01*
G01*
X141757000Y-89792000D01*
G75*
G02*
X141682000Y-89717000I0J75000D01*
G01*
G37*
G36*
G01*
X141682000Y-89217000D02*
X141682000Y-89067000D01*
G75*
G02*
X141757000Y-88992000I75000J0D01*
G01*
X143082000Y-88992000D01*
G75*
G02*
X143157000Y-89067000I0J-75000D01*
G01*
X143157000Y-89217000D01*
G75*
G02*
X143082000Y-89292000I-75000J0D01*
G01*
X141757000Y-89292000D01*
G75*
G02*
X141682000Y-89217000I0J75000D01*
G01*
G37*
G36*
G01*
X141682000Y-88717000D02*
X141682000Y-88567000D01*
G75*
G02*
X141757000Y-88492000I75000J0D01*
G01*
X143082000Y-88492000D01*
G75*
G02*
X143157000Y-88567000I0J-75000D01*
G01*
X143157000Y-88717000D01*
G75*
G02*
X143082000Y-88792000I-75000J0D01*
G01*
X141757000Y-88792000D01*
G75*
G02*
X141682000Y-88717000I0J75000D01*
G01*
G37*
G36*
G01*
X141682000Y-88217000D02*
X141682000Y-88067000D01*
G75*
G02*
X141757000Y-87992000I75000J0D01*
G01*
X143082000Y-87992000D01*
G75*
G02*
X143157000Y-88067000I0J-75000D01*
G01*
X143157000Y-88217000D01*
G75*
G02*
X143082000Y-88292000I-75000J0D01*
G01*
X141757000Y-88292000D01*
G75*
G02*
X141682000Y-88217000I0J75000D01*
G01*
G37*
G36*
G01*
X141682000Y-87717000D02*
X141682000Y-87567000D01*
G75*
G02*
X141757000Y-87492000I75000J0D01*
G01*
X143082000Y-87492000D01*
G75*
G02*
X143157000Y-87567000I0J-75000D01*
G01*
X143157000Y-87717000D01*
G75*
G02*
X143082000Y-87792000I-75000J0D01*
G01*
X141757000Y-87792000D01*
G75*
G02*
X141682000Y-87717000I0J75000D01*
G01*
G37*
G36*
G01*
X141682000Y-87217000D02*
X141682000Y-87067000D01*
G75*
G02*
X141757000Y-86992000I75000J0D01*
G01*
X143082000Y-86992000D01*
G75*
G02*
X143157000Y-87067000I0J-75000D01*
G01*
X143157000Y-87217000D01*
G75*
G02*
X143082000Y-87292000I-75000J0D01*
G01*
X141757000Y-87292000D01*
G75*
G02*
X141682000Y-87217000I0J75000D01*
G01*
G37*
G36*
G01*
X141682000Y-86717000D02*
X141682000Y-86567000D01*
G75*
G02*
X141757000Y-86492000I75000J0D01*
G01*
X143082000Y-86492000D01*
G75*
G02*
X143157000Y-86567000I0J-75000D01*
G01*
X143157000Y-86717000D01*
G75*
G02*
X143082000Y-86792000I-75000J0D01*
G01*
X141757000Y-86792000D01*
G75*
G02*
X141682000Y-86717000I0J75000D01*
G01*
G37*
G36*
G01*
X141682000Y-86217000D02*
X141682000Y-86067000D01*
G75*
G02*
X141757000Y-85992000I75000J0D01*
G01*
X143082000Y-85992000D01*
G75*
G02*
X143157000Y-86067000I0J-75000D01*
G01*
X143157000Y-86217000D01*
G75*
G02*
X143082000Y-86292000I-75000J0D01*
G01*
X141757000Y-86292000D01*
G75*
G02*
X141682000Y-86217000I0J75000D01*
G01*
G37*
G36*
G01*
X141682000Y-85717000D02*
X141682000Y-85567000D01*
G75*
G02*
X141757000Y-85492000I75000J0D01*
G01*
X143082000Y-85492000D01*
G75*
G02*
X143157000Y-85567000I0J-75000D01*
G01*
X143157000Y-85717000D01*
G75*
G02*
X143082000Y-85792000I-75000J0D01*
G01*
X141757000Y-85792000D01*
G75*
G02*
X141682000Y-85717000I0J75000D01*
G01*
G37*
G36*
G01*
X141682000Y-85217000D02*
X141682000Y-85067000D01*
G75*
G02*
X141757000Y-84992000I75000J0D01*
G01*
X143082000Y-84992000D01*
G75*
G02*
X143157000Y-85067000I0J-75000D01*
G01*
X143157000Y-85217000D01*
G75*
G02*
X143082000Y-85292000I-75000J0D01*
G01*
X141757000Y-85292000D01*
G75*
G02*
X141682000Y-85217000I0J75000D01*
G01*
G37*
G36*
G01*
X141682000Y-84717000D02*
X141682000Y-84567000D01*
G75*
G02*
X141757000Y-84492000I75000J0D01*
G01*
X143082000Y-84492000D01*
G75*
G02*
X143157000Y-84567000I0J-75000D01*
G01*
X143157000Y-84717000D01*
G75*
G02*
X143082000Y-84792000I-75000J0D01*
G01*
X141757000Y-84792000D01*
G75*
G02*
X141682000Y-84717000I0J75000D01*
G01*
G37*
%TD*%
%TO.C,ON*%
G36*
G01*
X138313000Y-81547000D02*
X139563000Y-81547000D01*
G75*
G02*
X139813000Y-81797000I0J-250000D01*
G01*
X139813000Y-82547000D01*
G75*
G02*
X139563000Y-82797000I-250000J0D01*
G01*
X138313000Y-82797000D01*
G75*
G02*
X138063000Y-82547000I0J250000D01*
G01*
X138063000Y-81797000D01*
G75*
G02*
X138313000Y-81547000I250000J0D01*
G01*
G37*
G36*
G01*
X138313000Y-78747000D02*
X139563000Y-78747000D01*
G75*
G02*
X139813000Y-78997000I0J-250000D01*
G01*
X139813000Y-79747000D01*
G75*
G02*
X139563000Y-79997000I-250000J0D01*
G01*
X138313000Y-79997000D01*
G75*
G02*
X138063000Y-79747000I0J250000D01*
G01*
X138063000Y-78997000D01*
G75*
G02*
X138313000Y-78747000I250000J0D01*
G01*
G37*
%TD*%
D19*
%TO.C,D1*%
X130048000Y-67690000D03*
X130048000Y-64390000D03*
%TD*%
%TO.C,Css1*%
G36*
G01*
X116443999Y-75068000D02*
X117744001Y-75068000D01*
G75*
G02*
X117994000Y-75317999I0J-249999D01*
G01*
X117994000Y-75968001D01*
G75*
G02*
X117744001Y-76218000I-249999J0D01*
G01*
X116443999Y-76218000D01*
G75*
G02*
X116194000Y-75968001I0J249999D01*
G01*
X116194000Y-75317999D01*
G75*
G02*
X116443999Y-75068000I249999J0D01*
G01*
G37*
G36*
G01*
X116443999Y-72118000D02*
X117744001Y-72118000D01*
G75*
G02*
X117994000Y-72367999I0J-249999D01*
G01*
X117994000Y-73018001D01*
G75*
G02*
X117744001Y-73268000I-249999J0D01*
G01*
X116443999Y-73268000D01*
G75*
G02*
X116194000Y-73018001I0J249999D01*
G01*
X116194000Y-72367999D01*
G75*
G02*
X116443999Y-72118000I249999J0D01*
G01*
G37*
%TD*%
%TO.C,C11*%
G36*
G01*
X137779999Y-66940000D02*
X139080001Y-66940000D01*
G75*
G02*
X139330000Y-67189999I0J-249999D01*
G01*
X139330000Y-67840001D01*
G75*
G02*
X139080001Y-68090000I-249999J0D01*
G01*
X137779999Y-68090000D01*
G75*
G02*
X137530000Y-67840001I0J249999D01*
G01*
X137530000Y-67189999D01*
G75*
G02*
X137779999Y-66940000I249999J0D01*
G01*
G37*
G36*
G01*
X137779999Y-63990000D02*
X139080001Y-63990000D01*
G75*
G02*
X139330000Y-64239999I0J-249999D01*
G01*
X139330000Y-64890001D01*
G75*
G02*
X139080001Y-65140000I-249999J0D01*
G01*
X137779999Y-65140000D01*
G75*
G02*
X137530000Y-64890001I0J249999D01*
G01*
X137530000Y-64239999D01*
G75*
G02*
X137779999Y-63990000I249999J0D01*
G01*
G37*
%TD*%
%TO.C,C10*%
G36*
G01*
X130698001Y-70474000D02*
X129397999Y-70474000D01*
G75*
G02*
X129148000Y-70224001I0J249999D01*
G01*
X129148000Y-69573999D01*
G75*
G02*
X129397999Y-69324000I249999J0D01*
G01*
X130698001Y-69324000D01*
G75*
G02*
X130948000Y-69573999I0J-249999D01*
G01*
X130948000Y-70224001D01*
G75*
G02*
X130698001Y-70474000I-249999J0D01*
G01*
G37*
G36*
G01*
X130698001Y-73424000D02*
X129397999Y-73424000D01*
G75*
G02*
X129148000Y-73174001I0J249999D01*
G01*
X129148000Y-72523999D01*
G75*
G02*
X129397999Y-72274000I249999J0D01*
G01*
X130698001Y-72274000D01*
G75*
G02*
X130948000Y-72523999I0J-249999D01*
G01*
X130948000Y-73174001D01*
G75*
G02*
X130698001Y-73424000I-249999J0D01*
G01*
G37*
%TD*%
%TO.C,C9*%
G36*
G01*
X132218000Y-76088001D02*
X132218000Y-74787999D01*
G75*
G02*
X132467999Y-74538000I249999J0D01*
G01*
X133118001Y-74538000D01*
G75*
G02*
X133368000Y-74787999I0J-249999D01*
G01*
X133368000Y-76088001D01*
G75*
G02*
X133118001Y-76338000I-249999J0D01*
G01*
X132467999Y-76338000D01*
G75*
G02*
X132218000Y-76088001I0J249999D01*
G01*
G37*
G36*
G01*
X129268000Y-76088001D02*
X129268000Y-74787999D01*
G75*
G02*
X129517999Y-74538000I249999J0D01*
G01*
X130168001Y-74538000D01*
G75*
G02*
X130418000Y-74787999I0J-249999D01*
G01*
X130418000Y-76088001D01*
G75*
G02*
X130168001Y-76338000I-249999J0D01*
G01*
X129517999Y-76338000D01*
G75*
G02*
X129268000Y-76088001I0J249999D01*
G01*
G37*
%TD*%
%TO.C,C8*%
G36*
G01*
X122036000Y-65135999D02*
X122036000Y-66436001D01*
G75*
G02*
X121786001Y-66686000I-249999J0D01*
G01*
X121135999Y-66686000D01*
G75*
G02*
X120886000Y-66436001I0J249999D01*
G01*
X120886000Y-65135999D01*
G75*
G02*
X121135999Y-64886000I249999J0D01*
G01*
X121786001Y-64886000D01*
G75*
G02*
X122036000Y-65135999I0J-249999D01*
G01*
G37*
G36*
G01*
X124986000Y-65135999D02*
X124986000Y-66436001D01*
G75*
G02*
X124736001Y-66686000I-249999J0D01*
G01*
X124085999Y-66686000D01*
G75*
G02*
X123836000Y-66436001I0J249999D01*
G01*
X123836000Y-65135999D01*
G75*
G02*
X124085999Y-64886000I249999J0D01*
G01*
X124736001Y-64886000D01*
G75*
G02*
X124986000Y-65135999I0J-249999D01*
G01*
G37*
%TD*%
%TO.C,C7*%
G36*
G01*
X116982001Y-67934000D02*
X115681999Y-67934000D01*
G75*
G02*
X115432000Y-67684001I0J249999D01*
G01*
X115432000Y-67033999D01*
G75*
G02*
X115681999Y-66784000I249999J0D01*
G01*
X116982001Y-66784000D01*
G75*
G02*
X117232000Y-67033999I0J-249999D01*
G01*
X117232000Y-67684001D01*
G75*
G02*
X116982001Y-67934000I-249999J0D01*
G01*
G37*
G36*
G01*
X116982001Y-70884000D02*
X115681999Y-70884000D01*
G75*
G02*
X115432000Y-70634001I0J249999D01*
G01*
X115432000Y-69983999D01*
G75*
G02*
X115681999Y-69734000I249999J0D01*
G01*
X116982001Y-69734000D01*
G75*
G02*
X117232000Y-69983999I0J-249999D01*
G01*
X117232000Y-70634001D01*
G75*
G02*
X116982001Y-70884000I-249999J0D01*
G01*
G37*
%TD*%
%TO.C,C5*%
G36*
G01*
X150225999Y-99706000D02*
X151526001Y-99706000D01*
G75*
G02*
X151776000Y-99955999I0J-249999D01*
G01*
X151776000Y-100606001D01*
G75*
G02*
X151526001Y-100856000I-249999J0D01*
G01*
X150225999Y-100856000D01*
G75*
G02*
X149976000Y-100606001I0J249999D01*
G01*
X149976000Y-99955999D01*
G75*
G02*
X150225999Y-99706000I249999J0D01*
G01*
G37*
G36*
G01*
X150225999Y-96756000D02*
X151526001Y-96756000D01*
G75*
G02*
X151776000Y-97005999I0J-249999D01*
G01*
X151776000Y-97656001D01*
G75*
G02*
X151526001Y-97906000I-249999J0D01*
G01*
X150225999Y-97906000D01*
G75*
G02*
X149976000Y-97656001I0J249999D01*
G01*
X149976000Y-97005999D01*
G75*
G02*
X150225999Y-96756000I249999J0D01*
G01*
G37*
%TD*%
%TO.C,C3*%
G36*
G01*
X141589999Y-75830000D02*
X142890001Y-75830000D01*
G75*
G02*
X143140000Y-76079999I0J-249999D01*
G01*
X143140000Y-76730001D01*
G75*
G02*
X142890001Y-76980000I-249999J0D01*
G01*
X141589999Y-76980000D01*
G75*
G02*
X141340000Y-76730001I0J249999D01*
G01*
X141340000Y-76079999D01*
G75*
G02*
X141589999Y-75830000I249999J0D01*
G01*
G37*
G36*
G01*
X141589999Y-72880000D02*
X142890001Y-72880000D01*
G75*
G02*
X143140000Y-73129999I0J-249999D01*
G01*
X143140000Y-73780001D01*
G75*
G02*
X142890001Y-74030000I-249999J0D01*
G01*
X141589999Y-74030000D01*
G75*
G02*
X141340000Y-73780001I0J249999D01*
G01*
X141340000Y-73129999D01*
G75*
G02*
X141589999Y-72880000I249999J0D01*
G01*
G37*
%TD*%
%TO.C,C2*%
G36*
G01*
X144156000Y-98440001D02*
X144156000Y-97139999D01*
G75*
G02*
X144405999Y-96890000I249999J0D01*
G01*
X145056001Y-96890000D01*
G75*
G02*
X145306000Y-97139999I0J-249999D01*
G01*
X145306000Y-98440001D01*
G75*
G02*
X145056001Y-98690000I-249999J0D01*
G01*
X144405999Y-98690000D01*
G75*
G02*
X144156000Y-98440001I0J249999D01*
G01*
G37*
G36*
G01*
X141206000Y-98440001D02*
X141206000Y-97139999D01*
G75*
G02*
X141455999Y-96890000I249999J0D01*
G01*
X142106001Y-96890000D01*
G75*
G02*
X142356000Y-97139999I0J-249999D01*
G01*
X142356000Y-98440001D01*
G75*
G02*
X142106001Y-98690000I-249999J0D01*
G01*
X141455999Y-98690000D01*
G75*
G02*
X141206000Y-98440001I0J249999D01*
G01*
G37*
%TD*%
%TO.C,C1*%
G36*
G01*
X137552000Y-90312001D02*
X137552000Y-89011999D01*
G75*
G02*
X137801999Y-88762000I249999J0D01*
G01*
X138452001Y-88762000D01*
G75*
G02*
X138702000Y-89011999I0J-249999D01*
G01*
X138702000Y-90312001D01*
G75*
G02*
X138452001Y-90562000I-249999J0D01*
G01*
X137801999Y-90562000D01*
G75*
G02*
X137552000Y-90312001I0J249999D01*
G01*
G37*
G36*
G01*
X134602000Y-90312001D02*
X134602000Y-89011999D01*
G75*
G02*
X134851999Y-88762000I249999J0D01*
G01*
X135502001Y-88762000D01*
G75*
G02*
X135752000Y-89011999I0J-249999D01*
G01*
X135752000Y-90312001D01*
G75*
G02*
X135502001Y-90562000I-249999J0D01*
G01*
X134851999Y-90562000D01*
G75*
G02*
X134602000Y-90312001I0J249999D01*
G01*
G37*
%TD*%
M02*
