%TF.GenerationSoftware,KiCad,Pcbnew,5.1.10-88a1d61d58~90~ubuntu21.04.1*%
%TF.CreationDate,2021-08-24T17:57:03+02:00*%
%TF.ProjectId,hendrik,68656e64-7269-46b2-9e6b-696361645f70,rev?*%
%TF.SameCoordinates,Original*%
%TF.FileFunction,Legend,Top*%
%TF.FilePolarity,Positive*%
%FSLAX46Y46*%
G04 Gerber Fmt 4.6, Leading zero omitted, Abs format (unit mm)*
G04 Created by KiCad (PCBNEW 5.1.10-88a1d61d58~90~ubuntu21.04.1) date 2021-08-24 17:57:03*
%MOMM*%
%LPD*%
G01*
G04 APERTURE LIST*
%ADD10C,0.120000*%
%ADD11C,0.150000*%
G04 APERTURE END LIST*
D10*
X156050476Y-69158095D02*
X156050476Y-69958095D01*
X155860000Y-69958095D01*
X155745714Y-69920000D01*
X155669523Y-69843809D01*
X155631428Y-69767619D01*
X155593333Y-69615238D01*
X155593333Y-69500952D01*
X155631428Y-69348571D01*
X155669523Y-69272380D01*
X155745714Y-69196190D01*
X155860000Y-69158095D01*
X156050476Y-69158095D01*
X155288571Y-69881904D02*
X155250476Y-69920000D01*
X155174285Y-69958095D01*
X154983809Y-69958095D01*
X154907619Y-69920000D01*
X154869523Y-69881904D01*
X154831428Y-69805714D01*
X154831428Y-69729523D01*
X154869523Y-69615238D01*
X155326666Y-69158095D01*
X154831428Y-69158095D01*
X155820476Y-62508095D02*
X155820476Y-63308095D01*
X155630000Y-63308095D01*
X155515714Y-63270000D01*
X155439523Y-63193809D01*
X155401428Y-63117619D01*
X155363333Y-62965238D01*
X155363333Y-62850952D01*
X155401428Y-62698571D01*
X155439523Y-62622380D01*
X155515714Y-62546190D01*
X155630000Y-62508095D01*
X155820476Y-62508095D01*
X154601428Y-62508095D02*
X155058571Y-62508095D01*
X154830000Y-62508095D02*
X154830000Y-63308095D01*
X154906190Y-63193809D01*
X154982380Y-63117619D01*
X155058571Y-63079523D01*
X167631904Y-72883333D02*
X167250952Y-73150000D01*
X167631904Y-73340476D02*
X166831904Y-73340476D01*
X166831904Y-73035714D01*
X166870000Y-72959523D01*
X166908095Y-72921428D01*
X166984285Y-72883333D01*
X167098571Y-72883333D01*
X167174761Y-72921428D01*
X167212857Y-72959523D01*
X167250952Y-73035714D01*
X167250952Y-73340476D01*
X166831904Y-72616666D02*
X167631904Y-72083333D01*
X166831904Y-72083333D02*
X167631904Y-72616666D01*
X166891904Y-70829523D02*
X166891904Y-70372380D01*
X167691904Y-70600952D02*
X166891904Y-70600952D01*
X166891904Y-70181904D02*
X167691904Y-69648571D01*
X166891904Y-69648571D02*
X167691904Y-70181904D01*
X160281904Y-90706666D02*
X161081904Y-90440000D01*
X160281904Y-90173333D01*
X161005714Y-89449523D02*
X161043809Y-89487619D01*
X161081904Y-89601904D01*
X161081904Y-89678095D01*
X161043809Y-89792380D01*
X160967619Y-89868571D01*
X160891428Y-89906666D01*
X160739047Y-89944761D01*
X160624761Y-89944761D01*
X160472380Y-89906666D01*
X160396190Y-89868571D01*
X160320000Y-89792380D01*
X160281904Y-89678095D01*
X160281904Y-89601904D01*
X160320000Y-89487619D01*
X160358095Y-89449523D01*
X161005714Y-88649523D02*
X161043809Y-88687619D01*
X161081904Y-88801904D01*
X161081904Y-88878095D01*
X161043809Y-88992380D01*
X160967619Y-89068571D01*
X160891428Y-89106666D01*
X160739047Y-89144761D01*
X160624761Y-89144761D01*
X160472380Y-89106666D01*
X160396190Y-89068571D01*
X160320000Y-88992380D01*
X160281904Y-88878095D01*
X160281904Y-88801904D01*
X160320000Y-88687619D01*
X160358095Y-88649523D01*
X166871904Y-90826666D02*
X167671904Y-90560000D01*
X166871904Y-90293333D01*
X167595714Y-89569523D02*
X167633809Y-89607619D01*
X167671904Y-89721904D01*
X167671904Y-89798095D01*
X167633809Y-89912380D01*
X167557619Y-89988571D01*
X167481428Y-90026666D01*
X167329047Y-90064761D01*
X167214761Y-90064761D01*
X167062380Y-90026666D01*
X166986190Y-89988571D01*
X166910000Y-89912380D01*
X166871904Y-89798095D01*
X166871904Y-89721904D01*
X166910000Y-89607619D01*
X166948095Y-89569523D01*
X167595714Y-88769523D02*
X167633809Y-88807619D01*
X167671904Y-88921904D01*
X167671904Y-88998095D01*
X167633809Y-89112380D01*
X167557619Y-89188571D01*
X167481428Y-89226666D01*
X167329047Y-89264761D01*
X167214761Y-89264761D01*
X167062380Y-89226666D01*
X166986190Y-89188571D01*
X166910000Y-89112380D01*
X166871904Y-88998095D01*
X166871904Y-88921904D01*
X166910000Y-88807619D01*
X166948095Y-88769523D01*
X161101904Y-95600952D02*
X160301904Y-95600952D01*
X161101904Y-94762857D02*
X160720952Y-95029523D01*
X161101904Y-95220000D02*
X160301904Y-95220000D01*
X160301904Y-94915238D01*
X160340000Y-94839047D01*
X160378095Y-94800952D01*
X160454285Y-94762857D01*
X160568571Y-94762857D01*
X160644761Y-94800952D01*
X160682857Y-94839047D01*
X160720952Y-94915238D01*
X160720952Y-95220000D01*
X160378095Y-94458095D02*
X160340000Y-94420000D01*
X160301904Y-94343809D01*
X160301904Y-94153333D01*
X160340000Y-94077142D01*
X160378095Y-94039047D01*
X160454285Y-94000952D01*
X160530476Y-94000952D01*
X160644761Y-94039047D01*
X161101904Y-94496190D01*
X161101904Y-94000952D01*
X161131904Y-88140952D02*
X160331904Y-88140952D01*
X161131904Y-87302857D02*
X160750952Y-87569523D01*
X161131904Y-87760000D02*
X160331904Y-87760000D01*
X160331904Y-87455238D01*
X160370000Y-87379047D01*
X160408095Y-87340952D01*
X160484285Y-87302857D01*
X160598571Y-87302857D01*
X160674761Y-87340952D01*
X160712857Y-87379047D01*
X160750952Y-87455238D01*
X160750952Y-87760000D01*
X160331904Y-87036190D02*
X160331904Y-86540952D01*
X160636666Y-86807619D01*
X160636666Y-86693333D01*
X160674761Y-86617142D01*
X160712857Y-86579047D01*
X160789047Y-86540952D01*
X160979523Y-86540952D01*
X161055714Y-86579047D01*
X161093809Y-86617142D01*
X161131904Y-86693333D01*
X161131904Y-86921904D01*
X161093809Y-86998095D01*
X161055714Y-87036190D01*
X167691904Y-88030952D02*
X166891904Y-88030952D01*
X167691904Y-87192857D02*
X167310952Y-87459523D01*
X167691904Y-87650000D02*
X166891904Y-87650000D01*
X166891904Y-87345238D01*
X166930000Y-87269047D01*
X166968095Y-87230952D01*
X167044285Y-87192857D01*
X167158571Y-87192857D01*
X167234761Y-87230952D01*
X167272857Y-87269047D01*
X167310952Y-87345238D01*
X167310952Y-87650000D01*
X167158571Y-86507142D02*
X167691904Y-86507142D01*
X166853809Y-86697619D02*
X167425238Y-86888095D01*
X167425238Y-86392857D01*
X167661904Y-95940952D02*
X166861904Y-95940952D01*
X167661904Y-95102857D02*
X167280952Y-95369523D01*
X167661904Y-95560000D02*
X166861904Y-95560000D01*
X166861904Y-95255238D01*
X166900000Y-95179047D01*
X166938095Y-95140952D01*
X167014285Y-95102857D01*
X167128571Y-95102857D01*
X167204761Y-95140952D01*
X167242857Y-95179047D01*
X167280952Y-95255238D01*
X167280952Y-95560000D01*
X167661904Y-94340952D02*
X167661904Y-94798095D01*
X167661904Y-94569523D02*
X166861904Y-94569523D01*
X166976190Y-94645714D01*
X167052380Y-94721904D01*
X167090476Y-94798095D01*
X167383809Y-105742380D02*
X167421904Y-105628095D01*
X167421904Y-105437619D01*
X167383809Y-105361428D01*
X167345714Y-105323333D01*
X167269523Y-105285238D01*
X167193333Y-105285238D01*
X167117142Y-105323333D01*
X167079047Y-105361428D01*
X167040952Y-105437619D01*
X167002857Y-105590000D01*
X166964761Y-105666190D01*
X166926666Y-105704285D01*
X166850476Y-105742380D01*
X166774285Y-105742380D01*
X166698095Y-105704285D01*
X166660000Y-105666190D01*
X166621904Y-105590000D01*
X166621904Y-105399523D01*
X166660000Y-105285238D01*
X167345714Y-104485238D02*
X167383809Y-104523333D01*
X167421904Y-104637619D01*
X167421904Y-104713809D01*
X167383809Y-104828095D01*
X167307619Y-104904285D01*
X167231428Y-104942380D01*
X167079047Y-104980476D01*
X166964761Y-104980476D01*
X166812380Y-104942380D01*
X166736190Y-104904285D01*
X166660000Y-104828095D01*
X166621904Y-104713809D01*
X166621904Y-104637619D01*
X166660000Y-104523333D01*
X166698095Y-104485238D01*
X167421904Y-103761428D02*
X167421904Y-104142380D01*
X166621904Y-104142380D01*
X167413809Y-108261428D02*
X167451904Y-108147142D01*
X167451904Y-107956666D01*
X167413809Y-107880476D01*
X167375714Y-107842380D01*
X167299523Y-107804285D01*
X167223333Y-107804285D01*
X167147142Y-107842380D01*
X167109047Y-107880476D01*
X167070952Y-107956666D01*
X167032857Y-108109047D01*
X166994761Y-108185238D01*
X166956666Y-108223333D01*
X166880476Y-108261428D01*
X166804285Y-108261428D01*
X166728095Y-108223333D01*
X166690000Y-108185238D01*
X166651904Y-108109047D01*
X166651904Y-107918571D01*
X166690000Y-107804285D01*
X167451904Y-107461428D02*
X166651904Y-107461428D01*
X166651904Y-107270952D01*
X166690000Y-107156666D01*
X166766190Y-107080476D01*
X166842380Y-107042380D01*
X166994761Y-107004285D01*
X167109047Y-107004285D01*
X167261428Y-107042380D01*
X167337619Y-107080476D01*
X167413809Y-107156666D01*
X167451904Y-107270952D01*
X167451904Y-107461428D01*
X167223333Y-106699523D02*
X167223333Y-106318571D01*
X167451904Y-106775714D02*
X166651904Y-106509047D01*
X167451904Y-106242380D01*
X167371904Y-114034761D02*
X166571904Y-114034761D01*
X167371904Y-113653809D02*
X166571904Y-113653809D01*
X167371904Y-113196666D01*
X166571904Y-113196666D01*
X166571904Y-112930000D02*
X166571904Y-112472857D01*
X167371904Y-112701428D02*
X166571904Y-112701428D01*
X167371904Y-111787142D02*
X167371904Y-112244285D01*
X167371904Y-112015714D02*
X166571904Y-112015714D01*
X166686190Y-112091904D01*
X166762380Y-112168095D01*
X166800476Y-112244285D01*
X140360476Y-107731904D02*
X140817619Y-107731904D01*
X140589047Y-108531904D02*
X140589047Y-107731904D01*
X141541428Y-108531904D02*
X141274761Y-108150952D01*
X141084285Y-108531904D02*
X141084285Y-107731904D01*
X141389047Y-107731904D01*
X141465238Y-107770000D01*
X141503333Y-107808095D01*
X141541428Y-107884285D01*
X141541428Y-107998571D01*
X141503333Y-108074761D01*
X141465238Y-108112857D01*
X141389047Y-108150952D01*
X141084285Y-108150952D01*
X142303333Y-107770000D02*
X142227142Y-107731904D01*
X142112857Y-107731904D01*
X141998571Y-107770000D01*
X141922380Y-107846190D01*
X141884285Y-107922380D01*
X141846190Y-108074761D01*
X141846190Y-108189047D01*
X141884285Y-108341428D01*
X141922380Y-108417619D01*
X141998571Y-108493809D01*
X142112857Y-108531904D01*
X142189047Y-108531904D01*
X142303333Y-108493809D01*
X142341428Y-108455714D01*
X142341428Y-108189047D01*
X142189047Y-108189047D01*
X142646190Y-107808095D02*
X142684285Y-107770000D01*
X142760476Y-107731904D01*
X142950952Y-107731904D01*
X143027142Y-107770000D01*
X143065238Y-107808095D01*
X143103333Y-107884285D01*
X143103333Y-107960476D01*
X143065238Y-108074761D01*
X142608095Y-108531904D01*
X143103333Y-108531904D01*
X137208571Y-108112857D02*
X137475238Y-108112857D01*
X137589523Y-108531904D02*
X137208571Y-108531904D01*
X137208571Y-107731904D01*
X137589523Y-107731904D01*
X138389523Y-108455714D02*
X138351428Y-108493809D01*
X138237142Y-108531904D01*
X138160952Y-108531904D01*
X138046666Y-108493809D01*
X137970476Y-108417619D01*
X137932380Y-108341428D01*
X137894285Y-108189047D01*
X137894285Y-108074761D01*
X137932380Y-107922380D01*
X137970476Y-107846190D01*
X138046666Y-107770000D01*
X138160952Y-107731904D01*
X138237142Y-107731904D01*
X138351428Y-107770000D01*
X138389523Y-107808095D01*
X138732380Y-108531904D02*
X138732380Y-107731904D01*
X138732380Y-108112857D02*
X139189523Y-108112857D01*
X139189523Y-108531904D02*
X139189523Y-107731904D01*
X139532380Y-107808095D02*
X139570476Y-107770000D01*
X139646666Y-107731904D01*
X139837142Y-107731904D01*
X139913333Y-107770000D01*
X139951428Y-107808095D01*
X139989523Y-107884285D01*
X139989523Y-107960476D01*
X139951428Y-108074761D01*
X139494285Y-108531904D01*
X139989523Y-108531904D01*
X148558571Y-108102857D02*
X148825238Y-108102857D01*
X148939523Y-108521904D02*
X148558571Y-108521904D01*
X148558571Y-107721904D01*
X148939523Y-107721904D01*
X149739523Y-108445714D02*
X149701428Y-108483809D01*
X149587142Y-108521904D01*
X149510952Y-108521904D01*
X149396666Y-108483809D01*
X149320476Y-108407619D01*
X149282380Y-108331428D01*
X149244285Y-108179047D01*
X149244285Y-108064761D01*
X149282380Y-107912380D01*
X149320476Y-107836190D01*
X149396666Y-107760000D01*
X149510952Y-107721904D01*
X149587142Y-107721904D01*
X149701428Y-107760000D01*
X149739523Y-107798095D01*
X150082380Y-108521904D02*
X150082380Y-107721904D01*
X150082380Y-108102857D02*
X150539523Y-108102857D01*
X150539523Y-108521904D02*
X150539523Y-107721904D01*
X151339523Y-108521904D02*
X150882380Y-108521904D01*
X151110952Y-108521904D02*
X151110952Y-107721904D01*
X151034761Y-107836190D01*
X150958571Y-107912380D01*
X150882380Y-107950476D01*
X151450476Y-107681904D02*
X151907619Y-107681904D01*
X151679047Y-108481904D02*
X151679047Y-107681904D01*
X152631428Y-108481904D02*
X152364761Y-108100952D01*
X152174285Y-108481904D02*
X152174285Y-107681904D01*
X152479047Y-107681904D01*
X152555238Y-107720000D01*
X152593333Y-107758095D01*
X152631428Y-107834285D01*
X152631428Y-107948571D01*
X152593333Y-108024761D01*
X152555238Y-108062857D01*
X152479047Y-108100952D01*
X152174285Y-108100952D01*
X153393333Y-107720000D02*
X153317142Y-107681904D01*
X153202857Y-107681904D01*
X153088571Y-107720000D01*
X153012380Y-107796190D01*
X152974285Y-107872380D01*
X152936190Y-108024761D01*
X152936190Y-108139047D01*
X152974285Y-108291428D01*
X153012380Y-108367619D01*
X153088571Y-108443809D01*
X153202857Y-108481904D01*
X153279047Y-108481904D01*
X153393333Y-108443809D01*
X153431428Y-108405714D01*
X153431428Y-108139047D01*
X153279047Y-108139047D01*
X154193333Y-108481904D02*
X153736190Y-108481904D01*
X153964761Y-108481904D02*
X153964761Y-107681904D01*
X153888571Y-107796190D01*
X153812380Y-107872380D01*
X153736190Y-107910476D01*
X151540476Y-114491904D02*
X151997619Y-114491904D01*
X151769047Y-115291904D02*
X151769047Y-114491904D01*
X152721428Y-115291904D02*
X152454761Y-114910952D01*
X152264285Y-115291904D02*
X152264285Y-114491904D01*
X152569047Y-114491904D01*
X152645238Y-114530000D01*
X152683333Y-114568095D01*
X152721428Y-114644285D01*
X152721428Y-114758571D01*
X152683333Y-114834761D01*
X152645238Y-114872857D01*
X152569047Y-114910952D01*
X152264285Y-114910952D01*
X153483333Y-114530000D02*
X153407142Y-114491904D01*
X153292857Y-114491904D01*
X153178571Y-114530000D01*
X153102380Y-114606190D01*
X153064285Y-114682380D01*
X153026190Y-114834761D01*
X153026190Y-114949047D01*
X153064285Y-115101428D01*
X153102380Y-115177619D01*
X153178571Y-115253809D01*
X153292857Y-115291904D01*
X153369047Y-115291904D01*
X153483333Y-115253809D01*
X153521428Y-115215714D01*
X153521428Y-114949047D01*
X153369047Y-114949047D01*
X154016666Y-114491904D02*
X154092857Y-114491904D01*
X154169047Y-114530000D01*
X154207142Y-114568095D01*
X154245238Y-114644285D01*
X154283333Y-114796666D01*
X154283333Y-114987142D01*
X154245238Y-115139523D01*
X154207142Y-115215714D01*
X154169047Y-115253809D01*
X154092857Y-115291904D01*
X154016666Y-115291904D01*
X153940476Y-115253809D01*
X153902380Y-115215714D01*
X153864285Y-115139523D01*
X153826190Y-114987142D01*
X153826190Y-114796666D01*
X153864285Y-114644285D01*
X153902380Y-114568095D01*
X153940476Y-114530000D01*
X154016666Y-114491904D01*
X148508571Y-114862857D02*
X148775238Y-114862857D01*
X148889523Y-115281904D02*
X148508571Y-115281904D01*
X148508571Y-114481904D01*
X148889523Y-114481904D01*
X149689523Y-115205714D02*
X149651428Y-115243809D01*
X149537142Y-115281904D01*
X149460952Y-115281904D01*
X149346666Y-115243809D01*
X149270476Y-115167619D01*
X149232380Y-115091428D01*
X149194285Y-114939047D01*
X149194285Y-114824761D01*
X149232380Y-114672380D01*
X149270476Y-114596190D01*
X149346666Y-114520000D01*
X149460952Y-114481904D01*
X149537142Y-114481904D01*
X149651428Y-114520000D01*
X149689523Y-114558095D01*
X150032380Y-115281904D02*
X150032380Y-114481904D01*
X150032380Y-114862857D02*
X150489523Y-114862857D01*
X150489523Y-115281904D02*
X150489523Y-114481904D01*
X151022857Y-114481904D02*
X151099047Y-114481904D01*
X151175238Y-114520000D01*
X151213333Y-114558095D01*
X151251428Y-114634285D01*
X151289523Y-114786666D01*
X151289523Y-114977142D01*
X151251428Y-115129523D01*
X151213333Y-115205714D01*
X151175238Y-115243809D01*
X151099047Y-115281904D01*
X151022857Y-115281904D01*
X150946666Y-115243809D01*
X150908571Y-115205714D01*
X150870476Y-115129523D01*
X150832380Y-114977142D01*
X150832380Y-114786666D01*
X150870476Y-114634285D01*
X150908571Y-114558095D01*
X150946666Y-114520000D01*
X151022857Y-114481904D01*
X140370476Y-114491904D02*
X140827619Y-114491904D01*
X140599047Y-115291904D02*
X140599047Y-114491904D01*
X141551428Y-115291904D02*
X141284761Y-114910952D01*
X141094285Y-115291904D02*
X141094285Y-114491904D01*
X141399047Y-114491904D01*
X141475238Y-114530000D01*
X141513333Y-114568095D01*
X141551428Y-114644285D01*
X141551428Y-114758571D01*
X141513333Y-114834761D01*
X141475238Y-114872857D01*
X141399047Y-114910952D01*
X141094285Y-114910952D01*
X142313333Y-114530000D02*
X142237142Y-114491904D01*
X142122857Y-114491904D01*
X142008571Y-114530000D01*
X141932380Y-114606190D01*
X141894285Y-114682380D01*
X141856190Y-114834761D01*
X141856190Y-114949047D01*
X141894285Y-115101428D01*
X141932380Y-115177619D01*
X142008571Y-115253809D01*
X142122857Y-115291904D01*
X142199047Y-115291904D01*
X142313333Y-115253809D01*
X142351428Y-115215714D01*
X142351428Y-114949047D01*
X142199047Y-114949047D01*
X142618095Y-114491904D02*
X143113333Y-114491904D01*
X142846666Y-114796666D01*
X142960952Y-114796666D01*
X143037142Y-114834761D01*
X143075238Y-114872857D01*
X143113333Y-114949047D01*
X143113333Y-115139523D01*
X143075238Y-115215714D01*
X143037142Y-115253809D01*
X142960952Y-115291904D01*
X142732380Y-115291904D01*
X142656190Y-115253809D01*
X142618095Y-115215714D01*
X137328571Y-114822857D02*
X137595238Y-114822857D01*
X137709523Y-115241904D02*
X137328571Y-115241904D01*
X137328571Y-114441904D01*
X137709523Y-114441904D01*
X138509523Y-115165714D02*
X138471428Y-115203809D01*
X138357142Y-115241904D01*
X138280952Y-115241904D01*
X138166666Y-115203809D01*
X138090476Y-115127619D01*
X138052380Y-115051428D01*
X138014285Y-114899047D01*
X138014285Y-114784761D01*
X138052380Y-114632380D01*
X138090476Y-114556190D01*
X138166666Y-114480000D01*
X138280952Y-114441904D01*
X138357142Y-114441904D01*
X138471428Y-114480000D01*
X138509523Y-114518095D01*
X138852380Y-115241904D02*
X138852380Y-114441904D01*
X138852380Y-114822857D02*
X139309523Y-114822857D01*
X139309523Y-115241904D02*
X139309523Y-114441904D01*
X139614285Y-114441904D02*
X140109523Y-114441904D01*
X139842857Y-114746666D01*
X139957142Y-114746666D01*
X140033333Y-114784761D01*
X140071428Y-114822857D01*
X140109523Y-114899047D01*
X140109523Y-115089523D01*
X140071428Y-115165714D01*
X140033333Y-115203809D01*
X139957142Y-115241904D01*
X139728571Y-115241904D01*
X139652380Y-115203809D01*
X139614285Y-115165714D01*
X122750476Y-115441904D02*
X122750476Y-114641904D01*
X123055238Y-114641904D01*
X123131428Y-114680000D01*
X123169523Y-114718095D01*
X123207619Y-114794285D01*
X123207619Y-114908571D01*
X123169523Y-114984761D01*
X123131428Y-115022857D01*
X123055238Y-115060952D01*
X122750476Y-115060952D01*
X123969523Y-114680000D02*
X123893333Y-114641904D01*
X123779047Y-114641904D01*
X123664761Y-114680000D01*
X123588571Y-114756190D01*
X123550476Y-114832380D01*
X123512380Y-114984761D01*
X123512380Y-115099047D01*
X123550476Y-115251428D01*
X123588571Y-115327619D01*
X123664761Y-115403809D01*
X123779047Y-115441904D01*
X123855238Y-115441904D01*
X123969523Y-115403809D01*
X124007619Y-115365714D01*
X124007619Y-115099047D01*
X123855238Y-115099047D01*
X124807619Y-115365714D02*
X124769523Y-115403809D01*
X124655238Y-115441904D01*
X124579047Y-115441904D01*
X124464761Y-115403809D01*
X124388571Y-115327619D01*
X124350476Y-115251428D01*
X124312380Y-115099047D01*
X124312380Y-114984761D01*
X124350476Y-114832380D01*
X124388571Y-114756190D01*
X124464761Y-114680000D01*
X124579047Y-114641904D01*
X124655238Y-114641904D01*
X124769523Y-114680000D01*
X124807619Y-114718095D01*
X120110476Y-115401904D02*
X120110476Y-114601904D01*
X120415238Y-114601904D01*
X120491428Y-114640000D01*
X120529523Y-114678095D01*
X120567619Y-114754285D01*
X120567619Y-114868571D01*
X120529523Y-114944761D01*
X120491428Y-114982857D01*
X120415238Y-115020952D01*
X120110476Y-115020952D01*
X121329523Y-114640000D02*
X121253333Y-114601904D01*
X121139047Y-114601904D01*
X121024761Y-114640000D01*
X120948571Y-114716190D01*
X120910476Y-114792380D01*
X120872380Y-114944761D01*
X120872380Y-115059047D01*
X120910476Y-115211428D01*
X120948571Y-115287619D01*
X121024761Y-115363809D01*
X121139047Y-115401904D01*
X121215238Y-115401904D01*
X121329523Y-115363809D01*
X121367619Y-115325714D01*
X121367619Y-115059047D01*
X121215238Y-115059047D01*
X121710476Y-115401904D02*
X121710476Y-114601904D01*
X121900952Y-114601904D01*
X122015238Y-114640000D01*
X122091428Y-114716190D01*
X122129523Y-114792380D01*
X122167619Y-114944761D01*
X122167619Y-115059047D01*
X122129523Y-115211428D01*
X122091428Y-115287619D01*
X122015238Y-115363809D01*
X121900952Y-115401904D01*
X121710476Y-115401904D01*
X111269523Y-115421904D02*
X111269523Y-114621904D01*
X111536190Y-115193333D01*
X111802857Y-114621904D01*
X111802857Y-115421904D01*
X112640952Y-115345714D02*
X112602857Y-115383809D01*
X112488571Y-115421904D01*
X112412380Y-115421904D01*
X112298095Y-115383809D01*
X112221904Y-115307619D01*
X112183809Y-115231428D01*
X112145714Y-115079047D01*
X112145714Y-114964761D01*
X112183809Y-114812380D01*
X112221904Y-114736190D01*
X112298095Y-114660000D01*
X112412380Y-114621904D01*
X112488571Y-114621904D01*
X112602857Y-114660000D01*
X112640952Y-114698095D01*
X113364761Y-115421904D02*
X112983809Y-115421904D01*
X112983809Y-114621904D01*
X114088571Y-115421904D02*
X113821904Y-115040952D01*
X113631428Y-115421904D02*
X113631428Y-114621904D01*
X113936190Y-114621904D01*
X114012380Y-114660000D01*
X114050476Y-114698095D01*
X114088571Y-114774285D01*
X114088571Y-114888571D01*
X114050476Y-114964761D01*
X114012380Y-115002857D01*
X113936190Y-115040952D01*
X113631428Y-115040952D01*
X110648095Y-107385238D02*
X111448095Y-107385238D01*
X111448095Y-107690000D01*
X111410000Y-107766190D01*
X111371904Y-107804285D01*
X111295714Y-107842380D01*
X111181428Y-107842380D01*
X111105238Y-107804285D01*
X111067142Y-107766190D01*
X111029047Y-107690000D01*
X111029047Y-107385238D01*
X111448095Y-108109047D02*
X110648095Y-108299523D01*
X111219523Y-108451904D01*
X110648095Y-108604285D01*
X111448095Y-108794761D01*
X110648095Y-109099523D02*
X111448095Y-109099523D01*
X110876666Y-109366190D01*
X111448095Y-109632857D01*
X110648095Y-109632857D01*
X111371904Y-109975714D02*
X111410000Y-110013809D01*
X111448095Y-110090000D01*
X111448095Y-110280476D01*
X111410000Y-110356666D01*
X111371904Y-110394761D01*
X111295714Y-110432857D01*
X111219523Y-110432857D01*
X111105238Y-110394761D01*
X110648095Y-109937619D01*
X110648095Y-110432857D01*
X110708095Y-105806666D02*
X110708095Y-105425714D01*
X111508095Y-105425714D01*
X111241428Y-106416190D02*
X110708095Y-106416190D01*
X111546190Y-106225714D02*
X110974761Y-106035238D01*
X110974761Y-106530476D01*
X110638095Y-103226666D02*
X110638095Y-102845714D01*
X111438095Y-102845714D01*
X111438095Y-103417142D02*
X111438095Y-103912380D01*
X111133333Y-103645714D01*
X111133333Y-103760000D01*
X111095238Y-103836190D01*
X111057142Y-103874285D01*
X110980952Y-103912380D01*
X110790476Y-103912380D01*
X110714285Y-103874285D01*
X110676190Y-103836190D01*
X110638095Y-103760000D01*
X110638095Y-103531428D01*
X110676190Y-103455238D01*
X110714285Y-103417142D01*
X110668095Y-98816666D02*
X110668095Y-98435714D01*
X111468095Y-98435714D01*
X111391904Y-99045238D02*
X111430000Y-99083333D01*
X111468095Y-99159523D01*
X111468095Y-99350000D01*
X111430000Y-99426190D01*
X111391904Y-99464285D01*
X111315714Y-99502380D01*
X111239523Y-99502380D01*
X111125238Y-99464285D01*
X110668095Y-99007142D01*
X110668095Y-99502380D01*
X110638095Y-96236666D02*
X110638095Y-95855714D01*
X111438095Y-95855714D01*
X110638095Y-96922380D02*
X110638095Y-96465238D01*
X110638095Y-96693809D02*
X111438095Y-96693809D01*
X111323809Y-96617619D01*
X111247619Y-96541428D01*
X111209523Y-96465238D01*
X110678095Y-91735238D02*
X111478095Y-91735238D01*
X111478095Y-92040000D01*
X111440000Y-92116190D01*
X111401904Y-92154285D01*
X111325714Y-92192380D01*
X111211428Y-92192380D01*
X111135238Y-92154285D01*
X111097142Y-92116190D01*
X111059047Y-92040000D01*
X111059047Y-91735238D01*
X111478095Y-92459047D02*
X110678095Y-92649523D01*
X111249523Y-92801904D01*
X110678095Y-92954285D01*
X111478095Y-93144761D01*
X110678095Y-93449523D02*
X111478095Y-93449523D01*
X110906666Y-93716190D01*
X111478095Y-93982857D01*
X110678095Y-93982857D01*
X110678095Y-94782857D02*
X110678095Y-94325714D01*
X110678095Y-94554285D02*
X111478095Y-94554285D01*
X111363809Y-94478095D01*
X111287619Y-94401904D01*
X111249523Y-94325714D01*
X111027142Y-81728571D02*
X110989047Y-81842857D01*
X110950952Y-81880952D01*
X110874761Y-81919047D01*
X110760476Y-81919047D01*
X110684285Y-81880952D01*
X110646190Y-81842857D01*
X110608095Y-81766666D01*
X110608095Y-81461904D01*
X111408095Y-81461904D01*
X111408095Y-81728571D01*
X111370000Y-81804761D01*
X111331904Y-81842857D01*
X111255714Y-81880952D01*
X111179523Y-81880952D01*
X111103333Y-81842857D01*
X111065238Y-81804761D01*
X111027142Y-81728571D01*
X111027142Y-81461904D01*
X110836666Y-82223809D02*
X110836666Y-82604761D01*
X110608095Y-82147619D02*
X111408095Y-82414285D01*
X110608095Y-82680952D01*
X111408095Y-82833333D02*
X111408095Y-83290476D01*
X110608095Y-83061904D02*
X111408095Y-83061904D01*
X111408095Y-83480952D02*
X111408095Y-83976190D01*
X111103333Y-83709523D01*
X111103333Y-83823809D01*
X111065238Y-83900000D01*
X111027142Y-83938095D01*
X110950952Y-83976190D01*
X110760476Y-83976190D01*
X110684285Y-83938095D01*
X110646190Y-83900000D01*
X110608095Y-83823809D01*
X110608095Y-83595238D01*
X110646190Y-83519047D01*
X110684285Y-83480952D01*
X111087142Y-78388571D02*
X111049047Y-78502857D01*
X111010952Y-78540952D01*
X110934761Y-78579047D01*
X110820476Y-78579047D01*
X110744285Y-78540952D01*
X110706190Y-78502857D01*
X110668095Y-78426666D01*
X110668095Y-78121904D01*
X111468095Y-78121904D01*
X111468095Y-78388571D01*
X111430000Y-78464761D01*
X111391904Y-78502857D01*
X111315714Y-78540952D01*
X111239523Y-78540952D01*
X111163333Y-78502857D01*
X111125238Y-78464761D01*
X111087142Y-78388571D01*
X111087142Y-78121904D01*
X110896666Y-78883809D02*
X110896666Y-79264761D01*
X110668095Y-78807619D02*
X111468095Y-79074285D01*
X110668095Y-79340952D01*
X111468095Y-79493333D02*
X111468095Y-79950476D01*
X110668095Y-79721904D02*
X111468095Y-79721904D01*
X111201428Y-80560000D02*
X110668095Y-80560000D01*
X111506190Y-80369523D02*
X110934761Y-80179047D01*
X110934761Y-80674285D01*
X111027142Y-84878571D02*
X110989047Y-84992857D01*
X110950952Y-85030952D01*
X110874761Y-85069047D01*
X110760476Y-85069047D01*
X110684285Y-85030952D01*
X110646190Y-84992857D01*
X110608095Y-84916666D01*
X110608095Y-84611904D01*
X111408095Y-84611904D01*
X111408095Y-84878571D01*
X111370000Y-84954761D01*
X111331904Y-84992857D01*
X111255714Y-85030952D01*
X111179523Y-85030952D01*
X111103333Y-84992857D01*
X111065238Y-84954761D01*
X111027142Y-84878571D01*
X111027142Y-84611904D01*
X110836666Y-85373809D02*
X110836666Y-85754761D01*
X110608095Y-85297619D02*
X111408095Y-85564285D01*
X110608095Y-85830952D01*
X111408095Y-85983333D02*
X111408095Y-86440476D01*
X110608095Y-86211904D02*
X111408095Y-86211904D01*
X111331904Y-86669047D02*
X111370000Y-86707142D01*
X111408095Y-86783333D01*
X111408095Y-86973809D01*
X111370000Y-87050000D01*
X111331904Y-87088095D01*
X111255714Y-87126190D01*
X111179523Y-87126190D01*
X111065238Y-87088095D01*
X110608095Y-86630952D01*
X110608095Y-87126190D01*
X111027142Y-88008571D02*
X110989047Y-88122857D01*
X110950952Y-88160952D01*
X110874761Y-88199047D01*
X110760476Y-88199047D01*
X110684285Y-88160952D01*
X110646190Y-88122857D01*
X110608095Y-88046666D01*
X110608095Y-87741904D01*
X111408095Y-87741904D01*
X111408095Y-88008571D01*
X111370000Y-88084761D01*
X111331904Y-88122857D01*
X111255714Y-88160952D01*
X111179523Y-88160952D01*
X111103333Y-88122857D01*
X111065238Y-88084761D01*
X111027142Y-88008571D01*
X111027142Y-87741904D01*
X110836666Y-88503809D02*
X110836666Y-88884761D01*
X110608095Y-88427619D02*
X111408095Y-88694285D01*
X110608095Y-88960952D01*
X111408095Y-89113333D02*
X111408095Y-89570476D01*
X110608095Y-89341904D02*
X111408095Y-89341904D01*
X110608095Y-90256190D02*
X110608095Y-89799047D01*
X110608095Y-90027619D02*
X111408095Y-90027619D01*
X111293809Y-89951428D01*
X111217619Y-89875238D01*
X111179523Y-89799047D01*
X111008095Y-73997619D02*
X111008095Y-73616666D01*
X110627142Y-73578571D01*
X110665238Y-73616666D01*
X110703333Y-73692857D01*
X110703333Y-73883333D01*
X110665238Y-73959523D01*
X110627142Y-73997619D01*
X110550952Y-74035714D01*
X110360476Y-74035714D01*
X110284285Y-73997619D01*
X110246190Y-73959523D01*
X110208095Y-73883333D01*
X110208095Y-73692857D01*
X110246190Y-73616666D01*
X110284285Y-73578571D01*
X111008095Y-74264285D02*
X110208095Y-74530952D01*
X111008095Y-74797619D01*
X146530476Y-107740000D02*
X146454285Y-107701904D01*
X146340000Y-107701904D01*
X146225714Y-107740000D01*
X146149523Y-107816190D01*
X146111428Y-107892380D01*
X146073333Y-108044761D01*
X146073333Y-108159047D01*
X146111428Y-108311428D01*
X146149523Y-108387619D01*
X146225714Y-108463809D01*
X146340000Y-108501904D01*
X146416190Y-108501904D01*
X146530476Y-108463809D01*
X146568571Y-108425714D01*
X146568571Y-108159047D01*
X146416190Y-108159047D01*
X146911428Y-108501904D02*
X146911428Y-107701904D01*
X147368571Y-108501904D01*
X147368571Y-107701904D01*
X147749523Y-108501904D02*
X147749523Y-107701904D01*
X147940000Y-107701904D01*
X148054285Y-107740000D01*
X148130476Y-107816190D01*
X148168571Y-107892380D01*
X148206666Y-108044761D01*
X148206666Y-108159047D01*
X148168571Y-108311428D01*
X148130476Y-108387619D01*
X148054285Y-108463809D01*
X147940000Y-108501904D01*
X147749523Y-108501904D01*
X134910476Y-107770000D02*
X134834285Y-107731904D01*
X134720000Y-107731904D01*
X134605714Y-107770000D01*
X134529523Y-107846190D01*
X134491428Y-107922380D01*
X134453333Y-108074761D01*
X134453333Y-108189047D01*
X134491428Y-108341428D01*
X134529523Y-108417619D01*
X134605714Y-108493809D01*
X134720000Y-108531904D01*
X134796190Y-108531904D01*
X134910476Y-108493809D01*
X134948571Y-108455714D01*
X134948571Y-108189047D01*
X134796190Y-108189047D01*
X135291428Y-108531904D02*
X135291428Y-107731904D01*
X135748571Y-108531904D01*
X135748571Y-107731904D01*
X136129523Y-108531904D02*
X136129523Y-107731904D01*
X136320000Y-107731904D01*
X136434285Y-107770000D01*
X136510476Y-107846190D01*
X136548571Y-107922380D01*
X136586666Y-108074761D01*
X136586666Y-108189047D01*
X136548571Y-108341428D01*
X136510476Y-108417619D01*
X136434285Y-108493809D01*
X136320000Y-108531904D01*
X136129523Y-108531904D01*
X161726666Y-69918095D02*
X161460000Y-69118095D01*
X161193333Y-69918095D01*
X160469523Y-69194285D02*
X160507619Y-69156190D01*
X160621904Y-69118095D01*
X160698095Y-69118095D01*
X160812380Y-69156190D01*
X160888571Y-69232380D01*
X160926666Y-69308571D01*
X160964761Y-69460952D01*
X160964761Y-69575238D01*
X160926666Y-69727619D01*
X160888571Y-69803809D01*
X160812380Y-69880000D01*
X160698095Y-69918095D01*
X160621904Y-69918095D01*
X160507619Y-69880000D01*
X160469523Y-69841904D01*
X159669523Y-69194285D02*
X159707619Y-69156190D01*
X159821904Y-69118095D01*
X159898095Y-69118095D01*
X160012380Y-69156190D01*
X160088571Y-69232380D01*
X160126666Y-69308571D01*
X160164761Y-69460952D01*
X160164761Y-69575238D01*
X160126666Y-69727619D01*
X160088571Y-69803809D01*
X160012380Y-69880000D01*
X159898095Y-69918095D01*
X159821904Y-69918095D01*
X159707619Y-69880000D01*
X159669523Y-69841904D01*
X161726666Y-63278095D02*
X161460000Y-62478095D01*
X161193333Y-63278095D01*
X160469523Y-62554285D02*
X160507619Y-62516190D01*
X160621904Y-62478095D01*
X160698095Y-62478095D01*
X160812380Y-62516190D01*
X160888571Y-62592380D01*
X160926666Y-62668571D01*
X160964761Y-62820952D01*
X160964761Y-62935238D01*
X160926666Y-63087619D01*
X160888571Y-63163809D01*
X160812380Y-63240000D01*
X160698095Y-63278095D01*
X160621904Y-63278095D01*
X160507619Y-63240000D01*
X160469523Y-63201904D01*
X159669523Y-62554285D02*
X159707619Y-62516190D01*
X159821904Y-62478095D01*
X159898095Y-62478095D01*
X160012380Y-62516190D01*
X160088571Y-62592380D01*
X160126666Y-62668571D01*
X160164761Y-62820952D01*
X160164761Y-62935238D01*
X160126666Y-63087619D01*
X160088571Y-63163809D01*
X160012380Y-63240000D01*
X159898095Y-63278095D01*
X159821904Y-63278095D01*
X159707619Y-63240000D01*
X159669523Y-63201904D01*
X166851904Y-68996666D02*
X167651904Y-68730000D01*
X166851904Y-68463333D01*
X167575714Y-67739523D02*
X167613809Y-67777619D01*
X167651904Y-67891904D01*
X167651904Y-67968095D01*
X167613809Y-68082380D01*
X167537619Y-68158571D01*
X167461428Y-68196666D01*
X167309047Y-68234761D01*
X167194761Y-68234761D01*
X167042380Y-68196666D01*
X166966190Y-68158571D01*
X166890000Y-68082380D01*
X166851904Y-67968095D01*
X166851904Y-67891904D01*
X166890000Y-67777619D01*
X166928095Y-67739523D01*
X167575714Y-66939523D02*
X167613809Y-66977619D01*
X167651904Y-67091904D01*
X167651904Y-67168095D01*
X167613809Y-67282380D01*
X167537619Y-67358571D01*
X167461428Y-67396666D01*
X167309047Y-67434761D01*
X167194761Y-67434761D01*
X167042380Y-67396666D01*
X166966190Y-67358571D01*
X166890000Y-67282380D01*
X166851904Y-67168095D01*
X166851904Y-67091904D01*
X166890000Y-66977619D01*
X166928095Y-66939523D01*
X160271904Y-83136666D02*
X161071904Y-82870000D01*
X160271904Y-82603333D01*
X160995714Y-81879523D02*
X161033809Y-81917619D01*
X161071904Y-82031904D01*
X161071904Y-82108095D01*
X161033809Y-82222380D01*
X160957619Y-82298571D01*
X160881428Y-82336666D01*
X160729047Y-82374761D01*
X160614761Y-82374761D01*
X160462380Y-82336666D01*
X160386190Y-82298571D01*
X160310000Y-82222380D01*
X160271904Y-82108095D01*
X160271904Y-82031904D01*
X160310000Y-81917619D01*
X160348095Y-81879523D01*
X160995714Y-81079523D02*
X161033809Y-81117619D01*
X161071904Y-81231904D01*
X161071904Y-81308095D01*
X161033809Y-81422380D01*
X160957619Y-81498571D01*
X160881428Y-81536666D01*
X160729047Y-81574761D01*
X160614761Y-81574761D01*
X160462380Y-81536666D01*
X160386190Y-81498571D01*
X160310000Y-81422380D01*
X160271904Y-81308095D01*
X160271904Y-81231904D01*
X160310000Y-81117619D01*
X160348095Y-81079523D01*
X166871904Y-83246666D02*
X167671904Y-82980000D01*
X166871904Y-82713333D01*
X167595714Y-81989523D02*
X167633809Y-82027619D01*
X167671904Y-82141904D01*
X167671904Y-82218095D01*
X167633809Y-82332380D01*
X167557619Y-82408571D01*
X167481428Y-82446666D01*
X167329047Y-82484761D01*
X167214761Y-82484761D01*
X167062380Y-82446666D01*
X166986190Y-82408571D01*
X166910000Y-82332380D01*
X166871904Y-82218095D01*
X166871904Y-82141904D01*
X166910000Y-82027619D01*
X166948095Y-81989523D01*
X167595714Y-81189523D02*
X167633809Y-81227619D01*
X167671904Y-81341904D01*
X167671904Y-81418095D01*
X167633809Y-81532380D01*
X167557619Y-81608571D01*
X167481428Y-81646666D01*
X167329047Y-81684761D01*
X167214761Y-81684761D01*
X167062380Y-81646666D01*
X166986190Y-81608571D01*
X166910000Y-81532380D01*
X166871904Y-81418095D01*
X166871904Y-81341904D01*
X166910000Y-81227619D01*
X166948095Y-81189523D01*
X166621904Y-100136666D02*
X167421904Y-99870000D01*
X166621904Y-99603333D01*
X167345714Y-98879523D02*
X167383809Y-98917619D01*
X167421904Y-99031904D01*
X167421904Y-99108095D01*
X167383809Y-99222380D01*
X167307619Y-99298571D01*
X167231428Y-99336666D01*
X167079047Y-99374761D01*
X166964761Y-99374761D01*
X166812380Y-99336666D01*
X166736190Y-99298571D01*
X166660000Y-99222380D01*
X166621904Y-99108095D01*
X166621904Y-99031904D01*
X166660000Y-98917619D01*
X166698095Y-98879523D01*
X167345714Y-98079523D02*
X167383809Y-98117619D01*
X167421904Y-98231904D01*
X167421904Y-98308095D01*
X167383809Y-98422380D01*
X167307619Y-98498571D01*
X167231428Y-98536666D01*
X167079047Y-98574761D01*
X166964761Y-98574761D01*
X166812380Y-98536666D01*
X166736190Y-98498571D01*
X166660000Y-98422380D01*
X166621904Y-98308095D01*
X166621904Y-98231904D01*
X166660000Y-98117619D01*
X166698095Y-98079523D01*
X154573333Y-107721904D02*
X154840000Y-108521904D01*
X155106666Y-107721904D01*
X155830476Y-108445714D02*
X155792380Y-108483809D01*
X155678095Y-108521904D01*
X155601904Y-108521904D01*
X155487619Y-108483809D01*
X155411428Y-108407619D01*
X155373333Y-108331428D01*
X155335238Y-108179047D01*
X155335238Y-108064761D01*
X155373333Y-107912380D01*
X155411428Y-107836190D01*
X155487619Y-107760000D01*
X155601904Y-107721904D01*
X155678095Y-107721904D01*
X155792380Y-107760000D01*
X155830476Y-107798095D01*
X156630476Y-108445714D02*
X156592380Y-108483809D01*
X156478095Y-108521904D01*
X156401904Y-108521904D01*
X156287619Y-108483809D01*
X156211428Y-108407619D01*
X156173333Y-108331428D01*
X156135238Y-108179047D01*
X156135238Y-108064761D01*
X156173333Y-107912380D01*
X156211428Y-107836190D01*
X156287619Y-107760000D01*
X156401904Y-107721904D01*
X156478095Y-107721904D01*
X156592380Y-107760000D01*
X156630476Y-107798095D01*
X154673333Y-114561904D02*
X154940000Y-115361904D01*
X155206666Y-114561904D01*
X155930476Y-115285714D02*
X155892380Y-115323809D01*
X155778095Y-115361904D01*
X155701904Y-115361904D01*
X155587619Y-115323809D01*
X155511428Y-115247619D01*
X155473333Y-115171428D01*
X155435238Y-115019047D01*
X155435238Y-114904761D01*
X155473333Y-114752380D01*
X155511428Y-114676190D01*
X155587619Y-114600000D01*
X155701904Y-114561904D01*
X155778095Y-114561904D01*
X155892380Y-114600000D01*
X155930476Y-114638095D01*
X156730476Y-115285714D02*
X156692380Y-115323809D01*
X156578095Y-115361904D01*
X156501904Y-115361904D01*
X156387619Y-115323809D01*
X156311428Y-115247619D01*
X156273333Y-115171428D01*
X156235238Y-115019047D01*
X156235238Y-114904761D01*
X156273333Y-114752380D01*
X156311428Y-114676190D01*
X156387619Y-114600000D01*
X156501904Y-114561904D01*
X156578095Y-114561904D01*
X156692380Y-114600000D01*
X156730476Y-114638095D01*
X143553333Y-107701904D02*
X143820000Y-108501904D01*
X144086666Y-107701904D01*
X144810476Y-108425714D02*
X144772380Y-108463809D01*
X144658095Y-108501904D01*
X144581904Y-108501904D01*
X144467619Y-108463809D01*
X144391428Y-108387619D01*
X144353333Y-108311428D01*
X144315238Y-108159047D01*
X144315238Y-108044761D01*
X144353333Y-107892380D01*
X144391428Y-107816190D01*
X144467619Y-107740000D01*
X144581904Y-107701904D01*
X144658095Y-107701904D01*
X144772380Y-107740000D01*
X144810476Y-107778095D01*
X145610476Y-108425714D02*
X145572380Y-108463809D01*
X145458095Y-108501904D01*
X145381904Y-108501904D01*
X145267619Y-108463809D01*
X145191428Y-108387619D01*
X145153333Y-108311428D01*
X145115238Y-108159047D01*
X145115238Y-108044761D01*
X145153333Y-107892380D01*
X145191428Y-107816190D01*
X145267619Y-107740000D01*
X145381904Y-107701904D01*
X145458095Y-107701904D01*
X145572380Y-107740000D01*
X145610476Y-107778095D01*
X143383333Y-114501904D02*
X143650000Y-115301904D01*
X143916666Y-114501904D01*
X144640476Y-115225714D02*
X144602380Y-115263809D01*
X144488095Y-115301904D01*
X144411904Y-115301904D01*
X144297619Y-115263809D01*
X144221428Y-115187619D01*
X144183333Y-115111428D01*
X144145238Y-114959047D01*
X144145238Y-114844761D01*
X144183333Y-114692380D01*
X144221428Y-114616190D01*
X144297619Y-114540000D01*
X144411904Y-114501904D01*
X144488095Y-114501904D01*
X144602380Y-114540000D01*
X144640476Y-114578095D01*
X145440476Y-115225714D02*
X145402380Y-115263809D01*
X145288095Y-115301904D01*
X145211904Y-115301904D01*
X145097619Y-115263809D01*
X145021428Y-115187619D01*
X144983333Y-115111428D01*
X144945238Y-114959047D01*
X144945238Y-114844761D01*
X144983333Y-114692380D01*
X145021428Y-114616190D01*
X145097619Y-114540000D01*
X145211904Y-114501904D01*
X145288095Y-114501904D01*
X145402380Y-114540000D01*
X145440476Y-114578095D01*
X114713333Y-114651904D02*
X114980000Y-115451904D01*
X115246666Y-114651904D01*
X115970476Y-115375714D02*
X115932380Y-115413809D01*
X115818095Y-115451904D01*
X115741904Y-115451904D01*
X115627619Y-115413809D01*
X115551428Y-115337619D01*
X115513333Y-115261428D01*
X115475238Y-115109047D01*
X115475238Y-114994761D01*
X115513333Y-114842380D01*
X115551428Y-114766190D01*
X115627619Y-114690000D01*
X115741904Y-114651904D01*
X115818095Y-114651904D01*
X115932380Y-114690000D01*
X115970476Y-114728095D01*
X116770476Y-115375714D02*
X116732380Y-115413809D01*
X116618095Y-115451904D01*
X116541904Y-115451904D01*
X116427619Y-115413809D01*
X116351428Y-115337619D01*
X116313333Y-115261428D01*
X116275238Y-115109047D01*
X116275238Y-114994761D01*
X116313333Y-114842380D01*
X116351428Y-114766190D01*
X116427619Y-114690000D01*
X116541904Y-114651904D01*
X116618095Y-114651904D01*
X116732380Y-114690000D01*
X116770476Y-114728095D01*
X158699523Y-69950000D02*
X158775714Y-69988095D01*
X158890000Y-69988095D01*
X159004285Y-69950000D01*
X159080476Y-69873809D01*
X159118571Y-69797619D01*
X159156666Y-69645238D01*
X159156666Y-69530952D01*
X159118571Y-69378571D01*
X159080476Y-69302380D01*
X159004285Y-69226190D01*
X158890000Y-69188095D01*
X158813809Y-69188095D01*
X158699523Y-69226190D01*
X158661428Y-69264285D01*
X158661428Y-69530952D01*
X158813809Y-69530952D01*
X158318571Y-69188095D02*
X158318571Y-69988095D01*
X157861428Y-69188095D01*
X157861428Y-69988095D01*
X157480476Y-69188095D02*
X157480476Y-69988095D01*
X157290000Y-69988095D01*
X157175714Y-69950000D01*
X157099523Y-69873809D01*
X157061428Y-69797619D01*
X157023333Y-69645238D01*
X157023333Y-69530952D01*
X157061428Y-69378571D01*
X157099523Y-69302380D01*
X157175714Y-69226190D01*
X157290000Y-69188095D01*
X157480476Y-69188095D01*
X158619523Y-63290000D02*
X158695714Y-63328095D01*
X158810000Y-63328095D01*
X158924285Y-63290000D01*
X159000476Y-63213809D01*
X159038571Y-63137619D01*
X159076666Y-62985238D01*
X159076666Y-62870952D01*
X159038571Y-62718571D01*
X159000476Y-62642380D01*
X158924285Y-62566190D01*
X158810000Y-62528095D01*
X158733809Y-62528095D01*
X158619523Y-62566190D01*
X158581428Y-62604285D01*
X158581428Y-62870952D01*
X158733809Y-62870952D01*
X158238571Y-62528095D02*
X158238571Y-63328095D01*
X157781428Y-62528095D01*
X157781428Y-63328095D01*
X157400476Y-62528095D02*
X157400476Y-63328095D01*
X157210000Y-63328095D01*
X157095714Y-63290000D01*
X157019523Y-63213809D01*
X156981428Y-63137619D01*
X156943333Y-62985238D01*
X156943333Y-62870952D01*
X156981428Y-62718571D01*
X157019523Y-62642380D01*
X157095714Y-62566190D01*
X157210000Y-62528095D01*
X157400476Y-62528095D01*
X166880000Y-65769523D02*
X166841904Y-65845714D01*
X166841904Y-65960000D01*
X166880000Y-66074285D01*
X166956190Y-66150476D01*
X167032380Y-66188571D01*
X167184761Y-66226666D01*
X167299047Y-66226666D01*
X167451428Y-66188571D01*
X167527619Y-66150476D01*
X167603809Y-66074285D01*
X167641904Y-65960000D01*
X167641904Y-65883809D01*
X167603809Y-65769523D01*
X167565714Y-65731428D01*
X167299047Y-65731428D01*
X167299047Y-65883809D01*
X167641904Y-65388571D02*
X166841904Y-65388571D01*
X167641904Y-64931428D01*
X166841904Y-64931428D01*
X167641904Y-64550476D02*
X166841904Y-64550476D01*
X166841904Y-64360000D01*
X166880000Y-64245714D01*
X166956190Y-64169523D01*
X167032380Y-64131428D01*
X167184761Y-64093333D01*
X167299047Y-64093333D01*
X167451428Y-64131428D01*
X167527619Y-64169523D01*
X167603809Y-64245714D01*
X167641904Y-64360000D01*
X167641904Y-64550476D01*
X160330000Y-85529523D02*
X160291904Y-85605714D01*
X160291904Y-85720000D01*
X160330000Y-85834285D01*
X160406190Y-85910476D01*
X160482380Y-85948571D01*
X160634761Y-85986666D01*
X160749047Y-85986666D01*
X160901428Y-85948571D01*
X160977619Y-85910476D01*
X161053809Y-85834285D01*
X161091904Y-85720000D01*
X161091904Y-85643809D01*
X161053809Y-85529523D01*
X161015714Y-85491428D01*
X160749047Y-85491428D01*
X160749047Y-85643809D01*
X161091904Y-85148571D02*
X160291904Y-85148571D01*
X161091904Y-84691428D01*
X160291904Y-84691428D01*
X161091904Y-84310476D02*
X160291904Y-84310476D01*
X160291904Y-84120000D01*
X160330000Y-84005714D01*
X160406190Y-83929523D01*
X160482380Y-83891428D01*
X160634761Y-83853333D01*
X160749047Y-83853333D01*
X160901428Y-83891428D01*
X160977619Y-83929523D01*
X161053809Y-84005714D01*
X161091904Y-84120000D01*
X161091904Y-84310476D01*
X160390000Y-92919523D02*
X160351904Y-92995714D01*
X160351904Y-93110000D01*
X160390000Y-93224285D01*
X160466190Y-93300476D01*
X160542380Y-93338571D01*
X160694761Y-93376666D01*
X160809047Y-93376666D01*
X160961428Y-93338571D01*
X161037619Y-93300476D01*
X161113809Y-93224285D01*
X161151904Y-93110000D01*
X161151904Y-93033809D01*
X161113809Y-92919523D01*
X161075714Y-92881428D01*
X160809047Y-92881428D01*
X160809047Y-93033809D01*
X161151904Y-92538571D02*
X160351904Y-92538571D01*
X161151904Y-92081428D01*
X160351904Y-92081428D01*
X161151904Y-91700476D02*
X160351904Y-91700476D01*
X160351904Y-91510000D01*
X160390000Y-91395714D01*
X160466190Y-91319523D01*
X160542380Y-91281428D01*
X160694761Y-91243333D01*
X160809047Y-91243333D01*
X160961428Y-91281428D01*
X161037619Y-91319523D01*
X161113809Y-91395714D01*
X161151904Y-91510000D01*
X161151904Y-91700476D01*
X166910000Y-85449523D02*
X166871904Y-85525714D01*
X166871904Y-85640000D01*
X166910000Y-85754285D01*
X166986190Y-85830476D01*
X167062380Y-85868571D01*
X167214761Y-85906666D01*
X167329047Y-85906666D01*
X167481428Y-85868571D01*
X167557619Y-85830476D01*
X167633809Y-85754285D01*
X167671904Y-85640000D01*
X167671904Y-85563809D01*
X167633809Y-85449523D01*
X167595714Y-85411428D01*
X167329047Y-85411428D01*
X167329047Y-85563809D01*
X167671904Y-85068571D02*
X166871904Y-85068571D01*
X167671904Y-84611428D01*
X166871904Y-84611428D01*
X167671904Y-84230476D02*
X166871904Y-84230476D01*
X166871904Y-84040000D01*
X166910000Y-83925714D01*
X166986190Y-83849523D01*
X167062380Y-83811428D01*
X167214761Y-83773333D01*
X167329047Y-83773333D01*
X167481428Y-83811428D01*
X167557619Y-83849523D01*
X167633809Y-83925714D01*
X167671904Y-84040000D01*
X167671904Y-84230476D01*
X166890000Y-93109523D02*
X166851904Y-93185714D01*
X166851904Y-93300000D01*
X166890000Y-93414285D01*
X166966190Y-93490476D01*
X167042380Y-93528571D01*
X167194761Y-93566666D01*
X167309047Y-93566666D01*
X167461428Y-93528571D01*
X167537619Y-93490476D01*
X167613809Y-93414285D01*
X167651904Y-93300000D01*
X167651904Y-93223809D01*
X167613809Y-93109523D01*
X167575714Y-93071428D01*
X167309047Y-93071428D01*
X167309047Y-93223809D01*
X167651904Y-92728571D02*
X166851904Y-92728571D01*
X167651904Y-92271428D01*
X166851904Y-92271428D01*
X167651904Y-91890476D02*
X166851904Y-91890476D01*
X166851904Y-91700000D01*
X166890000Y-91585714D01*
X166966190Y-91509523D01*
X167042380Y-91471428D01*
X167194761Y-91433333D01*
X167309047Y-91433333D01*
X167461428Y-91471428D01*
X167537619Y-91509523D01*
X167613809Y-91585714D01*
X167651904Y-91700000D01*
X167651904Y-91890476D01*
X166640000Y-102489523D02*
X166601904Y-102565714D01*
X166601904Y-102680000D01*
X166640000Y-102794285D01*
X166716190Y-102870476D01*
X166792380Y-102908571D01*
X166944761Y-102946666D01*
X167059047Y-102946666D01*
X167211428Y-102908571D01*
X167287619Y-102870476D01*
X167363809Y-102794285D01*
X167401904Y-102680000D01*
X167401904Y-102603809D01*
X167363809Y-102489523D01*
X167325714Y-102451428D01*
X167059047Y-102451428D01*
X167059047Y-102603809D01*
X167401904Y-102108571D02*
X166601904Y-102108571D01*
X167401904Y-101651428D01*
X166601904Y-101651428D01*
X167401904Y-101270476D02*
X166601904Y-101270476D01*
X166601904Y-101080000D01*
X166640000Y-100965714D01*
X166716190Y-100889523D01*
X166792380Y-100851428D01*
X166944761Y-100813333D01*
X167059047Y-100813333D01*
X167211428Y-100851428D01*
X167287619Y-100889523D01*
X167363809Y-100965714D01*
X167401904Y-101080000D01*
X167401904Y-101270476D01*
X167093333Y-111131428D02*
X167093333Y-110750476D01*
X167321904Y-111207619D02*
X166521904Y-110940952D01*
X167321904Y-110674285D01*
X167321904Y-110407619D02*
X166521904Y-110407619D01*
X166521904Y-110217142D01*
X166560000Y-110102857D01*
X166636190Y-110026666D01*
X166712380Y-109988571D01*
X166864761Y-109950476D01*
X166979047Y-109950476D01*
X167131428Y-109988571D01*
X167207619Y-110026666D01*
X167283809Y-110102857D01*
X167321904Y-110217142D01*
X167321904Y-110407619D01*
X166521904Y-109455238D02*
X166521904Y-109379047D01*
X166560000Y-109302857D01*
X166598095Y-109264761D01*
X166674285Y-109226666D01*
X166826666Y-109188571D01*
X167017142Y-109188571D01*
X167169523Y-109226666D01*
X167245714Y-109264761D01*
X167283809Y-109302857D01*
X167321904Y-109379047D01*
X167321904Y-109455238D01*
X167283809Y-109531428D01*
X167245714Y-109569523D01*
X167169523Y-109607619D01*
X167017142Y-109645714D01*
X166826666Y-109645714D01*
X166674285Y-109607619D01*
X166598095Y-109569523D01*
X166560000Y-109531428D01*
X166521904Y-109455238D01*
X146390476Y-114400000D02*
X146314285Y-114361904D01*
X146200000Y-114361904D01*
X146085714Y-114400000D01*
X146009523Y-114476190D01*
X145971428Y-114552380D01*
X145933333Y-114704761D01*
X145933333Y-114819047D01*
X145971428Y-114971428D01*
X146009523Y-115047619D01*
X146085714Y-115123809D01*
X146200000Y-115161904D01*
X146276190Y-115161904D01*
X146390476Y-115123809D01*
X146428571Y-115085714D01*
X146428571Y-114819047D01*
X146276190Y-114819047D01*
X146771428Y-115161904D02*
X146771428Y-114361904D01*
X147228571Y-115161904D01*
X147228571Y-114361904D01*
X147609523Y-115161904D02*
X147609523Y-114361904D01*
X147800000Y-114361904D01*
X147914285Y-114400000D01*
X147990476Y-114476190D01*
X148028571Y-114552380D01*
X148066666Y-114704761D01*
X148066666Y-114819047D01*
X148028571Y-114971428D01*
X147990476Y-115047619D01*
X147914285Y-115123809D01*
X147800000Y-115161904D01*
X147609523Y-115161904D01*
X135100476Y-114520000D02*
X135024285Y-114481904D01*
X134910000Y-114481904D01*
X134795714Y-114520000D01*
X134719523Y-114596190D01*
X134681428Y-114672380D01*
X134643333Y-114824761D01*
X134643333Y-114939047D01*
X134681428Y-115091428D01*
X134719523Y-115167619D01*
X134795714Y-115243809D01*
X134910000Y-115281904D01*
X134986190Y-115281904D01*
X135100476Y-115243809D01*
X135138571Y-115205714D01*
X135138571Y-114939047D01*
X134986190Y-114939047D01*
X135481428Y-115281904D02*
X135481428Y-114481904D01*
X135938571Y-115281904D01*
X135938571Y-114481904D01*
X136319523Y-115281904D02*
X136319523Y-114481904D01*
X136510000Y-114481904D01*
X136624285Y-114520000D01*
X136700476Y-114596190D01*
X136738571Y-114672380D01*
X136776666Y-114824761D01*
X136776666Y-114939047D01*
X136738571Y-115091428D01*
X136700476Y-115167619D01*
X136624285Y-115243809D01*
X136510000Y-115281904D01*
X136319523Y-115281904D01*
X117860476Y-114610000D02*
X117784285Y-114571904D01*
X117670000Y-114571904D01*
X117555714Y-114610000D01*
X117479523Y-114686190D01*
X117441428Y-114762380D01*
X117403333Y-114914761D01*
X117403333Y-115029047D01*
X117441428Y-115181428D01*
X117479523Y-115257619D01*
X117555714Y-115333809D01*
X117670000Y-115371904D01*
X117746190Y-115371904D01*
X117860476Y-115333809D01*
X117898571Y-115295714D01*
X117898571Y-115029047D01*
X117746190Y-115029047D01*
X118241428Y-115371904D02*
X118241428Y-114571904D01*
X118698571Y-115371904D01*
X118698571Y-114571904D01*
X119079523Y-115371904D02*
X119079523Y-114571904D01*
X119270000Y-114571904D01*
X119384285Y-114610000D01*
X119460476Y-114686190D01*
X119498571Y-114762380D01*
X119536666Y-114914761D01*
X119536666Y-115029047D01*
X119498571Y-115181428D01*
X119460476Y-115257619D01*
X119384285Y-115333809D01*
X119270000Y-115371904D01*
X119079523Y-115371904D01*
X111030000Y-71010476D02*
X111068095Y-70934285D01*
X111068095Y-70820000D01*
X111030000Y-70705714D01*
X110953809Y-70629523D01*
X110877619Y-70591428D01*
X110725238Y-70553333D01*
X110610952Y-70553333D01*
X110458571Y-70591428D01*
X110382380Y-70629523D01*
X110306190Y-70705714D01*
X110268095Y-70820000D01*
X110268095Y-70896190D01*
X110306190Y-71010476D01*
X110344285Y-71048571D01*
X110610952Y-71048571D01*
X110610952Y-70896190D01*
X110268095Y-71391428D02*
X111068095Y-71391428D01*
X110268095Y-71848571D01*
X111068095Y-71848571D01*
X110268095Y-72229523D02*
X111068095Y-72229523D01*
X111068095Y-72420000D01*
X111030000Y-72534285D01*
X110953809Y-72610476D01*
X110877619Y-72648571D01*
X110725238Y-72686666D01*
X110610952Y-72686666D01*
X110458571Y-72648571D01*
X110382380Y-72610476D01*
X110306190Y-72534285D01*
X110268095Y-72420000D01*
X110268095Y-72229523D01*
X111010000Y-67050476D02*
X111048095Y-66974285D01*
X111048095Y-66860000D01*
X111010000Y-66745714D01*
X110933809Y-66669523D01*
X110857619Y-66631428D01*
X110705238Y-66593333D01*
X110590952Y-66593333D01*
X110438571Y-66631428D01*
X110362380Y-66669523D01*
X110286190Y-66745714D01*
X110248095Y-66860000D01*
X110248095Y-66936190D01*
X110286190Y-67050476D01*
X110324285Y-67088571D01*
X110590952Y-67088571D01*
X110590952Y-66936190D01*
X110248095Y-67431428D02*
X111048095Y-67431428D01*
X110248095Y-67888571D01*
X111048095Y-67888571D01*
X110248095Y-68269523D02*
X111048095Y-68269523D01*
X111048095Y-68460000D01*
X111010000Y-68574285D01*
X110933809Y-68650476D01*
X110857619Y-68688571D01*
X110705238Y-68726666D01*
X110590952Y-68726666D01*
X110438571Y-68688571D01*
X110362380Y-68650476D01*
X110286190Y-68574285D01*
X110248095Y-68460000D01*
X110248095Y-68269523D01*
X111068095Y-63933333D02*
X110268095Y-64200000D01*
X111068095Y-64466666D01*
X110344285Y-65190476D02*
X110306190Y-65152380D01*
X110268095Y-65038095D01*
X110268095Y-64961904D01*
X110306190Y-64847619D01*
X110382380Y-64771428D01*
X110458571Y-64733333D01*
X110610952Y-64695238D01*
X110725238Y-64695238D01*
X110877619Y-64733333D01*
X110953809Y-64771428D01*
X111030000Y-64847619D01*
X111068095Y-64961904D01*
X111068095Y-65038095D01*
X111030000Y-65152380D01*
X110991904Y-65190476D01*
X110344285Y-65990476D02*
X110306190Y-65952380D01*
X110268095Y-65838095D01*
X110268095Y-65761904D01*
X110306190Y-65647619D01*
X110382380Y-65571428D01*
X110458571Y-65533333D01*
X110610952Y-65495238D01*
X110725238Y-65495238D01*
X110877619Y-65533333D01*
X110953809Y-65571428D01*
X111030000Y-65647619D01*
X111068095Y-65761904D01*
X111068095Y-65838095D01*
X111030000Y-65952380D01*
X110991904Y-65990476D01*
%TO.C,C6*%
X157374000Y-89458748D02*
X157374000Y-90881252D01*
X155554000Y-89458748D02*
X155554000Y-90881252D01*
%TO.C,Jult1*%
X135576000Y-108906000D02*
X135576000Y-114106000D01*
X153416000Y-108906000D02*
X135576000Y-108906000D01*
X156016000Y-114106000D02*
X135576000Y-114106000D01*
X153416000Y-108906000D02*
X153416000Y-111506000D01*
X153416000Y-111506000D02*
X156016000Y-111506000D01*
X156016000Y-111506000D02*
X156016000Y-114106000D01*
X154686000Y-108906000D02*
X156016000Y-108906000D01*
X156016000Y-108906000D02*
X156016000Y-110236000D01*
%TO.C,Jpwm2*%
X114614000Y-102048000D02*
X111954000Y-102048000D01*
X114614000Y-107188000D02*
X114614000Y-102048000D01*
X111954000Y-107188000D02*
X111954000Y-102048000D01*
X114614000Y-107188000D02*
X111954000Y-107188000D01*
X114614000Y-108458000D02*
X114614000Y-109788000D01*
X114614000Y-109788000D02*
X113284000Y-109788000D01*
%TO.C,Jpwm1*%
X114614000Y-92650000D02*
X111954000Y-92650000D01*
X114614000Y-97790000D02*
X114614000Y-92650000D01*
X111954000Y-97790000D02*
X111954000Y-92650000D01*
X114614000Y-97790000D02*
X111954000Y-97790000D01*
X114614000Y-99060000D02*
X114614000Y-100390000D01*
X114614000Y-100390000D02*
X113284000Y-100390000D01*
%TO.C,C4*%
X148484000Y-76504748D02*
X148484000Y-77927252D01*
X146664000Y-76504748D02*
X146664000Y-77927252D01*
%TO.C,START*%
X155536000Y-72628000D02*
X155536000Y-77128000D01*
X159536000Y-71378000D02*
X158036000Y-71378000D01*
X162036000Y-77128000D02*
X162036000Y-72628000D01*
X158036000Y-78378000D02*
X159536000Y-78378000D01*
%TO.C,RESET*%
X131080000Y-89750000D02*
X126580000Y-89750000D01*
X132330000Y-93750000D02*
X132330000Y-92250000D01*
X126580000Y-96250000D02*
X131080000Y-96250000D01*
X125330000Y-92250000D02*
X125330000Y-93750000D01*
%TO.C,Ro2*%
X135234000Y-72101064D02*
X135234000Y-70646936D01*
X137054000Y-72101064D02*
X137054000Y-70646936D01*
%TO.C,Ro1*%
X140102000Y-70646936D02*
X140102000Y-72101064D01*
X138282000Y-70646936D02*
X138282000Y-72101064D01*
%TO.C,R5*%
X156866000Y-96808936D02*
X156866000Y-98263064D01*
X155046000Y-96808936D02*
X155046000Y-98263064D01*
%TO.C,R4*%
X160168000Y-96808936D02*
X160168000Y-98263064D01*
X158348000Y-96808936D02*
X158348000Y-98263064D01*
%TO.C,R3*%
X132186000Y-72101064D02*
X132186000Y-70646936D01*
X134006000Y-72101064D02*
X134006000Y-70646936D01*
%TO.C,R2*%
X153310000Y-77951436D02*
X153310000Y-79405564D01*
X151490000Y-77951436D02*
X151490000Y-79405564D01*
%TO.C,R1*%
X122576000Y-89442936D02*
X122576000Y-90897064D01*
X120756000Y-89442936D02*
X120756000Y-90897064D01*
%TO.C,Q1*%
X120578000Y-74146000D02*
X120578000Y-77746000D01*
X120589522Y-77784478D02*
G75*
G03*
X125028000Y-75946000I1838478J1838478D01*
G01*
X120589522Y-74107522D02*
G75*
G02*
X125028000Y-75946000I1838478J-1838478D01*
G01*
%TO.C,Lo1*%
X133763936Y-63918000D02*
X134968064Y-63918000D01*
X133763936Y-66638000D02*
X134968064Y-66638000D01*
%TO.C,Jvac1*%
X111446000Y-75498000D02*
X114106000Y-75498000D01*
X111446000Y-72898000D02*
X111446000Y-75498000D01*
X114106000Y-72898000D02*
X114106000Y-75498000D01*
X111446000Y-72898000D02*
X114106000Y-72898000D01*
X111446000Y-71628000D02*
X111446000Y-70298000D01*
X111446000Y-70298000D02*
X112776000Y-70298000D01*
%TO.C,Juart1*%
X163770000Y-73974000D02*
X166430000Y-73974000D01*
X163770000Y-66294000D02*
X163770000Y-73974000D01*
X166430000Y-66294000D02*
X166430000Y-73974000D01*
X163770000Y-66294000D02*
X166430000Y-66294000D01*
X163770000Y-65024000D02*
X163770000Y-63694000D01*
X163770000Y-63694000D02*
X165100000Y-63694000D01*
%TO.C,Jpow1*%
X111446000Y-68894000D02*
X114106000Y-68894000D01*
X111446000Y-66294000D02*
X111446000Y-68894000D01*
X114106000Y-66294000D02*
X114106000Y-68894000D01*
X111446000Y-66294000D02*
X114106000Y-66294000D01*
X111446000Y-65024000D02*
X111446000Y-63694000D01*
X111446000Y-63694000D02*
X112776000Y-63694000D01*
%TO.C,Jodo1*%
X161858000Y-68894000D02*
X161858000Y-63694000D01*
X156718000Y-68894000D02*
X161858000Y-68894000D01*
X154118000Y-63694000D02*
X161858000Y-63694000D01*
X156718000Y-68894000D02*
X156718000Y-66294000D01*
X156718000Y-66294000D02*
X154118000Y-66294000D01*
X154118000Y-66294000D02*
X154118000Y-63694000D01*
X155448000Y-68894000D02*
X154118000Y-68894000D01*
X154118000Y-68894000D02*
X154118000Y-67564000D01*
%TO.C,Jir1*%
X161484000Y-96072000D02*
X166684000Y-96072000D01*
X161484000Y-83312000D02*
X161484000Y-96072000D01*
X166684000Y-80712000D02*
X166684000Y-96072000D01*
X161484000Y-83312000D02*
X164084000Y-83312000D01*
X164084000Y-83312000D02*
X164084000Y-80712000D01*
X164084000Y-80712000D02*
X166684000Y-80712000D01*
X161484000Y-82042000D02*
X161484000Y-80712000D01*
X161484000Y-80712000D02*
X162814000Y-80712000D01*
%TO.C,Ji2c1*%
X163516000Y-113852000D02*
X166176000Y-113852000D01*
X163516000Y-101092000D02*
X163516000Y-113852000D01*
X166176000Y-101092000D02*
X166176000Y-113852000D01*
X163516000Y-101092000D02*
X166176000Y-101092000D01*
X163516000Y-99822000D02*
X163516000Y-98492000D01*
X163516000Y-98492000D02*
X164846000Y-98492000D01*
%TO.C,Jdbg1*%
X111954000Y-111700000D02*
X111954000Y-114360000D01*
X122174000Y-111700000D02*
X111954000Y-111700000D01*
X122174000Y-114360000D02*
X111954000Y-114360000D01*
X122174000Y-111700000D02*
X122174000Y-114360000D01*
X123444000Y-111700000D02*
X124774000Y-111700000D01*
X124774000Y-111700000D02*
X124774000Y-113030000D01*
%TO.C,Jbat1*%
X114614000Y-78934000D02*
X111954000Y-78934000D01*
X114614000Y-86614000D02*
X114614000Y-78934000D01*
X111954000Y-86614000D02*
X111954000Y-78934000D01*
X114614000Y-86614000D02*
X111954000Y-86614000D01*
X114614000Y-87884000D02*
X114614000Y-89214000D01*
X114614000Y-89214000D02*
X113284000Y-89214000D01*
%TO.C,ICtrig1*%
X153162000Y-107383000D02*
X155362000Y-107383000D01*
X153162000Y-107383000D02*
X150962000Y-107383000D01*
X153162000Y-101913000D02*
X155362000Y-101913000D01*
X153162000Y-101913000D02*
X149562000Y-101913000D01*
%TO.C,ICecho1*%
X146284000Y-103378000D02*
X146284000Y-101428000D01*
X146284000Y-103378000D02*
X146284000Y-105328000D01*
X136164000Y-103378000D02*
X136164000Y-101428000D01*
X136164000Y-103378000D02*
X136164000Y-106828000D01*
%TO.C,ICbat1*%
X124480000Y-83820000D02*
X124480000Y-85770000D01*
X124480000Y-83820000D02*
X124480000Y-81870000D01*
X134600000Y-83820000D02*
X134600000Y-85770000D01*
X134600000Y-83820000D02*
X134600000Y-80370000D01*
%TO.C,IC3*%
X148722000Y-71482000D02*
X148722000Y-70222000D01*
X148722000Y-64662000D02*
X148722000Y-65922000D01*
X144962000Y-71482000D02*
X148722000Y-71482000D01*
X142712000Y-64662000D02*
X148722000Y-64662000D01*
D11*
%TO.C,IC2*%
X120861000Y-67783000D02*
X120861000Y-67983000D01*
X125011000Y-67783000D02*
X125011000Y-67983000D01*
X125011000Y-72933000D02*
X125011000Y-72733000D01*
X120861000Y-72933000D02*
X120861000Y-72733000D01*
X120861000Y-67783000D02*
X125011000Y-67783000D01*
X120861000Y-72933000D02*
X125011000Y-72933000D01*
X120861000Y-67983000D02*
X119561000Y-67983000D01*
D10*
%TO.C,IC1*%
X152242000Y-93502000D02*
X153192000Y-93502000D01*
X153192000Y-93502000D02*
X153192000Y-92552000D01*
X143922000Y-93502000D02*
X142972000Y-93502000D01*
X142972000Y-93502000D02*
X142972000Y-92552000D01*
X152242000Y-83282000D02*
X153192000Y-83282000D01*
X153192000Y-83282000D02*
X153192000Y-84232000D01*
X143922000Y-83282000D02*
X142972000Y-83282000D01*
X142972000Y-83282000D02*
X142972000Y-84232000D01*
X142972000Y-84232000D02*
X141682000Y-84232000D01*
%TO.C,ON*%
X140073000Y-82372000D02*
X140073000Y-78487000D01*
X140073000Y-78487000D02*
X137803000Y-78487000D01*
X137803000Y-78487000D02*
X137803000Y-82372000D01*
%TO.C,D1*%
X131048000Y-63790000D02*
X129048000Y-63790000D01*
X129048000Y-63790000D02*
X129048000Y-67690000D01*
X131048000Y-63790000D02*
X131048000Y-67690000D01*
%TO.C,Css1*%
X118004000Y-73456748D02*
X118004000Y-74879252D01*
X116184000Y-73456748D02*
X116184000Y-74879252D01*
%TO.C,C11*%
X139340000Y-65328748D02*
X139340000Y-66751252D01*
X137520000Y-65328748D02*
X137520000Y-66751252D01*
%TO.C,C10*%
X129138000Y-72085252D02*
X129138000Y-70662748D01*
X130958000Y-72085252D02*
X130958000Y-70662748D01*
%TO.C,C9*%
X130606748Y-74528000D02*
X132029252Y-74528000D01*
X130606748Y-76348000D02*
X132029252Y-76348000D01*
%TO.C,C8*%
X123647252Y-66696000D02*
X122224748Y-66696000D01*
X123647252Y-64876000D02*
X122224748Y-64876000D01*
%TO.C,C7*%
X115422000Y-69545252D02*
X115422000Y-68122748D01*
X117242000Y-69545252D02*
X117242000Y-68122748D01*
%TO.C,C5*%
X151786000Y-98094748D02*
X151786000Y-99517252D01*
X149966000Y-98094748D02*
X149966000Y-99517252D01*
%TO.C,C3*%
X143150000Y-74218748D02*
X143150000Y-75641252D01*
X141330000Y-74218748D02*
X141330000Y-75641252D01*
%TO.C,C2*%
X142544748Y-96880000D02*
X143967252Y-96880000D01*
X142544748Y-98700000D02*
X143967252Y-98700000D01*
%TO.C,C1*%
X135940748Y-88752000D02*
X137363252Y-88752000D01*
X135940748Y-90572000D02*
X137363252Y-90572000D01*
%TO.C,C6*%
D11*
X158671142Y-90336666D02*
X158718761Y-90384285D01*
X158766380Y-90527142D01*
X158766380Y-90622380D01*
X158718761Y-90765238D01*
X158623523Y-90860476D01*
X158528285Y-90908095D01*
X158337809Y-90955714D01*
X158194952Y-90955714D01*
X158004476Y-90908095D01*
X157909238Y-90860476D01*
X157814000Y-90765238D01*
X157766380Y-90622380D01*
X157766380Y-90527142D01*
X157814000Y-90384285D01*
X157861619Y-90336666D01*
X157766380Y-89479523D02*
X157766380Y-89670000D01*
X157814000Y-89765238D01*
X157861619Y-89812857D01*
X158004476Y-89908095D01*
X158194952Y-89955714D01*
X158575904Y-89955714D01*
X158671142Y-89908095D01*
X158718761Y-89860476D01*
X158766380Y-89765238D01*
X158766380Y-89574761D01*
X158718761Y-89479523D01*
X158671142Y-89431904D01*
X158575904Y-89384285D01*
X158337809Y-89384285D01*
X158242571Y-89431904D01*
X158194952Y-89479523D01*
X158147333Y-89574761D01*
X158147333Y-89765238D01*
X158194952Y-89860476D01*
X158242571Y-89908095D01*
X158337809Y-89955714D01*
%TO.C,Jult1*%
X156468380Y-112839333D02*
X157182666Y-112839333D01*
X157325523Y-112886952D01*
X157420761Y-112982190D01*
X157468380Y-113125047D01*
X157468380Y-113220285D01*
X156801714Y-111934571D02*
X157468380Y-111934571D01*
X156801714Y-112363142D02*
X157325523Y-112363142D01*
X157420761Y-112315523D01*
X157468380Y-112220285D01*
X157468380Y-112077428D01*
X157420761Y-111982190D01*
X157373142Y-111934571D01*
X157468380Y-111315523D02*
X157420761Y-111410761D01*
X157325523Y-111458380D01*
X156468380Y-111458380D01*
X156801714Y-111077428D02*
X156801714Y-110696476D01*
X156468380Y-110934571D02*
X157325523Y-110934571D01*
X157420761Y-110886952D01*
X157468380Y-110791714D01*
X157468380Y-110696476D01*
X157468380Y-109839333D02*
X157468380Y-110410761D01*
X157468380Y-110125047D02*
X156468380Y-110125047D01*
X156611238Y-110220285D01*
X156706476Y-110315523D01*
X156754095Y-110410761D01*
%TO.C,Jpwm2*%
X111307809Y-110240380D02*
X111307809Y-110954666D01*
X111260190Y-111097523D01*
X111164952Y-111192761D01*
X111022095Y-111240380D01*
X110926857Y-111240380D01*
X111784000Y-110573714D02*
X111784000Y-111573714D01*
X111784000Y-110621333D02*
X111879238Y-110573714D01*
X112069714Y-110573714D01*
X112164952Y-110621333D01*
X112212571Y-110668952D01*
X112260190Y-110764190D01*
X112260190Y-111049904D01*
X112212571Y-111145142D01*
X112164952Y-111192761D01*
X112069714Y-111240380D01*
X111879238Y-111240380D01*
X111784000Y-111192761D01*
X112593523Y-110573714D02*
X112784000Y-111240380D01*
X112974476Y-110764190D01*
X113164952Y-111240380D01*
X113355428Y-110573714D01*
X113736380Y-111240380D02*
X113736380Y-110573714D01*
X113736380Y-110668952D02*
X113784000Y-110621333D01*
X113879238Y-110573714D01*
X114022095Y-110573714D01*
X114117333Y-110621333D01*
X114164952Y-110716571D01*
X114164952Y-111240380D01*
X114164952Y-110716571D02*
X114212571Y-110621333D01*
X114307809Y-110573714D01*
X114450666Y-110573714D01*
X114545904Y-110621333D01*
X114593523Y-110716571D01*
X114593523Y-111240380D01*
X115022095Y-110335619D02*
X115069714Y-110288000D01*
X115164952Y-110240380D01*
X115403047Y-110240380D01*
X115498285Y-110288000D01*
X115545904Y-110335619D01*
X115593523Y-110430857D01*
X115593523Y-110526095D01*
X115545904Y-110668952D01*
X114974476Y-111240380D01*
X115593523Y-111240380D01*
%TO.C,Jpwm1*%
X111307809Y-100842380D02*
X111307809Y-101556666D01*
X111260190Y-101699523D01*
X111164952Y-101794761D01*
X111022095Y-101842380D01*
X110926857Y-101842380D01*
X111784000Y-101175714D02*
X111784000Y-102175714D01*
X111784000Y-101223333D02*
X111879238Y-101175714D01*
X112069714Y-101175714D01*
X112164952Y-101223333D01*
X112212571Y-101270952D01*
X112260190Y-101366190D01*
X112260190Y-101651904D01*
X112212571Y-101747142D01*
X112164952Y-101794761D01*
X112069714Y-101842380D01*
X111879238Y-101842380D01*
X111784000Y-101794761D01*
X112593523Y-101175714D02*
X112784000Y-101842380D01*
X112974476Y-101366190D01*
X113164952Y-101842380D01*
X113355428Y-101175714D01*
X113736380Y-101842380D02*
X113736380Y-101175714D01*
X113736380Y-101270952D02*
X113784000Y-101223333D01*
X113879238Y-101175714D01*
X114022095Y-101175714D01*
X114117333Y-101223333D01*
X114164952Y-101318571D01*
X114164952Y-101842380D01*
X114164952Y-101318571D02*
X114212571Y-101223333D01*
X114307809Y-101175714D01*
X114450666Y-101175714D01*
X114545904Y-101223333D01*
X114593523Y-101318571D01*
X114593523Y-101842380D01*
X115593523Y-101842380D02*
X115022095Y-101842380D01*
X115307809Y-101842380D02*
X115307809Y-100842380D01*
X115212571Y-100985238D01*
X115117333Y-101080476D01*
X115022095Y-101128095D01*
%TO.C,C4*%
X149781142Y-77382666D02*
X149828761Y-77430285D01*
X149876380Y-77573142D01*
X149876380Y-77668380D01*
X149828761Y-77811238D01*
X149733523Y-77906476D01*
X149638285Y-77954095D01*
X149447809Y-78001714D01*
X149304952Y-78001714D01*
X149114476Y-77954095D01*
X149019238Y-77906476D01*
X148924000Y-77811238D01*
X148876380Y-77668380D01*
X148876380Y-77573142D01*
X148924000Y-77430285D01*
X148971619Y-77382666D01*
X149209714Y-76525523D02*
X149876380Y-76525523D01*
X148828761Y-76763619D02*
X149543047Y-77001714D01*
X149543047Y-76382666D01*
%TO.C,START*%
X163440761Y-76854190D02*
X163488380Y-76711333D01*
X163488380Y-76473238D01*
X163440761Y-76378000D01*
X163393142Y-76330380D01*
X163297904Y-76282761D01*
X163202666Y-76282761D01*
X163107428Y-76330380D01*
X163059809Y-76378000D01*
X163012190Y-76473238D01*
X162964571Y-76663714D01*
X162916952Y-76758952D01*
X162869333Y-76806571D01*
X162774095Y-76854190D01*
X162678857Y-76854190D01*
X162583619Y-76806571D01*
X162536000Y-76758952D01*
X162488380Y-76663714D01*
X162488380Y-76425619D01*
X162536000Y-76282761D01*
X162488380Y-75997047D02*
X162488380Y-75425619D01*
X163488380Y-75711333D02*
X162488380Y-75711333D01*
X163202666Y-75139904D02*
X163202666Y-74663714D01*
X163488380Y-75235142D02*
X162488380Y-74901809D01*
X163488380Y-74568476D01*
X163488380Y-73663714D02*
X163012190Y-73997047D01*
X163488380Y-74235142D02*
X162488380Y-74235142D01*
X162488380Y-73854190D01*
X162536000Y-73758952D01*
X162583619Y-73711333D01*
X162678857Y-73663714D01*
X162821714Y-73663714D01*
X162916952Y-73711333D01*
X162964571Y-73758952D01*
X163012190Y-73854190D01*
X163012190Y-74235142D01*
X162488380Y-73378000D02*
X162488380Y-72806571D01*
X163488380Y-73092285D02*
X162488380Y-73092285D01*
%TO.C,RESET*%
X127377619Y-97702380D02*
X127044285Y-97226190D01*
X126806190Y-97702380D02*
X126806190Y-96702380D01*
X127187142Y-96702380D01*
X127282380Y-96750000D01*
X127330000Y-96797619D01*
X127377619Y-96892857D01*
X127377619Y-97035714D01*
X127330000Y-97130952D01*
X127282380Y-97178571D01*
X127187142Y-97226190D01*
X126806190Y-97226190D01*
X127806190Y-97178571D02*
X128139523Y-97178571D01*
X128282380Y-97702380D02*
X127806190Y-97702380D01*
X127806190Y-96702380D01*
X128282380Y-96702380D01*
X128663333Y-97654761D02*
X128806190Y-97702380D01*
X129044285Y-97702380D01*
X129139523Y-97654761D01*
X129187142Y-97607142D01*
X129234761Y-97511904D01*
X129234761Y-97416666D01*
X129187142Y-97321428D01*
X129139523Y-97273809D01*
X129044285Y-97226190D01*
X128853809Y-97178571D01*
X128758571Y-97130952D01*
X128710952Y-97083333D01*
X128663333Y-96988095D01*
X128663333Y-96892857D01*
X128710952Y-96797619D01*
X128758571Y-96750000D01*
X128853809Y-96702380D01*
X129091904Y-96702380D01*
X129234761Y-96750000D01*
X129663333Y-97178571D02*
X129996666Y-97178571D01*
X130139523Y-97702380D02*
X129663333Y-97702380D01*
X129663333Y-96702380D01*
X130139523Y-96702380D01*
X130425238Y-96702380D02*
X130996666Y-96702380D01*
X130710952Y-97702380D02*
X130710952Y-96702380D01*
%TO.C,Ro2*%
X134776380Y-71993047D02*
X134300190Y-72326380D01*
X134776380Y-72564476D02*
X133776380Y-72564476D01*
X133776380Y-72183523D01*
X133824000Y-72088285D01*
X133871619Y-72040666D01*
X133966857Y-71993047D01*
X134109714Y-71993047D01*
X134204952Y-72040666D01*
X134252571Y-72088285D01*
X134300190Y-72183523D01*
X134300190Y-72564476D01*
X134776380Y-71421619D02*
X134728761Y-71516857D01*
X134681142Y-71564476D01*
X134585904Y-71612095D01*
X134300190Y-71612095D01*
X134204952Y-71564476D01*
X134157333Y-71516857D01*
X134109714Y-71421619D01*
X134109714Y-71278761D01*
X134157333Y-71183523D01*
X134204952Y-71135904D01*
X134300190Y-71088285D01*
X134585904Y-71088285D01*
X134681142Y-71135904D01*
X134728761Y-71183523D01*
X134776380Y-71278761D01*
X134776380Y-71421619D01*
X133871619Y-70707333D02*
X133824000Y-70659714D01*
X133776380Y-70564476D01*
X133776380Y-70326380D01*
X133824000Y-70231142D01*
X133871619Y-70183523D01*
X133966857Y-70135904D01*
X134062095Y-70135904D01*
X134204952Y-70183523D01*
X134776380Y-70754952D01*
X134776380Y-70135904D01*
%TO.C,Ro1*%
X141464380Y-71993047D02*
X140988190Y-72326380D01*
X141464380Y-72564476D02*
X140464380Y-72564476D01*
X140464380Y-72183523D01*
X140512000Y-72088285D01*
X140559619Y-72040666D01*
X140654857Y-71993047D01*
X140797714Y-71993047D01*
X140892952Y-72040666D01*
X140940571Y-72088285D01*
X140988190Y-72183523D01*
X140988190Y-72564476D01*
X141464380Y-71421619D02*
X141416761Y-71516857D01*
X141369142Y-71564476D01*
X141273904Y-71612095D01*
X140988190Y-71612095D01*
X140892952Y-71564476D01*
X140845333Y-71516857D01*
X140797714Y-71421619D01*
X140797714Y-71278761D01*
X140845333Y-71183523D01*
X140892952Y-71135904D01*
X140988190Y-71088285D01*
X141273904Y-71088285D01*
X141369142Y-71135904D01*
X141416761Y-71183523D01*
X141464380Y-71278761D01*
X141464380Y-71421619D01*
X141464380Y-70135904D02*
X141464380Y-70707333D01*
X141464380Y-70421619D02*
X140464380Y-70421619D01*
X140607238Y-70516857D01*
X140702476Y-70612095D01*
X140750095Y-70707333D01*
%TO.C,R5*%
X158228380Y-97702666D02*
X157752190Y-98036000D01*
X158228380Y-98274095D02*
X157228380Y-98274095D01*
X157228380Y-97893142D01*
X157276000Y-97797904D01*
X157323619Y-97750285D01*
X157418857Y-97702666D01*
X157561714Y-97702666D01*
X157656952Y-97750285D01*
X157704571Y-97797904D01*
X157752190Y-97893142D01*
X157752190Y-98274095D01*
X157228380Y-96797904D02*
X157228380Y-97274095D01*
X157704571Y-97321714D01*
X157656952Y-97274095D01*
X157609333Y-97178857D01*
X157609333Y-96940761D01*
X157656952Y-96845523D01*
X157704571Y-96797904D01*
X157799809Y-96750285D01*
X158037904Y-96750285D01*
X158133142Y-96797904D01*
X158180761Y-96845523D01*
X158228380Y-96940761D01*
X158228380Y-97178857D01*
X158180761Y-97274095D01*
X158133142Y-97321714D01*
%TO.C,R4*%
X161530380Y-97702666D02*
X161054190Y-98036000D01*
X161530380Y-98274095D02*
X160530380Y-98274095D01*
X160530380Y-97893142D01*
X160578000Y-97797904D01*
X160625619Y-97750285D01*
X160720857Y-97702666D01*
X160863714Y-97702666D01*
X160958952Y-97750285D01*
X161006571Y-97797904D01*
X161054190Y-97893142D01*
X161054190Y-98274095D01*
X160863714Y-96845523D02*
X161530380Y-96845523D01*
X160482761Y-97083619D02*
X161197047Y-97321714D01*
X161197047Y-96702666D01*
%TO.C,R3*%
X131728380Y-71540666D02*
X131252190Y-71874000D01*
X131728380Y-72112095D02*
X130728380Y-72112095D01*
X130728380Y-71731142D01*
X130776000Y-71635904D01*
X130823619Y-71588285D01*
X130918857Y-71540666D01*
X131061714Y-71540666D01*
X131156952Y-71588285D01*
X131204571Y-71635904D01*
X131252190Y-71731142D01*
X131252190Y-72112095D01*
X130728380Y-71207333D02*
X130728380Y-70588285D01*
X131109333Y-70921619D01*
X131109333Y-70778761D01*
X131156952Y-70683523D01*
X131204571Y-70635904D01*
X131299809Y-70588285D01*
X131537904Y-70588285D01*
X131633142Y-70635904D01*
X131680761Y-70683523D01*
X131728380Y-70778761D01*
X131728380Y-71064476D01*
X131680761Y-71159714D01*
X131633142Y-71207333D01*
%TO.C,R2*%
X154672380Y-78845166D02*
X154196190Y-79178500D01*
X154672380Y-79416595D02*
X153672380Y-79416595D01*
X153672380Y-79035642D01*
X153720000Y-78940404D01*
X153767619Y-78892785D01*
X153862857Y-78845166D01*
X154005714Y-78845166D01*
X154100952Y-78892785D01*
X154148571Y-78940404D01*
X154196190Y-79035642D01*
X154196190Y-79416595D01*
X153767619Y-78464214D02*
X153720000Y-78416595D01*
X153672380Y-78321357D01*
X153672380Y-78083261D01*
X153720000Y-77988023D01*
X153767619Y-77940404D01*
X153862857Y-77892785D01*
X153958095Y-77892785D01*
X154100952Y-77940404D01*
X154672380Y-78511833D01*
X154672380Y-77892785D01*
%TO.C,R1*%
X123938380Y-90336666D02*
X123462190Y-90670000D01*
X123938380Y-90908095D02*
X122938380Y-90908095D01*
X122938380Y-90527142D01*
X122986000Y-90431904D01*
X123033619Y-90384285D01*
X123128857Y-90336666D01*
X123271714Y-90336666D01*
X123366952Y-90384285D01*
X123414571Y-90431904D01*
X123462190Y-90527142D01*
X123462190Y-90908095D01*
X123938380Y-89384285D02*
X123938380Y-89955714D01*
X123938380Y-89670000D02*
X122938380Y-89670000D01*
X123081238Y-89765238D01*
X123176476Y-89860476D01*
X123224095Y-89955714D01*
%TO.C,Q1*%
X126535619Y-76041238D02*
X126488000Y-76136476D01*
X126392761Y-76231714D01*
X126249904Y-76374571D01*
X126202285Y-76469809D01*
X126202285Y-76565047D01*
X126440380Y-76517428D02*
X126392761Y-76612666D01*
X126297523Y-76707904D01*
X126107047Y-76755523D01*
X125773714Y-76755523D01*
X125583238Y-76707904D01*
X125488000Y-76612666D01*
X125440380Y-76517428D01*
X125440380Y-76326952D01*
X125488000Y-76231714D01*
X125583238Y-76136476D01*
X125773714Y-76088857D01*
X126107047Y-76088857D01*
X126297523Y-76136476D01*
X126392761Y-76231714D01*
X126440380Y-76326952D01*
X126440380Y-76517428D01*
X126440380Y-75136476D02*
X126440380Y-75707904D01*
X126440380Y-75422190D02*
X125440380Y-75422190D01*
X125583238Y-75517428D01*
X125678476Y-75612666D01*
X125726095Y-75707904D01*
%TO.C,Lo1*%
X133746952Y-63450380D02*
X133270761Y-63450380D01*
X133270761Y-62450380D01*
X134223142Y-63450380D02*
X134127904Y-63402761D01*
X134080285Y-63355142D01*
X134032666Y-63259904D01*
X134032666Y-62974190D01*
X134080285Y-62878952D01*
X134127904Y-62831333D01*
X134223142Y-62783714D01*
X134366000Y-62783714D01*
X134461238Y-62831333D01*
X134508857Y-62878952D01*
X134556476Y-62974190D01*
X134556476Y-63259904D01*
X134508857Y-63355142D01*
X134461238Y-63402761D01*
X134366000Y-63450380D01*
X134223142Y-63450380D01*
X135508857Y-63450380D02*
X134937428Y-63450380D01*
X135223142Y-63450380D02*
X135223142Y-62450380D01*
X135127904Y-62593238D01*
X135032666Y-62688476D01*
X134937428Y-62736095D01*
%TO.C,Jvac1*%
X111180761Y-68750380D02*
X111180761Y-69464666D01*
X111133142Y-69607523D01*
X111037904Y-69702761D01*
X110895047Y-69750380D01*
X110799809Y-69750380D01*
X111561714Y-69083714D02*
X111799809Y-69750380D01*
X112037904Y-69083714D01*
X112847428Y-69750380D02*
X112847428Y-69226571D01*
X112799809Y-69131333D01*
X112704571Y-69083714D01*
X112514095Y-69083714D01*
X112418857Y-69131333D01*
X112847428Y-69702761D02*
X112752190Y-69750380D01*
X112514095Y-69750380D01*
X112418857Y-69702761D01*
X112371238Y-69607523D01*
X112371238Y-69512285D01*
X112418857Y-69417047D01*
X112514095Y-69369428D01*
X112752190Y-69369428D01*
X112847428Y-69321809D01*
X113752190Y-69702761D02*
X113656952Y-69750380D01*
X113466476Y-69750380D01*
X113371238Y-69702761D01*
X113323619Y-69655142D01*
X113276000Y-69559904D01*
X113276000Y-69274190D01*
X113323619Y-69178952D01*
X113371238Y-69131333D01*
X113466476Y-69083714D01*
X113656952Y-69083714D01*
X113752190Y-69131333D01*
X114704571Y-69750380D02*
X114133142Y-69750380D01*
X114418857Y-69750380D02*
X114418857Y-68750380D01*
X114323619Y-68893238D01*
X114228380Y-68988476D01*
X114133142Y-69036095D01*
%TO.C,Juart1*%
X163336666Y-74682380D02*
X163336666Y-75396666D01*
X163289047Y-75539523D01*
X163193809Y-75634761D01*
X163050952Y-75682380D01*
X162955714Y-75682380D01*
X164241428Y-75015714D02*
X164241428Y-75682380D01*
X163812857Y-75015714D02*
X163812857Y-75539523D01*
X163860476Y-75634761D01*
X163955714Y-75682380D01*
X164098571Y-75682380D01*
X164193809Y-75634761D01*
X164241428Y-75587142D01*
X165146190Y-75682380D02*
X165146190Y-75158571D01*
X165098571Y-75063333D01*
X165003333Y-75015714D01*
X164812857Y-75015714D01*
X164717619Y-75063333D01*
X165146190Y-75634761D02*
X165050952Y-75682380D01*
X164812857Y-75682380D01*
X164717619Y-75634761D01*
X164670000Y-75539523D01*
X164670000Y-75444285D01*
X164717619Y-75349047D01*
X164812857Y-75301428D01*
X165050952Y-75301428D01*
X165146190Y-75253809D01*
X165622380Y-75682380D02*
X165622380Y-75015714D01*
X165622380Y-75206190D02*
X165670000Y-75110952D01*
X165717619Y-75063333D01*
X165812857Y-75015714D01*
X165908095Y-75015714D01*
X166098571Y-75015714D02*
X166479523Y-75015714D01*
X166241428Y-74682380D02*
X166241428Y-75539523D01*
X166289047Y-75634761D01*
X166384285Y-75682380D01*
X166479523Y-75682380D01*
X167336666Y-75682380D02*
X166765238Y-75682380D01*
X167050952Y-75682380D02*
X167050952Y-74682380D01*
X166955714Y-74825238D01*
X166860476Y-74920476D01*
X166765238Y-74968095D01*
%TO.C,Jpow1*%
X111014095Y-62146380D02*
X111014095Y-62860666D01*
X110966476Y-63003523D01*
X110871238Y-63098761D01*
X110728380Y-63146380D01*
X110633142Y-63146380D01*
X111490285Y-62479714D02*
X111490285Y-63479714D01*
X111490285Y-62527333D02*
X111585523Y-62479714D01*
X111776000Y-62479714D01*
X111871238Y-62527333D01*
X111918857Y-62574952D01*
X111966476Y-62670190D01*
X111966476Y-62955904D01*
X111918857Y-63051142D01*
X111871238Y-63098761D01*
X111776000Y-63146380D01*
X111585523Y-63146380D01*
X111490285Y-63098761D01*
X112537904Y-63146380D02*
X112442666Y-63098761D01*
X112395047Y-63051142D01*
X112347428Y-62955904D01*
X112347428Y-62670190D01*
X112395047Y-62574952D01*
X112442666Y-62527333D01*
X112537904Y-62479714D01*
X112680761Y-62479714D01*
X112776000Y-62527333D01*
X112823619Y-62574952D01*
X112871238Y-62670190D01*
X112871238Y-62955904D01*
X112823619Y-63051142D01*
X112776000Y-63098761D01*
X112680761Y-63146380D01*
X112537904Y-63146380D01*
X113204571Y-62479714D02*
X113395047Y-63146380D01*
X113585523Y-62670190D01*
X113776000Y-63146380D01*
X113966476Y-62479714D01*
X114871238Y-63146380D02*
X114299809Y-63146380D01*
X114585523Y-63146380D02*
X114585523Y-62146380D01*
X114490285Y-62289238D01*
X114395047Y-62384476D01*
X114299809Y-62432095D01*
%TO.C,Jodo1*%
X152570380Y-67984476D02*
X153284666Y-67984476D01*
X153427523Y-68032095D01*
X153522761Y-68127333D01*
X153570380Y-68270190D01*
X153570380Y-68365428D01*
X153570380Y-67365428D02*
X153522761Y-67460666D01*
X153475142Y-67508285D01*
X153379904Y-67555904D01*
X153094190Y-67555904D01*
X152998952Y-67508285D01*
X152951333Y-67460666D01*
X152903714Y-67365428D01*
X152903714Y-67222571D01*
X152951333Y-67127333D01*
X152998952Y-67079714D01*
X153094190Y-67032095D01*
X153379904Y-67032095D01*
X153475142Y-67079714D01*
X153522761Y-67127333D01*
X153570380Y-67222571D01*
X153570380Y-67365428D01*
X153570380Y-66174952D02*
X152570380Y-66174952D01*
X153522761Y-66174952D02*
X153570380Y-66270190D01*
X153570380Y-66460666D01*
X153522761Y-66555904D01*
X153475142Y-66603523D01*
X153379904Y-66651142D01*
X153094190Y-66651142D01*
X152998952Y-66603523D01*
X152951333Y-66555904D01*
X152903714Y-66460666D01*
X152903714Y-66270190D01*
X152951333Y-66174952D01*
X153570380Y-65555904D02*
X153522761Y-65651142D01*
X153475142Y-65698761D01*
X153379904Y-65746380D01*
X153094190Y-65746380D01*
X152998952Y-65698761D01*
X152951333Y-65651142D01*
X152903714Y-65555904D01*
X152903714Y-65413047D01*
X152951333Y-65317809D01*
X152998952Y-65270190D01*
X153094190Y-65222571D01*
X153379904Y-65222571D01*
X153475142Y-65270190D01*
X153522761Y-65317809D01*
X153570380Y-65413047D01*
X153570380Y-65555904D01*
X153570380Y-64270190D02*
X153570380Y-64841619D01*
X153570380Y-64555904D02*
X152570380Y-64555904D01*
X152713238Y-64651142D01*
X152808476Y-64746380D01*
X152856095Y-64841619D01*
%TO.C,Jir1*%
X163203047Y-79164380D02*
X163203047Y-79878666D01*
X163155428Y-80021523D01*
X163060190Y-80116761D01*
X162917333Y-80164380D01*
X162822095Y-80164380D01*
X163679238Y-80164380D02*
X163679238Y-79497714D01*
X163679238Y-79164380D02*
X163631619Y-79212000D01*
X163679238Y-79259619D01*
X163726857Y-79212000D01*
X163679238Y-79164380D01*
X163679238Y-79259619D01*
X164155428Y-80164380D02*
X164155428Y-79497714D01*
X164155428Y-79688190D02*
X164203047Y-79592952D01*
X164250666Y-79545333D01*
X164345904Y-79497714D01*
X164441142Y-79497714D01*
X165298285Y-80164380D02*
X164726857Y-80164380D01*
X165012571Y-80164380D02*
X165012571Y-79164380D01*
X164917333Y-79307238D01*
X164822095Y-79402476D01*
X164726857Y-79450095D01*
%TO.C,Ji2c1*%
X163369809Y-96944380D02*
X163369809Y-97658666D01*
X163322190Y-97801523D01*
X163226952Y-97896761D01*
X163084095Y-97944380D01*
X162988857Y-97944380D01*
X163846000Y-97944380D02*
X163846000Y-97277714D01*
X163846000Y-96944380D02*
X163798380Y-96992000D01*
X163846000Y-97039619D01*
X163893619Y-96992000D01*
X163846000Y-96944380D01*
X163846000Y-97039619D01*
X164274571Y-97039619D02*
X164322190Y-96992000D01*
X164417428Y-96944380D01*
X164655523Y-96944380D01*
X164750761Y-96992000D01*
X164798380Y-97039619D01*
X164846000Y-97134857D01*
X164846000Y-97230095D01*
X164798380Y-97372952D01*
X164226952Y-97944380D01*
X164846000Y-97944380D01*
X165703142Y-97896761D02*
X165607904Y-97944380D01*
X165417428Y-97944380D01*
X165322190Y-97896761D01*
X165274571Y-97849142D01*
X165226952Y-97753904D01*
X165226952Y-97468190D01*
X165274571Y-97372952D01*
X165322190Y-97325333D01*
X165417428Y-97277714D01*
X165607904Y-97277714D01*
X165703142Y-97325333D01*
X166655523Y-97944380D02*
X166084095Y-97944380D01*
X166369809Y-97944380D02*
X166369809Y-96944380D01*
X166274571Y-97087238D01*
X166179333Y-97182476D01*
X166084095Y-97230095D01*
%TO.C,Jdbg1*%
X125226380Y-114720476D02*
X125940666Y-114720476D01*
X126083523Y-114768095D01*
X126178761Y-114863333D01*
X126226380Y-115006190D01*
X126226380Y-115101428D01*
X126226380Y-113815714D02*
X125226380Y-113815714D01*
X126178761Y-113815714D02*
X126226380Y-113910952D01*
X126226380Y-114101428D01*
X126178761Y-114196666D01*
X126131142Y-114244285D01*
X126035904Y-114291904D01*
X125750190Y-114291904D01*
X125654952Y-114244285D01*
X125607333Y-114196666D01*
X125559714Y-114101428D01*
X125559714Y-113910952D01*
X125607333Y-113815714D01*
X126226380Y-113339523D02*
X125226380Y-113339523D01*
X125607333Y-113339523D02*
X125559714Y-113244285D01*
X125559714Y-113053809D01*
X125607333Y-112958571D01*
X125654952Y-112910952D01*
X125750190Y-112863333D01*
X126035904Y-112863333D01*
X126131142Y-112910952D01*
X126178761Y-112958571D01*
X126226380Y-113053809D01*
X126226380Y-113244285D01*
X126178761Y-113339523D01*
X125559714Y-112006190D02*
X126369238Y-112006190D01*
X126464476Y-112053809D01*
X126512095Y-112101428D01*
X126559714Y-112196666D01*
X126559714Y-112339523D01*
X126512095Y-112434761D01*
X126178761Y-112006190D02*
X126226380Y-112101428D01*
X126226380Y-112291904D01*
X126178761Y-112387142D01*
X126131142Y-112434761D01*
X126035904Y-112482380D01*
X125750190Y-112482380D01*
X125654952Y-112434761D01*
X125607333Y-112387142D01*
X125559714Y-112291904D01*
X125559714Y-112101428D01*
X125607333Y-112006190D01*
X126226380Y-111006190D02*
X126226380Y-111577619D01*
X126226380Y-111291904D02*
X125226380Y-111291904D01*
X125369238Y-111387142D01*
X125464476Y-111482380D01*
X125512095Y-111577619D01*
%TO.C,Jbat1*%
X111760190Y-89666380D02*
X111760190Y-90380666D01*
X111712571Y-90523523D01*
X111617333Y-90618761D01*
X111474476Y-90666380D01*
X111379238Y-90666380D01*
X112236380Y-90666380D02*
X112236380Y-89666380D01*
X112236380Y-90047333D02*
X112331619Y-89999714D01*
X112522095Y-89999714D01*
X112617333Y-90047333D01*
X112664952Y-90094952D01*
X112712571Y-90190190D01*
X112712571Y-90475904D01*
X112664952Y-90571142D01*
X112617333Y-90618761D01*
X112522095Y-90666380D01*
X112331619Y-90666380D01*
X112236380Y-90618761D01*
X113569714Y-90666380D02*
X113569714Y-90142571D01*
X113522095Y-90047333D01*
X113426857Y-89999714D01*
X113236380Y-89999714D01*
X113141142Y-90047333D01*
X113569714Y-90618761D02*
X113474476Y-90666380D01*
X113236380Y-90666380D01*
X113141142Y-90618761D01*
X113093523Y-90523523D01*
X113093523Y-90428285D01*
X113141142Y-90333047D01*
X113236380Y-90285428D01*
X113474476Y-90285428D01*
X113569714Y-90237809D01*
X113903047Y-89999714D02*
X114284000Y-89999714D01*
X114045904Y-89666380D02*
X114045904Y-90523523D01*
X114093523Y-90618761D01*
X114188761Y-90666380D01*
X114284000Y-90666380D01*
X115141142Y-90666380D02*
X114569714Y-90666380D01*
X114855428Y-90666380D02*
X114855428Y-89666380D01*
X114760190Y-89809238D01*
X114664952Y-89904476D01*
X114569714Y-89952095D01*
%TO.C,ICtrig1*%
X150900095Y-101650380D02*
X150900095Y-100650380D01*
X151947714Y-101555142D02*
X151900095Y-101602761D01*
X151757238Y-101650380D01*
X151662000Y-101650380D01*
X151519142Y-101602761D01*
X151423904Y-101507523D01*
X151376285Y-101412285D01*
X151328666Y-101221809D01*
X151328666Y-101078952D01*
X151376285Y-100888476D01*
X151423904Y-100793238D01*
X151519142Y-100698000D01*
X151662000Y-100650380D01*
X151757238Y-100650380D01*
X151900095Y-100698000D01*
X151947714Y-100745619D01*
X152233428Y-100983714D02*
X152614380Y-100983714D01*
X152376285Y-100650380D02*
X152376285Y-101507523D01*
X152423904Y-101602761D01*
X152519142Y-101650380D01*
X152614380Y-101650380D01*
X152947714Y-101650380D02*
X152947714Y-100983714D01*
X152947714Y-101174190D02*
X152995333Y-101078952D01*
X153042952Y-101031333D01*
X153138190Y-100983714D01*
X153233428Y-100983714D01*
X153566761Y-101650380D02*
X153566761Y-100983714D01*
X153566761Y-100650380D02*
X153519142Y-100698000D01*
X153566761Y-100745619D01*
X153614380Y-100698000D01*
X153566761Y-100650380D01*
X153566761Y-100745619D01*
X154471523Y-100983714D02*
X154471523Y-101793238D01*
X154423904Y-101888476D01*
X154376285Y-101936095D01*
X154281047Y-101983714D01*
X154138190Y-101983714D01*
X154042952Y-101936095D01*
X154471523Y-101602761D02*
X154376285Y-101650380D01*
X154185809Y-101650380D01*
X154090571Y-101602761D01*
X154042952Y-101555142D01*
X153995333Y-101459904D01*
X153995333Y-101174190D01*
X154042952Y-101078952D01*
X154090571Y-101031333D01*
X154185809Y-100983714D01*
X154376285Y-100983714D01*
X154471523Y-101031333D01*
X155471523Y-101650380D02*
X154900095Y-101650380D01*
X155185809Y-101650380D02*
X155185809Y-100650380D01*
X155090571Y-100793238D01*
X154995333Y-100888476D01*
X154900095Y-100936095D01*
%TO.C,ICecho1*%
X135776380Y-106116095D02*
X134776380Y-106116095D01*
X135681142Y-105068476D02*
X135728761Y-105116095D01*
X135776380Y-105258952D01*
X135776380Y-105354190D01*
X135728761Y-105497047D01*
X135633523Y-105592285D01*
X135538285Y-105639904D01*
X135347809Y-105687523D01*
X135204952Y-105687523D01*
X135014476Y-105639904D01*
X134919238Y-105592285D01*
X134824000Y-105497047D01*
X134776380Y-105354190D01*
X134776380Y-105258952D01*
X134824000Y-105116095D01*
X134871619Y-105068476D01*
X135728761Y-104258952D02*
X135776380Y-104354190D01*
X135776380Y-104544666D01*
X135728761Y-104639904D01*
X135633523Y-104687523D01*
X135252571Y-104687523D01*
X135157333Y-104639904D01*
X135109714Y-104544666D01*
X135109714Y-104354190D01*
X135157333Y-104258952D01*
X135252571Y-104211333D01*
X135347809Y-104211333D01*
X135443047Y-104687523D01*
X135728761Y-103354190D02*
X135776380Y-103449428D01*
X135776380Y-103639904D01*
X135728761Y-103735142D01*
X135681142Y-103782761D01*
X135585904Y-103830380D01*
X135300190Y-103830380D01*
X135204952Y-103782761D01*
X135157333Y-103735142D01*
X135109714Y-103639904D01*
X135109714Y-103449428D01*
X135157333Y-103354190D01*
X135776380Y-102925619D02*
X134776380Y-102925619D01*
X135776380Y-102497047D02*
X135252571Y-102497047D01*
X135157333Y-102544666D01*
X135109714Y-102639904D01*
X135109714Y-102782761D01*
X135157333Y-102878000D01*
X135204952Y-102925619D01*
X135776380Y-101878000D02*
X135728761Y-101973238D01*
X135681142Y-102020857D01*
X135585904Y-102068476D01*
X135300190Y-102068476D01*
X135204952Y-102020857D01*
X135157333Y-101973238D01*
X135109714Y-101878000D01*
X135109714Y-101735142D01*
X135157333Y-101639904D01*
X135204952Y-101592285D01*
X135300190Y-101544666D01*
X135585904Y-101544666D01*
X135681142Y-101592285D01*
X135728761Y-101639904D01*
X135776380Y-101735142D01*
X135776380Y-101878000D01*
X135776380Y-100592285D02*
X135776380Y-101163714D01*
X135776380Y-100878000D02*
X134776380Y-100878000D01*
X134919238Y-100973238D01*
X135014476Y-101068476D01*
X135062095Y-101163714D01*
%TO.C,ICbat1*%
X135892380Y-85986666D02*
X134892380Y-85986666D01*
X135797142Y-84939047D02*
X135844761Y-84986666D01*
X135892380Y-85129523D01*
X135892380Y-85224761D01*
X135844761Y-85367619D01*
X135749523Y-85462857D01*
X135654285Y-85510476D01*
X135463809Y-85558095D01*
X135320952Y-85558095D01*
X135130476Y-85510476D01*
X135035238Y-85462857D01*
X134940000Y-85367619D01*
X134892380Y-85224761D01*
X134892380Y-85129523D01*
X134940000Y-84986666D01*
X134987619Y-84939047D01*
X135892380Y-84510476D02*
X134892380Y-84510476D01*
X135273333Y-84510476D02*
X135225714Y-84415238D01*
X135225714Y-84224761D01*
X135273333Y-84129523D01*
X135320952Y-84081904D01*
X135416190Y-84034285D01*
X135701904Y-84034285D01*
X135797142Y-84081904D01*
X135844761Y-84129523D01*
X135892380Y-84224761D01*
X135892380Y-84415238D01*
X135844761Y-84510476D01*
X135892380Y-83177142D02*
X135368571Y-83177142D01*
X135273333Y-83224761D01*
X135225714Y-83320000D01*
X135225714Y-83510476D01*
X135273333Y-83605714D01*
X135844761Y-83177142D02*
X135892380Y-83272380D01*
X135892380Y-83510476D01*
X135844761Y-83605714D01*
X135749523Y-83653333D01*
X135654285Y-83653333D01*
X135559047Y-83605714D01*
X135511428Y-83510476D01*
X135511428Y-83272380D01*
X135463809Y-83177142D01*
X135225714Y-82843809D02*
X135225714Y-82462857D01*
X134892380Y-82700952D02*
X135749523Y-82700952D01*
X135844761Y-82653333D01*
X135892380Y-82558095D01*
X135892380Y-82462857D01*
X135892380Y-81605714D02*
X135892380Y-82177142D01*
X135892380Y-81891428D02*
X134892380Y-81891428D01*
X135035238Y-81986666D01*
X135130476Y-82081904D01*
X135178095Y-82177142D01*
%TO.C,IC3*%
X145835809Y-64024380D02*
X145835809Y-63024380D01*
X146883428Y-63929142D02*
X146835809Y-63976761D01*
X146692952Y-64024380D01*
X146597714Y-64024380D01*
X146454857Y-63976761D01*
X146359619Y-63881523D01*
X146312000Y-63786285D01*
X146264380Y-63595809D01*
X146264380Y-63452952D01*
X146312000Y-63262476D01*
X146359619Y-63167238D01*
X146454857Y-63072000D01*
X146597714Y-63024380D01*
X146692952Y-63024380D01*
X146835809Y-63072000D01*
X146883428Y-63119619D01*
X147216761Y-63024380D02*
X147835809Y-63024380D01*
X147502476Y-63405333D01*
X147645333Y-63405333D01*
X147740571Y-63452952D01*
X147788190Y-63500571D01*
X147835809Y-63595809D01*
X147835809Y-63833904D01*
X147788190Y-63929142D01*
X147740571Y-63976761D01*
X147645333Y-64024380D01*
X147359619Y-64024380D01*
X147264380Y-63976761D01*
X147216761Y-63929142D01*
%TO.C,IC2*%
X121959809Y-67510380D02*
X121959809Y-66510380D01*
X123007428Y-67415142D02*
X122959809Y-67462761D01*
X122816952Y-67510380D01*
X122721714Y-67510380D01*
X122578857Y-67462761D01*
X122483619Y-67367523D01*
X122436000Y-67272285D01*
X122388380Y-67081809D01*
X122388380Y-66938952D01*
X122436000Y-66748476D01*
X122483619Y-66653238D01*
X122578857Y-66558000D01*
X122721714Y-66510380D01*
X122816952Y-66510380D01*
X122959809Y-66558000D01*
X123007428Y-66605619D01*
X123388380Y-66605619D02*
X123436000Y-66558000D01*
X123531238Y-66510380D01*
X123769333Y-66510380D01*
X123864571Y-66558000D01*
X123912190Y-66605619D01*
X123959809Y-66700857D01*
X123959809Y-66796095D01*
X123912190Y-66938952D01*
X123340761Y-67510380D01*
X123959809Y-67510380D01*
%TO.C,IC1*%
X147105809Y-81494380D02*
X147105809Y-80494380D01*
X148153428Y-81399142D02*
X148105809Y-81446761D01*
X147962952Y-81494380D01*
X147867714Y-81494380D01*
X147724857Y-81446761D01*
X147629619Y-81351523D01*
X147582000Y-81256285D01*
X147534380Y-81065809D01*
X147534380Y-80922952D01*
X147582000Y-80732476D01*
X147629619Y-80637238D01*
X147724857Y-80542000D01*
X147867714Y-80494380D01*
X147962952Y-80494380D01*
X148105809Y-80542000D01*
X148153428Y-80589619D01*
X149105809Y-81494380D02*
X148534380Y-81494380D01*
X148820095Y-81494380D02*
X148820095Y-80494380D01*
X148724857Y-80637238D01*
X148629619Y-80732476D01*
X148534380Y-80780095D01*
%TO.C,ON*%
X140210380Y-81391047D02*
X140210380Y-81200571D01*
X140258000Y-81105333D01*
X140353238Y-81010095D01*
X140543714Y-80962476D01*
X140877047Y-80962476D01*
X141067523Y-81010095D01*
X141162761Y-81105333D01*
X141210380Y-81200571D01*
X141210380Y-81391047D01*
X141162761Y-81486285D01*
X141067523Y-81581523D01*
X140877047Y-81629142D01*
X140543714Y-81629142D01*
X140353238Y-81581523D01*
X140258000Y-81486285D01*
X140210380Y-81391047D01*
X141210380Y-80533904D02*
X140210380Y-80533904D01*
X141210380Y-79962476D01*
X140210380Y-79962476D01*
%TO.C,D1*%
X132500380Y-66778095D02*
X131500380Y-66778095D01*
X131500380Y-66540000D01*
X131548000Y-66397142D01*
X131643238Y-66301904D01*
X131738476Y-66254285D01*
X131928952Y-66206666D01*
X132071809Y-66206666D01*
X132262285Y-66254285D01*
X132357523Y-66301904D01*
X132452761Y-66397142D01*
X132500380Y-66540000D01*
X132500380Y-66778095D01*
X132500380Y-65254285D02*
X132500380Y-65825714D01*
X132500380Y-65540000D02*
X131500380Y-65540000D01*
X131643238Y-65635238D01*
X131738476Y-65730476D01*
X131786095Y-65825714D01*
%TO.C,Css1*%
X119301142Y-75144190D02*
X119348761Y-75191809D01*
X119396380Y-75334666D01*
X119396380Y-75429904D01*
X119348761Y-75572761D01*
X119253523Y-75668000D01*
X119158285Y-75715619D01*
X118967809Y-75763238D01*
X118824952Y-75763238D01*
X118634476Y-75715619D01*
X118539238Y-75668000D01*
X118444000Y-75572761D01*
X118396380Y-75429904D01*
X118396380Y-75334666D01*
X118444000Y-75191809D01*
X118491619Y-75144190D01*
X119348761Y-74763238D02*
X119396380Y-74668000D01*
X119396380Y-74477523D01*
X119348761Y-74382285D01*
X119253523Y-74334666D01*
X119205904Y-74334666D01*
X119110666Y-74382285D01*
X119063047Y-74477523D01*
X119063047Y-74620380D01*
X119015428Y-74715619D01*
X118920190Y-74763238D01*
X118872571Y-74763238D01*
X118777333Y-74715619D01*
X118729714Y-74620380D01*
X118729714Y-74477523D01*
X118777333Y-74382285D01*
X119348761Y-73953714D02*
X119396380Y-73858476D01*
X119396380Y-73668000D01*
X119348761Y-73572761D01*
X119253523Y-73525142D01*
X119205904Y-73525142D01*
X119110666Y-73572761D01*
X119063047Y-73668000D01*
X119063047Y-73810857D01*
X119015428Y-73906095D01*
X118920190Y-73953714D01*
X118872571Y-73953714D01*
X118777333Y-73906095D01*
X118729714Y-73810857D01*
X118729714Y-73668000D01*
X118777333Y-73572761D01*
X119396380Y-72572761D02*
X119396380Y-73144190D01*
X119396380Y-72858476D02*
X118396380Y-72858476D01*
X118539238Y-72953714D01*
X118634476Y-73048952D01*
X118682095Y-73144190D01*
%TO.C,C11*%
X140637142Y-66682857D02*
X140684761Y-66730476D01*
X140732380Y-66873333D01*
X140732380Y-66968571D01*
X140684761Y-67111428D01*
X140589523Y-67206666D01*
X140494285Y-67254285D01*
X140303809Y-67301904D01*
X140160952Y-67301904D01*
X139970476Y-67254285D01*
X139875238Y-67206666D01*
X139780000Y-67111428D01*
X139732380Y-66968571D01*
X139732380Y-66873333D01*
X139780000Y-66730476D01*
X139827619Y-66682857D01*
X140732380Y-65730476D02*
X140732380Y-66301904D01*
X140732380Y-66016190D02*
X139732380Y-66016190D01*
X139875238Y-66111428D01*
X139970476Y-66206666D01*
X140018095Y-66301904D01*
X140732380Y-64778095D02*
X140732380Y-65349523D01*
X140732380Y-65063809D02*
X139732380Y-65063809D01*
X139875238Y-65159047D01*
X139970476Y-65254285D01*
X140018095Y-65349523D01*
%TO.C,C10*%
X128555142Y-72016857D02*
X128602761Y-72064476D01*
X128650380Y-72207333D01*
X128650380Y-72302571D01*
X128602761Y-72445428D01*
X128507523Y-72540666D01*
X128412285Y-72588285D01*
X128221809Y-72635904D01*
X128078952Y-72635904D01*
X127888476Y-72588285D01*
X127793238Y-72540666D01*
X127698000Y-72445428D01*
X127650380Y-72302571D01*
X127650380Y-72207333D01*
X127698000Y-72064476D01*
X127745619Y-72016857D01*
X128650380Y-71064476D02*
X128650380Y-71635904D01*
X128650380Y-71350190D02*
X127650380Y-71350190D01*
X127793238Y-71445428D01*
X127888476Y-71540666D01*
X127936095Y-71635904D01*
X127650380Y-70445428D02*
X127650380Y-70350190D01*
X127698000Y-70254952D01*
X127745619Y-70207333D01*
X127840857Y-70159714D01*
X128031333Y-70112095D01*
X128269428Y-70112095D01*
X128459904Y-70159714D01*
X128555142Y-70207333D01*
X128602761Y-70254952D01*
X128650380Y-70350190D01*
X128650380Y-70445428D01*
X128602761Y-70540666D01*
X128555142Y-70588285D01*
X128459904Y-70635904D01*
X128269428Y-70683523D01*
X128031333Y-70683523D01*
X127840857Y-70635904D01*
X127745619Y-70588285D01*
X127698000Y-70540666D01*
X127650380Y-70445428D01*
%TO.C,C9*%
X131151333Y-73945142D02*
X131103714Y-73992761D01*
X130960857Y-74040380D01*
X130865619Y-74040380D01*
X130722761Y-73992761D01*
X130627523Y-73897523D01*
X130579904Y-73802285D01*
X130532285Y-73611809D01*
X130532285Y-73468952D01*
X130579904Y-73278476D01*
X130627523Y-73183238D01*
X130722761Y-73088000D01*
X130865619Y-73040380D01*
X130960857Y-73040380D01*
X131103714Y-73088000D01*
X131151333Y-73135619D01*
X131627523Y-74040380D02*
X131818000Y-74040380D01*
X131913238Y-73992761D01*
X131960857Y-73945142D01*
X132056095Y-73802285D01*
X132103714Y-73611809D01*
X132103714Y-73230857D01*
X132056095Y-73135619D01*
X132008476Y-73088000D01*
X131913238Y-73040380D01*
X131722761Y-73040380D01*
X131627523Y-73088000D01*
X131579904Y-73135619D01*
X131532285Y-73230857D01*
X131532285Y-73468952D01*
X131579904Y-73564190D01*
X131627523Y-73611809D01*
X131722761Y-73659428D01*
X131913238Y-73659428D01*
X132008476Y-73611809D01*
X132056095Y-73564190D01*
X132103714Y-73468952D01*
%TO.C,C8*%
X122769333Y-67993142D02*
X122721714Y-68040761D01*
X122578857Y-68088380D01*
X122483619Y-68088380D01*
X122340761Y-68040761D01*
X122245523Y-67945523D01*
X122197904Y-67850285D01*
X122150285Y-67659809D01*
X122150285Y-67516952D01*
X122197904Y-67326476D01*
X122245523Y-67231238D01*
X122340761Y-67136000D01*
X122483619Y-67088380D01*
X122578857Y-67088380D01*
X122721714Y-67136000D01*
X122769333Y-67183619D01*
X123340761Y-67516952D02*
X123245523Y-67469333D01*
X123197904Y-67421714D01*
X123150285Y-67326476D01*
X123150285Y-67278857D01*
X123197904Y-67183619D01*
X123245523Y-67136000D01*
X123340761Y-67088380D01*
X123531238Y-67088380D01*
X123626476Y-67136000D01*
X123674095Y-67183619D01*
X123721714Y-67278857D01*
X123721714Y-67326476D01*
X123674095Y-67421714D01*
X123626476Y-67469333D01*
X123531238Y-67516952D01*
X123340761Y-67516952D01*
X123245523Y-67564571D01*
X123197904Y-67612190D01*
X123150285Y-67707428D01*
X123150285Y-67897904D01*
X123197904Y-67993142D01*
X123245523Y-68040761D01*
X123340761Y-68088380D01*
X123531238Y-68088380D01*
X123626476Y-68040761D01*
X123674095Y-67993142D01*
X123721714Y-67897904D01*
X123721714Y-67707428D01*
X123674095Y-67612190D01*
X123626476Y-67564571D01*
X123531238Y-67516952D01*
%TO.C,C7*%
X114839142Y-69000666D02*
X114886761Y-69048285D01*
X114934380Y-69191142D01*
X114934380Y-69286380D01*
X114886761Y-69429238D01*
X114791523Y-69524476D01*
X114696285Y-69572095D01*
X114505809Y-69619714D01*
X114362952Y-69619714D01*
X114172476Y-69572095D01*
X114077238Y-69524476D01*
X113982000Y-69429238D01*
X113934380Y-69286380D01*
X113934380Y-69191142D01*
X113982000Y-69048285D01*
X114029619Y-69000666D01*
X113934380Y-68667333D02*
X113934380Y-68000666D01*
X114934380Y-68429238D01*
%TO.C,C5*%
X153083142Y-98972666D02*
X153130761Y-99020285D01*
X153178380Y-99163142D01*
X153178380Y-99258380D01*
X153130761Y-99401238D01*
X153035523Y-99496476D01*
X152940285Y-99544095D01*
X152749809Y-99591714D01*
X152606952Y-99591714D01*
X152416476Y-99544095D01*
X152321238Y-99496476D01*
X152226000Y-99401238D01*
X152178380Y-99258380D01*
X152178380Y-99163142D01*
X152226000Y-99020285D01*
X152273619Y-98972666D01*
X152178380Y-98067904D02*
X152178380Y-98544095D01*
X152654571Y-98591714D01*
X152606952Y-98544095D01*
X152559333Y-98448857D01*
X152559333Y-98210761D01*
X152606952Y-98115523D01*
X152654571Y-98067904D01*
X152749809Y-98020285D01*
X152987904Y-98020285D01*
X153083142Y-98067904D01*
X153130761Y-98115523D01*
X153178380Y-98210761D01*
X153178380Y-98448857D01*
X153130761Y-98544095D01*
X153083142Y-98591714D01*
%TO.C,C3*%
X144447142Y-75096666D02*
X144494761Y-75144285D01*
X144542380Y-75287142D01*
X144542380Y-75382380D01*
X144494761Y-75525238D01*
X144399523Y-75620476D01*
X144304285Y-75668095D01*
X144113809Y-75715714D01*
X143970952Y-75715714D01*
X143780476Y-75668095D01*
X143685238Y-75620476D01*
X143590000Y-75525238D01*
X143542380Y-75382380D01*
X143542380Y-75287142D01*
X143590000Y-75144285D01*
X143637619Y-75096666D01*
X143542380Y-74763333D02*
X143542380Y-74144285D01*
X143923333Y-74477619D01*
X143923333Y-74334761D01*
X143970952Y-74239523D01*
X144018571Y-74191904D01*
X144113809Y-74144285D01*
X144351904Y-74144285D01*
X144447142Y-74191904D01*
X144494761Y-74239523D01*
X144542380Y-74334761D01*
X144542380Y-74620476D01*
X144494761Y-74715714D01*
X144447142Y-74763333D01*
%TO.C,C2*%
X143089333Y-96297142D02*
X143041714Y-96344761D01*
X142898857Y-96392380D01*
X142803619Y-96392380D01*
X142660761Y-96344761D01*
X142565523Y-96249523D01*
X142517904Y-96154285D01*
X142470285Y-95963809D01*
X142470285Y-95820952D01*
X142517904Y-95630476D01*
X142565523Y-95535238D01*
X142660761Y-95440000D01*
X142803619Y-95392380D01*
X142898857Y-95392380D01*
X143041714Y-95440000D01*
X143089333Y-95487619D01*
X143470285Y-95487619D02*
X143517904Y-95440000D01*
X143613142Y-95392380D01*
X143851238Y-95392380D01*
X143946476Y-95440000D01*
X143994095Y-95487619D01*
X144041714Y-95582857D01*
X144041714Y-95678095D01*
X143994095Y-95820952D01*
X143422666Y-96392380D01*
X144041714Y-96392380D01*
%TO.C,C1*%
X136485333Y-88169142D02*
X136437714Y-88216761D01*
X136294857Y-88264380D01*
X136199619Y-88264380D01*
X136056761Y-88216761D01*
X135961523Y-88121523D01*
X135913904Y-88026285D01*
X135866285Y-87835809D01*
X135866285Y-87692952D01*
X135913904Y-87502476D01*
X135961523Y-87407238D01*
X136056761Y-87312000D01*
X136199619Y-87264380D01*
X136294857Y-87264380D01*
X136437714Y-87312000D01*
X136485333Y-87359619D01*
X137437714Y-88264380D02*
X136866285Y-88264380D01*
X137152000Y-88264380D02*
X137152000Y-87264380D01*
X137056761Y-87407238D01*
X136961523Y-87502476D01*
X136866285Y-87550095D01*
%TD*%
M02*
