%TF.GenerationSoftware,KiCad,Pcbnew,5.1.10-88a1d61d58~90~ubuntu21.04.1*%
%TF.CreationDate,2021-08-16T14:07:41+02:00*%
%TF.ProjectId,hendrik,68656e64-7269-46b2-9e6b-696361645f70,rev?*%
%TF.SameCoordinates,Original*%
%TF.FileFunction,Copper,L1,Top*%
%TF.FilePolarity,Positive*%
%FSLAX46Y46*%
G04 Gerber Fmt 4.6, Leading zero omitted, Abs format (unit mm)*
G04 Created by KiCad (PCBNEW 5.1.10-88a1d61d58~90~ubuntu21.04.1) date 2021-08-16 14:07:41*
%MOMM*%
%LPD*%
G01*
G04 APERTURE LIST*
%TA.AperFunction,ComponentPad*%
%ADD10O,1.700000X1.700000*%
%TD*%
%TA.AperFunction,ComponentPad*%
%ADD11R,1.700000X1.700000*%
%TD*%
%TA.AperFunction,ComponentPad*%
%ADD12C,1.800000*%
%TD*%
%TA.AperFunction,ComponentPad*%
%ADD13R,1.800000X1.800000*%
%TD*%
%TA.AperFunction,ComponentPad*%
%ADD14C,1.600000*%
%TD*%
%TA.AperFunction,SMDPad,CuDef*%
%ADD15R,2.000000X1.500000*%
%TD*%
%TA.AperFunction,SMDPad,CuDef*%
%ADD16R,2.000000X3.800000*%
%TD*%
%TA.AperFunction,ComponentPad*%
%ADD17C,2.000000*%
%TD*%
%TA.AperFunction,ComponentPad*%
%ADD18O,1.600000X1.600000*%
%TD*%
%TA.AperFunction,Conductor*%
%ADD19C,0.250000*%
%TD*%
G04 APERTURE END LIST*
D10*
%TO.P,J2,32*%
%TO.N,/GND*%
X149606000Y-83058000D03*
%TO.P,J2,31*%
X152146000Y-83058000D03*
%TO.P,J2,30*%
%TO.N,/RA10*%
X149606000Y-85598000D03*
%TO.P,J2,29*%
%TO.N,/RB13*%
X152146000Y-85598000D03*
%TO.P,J2,28*%
%TO.N,/RB12*%
X149606000Y-88138000D03*
%TO.P,J2,27*%
%TO.N,/RB11*%
X152146000Y-88138000D03*
%TO.P,J2,26*%
%TO.N,/RB10*%
X149606000Y-90678000D03*
%TO.P,J2,25*%
%TO.N,/RF1*%
X152146000Y-90678000D03*
%TO.P,J2,24*%
%TO.N,/RF0*%
X149606000Y-93218000D03*
%TO.P,J2,23*%
%TO.N,/RC9*%
X152146000Y-93218000D03*
%TO.P,J2,22*%
%TO.N,/RD6*%
X149606000Y-95758000D03*
%TO.P,J2,21*%
%TO.N,/RD5*%
X152146000Y-95758000D03*
%TO.P,J2,20*%
%TO.N,/RC8*%
X149606000Y-98298000D03*
%TO.P,J2,19*%
%TO.N,/RC7*%
X152146000Y-98298000D03*
%TO.P,J2,18*%
%TO.N,/RC6*%
X149606000Y-100838000D03*
%TO.P,J2,17*%
%TO.N,/RB9*%
X152146000Y-100838000D03*
%TO.P,J2,16*%
%TO.N,/RB8*%
X149606000Y-103378000D03*
%TO.P,J2,15*%
%TO.N,/RC13*%
X152146000Y-103378000D03*
%TO.P,J2,14*%
%TO.N,/RB7*%
X149606000Y-105918000D03*
%TO.P,J2,13*%
%TO.N,/RC10*%
X152146000Y-105918000D03*
%TO.P,J2,12*%
%TO.N,/RB6*%
X149606000Y-108458000D03*
%TO.P,J2,11*%
%TO.N,/RB5*%
X152146000Y-108458000D03*
%TO.P,J2,10*%
%TO.N,/RD8*%
X149606000Y-110998000D03*
%TO.P,J2,9*%
%TO.N,/RC15*%
X152146000Y-110998000D03*
%TO.P,J2,8*%
%TO.N,/RC12*%
X149606000Y-113538000D03*
%TO.P,J2,7*%
%TO.N,/D+*%
X152146000Y-113538000D03*
%TO.P,J2,6*%
%TO.N,/D-*%
X149606000Y-116078000D03*
%TO.P,J2,5*%
%TO.N,/VBUS3V3*%
X152146000Y-116078000D03*
%TO.P,J2,4*%
%TO.N,/VBUS*%
X149606000Y-118618000D03*
%TO.P,J2,3*%
%TO.N,/RA4*%
X152146000Y-118618000D03*
%TO.P,J2,2*%
%TO.N,/GND*%
X149606000Y-121158000D03*
D11*
%TO.P,J2,1*%
X152146000Y-121158000D03*
%TD*%
D10*
%TO.P,J1,32*%
%TO.N,/GND*%
X104394000Y-121920000D03*
%TO.P,J1,31*%
X101854000Y-121920000D03*
%TO.P,J1,30*%
%TO.N,/RB4*%
X104394000Y-119380000D03*
%TO.P,J1,29*%
%TO.N,/RA8*%
X101854000Y-119380000D03*
%TO.P,J1,28*%
%TO.N,/RE15*%
X104394000Y-116840000D03*
%TO.P,J1,27*%
%TO.N,/RE14*%
X101854000Y-116840000D03*
%TO.P,J1,26*%
%TO.N,/RE13*%
X104394000Y-114300000D03*
%TO.P,J1,25*%
%TO.N,/RE12*%
X101854000Y-114300000D03*
%TO.P,J1,24*%
%TO.N,/RC11*%
X104394000Y-111760000D03*
%TO.P,J1,23*%
%TO.N,/RC2*%
X101854000Y-111760000D03*
%TO.P,J1,22*%
%TO.N,/RC1*%
X104394000Y-109220000D03*
%TO.P,J1,21*%
%TO.N,/RC0*%
X101854000Y-109220000D03*
%TO.P,J1,20*%
%TO.N,/RB3*%
X104394000Y-106680000D03*
%TO.P,J1,19*%
%TO.N,/RB2*%
X101854000Y-106680000D03*
%TO.P,J1,18*%
%TO.N,/RB1*%
X104394000Y-104140000D03*
%TO.P,J1,17*%
%TO.N,/RB0*%
X101854000Y-104140000D03*
%TO.P,J1,16*%
%TO.N,/RA1*%
X104394000Y-101600000D03*
%TO.P,J1,15*%
%TO.N,/RA0*%
X101854000Y-101600000D03*
%TO.P,J1,14*%
%TO.N,/RA11*%
X104394000Y-99060000D03*
%TO.P,J1,13*%
%TO.N,/RA12*%
X101854000Y-99060000D03*
%TO.P,J1,12*%
%TO.N,/3V3*%
X104394000Y-96520000D03*
%TO.P,J1,11*%
%TO.N,/GND*%
X101854000Y-96520000D03*
%TO.P,J1,10*%
%TO.N,/RG9*%
X104394000Y-93980000D03*
%TO.P,J1,9*%
%TO.N,/MCLR*%
X101854000Y-93980000D03*
%TO.P,J1,8*%
%TO.N,/RG8*%
X104394000Y-91440000D03*
%TO.P,J1,7*%
%TO.N,/RG7*%
X101854000Y-91440000D03*
%TO.P,J1,6*%
%TO.N,/RG6*%
X104394000Y-88900000D03*
%TO.P,J1,5*%
%TO.N,/RB15*%
X101854000Y-88900000D03*
%TO.P,J1,4*%
%TO.N,/RB14*%
X104394000Y-86360000D03*
%TO.P,J1,3*%
%TO.N,/RA7*%
X101854000Y-86360000D03*
%TO.P,J1,2*%
%TO.N,/GND*%
X104394000Y-83820000D03*
D11*
%TO.P,J1,1*%
X101854000Y-83820000D03*
%TD*%
D12*
%TO.P,D1,2*%
%TO.N,/RA0*%
X117602000Y-105156000D03*
D13*
%TO.P,D1,1*%
%TO.N,/GND*%
X115062000Y-105156000D03*
%TD*%
D14*
%TO.P,C5,2*%
%TO.N,/GND*%
X129667000Y-114474000D03*
%TO.P,C5,1*%
%TO.N,/VBUS3V3*%
X129667000Y-109474000D03*
%TD*%
D15*
%TO.P,U1,1*%
%TO.N,/GND*%
X119482000Y-90692000D03*
%TO.P,U1,3*%
%TO.N,/3V3*%
X119482000Y-86092000D03*
%TO.P,U1,2*%
%TO.N,Net-(C3-Pad1)*%
X119482000Y-88392000D03*
D16*
X113182000Y-88392000D03*
%TD*%
D17*
%TO.P,SW1,1*%
%TO.N,/GND*%
X111506000Y-109578000D03*
%TO.P,SW1,2*%
%TO.N,/MCLR*%
X116006000Y-109578000D03*
%TO.P,SW1,1*%
%TO.N,/GND*%
X111506000Y-116078000D03*
%TO.P,SW1,2*%
%TO.N,/MCLR*%
X116006000Y-116078000D03*
%TD*%
D18*
%TO.P,R1,2*%
%TO.N,/MCLR*%
X118364000Y-98552000D03*
D14*
%TO.P,R1,1*%
%TO.N,/VBUS3V3*%
X110744000Y-98552000D03*
%TD*%
%TO.P,IC1,64*%
%TO.N,/RA10*%
%TA.AperFunction,SMDPad,CuDef*%
G36*
G01*
X124370000Y-95330000D02*
X124370000Y-94005000D01*
G75*
G02*
X124445000Y-93930000I75000J0D01*
G01*
X124595000Y-93930000D01*
G75*
G02*
X124670000Y-94005000I0J-75000D01*
G01*
X124670000Y-95330000D01*
G75*
G02*
X124595000Y-95405000I-75000J0D01*
G01*
X124445000Y-95405000D01*
G75*
G02*
X124370000Y-95330000I0J75000D01*
G01*
G37*
%TD.AperFunction*%
%TO.P,IC1,63*%
%TO.N,/RB13*%
%TA.AperFunction,SMDPad,CuDef*%
G36*
G01*
X124870000Y-95330000D02*
X124870000Y-94005000D01*
G75*
G02*
X124945000Y-93930000I75000J0D01*
G01*
X125095000Y-93930000D01*
G75*
G02*
X125170000Y-94005000I0J-75000D01*
G01*
X125170000Y-95330000D01*
G75*
G02*
X125095000Y-95405000I-75000J0D01*
G01*
X124945000Y-95405000D01*
G75*
G02*
X124870000Y-95330000I0J75000D01*
G01*
G37*
%TD.AperFunction*%
%TO.P,IC1,62*%
%TO.N,/RB12*%
%TA.AperFunction,SMDPad,CuDef*%
G36*
G01*
X125370000Y-95330000D02*
X125370000Y-94005000D01*
G75*
G02*
X125445000Y-93930000I75000J0D01*
G01*
X125595000Y-93930000D01*
G75*
G02*
X125670000Y-94005000I0J-75000D01*
G01*
X125670000Y-95330000D01*
G75*
G02*
X125595000Y-95405000I-75000J0D01*
G01*
X125445000Y-95405000D01*
G75*
G02*
X125370000Y-95330000I0J75000D01*
G01*
G37*
%TD.AperFunction*%
%TO.P,IC1,61*%
%TO.N,/RB11*%
%TA.AperFunction,SMDPad,CuDef*%
G36*
G01*
X125870000Y-95330000D02*
X125870000Y-94005000D01*
G75*
G02*
X125945000Y-93930000I75000J0D01*
G01*
X126095000Y-93930000D01*
G75*
G02*
X126170000Y-94005000I0J-75000D01*
G01*
X126170000Y-95330000D01*
G75*
G02*
X126095000Y-95405000I-75000J0D01*
G01*
X125945000Y-95405000D01*
G75*
G02*
X125870000Y-95330000I0J75000D01*
G01*
G37*
%TD.AperFunction*%
%TO.P,IC1,60*%
%TO.N,/RB10*%
%TA.AperFunction,SMDPad,CuDef*%
G36*
G01*
X126370000Y-95330000D02*
X126370000Y-94005000D01*
G75*
G02*
X126445000Y-93930000I75000J0D01*
G01*
X126595000Y-93930000D01*
G75*
G02*
X126670000Y-94005000I0J-75000D01*
G01*
X126670000Y-95330000D01*
G75*
G02*
X126595000Y-95405000I-75000J0D01*
G01*
X126445000Y-95405000D01*
G75*
G02*
X126370000Y-95330000I0J75000D01*
G01*
G37*
%TD.AperFunction*%
%TO.P,IC1,59*%
%TO.N,/RF1*%
%TA.AperFunction,SMDPad,CuDef*%
G36*
G01*
X126870000Y-95330000D02*
X126870000Y-94005000D01*
G75*
G02*
X126945000Y-93930000I75000J0D01*
G01*
X127095000Y-93930000D01*
G75*
G02*
X127170000Y-94005000I0J-75000D01*
G01*
X127170000Y-95330000D01*
G75*
G02*
X127095000Y-95405000I-75000J0D01*
G01*
X126945000Y-95405000D01*
G75*
G02*
X126870000Y-95330000I0J75000D01*
G01*
G37*
%TD.AperFunction*%
%TO.P,IC1,58*%
%TO.N,/RF0*%
%TA.AperFunction,SMDPad,CuDef*%
G36*
G01*
X127370000Y-95330000D02*
X127370000Y-94005000D01*
G75*
G02*
X127445000Y-93930000I75000J0D01*
G01*
X127595000Y-93930000D01*
G75*
G02*
X127670000Y-94005000I0J-75000D01*
G01*
X127670000Y-95330000D01*
G75*
G02*
X127595000Y-95405000I-75000J0D01*
G01*
X127445000Y-95405000D01*
G75*
G02*
X127370000Y-95330000I0J75000D01*
G01*
G37*
%TD.AperFunction*%
%TO.P,IC1,57*%
%TO.N,/VBUS3V3*%
%TA.AperFunction,SMDPad,CuDef*%
G36*
G01*
X127870000Y-95330000D02*
X127870000Y-94005000D01*
G75*
G02*
X127945000Y-93930000I75000J0D01*
G01*
X128095000Y-93930000D01*
G75*
G02*
X128170000Y-94005000I0J-75000D01*
G01*
X128170000Y-95330000D01*
G75*
G02*
X128095000Y-95405000I-75000J0D01*
G01*
X127945000Y-95405000D01*
G75*
G02*
X127870000Y-95330000I0J75000D01*
G01*
G37*
%TD.AperFunction*%
%TO.P,IC1,56*%
%TO.N,/GND*%
%TA.AperFunction,SMDPad,CuDef*%
G36*
G01*
X128370000Y-95330000D02*
X128370000Y-94005000D01*
G75*
G02*
X128445000Y-93930000I75000J0D01*
G01*
X128595000Y-93930000D01*
G75*
G02*
X128670000Y-94005000I0J-75000D01*
G01*
X128670000Y-95330000D01*
G75*
G02*
X128595000Y-95405000I-75000J0D01*
G01*
X128445000Y-95405000D01*
G75*
G02*
X128370000Y-95330000I0J75000D01*
G01*
G37*
%TD.AperFunction*%
%TO.P,IC1,55*%
%TO.N,/RC9*%
%TA.AperFunction,SMDPad,CuDef*%
G36*
G01*
X128870000Y-95330000D02*
X128870000Y-94005000D01*
G75*
G02*
X128945000Y-93930000I75000J0D01*
G01*
X129095000Y-93930000D01*
G75*
G02*
X129170000Y-94005000I0J-75000D01*
G01*
X129170000Y-95330000D01*
G75*
G02*
X129095000Y-95405000I-75000J0D01*
G01*
X128945000Y-95405000D01*
G75*
G02*
X128870000Y-95330000I0J75000D01*
G01*
G37*
%TD.AperFunction*%
%TO.P,IC1,54*%
%TO.N,/RD6*%
%TA.AperFunction,SMDPad,CuDef*%
G36*
G01*
X129370000Y-95330000D02*
X129370000Y-94005000D01*
G75*
G02*
X129445000Y-93930000I75000J0D01*
G01*
X129595000Y-93930000D01*
G75*
G02*
X129670000Y-94005000I0J-75000D01*
G01*
X129670000Y-95330000D01*
G75*
G02*
X129595000Y-95405000I-75000J0D01*
G01*
X129445000Y-95405000D01*
G75*
G02*
X129370000Y-95330000I0J75000D01*
G01*
G37*
%TD.AperFunction*%
%TO.P,IC1,53*%
%TO.N,/RD5*%
%TA.AperFunction,SMDPad,CuDef*%
G36*
G01*
X129870000Y-95330000D02*
X129870000Y-94005000D01*
G75*
G02*
X129945000Y-93930000I75000J0D01*
G01*
X130095000Y-93930000D01*
G75*
G02*
X130170000Y-94005000I0J-75000D01*
G01*
X130170000Y-95330000D01*
G75*
G02*
X130095000Y-95405000I-75000J0D01*
G01*
X129945000Y-95405000D01*
G75*
G02*
X129870000Y-95330000I0J75000D01*
G01*
G37*
%TD.AperFunction*%
%TO.P,IC1,52*%
%TO.N,/RC8*%
%TA.AperFunction,SMDPad,CuDef*%
G36*
G01*
X130370000Y-95330000D02*
X130370000Y-94005000D01*
G75*
G02*
X130445000Y-93930000I75000J0D01*
G01*
X130595000Y-93930000D01*
G75*
G02*
X130670000Y-94005000I0J-75000D01*
G01*
X130670000Y-95330000D01*
G75*
G02*
X130595000Y-95405000I-75000J0D01*
G01*
X130445000Y-95405000D01*
G75*
G02*
X130370000Y-95330000I0J75000D01*
G01*
G37*
%TD.AperFunction*%
%TO.P,IC1,51*%
%TO.N,/RC7*%
%TA.AperFunction,SMDPad,CuDef*%
G36*
G01*
X130870000Y-95330000D02*
X130870000Y-94005000D01*
G75*
G02*
X130945000Y-93930000I75000J0D01*
G01*
X131095000Y-93930000D01*
G75*
G02*
X131170000Y-94005000I0J-75000D01*
G01*
X131170000Y-95330000D01*
G75*
G02*
X131095000Y-95405000I-75000J0D01*
G01*
X130945000Y-95405000D01*
G75*
G02*
X130870000Y-95330000I0J75000D01*
G01*
G37*
%TD.AperFunction*%
%TO.P,IC1,50*%
%TO.N,/RC6*%
%TA.AperFunction,SMDPad,CuDef*%
G36*
G01*
X131370000Y-95330000D02*
X131370000Y-94005000D01*
G75*
G02*
X131445000Y-93930000I75000J0D01*
G01*
X131595000Y-93930000D01*
G75*
G02*
X131670000Y-94005000I0J-75000D01*
G01*
X131670000Y-95330000D01*
G75*
G02*
X131595000Y-95405000I-75000J0D01*
G01*
X131445000Y-95405000D01*
G75*
G02*
X131370000Y-95330000I0J75000D01*
G01*
G37*
%TD.AperFunction*%
%TO.P,IC1,49*%
%TO.N,/RB9*%
%TA.AperFunction,SMDPad,CuDef*%
G36*
G01*
X131870000Y-95330000D02*
X131870000Y-94005000D01*
G75*
G02*
X131945000Y-93930000I75000J0D01*
G01*
X132095000Y-93930000D01*
G75*
G02*
X132170000Y-94005000I0J-75000D01*
G01*
X132170000Y-95330000D01*
G75*
G02*
X132095000Y-95405000I-75000J0D01*
G01*
X131945000Y-95405000D01*
G75*
G02*
X131870000Y-95330000I0J75000D01*
G01*
G37*
%TD.AperFunction*%
%TO.P,IC1,48*%
%TO.N,/RB8*%
%TA.AperFunction,SMDPad,CuDef*%
G36*
G01*
X133195000Y-96655000D02*
X133195000Y-96505000D01*
G75*
G02*
X133270000Y-96430000I75000J0D01*
G01*
X134595000Y-96430000D01*
G75*
G02*
X134670000Y-96505000I0J-75000D01*
G01*
X134670000Y-96655000D01*
G75*
G02*
X134595000Y-96730000I-75000J0D01*
G01*
X133270000Y-96730000D01*
G75*
G02*
X133195000Y-96655000I0J75000D01*
G01*
G37*
%TD.AperFunction*%
%TO.P,IC1,47*%
%TO.N,/RC13*%
%TA.AperFunction,SMDPad,CuDef*%
G36*
G01*
X133195000Y-97155000D02*
X133195000Y-97005000D01*
G75*
G02*
X133270000Y-96930000I75000J0D01*
G01*
X134595000Y-96930000D01*
G75*
G02*
X134670000Y-97005000I0J-75000D01*
G01*
X134670000Y-97155000D01*
G75*
G02*
X134595000Y-97230000I-75000J0D01*
G01*
X133270000Y-97230000D01*
G75*
G02*
X133195000Y-97155000I0J75000D01*
G01*
G37*
%TD.AperFunction*%
%TO.P,IC1,46*%
%TO.N,/RB7*%
%TA.AperFunction,SMDPad,CuDef*%
G36*
G01*
X133195000Y-97655000D02*
X133195000Y-97505000D01*
G75*
G02*
X133270000Y-97430000I75000J0D01*
G01*
X134595000Y-97430000D01*
G75*
G02*
X134670000Y-97505000I0J-75000D01*
G01*
X134670000Y-97655000D01*
G75*
G02*
X134595000Y-97730000I-75000J0D01*
G01*
X133270000Y-97730000D01*
G75*
G02*
X133195000Y-97655000I0J75000D01*
G01*
G37*
%TD.AperFunction*%
%TO.P,IC1,45*%
%TO.N,/RC10*%
%TA.AperFunction,SMDPad,CuDef*%
G36*
G01*
X133195000Y-98155000D02*
X133195000Y-98005000D01*
G75*
G02*
X133270000Y-97930000I75000J0D01*
G01*
X134595000Y-97930000D01*
G75*
G02*
X134670000Y-98005000I0J-75000D01*
G01*
X134670000Y-98155000D01*
G75*
G02*
X134595000Y-98230000I-75000J0D01*
G01*
X133270000Y-98230000D01*
G75*
G02*
X133195000Y-98155000I0J75000D01*
G01*
G37*
%TD.AperFunction*%
%TO.P,IC1,44*%
%TO.N,/RB6*%
%TA.AperFunction,SMDPad,CuDef*%
G36*
G01*
X133195000Y-98655000D02*
X133195000Y-98505000D01*
G75*
G02*
X133270000Y-98430000I75000J0D01*
G01*
X134595000Y-98430000D01*
G75*
G02*
X134670000Y-98505000I0J-75000D01*
G01*
X134670000Y-98655000D01*
G75*
G02*
X134595000Y-98730000I-75000J0D01*
G01*
X133270000Y-98730000D01*
G75*
G02*
X133195000Y-98655000I0J75000D01*
G01*
G37*
%TD.AperFunction*%
%TO.P,IC1,43*%
%TO.N,/RB5*%
%TA.AperFunction,SMDPad,CuDef*%
G36*
G01*
X133195000Y-99155000D02*
X133195000Y-99005000D01*
G75*
G02*
X133270000Y-98930000I75000J0D01*
G01*
X134595000Y-98930000D01*
G75*
G02*
X134670000Y-99005000I0J-75000D01*
G01*
X134670000Y-99155000D01*
G75*
G02*
X134595000Y-99230000I-75000J0D01*
G01*
X133270000Y-99230000D01*
G75*
G02*
X133195000Y-99155000I0J75000D01*
G01*
G37*
%TD.AperFunction*%
%TO.P,IC1,42*%
%TO.N,/RD8*%
%TA.AperFunction,SMDPad,CuDef*%
G36*
G01*
X133195000Y-99655000D02*
X133195000Y-99505000D01*
G75*
G02*
X133270000Y-99430000I75000J0D01*
G01*
X134595000Y-99430000D01*
G75*
G02*
X134670000Y-99505000I0J-75000D01*
G01*
X134670000Y-99655000D01*
G75*
G02*
X134595000Y-99730000I-75000J0D01*
G01*
X133270000Y-99730000D01*
G75*
G02*
X133195000Y-99655000I0J75000D01*
G01*
G37*
%TD.AperFunction*%
%TO.P,IC1,41*%
%TO.N,/GND*%
%TA.AperFunction,SMDPad,CuDef*%
G36*
G01*
X133195000Y-100155000D02*
X133195000Y-100005000D01*
G75*
G02*
X133270000Y-99930000I75000J0D01*
G01*
X134595000Y-99930000D01*
G75*
G02*
X134670000Y-100005000I0J-75000D01*
G01*
X134670000Y-100155000D01*
G75*
G02*
X134595000Y-100230000I-75000J0D01*
G01*
X133270000Y-100230000D01*
G75*
G02*
X133195000Y-100155000I0J75000D01*
G01*
G37*
%TD.AperFunction*%
%TO.P,IC1,40*%
%TO.N,/RC15*%
%TA.AperFunction,SMDPad,CuDef*%
G36*
G01*
X133195000Y-100655000D02*
X133195000Y-100505000D01*
G75*
G02*
X133270000Y-100430000I75000J0D01*
G01*
X134595000Y-100430000D01*
G75*
G02*
X134670000Y-100505000I0J-75000D01*
G01*
X134670000Y-100655000D01*
G75*
G02*
X134595000Y-100730000I-75000J0D01*
G01*
X133270000Y-100730000D01*
G75*
G02*
X133195000Y-100655000I0J75000D01*
G01*
G37*
%TD.AperFunction*%
%TO.P,IC1,39*%
%TO.N,/RC12*%
%TA.AperFunction,SMDPad,CuDef*%
G36*
G01*
X133195000Y-101155000D02*
X133195000Y-101005000D01*
G75*
G02*
X133270000Y-100930000I75000J0D01*
G01*
X134595000Y-100930000D01*
G75*
G02*
X134670000Y-101005000I0J-75000D01*
G01*
X134670000Y-101155000D01*
G75*
G02*
X134595000Y-101230000I-75000J0D01*
G01*
X133270000Y-101230000D01*
G75*
G02*
X133195000Y-101155000I0J75000D01*
G01*
G37*
%TD.AperFunction*%
%TO.P,IC1,38*%
%TO.N,/VBUS3V3*%
%TA.AperFunction,SMDPad,CuDef*%
G36*
G01*
X133195000Y-101655000D02*
X133195000Y-101505000D01*
G75*
G02*
X133270000Y-101430000I75000J0D01*
G01*
X134595000Y-101430000D01*
G75*
G02*
X134670000Y-101505000I0J-75000D01*
G01*
X134670000Y-101655000D01*
G75*
G02*
X134595000Y-101730000I-75000J0D01*
G01*
X133270000Y-101730000D01*
G75*
G02*
X133195000Y-101655000I0J75000D01*
G01*
G37*
%TD.AperFunction*%
%TO.P,IC1,37*%
%TO.N,/D+*%
%TA.AperFunction,SMDPad,CuDef*%
G36*
G01*
X133195000Y-102155000D02*
X133195000Y-102005000D01*
G75*
G02*
X133270000Y-101930000I75000J0D01*
G01*
X134595000Y-101930000D01*
G75*
G02*
X134670000Y-102005000I0J-75000D01*
G01*
X134670000Y-102155000D01*
G75*
G02*
X134595000Y-102230000I-75000J0D01*
G01*
X133270000Y-102230000D01*
G75*
G02*
X133195000Y-102155000I0J75000D01*
G01*
G37*
%TD.AperFunction*%
%TO.P,IC1,36*%
%TO.N,/D-*%
%TA.AperFunction,SMDPad,CuDef*%
G36*
G01*
X133195000Y-102655000D02*
X133195000Y-102505000D01*
G75*
G02*
X133270000Y-102430000I75000J0D01*
G01*
X134595000Y-102430000D01*
G75*
G02*
X134670000Y-102505000I0J-75000D01*
G01*
X134670000Y-102655000D01*
G75*
G02*
X134595000Y-102730000I-75000J0D01*
G01*
X133270000Y-102730000D01*
G75*
G02*
X133195000Y-102655000I0J75000D01*
G01*
G37*
%TD.AperFunction*%
%TO.P,IC1,35*%
%TO.N,/VBUS3V3*%
%TA.AperFunction,SMDPad,CuDef*%
G36*
G01*
X133195000Y-103155000D02*
X133195000Y-103005000D01*
G75*
G02*
X133270000Y-102930000I75000J0D01*
G01*
X134595000Y-102930000D01*
G75*
G02*
X134670000Y-103005000I0J-75000D01*
G01*
X134670000Y-103155000D01*
G75*
G02*
X134595000Y-103230000I-75000J0D01*
G01*
X133270000Y-103230000D01*
G75*
G02*
X133195000Y-103155000I0J75000D01*
G01*
G37*
%TD.AperFunction*%
%TO.P,IC1,34*%
%TO.N,/VBUS*%
%TA.AperFunction,SMDPad,CuDef*%
G36*
G01*
X133195000Y-103655000D02*
X133195000Y-103505000D01*
G75*
G02*
X133270000Y-103430000I75000J0D01*
G01*
X134595000Y-103430000D01*
G75*
G02*
X134670000Y-103505000I0J-75000D01*
G01*
X134670000Y-103655000D01*
G75*
G02*
X134595000Y-103730000I-75000J0D01*
G01*
X133270000Y-103730000D01*
G75*
G02*
X133195000Y-103655000I0J75000D01*
G01*
G37*
%TD.AperFunction*%
%TO.P,IC1,33*%
%TO.N,/RA4*%
%TA.AperFunction,SMDPad,CuDef*%
G36*
G01*
X133195000Y-104155000D02*
X133195000Y-104005000D01*
G75*
G02*
X133270000Y-103930000I75000J0D01*
G01*
X134595000Y-103930000D01*
G75*
G02*
X134670000Y-104005000I0J-75000D01*
G01*
X134670000Y-104155000D01*
G75*
G02*
X134595000Y-104230000I-75000J0D01*
G01*
X133270000Y-104230000D01*
G75*
G02*
X133195000Y-104155000I0J75000D01*
G01*
G37*
%TD.AperFunction*%
%TO.P,IC1,32*%
%TO.N,/RB4*%
%TA.AperFunction,SMDPad,CuDef*%
G36*
G01*
X131870000Y-106655000D02*
X131870000Y-105330000D01*
G75*
G02*
X131945000Y-105255000I75000J0D01*
G01*
X132095000Y-105255000D01*
G75*
G02*
X132170000Y-105330000I0J-75000D01*
G01*
X132170000Y-106655000D01*
G75*
G02*
X132095000Y-106730000I-75000J0D01*
G01*
X131945000Y-106730000D01*
G75*
G02*
X131870000Y-106655000I0J75000D01*
G01*
G37*
%TD.AperFunction*%
%TO.P,IC1,31*%
%TO.N,/RA8*%
%TA.AperFunction,SMDPad,CuDef*%
G36*
G01*
X131370000Y-106655000D02*
X131370000Y-105330000D01*
G75*
G02*
X131445000Y-105255000I75000J0D01*
G01*
X131595000Y-105255000D01*
G75*
G02*
X131670000Y-105330000I0J-75000D01*
G01*
X131670000Y-106655000D01*
G75*
G02*
X131595000Y-106730000I-75000J0D01*
G01*
X131445000Y-106730000D01*
G75*
G02*
X131370000Y-106655000I0J75000D01*
G01*
G37*
%TD.AperFunction*%
%TO.P,IC1,30*%
%TO.N,/RE15*%
%TA.AperFunction,SMDPad,CuDef*%
G36*
G01*
X130870000Y-106655000D02*
X130870000Y-105330000D01*
G75*
G02*
X130945000Y-105255000I75000J0D01*
G01*
X131095000Y-105255000D01*
G75*
G02*
X131170000Y-105330000I0J-75000D01*
G01*
X131170000Y-106655000D01*
G75*
G02*
X131095000Y-106730000I-75000J0D01*
G01*
X130945000Y-106730000D01*
G75*
G02*
X130870000Y-106655000I0J75000D01*
G01*
G37*
%TD.AperFunction*%
%TO.P,IC1,29*%
%TO.N,/RE14*%
%TA.AperFunction,SMDPad,CuDef*%
G36*
G01*
X130370000Y-106655000D02*
X130370000Y-105330000D01*
G75*
G02*
X130445000Y-105255000I75000J0D01*
G01*
X130595000Y-105255000D01*
G75*
G02*
X130670000Y-105330000I0J-75000D01*
G01*
X130670000Y-106655000D01*
G75*
G02*
X130595000Y-106730000I-75000J0D01*
G01*
X130445000Y-106730000D01*
G75*
G02*
X130370000Y-106655000I0J75000D01*
G01*
G37*
%TD.AperFunction*%
%TO.P,IC1,28*%
%TO.N,/RE13*%
%TA.AperFunction,SMDPad,CuDef*%
G36*
G01*
X129870000Y-106655000D02*
X129870000Y-105330000D01*
G75*
G02*
X129945000Y-105255000I75000J0D01*
G01*
X130095000Y-105255000D01*
G75*
G02*
X130170000Y-105330000I0J-75000D01*
G01*
X130170000Y-106655000D01*
G75*
G02*
X130095000Y-106730000I-75000J0D01*
G01*
X129945000Y-106730000D01*
G75*
G02*
X129870000Y-106655000I0J75000D01*
G01*
G37*
%TD.AperFunction*%
%TO.P,IC1,27*%
%TO.N,/RE12*%
%TA.AperFunction,SMDPad,CuDef*%
G36*
G01*
X129370000Y-106655000D02*
X129370000Y-105330000D01*
G75*
G02*
X129445000Y-105255000I75000J0D01*
G01*
X129595000Y-105255000D01*
G75*
G02*
X129670000Y-105330000I0J-75000D01*
G01*
X129670000Y-106655000D01*
G75*
G02*
X129595000Y-106730000I-75000J0D01*
G01*
X129445000Y-106730000D01*
G75*
G02*
X129370000Y-106655000I0J75000D01*
G01*
G37*
%TD.AperFunction*%
%TO.P,IC1,26*%
%TO.N,/VBUS3V3*%
%TA.AperFunction,SMDPad,CuDef*%
G36*
G01*
X128870000Y-106655000D02*
X128870000Y-105330000D01*
G75*
G02*
X128945000Y-105255000I75000J0D01*
G01*
X129095000Y-105255000D01*
G75*
G02*
X129170000Y-105330000I0J-75000D01*
G01*
X129170000Y-106655000D01*
G75*
G02*
X129095000Y-106730000I-75000J0D01*
G01*
X128945000Y-106730000D01*
G75*
G02*
X128870000Y-106655000I0J75000D01*
G01*
G37*
%TD.AperFunction*%
%TO.P,IC1,25*%
%TO.N,/GND*%
%TA.AperFunction,SMDPad,CuDef*%
G36*
G01*
X128370000Y-106655000D02*
X128370000Y-105330000D01*
G75*
G02*
X128445000Y-105255000I75000J0D01*
G01*
X128595000Y-105255000D01*
G75*
G02*
X128670000Y-105330000I0J-75000D01*
G01*
X128670000Y-106655000D01*
G75*
G02*
X128595000Y-106730000I-75000J0D01*
G01*
X128445000Y-106730000D01*
G75*
G02*
X128370000Y-106655000I0J75000D01*
G01*
G37*
%TD.AperFunction*%
%TO.P,IC1,24*%
%TO.N,/RC11*%
%TA.AperFunction,SMDPad,CuDef*%
G36*
G01*
X127870000Y-106655000D02*
X127870000Y-105330000D01*
G75*
G02*
X127945000Y-105255000I75000J0D01*
G01*
X128095000Y-105255000D01*
G75*
G02*
X128170000Y-105330000I0J-75000D01*
G01*
X128170000Y-106655000D01*
G75*
G02*
X128095000Y-106730000I-75000J0D01*
G01*
X127945000Y-106730000D01*
G75*
G02*
X127870000Y-106655000I0J75000D01*
G01*
G37*
%TD.AperFunction*%
%TO.P,IC1,23*%
%TO.N,/RC2*%
%TA.AperFunction,SMDPad,CuDef*%
G36*
G01*
X127370000Y-106655000D02*
X127370000Y-105330000D01*
G75*
G02*
X127445000Y-105255000I75000J0D01*
G01*
X127595000Y-105255000D01*
G75*
G02*
X127670000Y-105330000I0J-75000D01*
G01*
X127670000Y-106655000D01*
G75*
G02*
X127595000Y-106730000I-75000J0D01*
G01*
X127445000Y-106730000D01*
G75*
G02*
X127370000Y-106655000I0J75000D01*
G01*
G37*
%TD.AperFunction*%
%TO.P,IC1,22*%
%TO.N,/RC1*%
%TA.AperFunction,SMDPad,CuDef*%
G36*
G01*
X126870000Y-106655000D02*
X126870000Y-105330000D01*
G75*
G02*
X126945000Y-105255000I75000J0D01*
G01*
X127095000Y-105255000D01*
G75*
G02*
X127170000Y-105330000I0J-75000D01*
G01*
X127170000Y-106655000D01*
G75*
G02*
X127095000Y-106730000I-75000J0D01*
G01*
X126945000Y-106730000D01*
G75*
G02*
X126870000Y-106655000I0J75000D01*
G01*
G37*
%TD.AperFunction*%
%TO.P,IC1,21*%
%TO.N,/RC0*%
%TA.AperFunction,SMDPad,CuDef*%
G36*
G01*
X126370000Y-106655000D02*
X126370000Y-105330000D01*
G75*
G02*
X126445000Y-105255000I75000J0D01*
G01*
X126595000Y-105255000D01*
G75*
G02*
X126670000Y-105330000I0J-75000D01*
G01*
X126670000Y-106655000D01*
G75*
G02*
X126595000Y-106730000I-75000J0D01*
G01*
X126445000Y-106730000D01*
G75*
G02*
X126370000Y-106655000I0J75000D01*
G01*
G37*
%TD.AperFunction*%
%TO.P,IC1,20*%
%TO.N,/GND*%
%TA.AperFunction,SMDPad,CuDef*%
G36*
G01*
X125870000Y-106655000D02*
X125870000Y-105330000D01*
G75*
G02*
X125945000Y-105255000I75000J0D01*
G01*
X126095000Y-105255000D01*
G75*
G02*
X126170000Y-105330000I0J-75000D01*
G01*
X126170000Y-106655000D01*
G75*
G02*
X126095000Y-106730000I-75000J0D01*
G01*
X125945000Y-106730000D01*
G75*
G02*
X125870000Y-106655000I0J75000D01*
G01*
G37*
%TD.AperFunction*%
%TO.P,IC1,19*%
%TO.N,/VBUS3V3*%
%TA.AperFunction,SMDPad,CuDef*%
G36*
G01*
X125370000Y-106655000D02*
X125370000Y-105330000D01*
G75*
G02*
X125445000Y-105255000I75000J0D01*
G01*
X125595000Y-105255000D01*
G75*
G02*
X125670000Y-105330000I0J-75000D01*
G01*
X125670000Y-106655000D01*
G75*
G02*
X125595000Y-106730000I-75000J0D01*
G01*
X125445000Y-106730000D01*
G75*
G02*
X125370000Y-106655000I0J75000D01*
G01*
G37*
%TD.AperFunction*%
%TO.P,IC1,18*%
%TO.N,/RB3*%
%TA.AperFunction,SMDPad,CuDef*%
G36*
G01*
X124870000Y-106655000D02*
X124870000Y-105330000D01*
G75*
G02*
X124945000Y-105255000I75000J0D01*
G01*
X125095000Y-105255000D01*
G75*
G02*
X125170000Y-105330000I0J-75000D01*
G01*
X125170000Y-106655000D01*
G75*
G02*
X125095000Y-106730000I-75000J0D01*
G01*
X124945000Y-106730000D01*
G75*
G02*
X124870000Y-106655000I0J75000D01*
G01*
G37*
%TD.AperFunction*%
%TO.P,IC1,17*%
%TO.N,/RB2*%
%TA.AperFunction,SMDPad,CuDef*%
G36*
G01*
X124370000Y-106655000D02*
X124370000Y-105330000D01*
G75*
G02*
X124445000Y-105255000I75000J0D01*
G01*
X124595000Y-105255000D01*
G75*
G02*
X124670000Y-105330000I0J-75000D01*
G01*
X124670000Y-106655000D01*
G75*
G02*
X124595000Y-106730000I-75000J0D01*
G01*
X124445000Y-106730000D01*
G75*
G02*
X124370000Y-106655000I0J75000D01*
G01*
G37*
%TD.AperFunction*%
%TO.P,IC1,16*%
%TO.N,/RB1*%
%TA.AperFunction,SMDPad,CuDef*%
G36*
G01*
X121870000Y-104155000D02*
X121870000Y-104005000D01*
G75*
G02*
X121945000Y-103930000I75000J0D01*
G01*
X123270000Y-103930000D01*
G75*
G02*
X123345000Y-104005000I0J-75000D01*
G01*
X123345000Y-104155000D01*
G75*
G02*
X123270000Y-104230000I-75000J0D01*
G01*
X121945000Y-104230000D01*
G75*
G02*
X121870000Y-104155000I0J75000D01*
G01*
G37*
%TD.AperFunction*%
%TO.P,IC1,15*%
%TO.N,/RB0*%
%TA.AperFunction,SMDPad,CuDef*%
G36*
G01*
X121870000Y-103655000D02*
X121870000Y-103505000D01*
G75*
G02*
X121945000Y-103430000I75000J0D01*
G01*
X123270000Y-103430000D01*
G75*
G02*
X123345000Y-103505000I0J-75000D01*
G01*
X123345000Y-103655000D01*
G75*
G02*
X123270000Y-103730000I-75000J0D01*
G01*
X121945000Y-103730000D01*
G75*
G02*
X121870000Y-103655000I0J75000D01*
G01*
G37*
%TD.AperFunction*%
%TO.P,IC1,14*%
%TO.N,/RA1*%
%TA.AperFunction,SMDPad,CuDef*%
G36*
G01*
X121870000Y-103155000D02*
X121870000Y-103005000D01*
G75*
G02*
X121945000Y-102930000I75000J0D01*
G01*
X123270000Y-102930000D01*
G75*
G02*
X123345000Y-103005000I0J-75000D01*
G01*
X123345000Y-103155000D01*
G75*
G02*
X123270000Y-103230000I-75000J0D01*
G01*
X121945000Y-103230000D01*
G75*
G02*
X121870000Y-103155000I0J75000D01*
G01*
G37*
%TD.AperFunction*%
%TO.P,IC1,13*%
%TO.N,/RA0*%
%TA.AperFunction,SMDPad,CuDef*%
G36*
G01*
X121870000Y-102655000D02*
X121870000Y-102505000D01*
G75*
G02*
X121945000Y-102430000I75000J0D01*
G01*
X123270000Y-102430000D01*
G75*
G02*
X123345000Y-102505000I0J-75000D01*
G01*
X123345000Y-102655000D01*
G75*
G02*
X123270000Y-102730000I-75000J0D01*
G01*
X121945000Y-102730000D01*
G75*
G02*
X121870000Y-102655000I0J75000D01*
G01*
G37*
%TD.AperFunction*%
%TO.P,IC1,12*%
%TO.N,/RA11*%
%TA.AperFunction,SMDPad,CuDef*%
G36*
G01*
X121870000Y-102155000D02*
X121870000Y-102005000D01*
G75*
G02*
X121945000Y-101930000I75000J0D01*
G01*
X123270000Y-101930000D01*
G75*
G02*
X123345000Y-102005000I0J-75000D01*
G01*
X123345000Y-102155000D01*
G75*
G02*
X123270000Y-102230000I-75000J0D01*
G01*
X121945000Y-102230000D01*
G75*
G02*
X121870000Y-102155000I0J75000D01*
G01*
G37*
%TD.AperFunction*%
%TO.P,IC1,11*%
%TO.N,/RA12*%
%TA.AperFunction,SMDPad,CuDef*%
G36*
G01*
X121870000Y-101655000D02*
X121870000Y-101505000D01*
G75*
G02*
X121945000Y-101430000I75000J0D01*
G01*
X123270000Y-101430000D01*
G75*
G02*
X123345000Y-101505000I0J-75000D01*
G01*
X123345000Y-101655000D01*
G75*
G02*
X123270000Y-101730000I-75000J0D01*
G01*
X121945000Y-101730000D01*
G75*
G02*
X121870000Y-101655000I0J75000D01*
G01*
G37*
%TD.AperFunction*%
%TO.P,IC1,10*%
%TO.N,/VBUS3V3*%
%TA.AperFunction,SMDPad,CuDef*%
G36*
G01*
X121870000Y-101155000D02*
X121870000Y-101005000D01*
G75*
G02*
X121945000Y-100930000I75000J0D01*
G01*
X123270000Y-100930000D01*
G75*
G02*
X123345000Y-101005000I0J-75000D01*
G01*
X123345000Y-101155000D01*
G75*
G02*
X123270000Y-101230000I-75000J0D01*
G01*
X121945000Y-101230000D01*
G75*
G02*
X121870000Y-101155000I0J75000D01*
G01*
G37*
%TD.AperFunction*%
%TO.P,IC1,9*%
%TO.N,/GND*%
%TA.AperFunction,SMDPad,CuDef*%
G36*
G01*
X121870000Y-100655000D02*
X121870000Y-100505000D01*
G75*
G02*
X121945000Y-100430000I75000J0D01*
G01*
X123270000Y-100430000D01*
G75*
G02*
X123345000Y-100505000I0J-75000D01*
G01*
X123345000Y-100655000D01*
G75*
G02*
X123270000Y-100730000I-75000J0D01*
G01*
X121945000Y-100730000D01*
G75*
G02*
X121870000Y-100655000I0J75000D01*
G01*
G37*
%TD.AperFunction*%
%TO.P,IC1,8*%
%TO.N,/RG9*%
%TA.AperFunction,SMDPad,CuDef*%
G36*
G01*
X121870000Y-100155000D02*
X121870000Y-100005000D01*
G75*
G02*
X121945000Y-99930000I75000J0D01*
G01*
X123270000Y-99930000D01*
G75*
G02*
X123345000Y-100005000I0J-75000D01*
G01*
X123345000Y-100155000D01*
G75*
G02*
X123270000Y-100230000I-75000J0D01*
G01*
X121945000Y-100230000D01*
G75*
G02*
X121870000Y-100155000I0J75000D01*
G01*
G37*
%TD.AperFunction*%
%TO.P,IC1,7*%
%TO.N,/MCLR*%
%TA.AperFunction,SMDPad,CuDef*%
G36*
G01*
X121870000Y-99655000D02*
X121870000Y-99505000D01*
G75*
G02*
X121945000Y-99430000I75000J0D01*
G01*
X123270000Y-99430000D01*
G75*
G02*
X123345000Y-99505000I0J-75000D01*
G01*
X123345000Y-99655000D01*
G75*
G02*
X123270000Y-99730000I-75000J0D01*
G01*
X121945000Y-99730000D01*
G75*
G02*
X121870000Y-99655000I0J75000D01*
G01*
G37*
%TD.AperFunction*%
%TO.P,IC1,6*%
%TO.N,/RG8*%
%TA.AperFunction,SMDPad,CuDef*%
G36*
G01*
X121870000Y-99155000D02*
X121870000Y-99005000D01*
G75*
G02*
X121945000Y-98930000I75000J0D01*
G01*
X123270000Y-98930000D01*
G75*
G02*
X123345000Y-99005000I0J-75000D01*
G01*
X123345000Y-99155000D01*
G75*
G02*
X123270000Y-99230000I-75000J0D01*
G01*
X121945000Y-99230000D01*
G75*
G02*
X121870000Y-99155000I0J75000D01*
G01*
G37*
%TD.AperFunction*%
%TO.P,IC1,5*%
%TO.N,/RG7*%
%TA.AperFunction,SMDPad,CuDef*%
G36*
G01*
X121870000Y-98655000D02*
X121870000Y-98505000D01*
G75*
G02*
X121945000Y-98430000I75000J0D01*
G01*
X123270000Y-98430000D01*
G75*
G02*
X123345000Y-98505000I0J-75000D01*
G01*
X123345000Y-98655000D01*
G75*
G02*
X123270000Y-98730000I-75000J0D01*
G01*
X121945000Y-98730000D01*
G75*
G02*
X121870000Y-98655000I0J75000D01*
G01*
G37*
%TD.AperFunction*%
%TO.P,IC1,4*%
%TO.N,/RG6*%
%TA.AperFunction,SMDPad,CuDef*%
G36*
G01*
X121870000Y-98155000D02*
X121870000Y-98005000D01*
G75*
G02*
X121945000Y-97930000I75000J0D01*
G01*
X123270000Y-97930000D01*
G75*
G02*
X123345000Y-98005000I0J-75000D01*
G01*
X123345000Y-98155000D01*
G75*
G02*
X123270000Y-98230000I-75000J0D01*
G01*
X121945000Y-98230000D01*
G75*
G02*
X121870000Y-98155000I0J75000D01*
G01*
G37*
%TD.AperFunction*%
%TO.P,IC1,3*%
%TO.N,/RB15*%
%TA.AperFunction,SMDPad,CuDef*%
G36*
G01*
X121870000Y-97655000D02*
X121870000Y-97505000D01*
G75*
G02*
X121945000Y-97430000I75000J0D01*
G01*
X123270000Y-97430000D01*
G75*
G02*
X123345000Y-97505000I0J-75000D01*
G01*
X123345000Y-97655000D01*
G75*
G02*
X123270000Y-97730000I-75000J0D01*
G01*
X121945000Y-97730000D01*
G75*
G02*
X121870000Y-97655000I0J75000D01*
G01*
G37*
%TD.AperFunction*%
%TO.P,IC1,2*%
%TO.N,/RB14*%
%TA.AperFunction,SMDPad,CuDef*%
G36*
G01*
X121870000Y-97155000D02*
X121870000Y-97005000D01*
G75*
G02*
X121945000Y-96930000I75000J0D01*
G01*
X123270000Y-96930000D01*
G75*
G02*
X123345000Y-97005000I0J-75000D01*
G01*
X123345000Y-97155000D01*
G75*
G02*
X123270000Y-97230000I-75000J0D01*
G01*
X121945000Y-97230000D01*
G75*
G02*
X121870000Y-97155000I0J75000D01*
G01*
G37*
%TD.AperFunction*%
%TO.P,IC1,1*%
%TO.N,/RA7*%
%TA.AperFunction,SMDPad,CuDef*%
G36*
G01*
X121870000Y-96655000D02*
X121870000Y-96505000D01*
G75*
G02*
X121945000Y-96430000I75000J0D01*
G01*
X123270000Y-96430000D01*
G75*
G02*
X123345000Y-96505000I0J-75000D01*
G01*
X123345000Y-96655000D01*
G75*
G02*
X123270000Y-96730000I-75000J0D01*
G01*
X121945000Y-96730000D01*
G75*
G02*
X121870000Y-96655000I0J75000D01*
G01*
G37*
%TD.AperFunction*%
%TD*%
%TO.P,C6,2*%
%TO.N,/VBUS3V3*%
X128096000Y-89408000D03*
%TO.P,C6,1*%
%TO.N,/GND*%
X133096000Y-89408000D03*
%TD*%
%TO.P,C4,2*%
%TO.N,/VBUS3V3*%
X137748000Y-102616000D03*
%TO.P,C4,1*%
%TO.N,/GND*%
X142748000Y-102616000D03*
%TD*%
%TO.P,C3,2*%
%TO.N,/VBUS3V3*%
X122682000Y-93138000D03*
%TO.P,C3,1*%
%TO.N,Net-(C3-Pad1)*%
X122682000Y-88138000D03*
%TD*%
%TO.P,C2,2*%
%TO.N,/VBUS3V3*%
X124460000Y-109300000D03*
%TO.P,C2,1*%
%TO.N,/GND*%
X124460000Y-114300000D03*
%TD*%
%TO.P,C1,2*%
%TO.N,/VBUS3V3*%
X118284000Y-101346000D03*
%TO.P,C1,1*%
%TO.N,/GND*%
X113284000Y-101346000D03*
%TD*%
D19*
%TO.N,Net-(C3-Pad1)*%
X119482000Y-88392000D02*
X113182000Y-88392000D01*
X122428000Y-88392000D02*
X122682000Y-88138000D01*
X119482000Y-88392000D02*
X122428000Y-88392000D01*
%TO.N,/RA7*%
X103029001Y-85184999D02*
X101854000Y-86360000D01*
X104958001Y-85184999D02*
X103029001Y-85184999D01*
X113846942Y-94073940D02*
X104958001Y-85184999D01*
X118732992Y-94073940D02*
X113846942Y-94073940D01*
X121239052Y-96580000D02*
X118732992Y-94073940D01*
X122607500Y-96580000D02*
X121239052Y-96580000D01*
%TO.N,/VBUS3V3*%
X118296000Y-101080000D02*
X118284000Y-101092000D01*
X133129298Y-103080000D02*
X133932500Y-103080000D01*
X132869990Y-102820692D02*
X133129298Y-103080000D01*
X132869990Y-101839308D02*
X132869990Y-102820692D01*
X133129298Y-101580000D02*
X132869990Y-101839308D01*
X133932500Y-101580000D02*
X133129298Y-101580000D01*
X136712000Y-101580000D02*
X137748000Y-102616000D01*
X133932500Y-101580000D02*
X136712000Y-101580000D01*
X128020000Y-89484000D02*
X128096000Y-89408000D01*
X128020000Y-94667500D02*
X128020000Y-89484000D01*
X147922999Y-116642001D02*
X148533999Y-117253001D01*
X150462999Y-117253001D02*
X151638000Y-116078000D01*
X147922999Y-115662179D02*
X147922999Y-116642001D01*
X135340820Y-103080000D02*
X147922999Y-115662179D01*
X148533999Y-117253001D02*
X150462999Y-117253001D01*
X133932500Y-103080000D02*
X135340820Y-103080000D01*
X118550000Y-101080000D02*
X118284000Y-101346000D01*
X122607500Y-101080000D02*
X118550000Y-101080000D01*
X124250000Y-109090000D02*
X124460000Y-109300000D01*
X129667000Y-109474000D02*
X129147000Y-108954000D01*
X125520000Y-108240000D02*
X125520000Y-105992500D01*
X124460000Y-109300000D02*
X125520000Y-108240000D01*
X129667000Y-109371000D02*
X129667000Y-109474000D01*
X129020000Y-108724000D02*
X129667000Y-109371000D01*
X129020000Y-105992500D02*
X129020000Y-108724000D01*
%TO.N,/GND*%
X119482000Y-90692000D02*
X119386999Y-90787001D01*
X126020000Y-112740000D02*
X126020000Y-105992500D01*
X124460000Y-114300000D02*
X126020000Y-112740000D01*
X128524000Y-113331000D02*
X129667000Y-114474000D01*
X128520000Y-111900410D02*
X128524000Y-111904410D01*
X128524000Y-111904410D02*
X128524000Y-113331000D01*
X128520000Y-105992500D02*
X128520000Y-111900410D01*
X131943130Y-89408000D02*
X128520000Y-92831130D01*
X128520000Y-92831130D02*
X128520000Y-94667500D01*
X133096000Y-89408000D02*
X131943130Y-89408000D01*
X128520000Y-95470702D02*
X128520000Y-94667500D01*
X128260692Y-95730010D02*
X128520000Y-95470702D01*
X123355008Y-95730010D02*
X128260692Y-95730010D01*
X119482000Y-91857002D02*
X123355008Y-95730010D01*
X119482000Y-90692000D02*
X119482000Y-91857002D01*
X123410702Y-100580000D02*
X122607500Y-100580000D01*
X123670010Y-100320692D02*
X123410702Y-100580000D01*
X123670010Y-96045012D02*
X123670010Y-100320692D01*
X123355008Y-95730010D02*
X123670010Y-96045012D01*
X110982588Y-101092000D02*
X113284000Y-101092000D01*
X105045589Y-95155001D02*
X110982588Y-101092000D01*
X103218999Y-95155001D02*
X105045589Y-95155001D01*
X101854000Y-96520000D02*
X103218999Y-95155001D01*
X114409001Y-100220999D02*
X113284000Y-101346000D01*
X118824001Y-100220999D02*
X114409001Y-100220999D01*
X119183002Y-100580000D02*
X118824001Y-100220999D01*
X122607500Y-100580000D02*
X119183002Y-100580000D01*
X119407001Y-90617001D02*
X119482000Y-90692000D01*
X111191001Y-90617001D02*
X119407001Y-90617001D01*
X104394000Y-83820000D02*
X111191001Y-90617001D01*
X140212000Y-100080000D02*
X133932500Y-100080000D01*
X142748000Y-102616000D02*
X140212000Y-100080000D01*
X140236990Y-100104990D02*
X142748000Y-102616000D01*
%TO.N,/RA0*%
X117919822Y-105156000D02*
X117602000Y-105156000D01*
X122607500Y-102580000D02*
X120495822Y-102580000D01*
X103029001Y-100424999D02*
X101854000Y-101600000D01*
X104958001Y-100424999D02*
X103029001Y-100424999D01*
X108464001Y-103930999D02*
X104958001Y-100424999D01*
X116376999Y-103930999D02*
X108464001Y-103930999D01*
X117602000Y-105156000D02*
X116376999Y-103930999D01*
X119144823Y-103930999D02*
X119157911Y-103917911D01*
X116376999Y-103930999D02*
X119144823Y-103930999D01*
X119157911Y-103917911D02*
X117919822Y-105156000D01*
X120495822Y-102580000D02*
X119157911Y-103917911D01*
%TO.N,/RA10*%
X124520000Y-94667500D02*
X124520000Y-93532000D01*
X124520000Y-93532000D02*
X124520000Y-93347458D01*
X149082939Y-85582939D02*
X149098000Y-85598000D01*
X126437599Y-85582939D02*
X149082939Y-85582939D01*
X124183963Y-87836575D02*
X126437599Y-85582939D01*
X124183964Y-90979426D02*
X124183963Y-87836575D01*
X124520000Y-91315462D02*
X124183964Y-90979426D01*
X124520000Y-93532000D02*
X124520000Y-91315462D01*
%TO.N,/RB13*%
X148533999Y-86773001D02*
X150462999Y-86773001D01*
X147793947Y-86032949D02*
X148533999Y-86773001D01*
X124633973Y-88022975D02*
X126623999Y-86032949D01*
X124633973Y-90793025D02*
X124633973Y-88022975D01*
X150462999Y-86773001D02*
X151638000Y-85598000D01*
X125020000Y-91179052D02*
X124633973Y-90793025D01*
X126623999Y-86032949D02*
X147793947Y-86032949D01*
X125020000Y-94667500D02*
X125020000Y-91179052D01*
%TO.N,/RB12*%
X147442959Y-86482959D02*
X149098000Y-88138000D01*
X126810399Y-86482959D02*
X147442959Y-86482959D01*
X125520000Y-91042642D02*
X125083981Y-90606623D01*
X125083982Y-88209376D02*
X126810399Y-86482959D01*
X125083981Y-90606623D02*
X125083982Y-88209376D01*
X125520000Y-94667500D02*
X125520000Y-91042642D01*
%TO.N,/RB11*%
X148533999Y-89313001D02*
X150462999Y-89313001D01*
X126996799Y-86932969D02*
X146153967Y-86932969D01*
X146153967Y-86932969D02*
X148533999Y-89313001D01*
X125533991Y-88395777D02*
X126996799Y-86932969D01*
X125533990Y-90420222D02*
X125533991Y-88395777D01*
X126020000Y-90906232D02*
X125533990Y-90420222D01*
X150462999Y-89313001D02*
X151638000Y-88138000D01*
X126020000Y-94667500D02*
X126020000Y-90906232D01*
%TO.N,/RB10*%
X126520000Y-94667500D02*
X126520000Y-92801822D01*
X127183199Y-87382979D02*
X145802979Y-87382979D01*
X125984000Y-88582178D02*
X127183199Y-87382979D01*
X145802979Y-87382979D02*
X149098000Y-90678000D01*
X125984000Y-90233822D02*
X125984000Y-88582178D01*
X126520000Y-90769822D02*
X125984000Y-90233822D01*
X126520000Y-94667500D02*
X126520000Y-90769822D01*
%TO.N,/RF1*%
X148533999Y-91853001D02*
X150462999Y-91853001D01*
X144513987Y-87832989D02*
X148533999Y-91853001D01*
X127369599Y-87832989D02*
X144513987Y-87832989D01*
X150462999Y-91853001D02*
X151638000Y-90678000D01*
X126492000Y-88710588D02*
X127369599Y-87832989D01*
X126492000Y-90105412D02*
X126492000Y-88710588D01*
X127000000Y-90892000D02*
X127000000Y-90613412D01*
X127000000Y-90613412D02*
X126492000Y-90105412D01*
X127020000Y-90912000D02*
X127000000Y-90892000D01*
X127020000Y-94667500D02*
X127020000Y-90912000D01*
%TO.N,/RF0*%
X135638983Y-90285981D02*
X141094442Y-90285982D01*
X133636001Y-88282999D02*
X135638983Y-90285981D01*
X144026460Y-93218000D02*
X149098000Y-93218000D01*
X127555999Y-88282999D02*
X133636001Y-88282999D01*
X141094442Y-90285982D02*
X144026460Y-93218000D01*
X126970999Y-88867999D02*
X127555999Y-88282999D01*
X126970999Y-89948001D02*
X126970999Y-88867999D01*
X127520000Y-90497002D02*
X126970999Y-89948001D01*
X127520000Y-94667500D02*
X127520000Y-90497002D01*
%TO.N,/RC9*%
X150462999Y-94393001D02*
X151638000Y-93218000D01*
X144565051Y-94393001D02*
X150462999Y-94393001D01*
X131251550Y-90735990D02*
X140908041Y-90735991D01*
X140908041Y-90735991D02*
X144565051Y-94393001D01*
X129020000Y-92967540D02*
X131251550Y-90735990D01*
X129020000Y-94667500D02*
X129020000Y-92967540D01*
%TO.N,/RD6*%
X145293640Y-95758000D02*
X149098000Y-95758000D01*
X140721640Y-91186000D02*
X145293640Y-95758000D01*
X131437950Y-91186000D02*
X140721640Y-91186000D01*
X129520000Y-93103950D02*
X131437950Y-91186000D01*
X129520000Y-94667500D02*
X129520000Y-93103950D01*
%TO.N,/RD5*%
X130020000Y-94516000D02*
X130044990Y-94491010D01*
X130020000Y-94667500D02*
X130020000Y-94516000D01*
X150462999Y-96933001D02*
X151638000Y-95758000D01*
X145832231Y-96933001D02*
X150462999Y-96933001D01*
X140571190Y-91671960D02*
X145832231Y-96933001D01*
X131588400Y-91671960D02*
X140571190Y-91671960D01*
X130020000Y-93240360D02*
X131588400Y-91671960D01*
X130020000Y-94667500D02*
X130020000Y-93240360D01*
%TO.N,/RC8*%
X130520000Y-93376770D02*
X130520000Y-94667500D01*
X131774799Y-92121971D02*
X130520000Y-93376770D01*
X140384792Y-92121972D02*
X131774799Y-92121971D01*
X146560820Y-98298000D02*
X140384792Y-92121972D01*
X149098000Y-98298000D02*
X146560820Y-98298000D01*
%TO.N,/RC7*%
X140198391Y-92571981D02*
X147099411Y-99473001D01*
X131961200Y-92571980D02*
X140198391Y-92571981D01*
X131044990Y-93488190D02*
X131961200Y-92571980D01*
X150462999Y-99473001D02*
X151638000Y-98298000D01*
X131044990Y-94507010D02*
X131044990Y-93488190D01*
X131020000Y-94532000D02*
X131044990Y-94507010D01*
X147099411Y-99473001D02*
X150462999Y-99473001D01*
X131020000Y-94667500D02*
X131020000Y-94532000D01*
%TO.N,/RC6*%
X147828000Y-100838000D02*
X149098000Y-100838000D01*
X140011990Y-93021990D02*
X147828000Y-100838000D01*
X132147600Y-93021990D02*
X140011990Y-93021990D01*
X131520000Y-93649590D02*
X132147600Y-93021990D01*
X131520000Y-94667500D02*
X131520000Y-93649590D01*
%TO.N,/RB9*%
X150462999Y-102013001D02*
X151638000Y-100838000D01*
X148264873Y-102013001D02*
X150462999Y-102013001D01*
X132334000Y-93472000D02*
X139723872Y-93472000D01*
X132020000Y-93786000D02*
X132334000Y-93472000D01*
X139723872Y-93472000D02*
X148264873Y-102013001D01*
X132020000Y-94667500D02*
X132020000Y-93786000D01*
%TO.N,/RB8*%
X133932500Y-96580000D02*
X133129298Y-96580000D01*
X133932500Y-96580000D02*
X142195462Y-96580000D01*
X149098000Y-103378000D02*
X147956410Y-103378000D01*
X146573059Y-100957597D02*
X142245453Y-96629991D01*
X146573060Y-101994650D02*
X146573059Y-100957597D01*
X147956410Y-103378000D02*
X146573060Y-101994650D01*
%TO.N,/RC13*%
X150462999Y-104553001D02*
X151638000Y-103378000D01*
X146123050Y-102181050D02*
X148495001Y-104553001D01*
X148495001Y-104553001D02*
X150462999Y-104553001D01*
X146123050Y-101143998D02*
X146123050Y-102181050D01*
X142059052Y-97080000D02*
X146123050Y-101143998D01*
X133932500Y-97080000D02*
X142059052Y-97080000D01*
%TO.N,/RB7*%
X141922642Y-97580000D02*
X133932500Y-97580000D01*
X145673040Y-101330398D02*
X141922642Y-97580000D01*
X145673039Y-102493039D02*
X145673040Y-101330398D01*
X149098000Y-105918000D02*
X145673039Y-102493039D01*
%TO.N,/RC10*%
X141786232Y-98080000D02*
X145223030Y-101516798D01*
X133932500Y-98080000D02*
X141786232Y-98080000D01*
X150462999Y-107093001D02*
X151638000Y-105918000D01*
X148533999Y-107093001D02*
X150462999Y-107093001D01*
X145223030Y-103782032D02*
X148533999Y-107093001D01*
X145223030Y-101516798D02*
X145223030Y-103782032D01*
%TO.N,/RB6*%
X144773020Y-104133020D02*
X149098000Y-108458000D01*
X141649822Y-98580000D02*
X144773020Y-101703198D01*
X144773020Y-101703198D02*
X144773020Y-104133020D01*
X133932500Y-98580000D02*
X141649822Y-98580000D01*
%TO.N,/RB5*%
X141513412Y-99080000D02*
X144323011Y-101889599D01*
X133932500Y-99080000D02*
X141513412Y-99080000D01*
X150462999Y-109633001D02*
X150622000Y-109474000D01*
X148533999Y-109633001D02*
X150462999Y-109633001D01*
X144323010Y-105422012D02*
X148533999Y-109633001D01*
X144323011Y-101889599D02*
X144323010Y-105422012D01*
X150622000Y-109474000D02*
X151638000Y-108458000D01*
%TO.N,/RD8*%
X143873001Y-105773001D02*
X149098000Y-110998000D01*
X143873001Y-102075999D02*
X143873001Y-105773001D01*
X141377002Y-99580000D02*
X143873001Y-102075999D01*
X133932500Y-99580000D02*
X141377002Y-99580000D01*
%TO.N,/RC15*%
X148533999Y-112173001D02*
X150462999Y-112173001D01*
X141478000Y-105117002D02*
X148533999Y-112173001D01*
X141478000Y-104044588D02*
X141478000Y-105117002D01*
X138013412Y-100580000D02*
X141478000Y-104044588D01*
X150462999Y-112173001D02*
X151638000Y-110998000D01*
X133932500Y-100580000D02*
X138013412Y-100580000D01*
%TO.N,/RC12*%
X137877002Y-101080000D02*
X140937002Y-104140000D01*
X133932500Y-101080000D02*
X137877002Y-101080000D01*
X140937002Y-105377002D02*
X149098000Y-113538000D01*
X140937002Y-104140000D02*
X140937002Y-105377002D01*
%TO.N,/D+*%
X150462999Y-114713001D02*
X151638000Y-113538000D01*
X148246641Y-114713001D02*
X150462999Y-114713001D01*
X135613640Y-102080000D02*
X148246641Y-114713001D01*
X133932500Y-102080000D02*
X135613640Y-102080000D01*
%TO.N,/D-*%
X148060241Y-115163011D02*
X148183011Y-115163011D01*
X135477230Y-102580000D02*
X148060241Y-115163011D01*
X148183011Y-115163011D02*
X149098000Y-116078000D01*
X133932500Y-102580000D02*
X135477230Y-102580000D01*
%TO.N,/VBUS*%
X147472989Y-116992989D02*
X149098000Y-118618000D01*
X147472989Y-115848579D02*
X147472989Y-116992989D01*
X135204410Y-103580000D02*
X147472989Y-115848579D01*
X133932500Y-103580000D02*
X135204410Y-103580000D01*
%TO.N,/RA4*%
X150462999Y-119793001D02*
X151638000Y-118618000D01*
X148533999Y-119793001D02*
X150462999Y-119793001D01*
X147022979Y-118281981D02*
X148533999Y-119793001D01*
X147022979Y-116034979D02*
X147022979Y-118281981D01*
X135068000Y-104080000D02*
X147022979Y-116034979D01*
X133932500Y-104080000D02*
X135068000Y-104080000D01*
%TO.N,/RB4*%
X132020000Y-105992500D02*
X132020000Y-106993950D01*
X132020000Y-106993950D02*
X132659829Y-107633779D01*
X133060046Y-108034000D02*
X133060046Y-115280046D01*
X132659829Y-107633779D02*
X133060046Y-108034000D01*
X133060046Y-115280046D02*
X133060045Y-115928007D01*
X133060045Y-116300807D02*
X131250852Y-118110000D01*
X133060045Y-115928007D02*
X133060045Y-116300807D01*
X128042692Y-118110000D02*
X124696613Y-121456079D01*
X131250852Y-118110000D02*
X128042692Y-118110000D01*
X124696613Y-121456079D02*
X122428000Y-121456079D01*
X104394000Y-119380000D02*
X107119308Y-119380000D01*
X109195387Y-121456079D02*
X121835669Y-121456079D01*
X107119308Y-119380000D02*
X109195387Y-121456079D01*
X121835669Y-121456079D02*
X123444000Y-121456079D01*
%TO.N,/RA8*%
X131520000Y-105992500D02*
X131520000Y-107130360D01*
X131520000Y-107130360D02*
X132209820Y-107820180D01*
X132209820Y-107820180D02*
X132610037Y-108220399D01*
X132610037Y-108220399D02*
X132610037Y-111760000D01*
X132610037Y-111760000D02*
X132610036Y-115741606D01*
X132610036Y-116114406D02*
X131122442Y-117602000D01*
X132610036Y-115741606D02*
X132610036Y-116114406D01*
X131122442Y-117602000D02*
X127914282Y-117602000D01*
X127914282Y-117602000D02*
X127076141Y-118440141D01*
X127076141Y-118440141D02*
X124510213Y-121006069D01*
X103029001Y-118204999D02*
X106580717Y-118204999D01*
X101854000Y-119380000D02*
X103029001Y-118204999D01*
X106580717Y-118204999D02*
X109381787Y-121006069D01*
X109381787Y-121006069D02*
X122022069Y-121006069D01*
X122022069Y-121006069D02*
X121987600Y-121006069D01*
X124510213Y-121006069D02*
X122022069Y-121006069D01*
%TO.N,/RE15*%
X131020000Y-105992500D02*
X131020000Y-107266770D01*
X131020000Y-107266770D02*
X131891615Y-108138385D01*
X132160028Y-108406798D02*
X132160027Y-115555205D01*
X131891615Y-108138385D02*
X132160028Y-108406798D01*
X130994032Y-117094000D02*
X127785872Y-117094000D01*
X132160027Y-115928005D02*
X130994032Y-117094000D01*
X132160027Y-115555205D02*
X132160027Y-115928005D01*
X127785872Y-117094000D02*
X124323813Y-120556059D01*
X104394000Y-116840000D02*
X105852128Y-116840000D01*
X109568187Y-120556059D02*
X122267941Y-120556059D01*
X105852128Y-116840000D02*
X109568187Y-120556059D01*
X122267941Y-120556059D02*
X122174000Y-120556059D01*
X124323813Y-120556059D02*
X122267941Y-120556059D01*
%TO.N,/RE14*%
X130520000Y-105992500D02*
X130520000Y-107135178D01*
X130520000Y-107135178D02*
X130520000Y-107403180D01*
X130520000Y-107403180D02*
X131710018Y-108593198D01*
X131710018Y-108593198D02*
X131710018Y-115368804D01*
X130865622Y-116586000D02*
X127657462Y-116586000D01*
X131710018Y-115741604D02*
X130865622Y-116586000D01*
X131710018Y-115368804D02*
X131710018Y-115741604D01*
X127657462Y-116586000D02*
X124137413Y-120106049D01*
X109754587Y-120106049D02*
X122392049Y-120106049D01*
X103029001Y-115664999D02*
X105313537Y-115664999D01*
X101854000Y-116840000D02*
X103029001Y-115664999D01*
X122392049Y-120106049D02*
X121955951Y-120106049D01*
X124137413Y-120106049D02*
X122392049Y-120106049D01*
X105313537Y-115664999D02*
X109754587Y-120106049D01*
%TO.N,/RE13*%
X130020000Y-105992500D02*
X130020000Y-107271588D01*
X130020000Y-107271588D02*
X130020000Y-107539590D01*
X130020000Y-107539590D02*
X131260009Y-108779599D01*
X131260010Y-108779600D02*
X131260009Y-115182403D01*
X131260009Y-108779599D02*
X131260010Y-108779600D01*
X131260009Y-115555203D02*
X130766201Y-116049011D01*
X131260009Y-115182403D02*
X131260009Y-115555203D01*
X130766201Y-116049011D02*
X127558041Y-116049011D01*
X127558041Y-116049011D02*
X123951013Y-119656039D01*
X122913961Y-119656039D02*
X122174000Y-119656039D01*
X109940987Y-119656039D02*
X123167961Y-119656039D01*
X107930952Y-115296952D02*
X107930953Y-117646005D01*
X107930953Y-117646005D02*
X109940987Y-119656039D01*
X106934000Y-114300000D02*
X107930952Y-115296952D01*
X104394000Y-114300000D02*
X106934000Y-114300000D01*
X123167961Y-119656039D02*
X122913961Y-119656039D01*
X123951013Y-119656039D02*
X123167961Y-119656039D01*
%TO.N,/RE12*%
X129520000Y-105992500D02*
X129520000Y-107407998D01*
X129520000Y-107407998D02*
X129520000Y-107676000D01*
X129520000Y-107676000D02*
X130810000Y-108966000D01*
X130810000Y-108966000D02*
X130810000Y-114996002D01*
X130579801Y-115599001D02*
X127371641Y-115599001D01*
X130810000Y-115368802D02*
X130579801Y-115599001D01*
X130810000Y-114996002D02*
X130810000Y-115368802D01*
X127371641Y-115599001D02*
X123764613Y-119206029D01*
X108380962Y-117459604D02*
X110127387Y-119206029D01*
X110127387Y-119206029D02*
X123109971Y-119206029D01*
X123109971Y-119206029D02*
X121666000Y-119206029D01*
X123764613Y-119206029D02*
X123109971Y-119206029D01*
X108380962Y-114100192D02*
X108380962Y-116508962D01*
X107405769Y-113124999D02*
X108380962Y-114100192D01*
X103029001Y-113124999D02*
X107405769Y-113124999D01*
X101854000Y-114300000D02*
X103029001Y-113124999D01*
X108380962Y-116508962D02*
X108380962Y-117459604D01*
X108380961Y-116383371D02*
X108380962Y-116508962D01*
%TO.N,/RC11*%
X128020000Y-105992500D02*
X128020000Y-111510000D01*
X127970010Y-111805990D02*
X127970009Y-114364223D01*
X128020000Y-111756000D02*
X127970010Y-111805990D01*
X128020000Y-111510000D02*
X128020000Y-111756000D01*
X127970009Y-114364223D02*
X126247116Y-116087116D01*
X126247116Y-116087116D02*
X123578213Y-118756019D01*
X122543981Y-118756019D02*
X120650000Y-118756019D01*
X123578213Y-118756019D02*
X122543981Y-118756019D01*
X110313787Y-118756019D02*
X122543981Y-118756019D01*
X108830971Y-115180971D02*
X108830971Y-117273203D01*
X108830969Y-113913789D02*
X108830969Y-115180969D01*
X108830971Y-117273203D02*
X110313787Y-118756019D01*
X108830969Y-115180969D02*
X108830971Y-115180971D01*
X106677180Y-111760000D02*
X108830969Y-113913789D01*
X104394000Y-111760000D02*
X106677180Y-111760000D01*
%TO.N,/RC2*%
X127520000Y-105992500D02*
X127520000Y-111315011D01*
X123391813Y-118306009D02*
X120592009Y-118306009D01*
X127520000Y-114177822D02*
X123391813Y-118306009D01*
X127520000Y-111315011D02*
X127520000Y-114177822D01*
X110500187Y-118306009D02*
X120961991Y-118306009D01*
X109280980Y-117086802D02*
X110500187Y-118306009D01*
X109280979Y-113727389D02*
X109280979Y-114868979D01*
X103029001Y-110584999D02*
X106138589Y-110584999D01*
X106138589Y-110584999D02*
X109280979Y-113727389D01*
X101854000Y-111760000D02*
X103029001Y-110584999D01*
X109280979Y-114868979D02*
X109280980Y-117086802D01*
X109280979Y-114743389D02*
X109280979Y-114868979D01*
%TO.N,/RC1*%
X120647011Y-117853011D02*
X110683598Y-117853010D01*
X110683598Y-117853010D02*
X109730989Y-116900401D01*
X123205412Y-117856000D02*
X120650000Y-117856000D01*
X120650000Y-117856000D02*
X120647011Y-117853011D01*
X127020000Y-114041412D02*
X123205412Y-117856000D01*
X127020000Y-105992500D02*
X127020000Y-114041412D01*
X104394000Y-109220000D02*
X105410000Y-109220000D01*
X109474000Y-113284000D02*
X109560592Y-113284000D01*
X105410000Y-109220000D02*
X109474000Y-113284000D01*
X109730989Y-113454397D02*
X109730989Y-114810989D01*
X109560592Y-113284000D02*
X109730989Y-113454397D01*
X109730989Y-114810989D02*
X109730989Y-114556989D01*
X109730989Y-116900401D02*
X109730989Y-114810989D01*
%TO.N,/RC0*%
X126520000Y-105992500D02*
X126520000Y-112550000D01*
X126520000Y-113905002D02*
X123022001Y-117403001D01*
X126520000Y-112550000D02*
X126520000Y-113905002D01*
X110869999Y-117403001D02*
X112720999Y-117403001D01*
X110180999Y-116714001D02*
X110869999Y-117403001D01*
X110180999Y-113267997D02*
X110180999Y-116714001D01*
X104958001Y-108044999D02*
X110180999Y-113267997D01*
X103029001Y-108044999D02*
X104958001Y-108044999D01*
X101854000Y-109220000D02*
X103029001Y-108044999D01*
X112720999Y-117403001D02*
X112142001Y-117403001D01*
X123022001Y-117403001D02*
X112720999Y-117403001D01*
%TO.N,/RB3*%
X124995010Y-106144990D02*
X124995010Y-107035400D01*
X125020000Y-106120000D02*
X124995010Y-106144990D01*
X125020000Y-105992500D02*
X125020000Y-106120000D01*
X124995010Y-107035400D02*
X124970009Y-107060401D01*
X124995010Y-107035400D02*
X123777411Y-108252999D01*
X104394000Y-106680000D02*
X105966999Y-108252999D01*
X105966999Y-108252999D02*
X110030999Y-108252999D01*
X110030999Y-108252999D02*
X109776999Y-108252999D01*
X123777411Y-108252999D02*
X110030999Y-108252999D01*
%TO.N,/RB2*%
X124520000Y-105992500D02*
X124520000Y-106620000D01*
X107184033Y-107731031D02*
X104958001Y-105504999D01*
X118711379Y-107731031D02*
X107184033Y-107731031D01*
X118746410Y-107696000D02*
X118711379Y-107731031D01*
X103029001Y-105504999D02*
X101854000Y-106680000D01*
X104958001Y-105504999D02*
X103029001Y-105504999D01*
X123698000Y-107696000D02*
X118746410Y-107696000D01*
X124520000Y-106874000D02*
X123698000Y-107696000D01*
X124520000Y-105992500D02*
X124520000Y-106874000D01*
%TO.N,/RB1*%
X107535021Y-107281021D02*
X104394000Y-104140000D01*
X118524979Y-107281021D02*
X107535021Y-107281021D01*
X121726000Y-104080000D02*
X118524979Y-107281021D01*
X122607500Y-104080000D02*
X121726000Y-104080000D01*
%TO.N,/RB0*%
X103029001Y-102964999D02*
X101854000Y-104140000D01*
X104958001Y-102964999D02*
X103029001Y-102964999D01*
X118338579Y-106831011D02*
X108824013Y-106831011D01*
X121589590Y-103580000D02*
X118338579Y-106831011D01*
X108824013Y-106831011D02*
X104958001Y-102964999D01*
X122607500Y-103580000D02*
X121589590Y-103580000D01*
%TO.N,/RA1*%
X109175001Y-106381001D02*
X104394000Y-101600000D01*
X118152179Y-106381001D02*
X109175001Y-106381001D01*
X121428190Y-103104990D02*
X118152179Y-106381001D01*
X122447010Y-103104990D02*
X121428190Y-103104990D01*
X122472000Y-103080000D02*
X122447010Y-103104990D01*
X122607500Y-103080000D02*
X122472000Y-103080000D01*
%TO.N,/RA11*%
X108458000Y-103124000D02*
X107950000Y-102616000D01*
X119315412Y-103124000D02*
X108458000Y-103124000D01*
X120359412Y-102080000D02*
X119315412Y-103124000D01*
X122607500Y-102080000D02*
X120359412Y-102080000D01*
X107950000Y-102616000D02*
X104394000Y-99060000D01*
X108146010Y-102812010D02*
X107950000Y-102616000D01*
%TO.N,/RA12*%
X103029001Y-97884999D02*
X101854000Y-99060000D01*
X104958001Y-97884999D02*
X103029001Y-97884999D01*
X109544003Y-102471001D02*
X109200501Y-102127499D01*
X119715002Y-101580000D02*
X118824001Y-102471001D01*
X118824001Y-102471001D02*
X109544003Y-102471001D01*
X122607500Y-101580000D02*
X119715002Y-101580000D01*
X109200501Y-102127499D02*
X104958001Y-97884999D01*
X109435002Y-102362000D02*
X109200501Y-102127499D01*
%TO.N,/RG9*%
X122607500Y-100080000D02*
X120517130Y-100080000D01*
X120517130Y-100080000D02*
X120335412Y-100080000D01*
X110297987Y-99770989D02*
X104506998Y-93980000D01*
X119010401Y-99770989D02*
X110297987Y-99770989D01*
X119319412Y-100080000D02*
X119010401Y-99770989D01*
X104506998Y-93980000D02*
X104394000Y-93980000D01*
X120517130Y-100080000D02*
X119319412Y-100080000D01*
%TO.N,/MCLR*%
X118681822Y-98552000D02*
X119411911Y-99282089D01*
X118364000Y-98552000D02*
X118681822Y-98552000D01*
X119411911Y-99282089D02*
X119196801Y-99066979D01*
X120653540Y-99580000D02*
X122607500Y-99580000D01*
X119709822Y-99580000D02*
X120653540Y-99580000D01*
X119411911Y-99282089D02*
X119709822Y-99580000D01*
X103029001Y-92804999D02*
X101854000Y-93980000D01*
X104958001Y-92804999D02*
X103029001Y-92804999D01*
X108927002Y-96774000D02*
X104958001Y-92804999D01*
X116586000Y-96774000D02*
X108927002Y-96774000D01*
X118364000Y-98552000D02*
X116586000Y-96774000D01*
%TO.N,/RG8*%
X104394000Y-91604588D02*
X104394000Y-91440000D01*
X109113402Y-96323990D02*
X104394000Y-91604588D01*
X117800992Y-96323990D02*
X109113402Y-96323990D01*
X120537002Y-99060000D02*
X117800992Y-96323990D01*
X121432000Y-99080000D02*
X121412000Y-99060000D01*
X122607500Y-99080000D02*
X121432000Y-99080000D01*
X121412000Y-99060000D02*
X120537002Y-99060000D01*
X121784298Y-99060000D02*
X121412000Y-99060000D01*
%TO.N,/RG7*%
X120718402Y-98604990D02*
X122582510Y-98604990D01*
X117987393Y-95873981D02*
X120718402Y-98604990D01*
X109982000Y-95873980D02*
X117987393Y-95873981D01*
X103029001Y-90264999D02*
X101854000Y-91440000D01*
X104958001Y-90264999D02*
X103029001Y-90264999D01*
X105569001Y-90875999D02*
X104958001Y-90264999D01*
X105569001Y-91460981D02*
X105569001Y-90875999D01*
X109982000Y-95873980D02*
X105569001Y-91460981D01*
%TO.N,/RG6*%
X106019011Y-90525011D02*
X104394000Y-88900000D01*
X106019011Y-91274581D02*
X106019011Y-90525011D01*
X110168400Y-95423970D02*
X106019011Y-91274581D01*
X118173792Y-95423970D02*
X110168400Y-95423970D01*
X120829822Y-98080000D02*
X118173792Y-95423970D01*
X122607500Y-98080000D02*
X120829822Y-98080000D01*
%TO.N,/RB15*%
X103029001Y-87724999D02*
X101854000Y-88900000D01*
X111229960Y-94973960D02*
X105569001Y-89313001D01*
X104958001Y-87724999D02*
X103029001Y-87724999D01*
X105569001Y-89313001D02*
X105569001Y-88335999D01*
X118360192Y-94973960D02*
X111229960Y-94973960D01*
X120966232Y-97580000D02*
X118360192Y-94973960D01*
X105569001Y-88335999D02*
X104958001Y-87724999D01*
X122607500Y-97580000D02*
X120966232Y-97580000D01*
%TO.N,/RB14*%
X104394000Y-86524588D02*
X104394000Y-86360000D01*
X112393362Y-94523950D02*
X104394000Y-86524588D01*
X118546592Y-94523950D02*
X112393362Y-94523950D01*
X121102642Y-97080000D02*
X118546592Y-94523950D01*
X122607500Y-97080000D02*
X121102642Y-97080000D01*
%TO.N,/3V3*%
X119482000Y-86092000D02*
X118124990Y-84734990D01*
X116034999Y-82644999D02*
X119482000Y-86092000D01*
X100743999Y-82644999D02*
X116034999Y-82644999D01*
X101289999Y-97695001D02*
X100678999Y-97084001D01*
X100678999Y-97084001D02*
X100678999Y-82709999D01*
X102582589Y-97695001D02*
X101289999Y-97695001D01*
X103757590Y-96520000D02*
X102582589Y-97695001D01*
X100678999Y-82709999D02*
X100743999Y-82644999D01*
X104394000Y-96520000D02*
X103757590Y-96520000D01*
%TD*%
M02*
