%TF.GenerationSoftware,KiCad,Pcbnew,5.1.10-88a1d61d58~90~ubuntu21.04.1*%
%TF.CreationDate,2021-08-24T17:57:03+02:00*%
%TF.ProjectId,hendrik,68656e64-7269-46b2-9e6b-696361645f70,rev?*%
%TF.SameCoordinates,Original*%
%TF.FileFunction,Copper,L2,Bot*%
%TF.FilePolarity,Positive*%
%FSLAX46Y46*%
G04 Gerber Fmt 4.6, Leading zero omitted, Abs format (unit mm)*
G04 Created by KiCad (PCBNEW 5.1.10-88a1d61d58~90~ubuntu21.04.1) date 2021-08-24 17:57:03*
%MOMM*%
%LPD*%
G01*
G04 APERTURE LIST*
%TA.AperFunction,ComponentPad*%
%ADD10O,1.700000X1.700000*%
%TD*%
%TA.AperFunction,ComponentPad*%
%ADD11R,1.700000X1.700000*%
%TD*%
%TA.AperFunction,ComponentPad*%
%ADD12C,2.000000*%
%TD*%
%TA.AperFunction,ComponentPad*%
%ADD13R,1.500000X1.050000*%
%TD*%
%TA.AperFunction,ComponentPad*%
%ADD14O,1.500000X1.050000*%
%TD*%
%TA.AperFunction,ViaPad*%
%ADD15C,0.800000*%
%TD*%
%TA.AperFunction,Conductor*%
%ADD16C,0.250000*%
%TD*%
G04 APERTURE END LIST*
D10*
%TO.P,Jult1,16*%
%TO.N,/GND*%
X136906000Y-112776000D03*
%TO.P,Jult1,15*%
X136906000Y-110236000D03*
%TO.P,Jult1,14*%
%TO.N,/ECHO3*%
X139446000Y-112776000D03*
%TO.P,Jult1,13*%
%TO.N,/ECHO2*%
X139446000Y-110236000D03*
%TO.P,Jult1,12*%
%TO.N,/TRIG3*%
X141986000Y-112776000D03*
%TO.P,Jult1,11*%
%TO.N,/TRIG2*%
X141986000Y-110236000D03*
%TO.P,Jult1,10*%
%TO.N,/VCC*%
X144526000Y-112776000D03*
%TO.P,Jult1,9*%
X144526000Y-110236000D03*
%TO.P,Jult1,8*%
%TO.N,/GND*%
X147066000Y-112776000D03*
%TO.P,Jult1,7*%
X147066000Y-110236000D03*
%TO.P,Jult1,6*%
%TO.N,/ECHO0*%
X149606000Y-112776000D03*
%TO.P,Jult1,5*%
%TO.N,/ECHO1*%
X149606000Y-110236000D03*
%TO.P,Jult1,4*%
%TO.N,/TRIG0*%
X152146000Y-112776000D03*
%TO.P,Jult1,3*%
%TO.N,/TRIG1*%
X152146000Y-110236000D03*
%TO.P,Jult1,2*%
%TO.N,/VCC*%
X154686000Y-112776000D03*
D11*
%TO.P,Jult1,1*%
X154686000Y-110236000D03*
%TD*%
D10*
%TO.P,Jpwm2,3*%
%TO.N,/L3*%
X113284000Y-103378000D03*
%TO.P,Jpwm2,2*%
%TO.N,/L4*%
X113284000Y-105918000D03*
D11*
%TO.P,Jpwm2,1*%
%TO.N,/PWM2*%
X113284000Y-108458000D03*
%TD*%
D10*
%TO.P,Jpwm1,3*%
%TO.N,/PWM1*%
X113284000Y-93980000D03*
%TO.P,Jpwm1,2*%
%TO.N,/L1*%
X113284000Y-96520000D03*
D11*
%TO.P,Jpwm1,1*%
%TO.N,/L2*%
X113284000Y-99060000D03*
%TD*%
D12*
%TO.P,START,1*%
%TO.N,/GND*%
X161036000Y-78128000D03*
%TO.P,START,2*%
%TO.N,Net-(IC1-Pad46)*%
X156536000Y-78128000D03*
%TO.P,START,1*%
%TO.N,/GND*%
X161036000Y-71628000D03*
%TO.P,START,2*%
%TO.N,Net-(IC1-Pad46)*%
X156536000Y-71628000D03*
%TD*%
%TO.P,RESET,1*%
%TO.N,/GND*%
X125580000Y-95250000D03*
%TO.P,RESET,2*%
%TO.N,/MCLR*%
X125580000Y-90750000D03*
%TO.P,RESET,1*%
%TO.N,/GND*%
X132080000Y-95250000D03*
%TO.P,RESET,2*%
%TO.N,/MCLR*%
X132080000Y-90750000D03*
%TD*%
D13*
%TO.P,Q1,1*%
%TO.N,/VCC*%
X122428000Y-74676000D03*
D14*
%TO.P,Q1,3*%
%TO.N,/5V*%
X122428000Y-77216000D03*
%TO.P,Q1,2*%
%TO.N,Net-(IC1-Pad64)*%
X122428000Y-75946000D03*
%TD*%
D10*
%TO.P,Jvac1,2*%
%TO.N,/5V*%
X112776000Y-74168000D03*
D11*
%TO.P,Jvac1,1*%
%TO.N,/GND*%
X112776000Y-71628000D03*
%TD*%
D10*
%TO.P,Juart1,4*%
%TO.N,/RX1*%
X165100000Y-72644000D03*
%TO.P,Juart1,3*%
%TO.N,/TX1*%
X165100000Y-70104000D03*
%TO.P,Juart1,2*%
%TO.N,/VCC*%
X165100000Y-67564000D03*
D11*
%TO.P,Juart1,1*%
%TO.N,/GND*%
X165100000Y-65024000D03*
%TD*%
D10*
%TO.P,Jpow1,2*%
%TO.N,/GND*%
X112776000Y-67564000D03*
D11*
%TO.P,Jpow1,1*%
%TO.N,/VCC*%
X112776000Y-65024000D03*
%TD*%
D10*
%TO.P,Jodo1,6*%
%TO.N,/VCC*%
X160528000Y-65024000D03*
%TO.P,Jodo1,5*%
X160528000Y-67564000D03*
%TO.P,Jodo1,4*%
%TO.N,/GND*%
X157988000Y-65024000D03*
%TO.P,Jodo1,3*%
X157988000Y-67564000D03*
%TO.P,Jodo1,2*%
%TO.N,/D1*%
X155448000Y-65024000D03*
D11*
%TO.P,Jodo1,1*%
%TO.N,/D2*%
X155448000Y-67564000D03*
%TD*%
D10*
%TO.P,Jir1,12*%
%TO.N,/IR1*%
X165354000Y-94742000D03*
%TO.P,Jir1,11*%
%TO.N,/IR2*%
X162814000Y-94742000D03*
%TO.P,Jir1,10*%
%TO.N,/GND*%
X165354000Y-92202000D03*
%TO.P,Jir1,9*%
X162814000Y-92202000D03*
%TO.P,Jir1,8*%
%TO.N,/VCC*%
X165354000Y-89662000D03*
%TO.P,Jir1,7*%
X162814000Y-89662000D03*
%TO.P,Jir1,6*%
%TO.N,/IR4*%
X165354000Y-87122000D03*
%TO.P,Jir1,5*%
%TO.N,/IR3*%
X162814000Y-87122000D03*
%TO.P,Jir1,4*%
%TO.N,/GND*%
X165354000Y-84582000D03*
%TO.P,Jir1,3*%
X162814000Y-84582000D03*
%TO.P,Jir1,2*%
%TO.N,/VCC*%
X165354000Y-82042000D03*
D11*
%TO.P,Jir1,1*%
X162814000Y-82042000D03*
%TD*%
D10*
%TO.P,Ji2c1,6*%
%TO.N,/INT1*%
X164846000Y-112522000D03*
%TO.P,Ji2c1,5*%
%TO.N,/GND*%
X164846000Y-109982000D03*
%TO.P,Ji2c1,4*%
%TO.N,/SDA1*%
X164846000Y-107442000D03*
%TO.P,Ji2c1,3*%
%TO.N,/SCL*%
X164846000Y-104902000D03*
%TO.P,Ji2c1,2*%
%TO.N,/GND*%
X164846000Y-102362000D03*
D11*
%TO.P,Ji2c1,1*%
%TO.N,/VCC*%
X164846000Y-99822000D03*
%TD*%
D10*
%TO.P,Jdbg1,5*%
%TO.N,/MCLR*%
X113284000Y-113030000D03*
%TO.P,Jdbg1,4*%
%TO.N,/VCC*%
X115824000Y-113030000D03*
%TO.P,Jdbg1,3*%
%TO.N,/GND*%
X118364000Y-113030000D03*
%TO.P,Jdbg1,2*%
%TO.N,/PGD*%
X120904000Y-113030000D03*
D11*
%TO.P,Jdbg1,1*%
%TO.N,/PGC*%
X123444000Y-113030000D03*
%TD*%
D10*
%TO.P,Jbat1,4*%
%TO.N,/BAT4*%
X113284000Y-80264000D03*
%TO.P,Jbat1,3*%
%TO.N,/BAT3*%
X113284000Y-82804000D03*
%TO.P,Jbat1,2*%
%TO.N,/BAT2*%
X113284000Y-85344000D03*
D11*
%TO.P,Jbat1,1*%
%TO.N,/BAT1*%
X113284000Y-87884000D03*
%TD*%
D15*
%TO.N,/GND*%
X145796000Y-105918000D03*
X136652000Y-105918000D03*
X125222000Y-81788000D03*
X122936000Y-70612000D03*
X150622000Y-100076000D03*
X141732000Y-98044000D03*
X136402010Y-88436990D03*
X150114000Y-68834000D03*
X138938000Y-79372000D03*
X148799010Y-76966010D03*
X156439500Y-88670500D03*
%TO.N,/VCC*%
X155956000Y-102108000D03*
X147574000Y-78486000D03*
X142240000Y-76454000D03*
X138127000Y-89662000D03*
X133923000Y-86295000D03*
X156464000Y-91645000D03*
X155956000Y-96073500D03*
X116229500Y-67461500D03*
%TD*%
D16*
%TO.N,/GND*%
X148594000Y-88142000D02*
X148545010Y-88093010D01*
X148455030Y-88436990D02*
X148545010Y-88347010D01*
X148545010Y-88093010D02*
X148545010Y-88347010D01*
X146005010Y-90887010D02*
X148418010Y-88474010D01*
X148418010Y-88474010D02*
X148545010Y-88347010D01*
X147872990Y-89019030D02*
X148418010Y-88474010D01*
X134620000Y-70612000D02*
X147320000Y-70612000D01*
X122936000Y-70612000D02*
X134620000Y-70612000D01*
X134620000Y-70612000D02*
X134825000Y-70612000D01*
X148844000Y-87794020D02*
X148545010Y-88093010D01*
X148336000Y-71628000D02*
X147320000Y-70612000D01*
X148336000Y-71628000D02*
X150114000Y-69850000D01*
X150114000Y-68834000D02*
X150114000Y-69850000D01*
X146218001Y-79416001D02*
X148844000Y-82042000D01*
X138982001Y-79416001D02*
X146218001Y-79416001D01*
X138938000Y-79372000D02*
X138982001Y-79416001D01*
X136402010Y-88436990D02*
X148455030Y-88436990D01*
X127638000Y-79372000D02*
X125222000Y-81788000D01*
X138938000Y-79372000D02*
X127638000Y-79372000D01*
X150622000Y-100076000D02*
X146005010Y-95459010D01*
X146005010Y-95459010D02*
X146005010Y-90887010D01*
X136906000Y-110236000D02*
X136906000Y-112776000D01*
X145890999Y-113951001D02*
X147066000Y-112776000D01*
X138081001Y-113951001D02*
X145890999Y-113951001D01*
X136906000Y-112776000D02*
X138081001Y-113951001D01*
X147066000Y-110236000D02*
X147066000Y-112776000D01*
X115062000Y-71628000D02*
X125222000Y-81788000D01*
X112776000Y-71628000D02*
X115062000Y-71628000D01*
X148799010Y-82251010D02*
X148844000Y-82296000D01*
X148799010Y-76966010D02*
X148799010Y-82251010D01*
X148844000Y-82296000D02*
X148844000Y-87794020D01*
X148844000Y-82042000D02*
X148844000Y-82296000D01*
X161036000Y-71628000D02*
X161036000Y-78128000D01*
X157988000Y-67564000D02*
X157988000Y-65024000D01*
X157122000Y-82042000D02*
X161036000Y-78128000D01*
X156060000Y-82042000D02*
X157122000Y-82042000D01*
X143420020Y-98044000D02*
X146005010Y-95459010D01*
X136652000Y-109982000D02*
X136906000Y-110236000D01*
X136652000Y-105918000D02*
X136652000Y-109982000D01*
X136652000Y-103124000D02*
X141732000Y-98044000D01*
X136652000Y-105918000D02*
X136652000Y-103124000D01*
X145796000Y-100584000D02*
X143256000Y-98044000D01*
X145796000Y-105918000D02*
X145796000Y-100584000D01*
X143256000Y-98044000D02*
X143420020Y-98044000D01*
X141732000Y-98044000D02*
X143256000Y-98044000D01*
X125580000Y-95250000D02*
X125580000Y-105814000D01*
X125580000Y-105814000D02*
X122936000Y-108458000D01*
X122936000Y-108458000D02*
X118364000Y-113030000D01*
X123747000Y-107647000D02*
X122936000Y-108458000D01*
X161036000Y-70612000D02*
X161036000Y-71628000D01*
X157988000Y-67564000D02*
X161036000Y-70612000D01*
X158788998Y-65024000D02*
X157988000Y-65024000D01*
X163924999Y-63848999D02*
X159963999Y-63848999D01*
X159963999Y-63848999D02*
X158788998Y-65024000D01*
X165100000Y-65024000D02*
X163924999Y-63848999D01*
X148336000Y-76503000D02*
X148799010Y-76966010D01*
X148336000Y-71628000D02*
X148336000Y-76503000D01*
X149754990Y-88347010D02*
X150166000Y-87936000D01*
X148545010Y-88347010D02*
X149754990Y-88347010D01*
X150166000Y-87936000D02*
X156060000Y-82042000D01*
X150008990Y-88093010D02*
X150166000Y-87936000D01*
X156116010Y-88347010D02*
X156439500Y-88670500D01*
X149754990Y-88347010D02*
X156116010Y-88347010D01*
X158725500Y-88670500D02*
X162814000Y-84582000D01*
X156439500Y-88670500D02*
X158725500Y-88670500D01*
X162814000Y-84582000D02*
X165354000Y-84582000D01*
X159282500Y-88670500D02*
X162814000Y-92202000D01*
X158725500Y-88670500D02*
X159282500Y-88670500D01*
X162814000Y-92202000D02*
X165354000Y-92202000D01*
X166529001Y-100678999D02*
X164846000Y-102362000D01*
X166529001Y-94177999D02*
X166529001Y-100678999D01*
X165354000Y-93002998D02*
X166529001Y-94177999D01*
X165354000Y-92202000D02*
X165354000Y-93002998D01*
X166021001Y-108806999D02*
X164846000Y-109982000D01*
X166021001Y-103537001D02*
X166021001Y-108806999D01*
X164846000Y-102362000D02*
X166021001Y-103537001D01*
%TO.N,Net-(IC1-Pad46)*%
X156536000Y-71628000D02*
X156536000Y-78128000D01*
%TO.N,/VCC*%
X136554018Y-89662000D02*
X138127000Y-89662000D01*
X133923000Y-87030982D02*
X136554018Y-89662000D01*
X133923000Y-86295000D02*
X133923000Y-87030982D01*
X144526000Y-112776000D02*
X144526000Y-110236000D01*
X153510999Y-109060999D02*
X154686000Y-110236000D01*
X145701001Y-109060999D02*
X153510999Y-109060999D01*
X144526000Y-110236000D02*
X145701001Y-109060999D01*
X154686000Y-110236000D02*
X154686000Y-112776000D01*
X145542000Y-76454000D02*
X147574000Y-78486000D01*
X142240000Y-76454000D02*
X145542000Y-76454000D01*
X153510999Y-104553001D02*
X153510999Y-104996999D01*
X155956000Y-102108000D02*
X153510999Y-104553001D01*
X153510999Y-104996999D02*
X153510999Y-104807001D01*
X153510999Y-109060999D02*
X153510999Y-104996999D01*
X156464000Y-95565500D02*
X155956000Y-96073500D01*
X156464000Y-91645000D02*
X156464000Y-95565500D01*
X122428000Y-74676000D02*
X116229500Y-68477500D01*
X116229500Y-67461500D02*
X116229500Y-68477500D01*
X140462000Y-74676000D02*
X142240000Y-76454000D01*
X122428000Y-74676000D02*
X140462000Y-74676000D01*
%TD*%
M02*
