M48
; DRILL file {KiCad 5.1.10-88a1d61d58~90~ubuntu21.04.1} date Mon Aug 16 14:09:09 2021
; FORMAT={-:-/ absolute / metric / decimal}
; #@! TF.CreationDate,2021-08-16T14:09:09+02:00
; #@! TF.GenerationSoftware,Kicad,Pcbnew,5.1.10-88a1d61d58~90~ubuntu21.04.1
FMAT,2
METRIC
T1C0.800
T2C0.900
T3C1.000
T4C1.100
%
G90
G05
T1
X110.744Y-98.552
X113.284Y-101.346
X118.284Y-101.346
X118.364Y-98.552
X122.682Y-88.138
X122.682Y-93.138
X124.46Y-109.3
X124.46Y-114.3
X128.096Y-89.408
X129.667Y-109.474
X129.667Y-114.474
X133.096Y-89.408
X137.748Y-102.616
X142.748Y-102.616
T2
X115.062Y-105.156
X117.602Y-105.156
T3
X101.854Y-83.82
X101.854Y-86.36
X101.854Y-88.9
X101.854Y-91.44
X101.854Y-93.98
X101.854Y-96.52
X101.854Y-99.06
X101.854Y-101.6
X101.854Y-104.14
X101.854Y-106.68
X101.854Y-109.22
X101.854Y-111.76
X101.854Y-114.3
X101.854Y-116.84
X101.854Y-119.38
X101.854Y-121.92
X104.394Y-83.82
X104.394Y-86.36
X104.394Y-88.9
X104.394Y-91.44
X104.394Y-93.98
X104.394Y-96.52
X104.394Y-99.06
X104.394Y-101.6
X104.394Y-104.14
X104.394Y-106.68
X104.394Y-109.22
X104.394Y-111.76
X104.394Y-114.3
X104.394Y-116.84
X104.394Y-119.38
X104.394Y-121.92
X149.606Y-83.058
X149.606Y-85.598
X149.606Y-88.138
X149.606Y-90.678
X149.606Y-93.218
X149.606Y-95.758
X149.606Y-98.298
X149.606Y-100.838
X149.606Y-103.378
X149.606Y-105.918
X149.606Y-108.458
X149.606Y-110.998
X149.606Y-113.538
X149.606Y-116.078
X149.606Y-118.618
X149.606Y-121.158
X152.146Y-83.058
X152.146Y-85.598
X152.146Y-88.138
X152.146Y-90.678
X152.146Y-93.218
X152.146Y-95.758
X152.146Y-98.298
X152.146Y-100.838
X152.146Y-103.378
X152.146Y-105.918
X152.146Y-108.458
X152.146Y-110.998
X152.146Y-113.538
X152.146Y-116.078
X152.146Y-118.618
X152.146Y-121.158
T4
X111.506Y-109.578
X111.506Y-116.078
X116.006Y-109.578
X116.006Y-116.078
T0
M30
