%TF.GenerationSoftware,KiCad,Pcbnew,5.1.10-88a1d61d58~90~ubuntu21.04.1*%
%TF.CreationDate,2021-08-16T14:07:41+02:00*%
%TF.ProjectId,hendrik,68656e64-7269-46b2-9e6b-696361645f70,rev?*%
%TF.SameCoordinates,Original*%
%TF.FileFunction,Soldermask,Bot*%
%TF.FilePolarity,Negative*%
%FSLAX46Y46*%
G04 Gerber Fmt 4.6, Leading zero omitted, Abs format (unit mm)*
G04 Created by KiCad (PCBNEW 5.1.10-88a1d61d58~90~ubuntu21.04.1) date 2021-08-16 14:07:41*
%MOMM*%
%LPD*%
G01*
G04 APERTURE LIST*
%ADD10O,1.700000X1.700000*%
%ADD11R,1.700000X1.700000*%
%ADD12C,1.800000*%
%ADD13R,1.800000X1.800000*%
%ADD14C,1.600000*%
%ADD15C,2.000000*%
%ADD16O,1.600000X1.600000*%
G04 APERTURE END LIST*
D10*
%TO.C,J2*%
X149606000Y-83058000D03*
X152146000Y-83058000D03*
X149606000Y-85598000D03*
X152146000Y-85598000D03*
X149606000Y-88138000D03*
X152146000Y-88138000D03*
X149606000Y-90678000D03*
X152146000Y-90678000D03*
X149606000Y-93218000D03*
X152146000Y-93218000D03*
X149606000Y-95758000D03*
X152146000Y-95758000D03*
X149606000Y-98298000D03*
X152146000Y-98298000D03*
X149606000Y-100838000D03*
X152146000Y-100838000D03*
X149606000Y-103378000D03*
X152146000Y-103378000D03*
X149606000Y-105918000D03*
X152146000Y-105918000D03*
X149606000Y-108458000D03*
X152146000Y-108458000D03*
X149606000Y-110998000D03*
X152146000Y-110998000D03*
X149606000Y-113538000D03*
X152146000Y-113538000D03*
X149606000Y-116078000D03*
X152146000Y-116078000D03*
X149606000Y-118618000D03*
X152146000Y-118618000D03*
X149606000Y-121158000D03*
D11*
X152146000Y-121158000D03*
%TD*%
D10*
%TO.C,J1*%
X104394000Y-121920000D03*
X101854000Y-121920000D03*
X104394000Y-119380000D03*
X101854000Y-119380000D03*
X104394000Y-116840000D03*
X101854000Y-116840000D03*
X104394000Y-114300000D03*
X101854000Y-114300000D03*
X104394000Y-111760000D03*
X101854000Y-111760000D03*
X104394000Y-109220000D03*
X101854000Y-109220000D03*
X104394000Y-106680000D03*
X101854000Y-106680000D03*
X104394000Y-104140000D03*
X101854000Y-104140000D03*
X104394000Y-101600000D03*
X101854000Y-101600000D03*
X104394000Y-99060000D03*
X101854000Y-99060000D03*
X104394000Y-96520000D03*
X101854000Y-96520000D03*
X104394000Y-93980000D03*
X101854000Y-93980000D03*
X104394000Y-91440000D03*
X101854000Y-91440000D03*
X104394000Y-88900000D03*
X101854000Y-88900000D03*
X104394000Y-86360000D03*
X101854000Y-86360000D03*
X104394000Y-83820000D03*
D11*
X101854000Y-83820000D03*
%TD*%
D12*
%TO.C,D1*%
X117602000Y-105156000D03*
D13*
X115062000Y-105156000D03*
%TD*%
D14*
%TO.C,C5*%
X129667000Y-114474000D03*
X129667000Y-109474000D03*
%TD*%
D15*
%TO.C,SW1*%
X111506000Y-109578000D03*
X116006000Y-109578000D03*
X111506000Y-116078000D03*
X116006000Y-116078000D03*
%TD*%
D16*
%TO.C,R1*%
X118364000Y-98552000D03*
D14*
X110744000Y-98552000D03*
%TD*%
%TO.C,C6*%
X128096000Y-89408000D03*
X133096000Y-89408000D03*
%TD*%
%TO.C,C4*%
X137748000Y-102616000D03*
X142748000Y-102616000D03*
%TD*%
%TO.C,C3*%
X122682000Y-93138000D03*
X122682000Y-88138000D03*
%TD*%
%TO.C,C2*%
X124460000Y-109300000D03*
X124460000Y-114300000D03*
%TD*%
%TO.C,C1*%
X118284000Y-101346000D03*
X113284000Y-101346000D03*
%TD*%
M02*
