%TF.GenerationSoftware,KiCad,Pcbnew,5.1.10-88a1d61d58~90~ubuntu21.04.1*%
%TF.CreationDate,2021-08-16T14:07:41+02:00*%
%TF.ProjectId,hendrik,68656e64-7269-46b2-9e6b-696361645f70,rev?*%
%TF.SameCoordinates,Original*%
%TF.FileFunction,Copper,L2,Bot*%
%TF.FilePolarity,Positive*%
%FSLAX46Y46*%
G04 Gerber Fmt 4.6, Leading zero omitted, Abs format (unit mm)*
G04 Created by KiCad (PCBNEW 5.1.10-88a1d61d58~90~ubuntu21.04.1) date 2021-08-16 14:07:41*
%MOMM*%
%LPD*%
G01*
G04 APERTURE LIST*
%TA.AperFunction,ComponentPad*%
%ADD10O,1.700000X1.700000*%
%TD*%
%TA.AperFunction,ComponentPad*%
%ADD11R,1.700000X1.700000*%
%TD*%
%TA.AperFunction,ComponentPad*%
%ADD12C,1.800000*%
%TD*%
%TA.AperFunction,ComponentPad*%
%ADD13R,1.800000X1.800000*%
%TD*%
%TA.AperFunction,ComponentPad*%
%ADD14C,1.600000*%
%TD*%
%TA.AperFunction,ComponentPad*%
%ADD15C,2.000000*%
%TD*%
%TA.AperFunction,ComponentPad*%
%ADD16O,1.600000X1.600000*%
%TD*%
%TA.AperFunction,Conductor*%
%ADD17C,0.250000*%
%TD*%
G04 APERTURE END LIST*
D10*
%TO.P,J2,32*%
%TO.N,/GND*%
X149606000Y-83058000D03*
%TO.P,J2,31*%
X152146000Y-83058000D03*
%TO.P,J2,30*%
%TO.N,/RA10*%
X149606000Y-85598000D03*
%TO.P,J2,29*%
%TO.N,/RB13*%
X152146000Y-85598000D03*
%TO.P,J2,28*%
%TO.N,/RB12*%
X149606000Y-88138000D03*
%TO.P,J2,27*%
%TO.N,/RB11*%
X152146000Y-88138000D03*
%TO.P,J2,26*%
%TO.N,/RB10*%
X149606000Y-90678000D03*
%TO.P,J2,25*%
%TO.N,/RF1*%
X152146000Y-90678000D03*
%TO.P,J2,24*%
%TO.N,/RF0*%
X149606000Y-93218000D03*
%TO.P,J2,23*%
%TO.N,/RC9*%
X152146000Y-93218000D03*
%TO.P,J2,22*%
%TO.N,/RD6*%
X149606000Y-95758000D03*
%TO.P,J2,21*%
%TO.N,/RD5*%
X152146000Y-95758000D03*
%TO.P,J2,20*%
%TO.N,/RC8*%
X149606000Y-98298000D03*
%TO.P,J2,19*%
%TO.N,/RC7*%
X152146000Y-98298000D03*
%TO.P,J2,18*%
%TO.N,/RC6*%
X149606000Y-100838000D03*
%TO.P,J2,17*%
%TO.N,/RB9*%
X152146000Y-100838000D03*
%TO.P,J2,16*%
%TO.N,/RB8*%
X149606000Y-103378000D03*
%TO.P,J2,15*%
%TO.N,/RC13*%
X152146000Y-103378000D03*
%TO.P,J2,14*%
%TO.N,/RB7*%
X149606000Y-105918000D03*
%TO.P,J2,13*%
%TO.N,/RC10*%
X152146000Y-105918000D03*
%TO.P,J2,12*%
%TO.N,/RB6*%
X149606000Y-108458000D03*
%TO.P,J2,11*%
%TO.N,/RB5*%
X152146000Y-108458000D03*
%TO.P,J2,10*%
%TO.N,/RD8*%
X149606000Y-110998000D03*
%TO.P,J2,9*%
%TO.N,/RC15*%
X152146000Y-110998000D03*
%TO.P,J2,8*%
%TO.N,/RC12*%
X149606000Y-113538000D03*
%TO.P,J2,7*%
%TO.N,/D+*%
X152146000Y-113538000D03*
%TO.P,J2,6*%
%TO.N,/D-*%
X149606000Y-116078000D03*
%TO.P,J2,5*%
%TO.N,/VBUS3V3*%
X152146000Y-116078000D03*
%TO.P,J2,4*%
%TO.N,/VBUS*%
X149606000Y-118618000D03*
%TO.P,J2,3*%
%TO.N,/RA4*%
X152146000Y-118618000D03*
%TO.P,J2,2*%
%TO.N,/GND*%
X149606000Y-121158000D03*
D11*
%TO.P,J2,1*%
X152146000Y-121158000D03*
%TD*%
D10*
%TO.P,J1,32*%
%TO.N,/GND*%
X104394000Y-121920000D03*
%TO.P,J1,31*%
X101854000Y-121920000D03*
%TO.P,J1,30*%
%TO.N,/RB4*%
X104394000Y-119380000D03*
%TO.P,J1,29*%
%TO.N,/RA8*%
X101854000Y-119380000D03*
%TO.P,J1,28*%
%TO.N,/RE15*%
X104394000Y-116840000D03*
%TO.P,J1,27*%
%TO.N,/RE14*%
X101854000Y-116840000D03*
%TO.P,J1,26*%
%TO.N,/RE13*%
X104394000Y-114300000D03*
%TO.P,J1,25*%
%TO.N,/RE12*%
X101854000Y-114300000D03*
%TO.P,J1,24*%
%TO.N,/RC11*%
X104394000Y-111760000D03*
%TO.P,J1,23*%
%TO.N,/RC2*%
X101854000Y-111760000D03*
%TO.P,J1,22*%
%TO.N,/RC1*%
X104394000Y-109220000D03*
%TO.P,J1,21*%
%TO.N,/RC0*%
X101854000Y-109220000D03*
%TO.P,J1,20*%
%TO.N,/RB3*%
X104394000Y-106680000D03*
%TO.P,J1,19*%
%TO.N,/RB2*%
X101854000Y-106680000D03*
%TO.P,J1,18*%
%TO.N,/RB1*%
X104394000Y-104140000D03*
%TO.P,J1,17*%
%TO.N,/RB0*%
X101854000Y-104140000D03*
%TO.P,J1,16*%
%TO.N,/RA1*%
X104394000Y-101600000D03*
%TO.P,J1,15*%
%TO.N,/RA0*%
X101854000Y-101600000D03*
%TO.P,J1,14*%
%TO.N,/RA11*%
X104394000Y-99060000D03*
%TO.P,J1,13*%
%TO.N,/RA12*%
X101854000Y-99060000D03*
%TO.P,J1,12*%
%TO.N,/3V3*%
X104394000Y-96520000D03*
%TO.P,J1,11*%
%TO.N,/GND*%
X101854000Y-96520000D03*
%TO.P,J1,10*%
%TO.N,/RG9*%
X104394000Y-93980000D03*
%TO.P,J1,9*%
%TO.N,/MCLR*%
X101854000Y-93980000D03*
%TO.P,J1,8*%
%TO.N,/RG8*%
X104394000Y-91440000D03*
%TO.P,J1,7*%
%TO.N,/RG7*%
X101854000Y-91440000D03*
%TO.P,J1,6*%
%TO.N,/RG6*%
X104394000Y-88900000D03*
%TO.P,J1,5*%
%TO.N,/RB15*%
X101854000Y-88900000D03*
%TO.P,J1,4*%
%TO.N,/RB14*%
X104394000Y-86360000D03*
%TO.P,J1,3*%
%TO.N,/RA7*%
X101854000Y-86360000D03*
%TO.P,J1,2*%
%TO.N,/GND*%
X104394000Y-83820000D03*
D11*
%TO.P,J1,1*%
X101854000Y-83820000D03*
%TD*%
D12*
%TO.P,D1,2*%
%TO.N,/RA0*%
X117602000Y-105156000D03*
D13*
%TO.P,D1,1*%
%TO.N,/GND*%
X115062000Y-105156000D03*
%TD*%
D14*
%TO.P,C5,2*%
%TO.N,/GND*%
X129667000Y-114474000D03*
%TO.P,C5,1*%
%TO.N,/VBUS3V3*%
X129667000Y-109474000D03*
%TD*%
D15*
%TO.P,SW1,1*%
%TO.N,/GND*%
X111506000Y-109578000D03*
%TO.P,SW1,2*%
%TO.N,/MCLR*%
X116006000Y-109578000D03*
%TO.P,SW1,1*%
%TO.N,/GND*%
X111506000Y-116078000D03*
%TO.P,SW1,2*%
%TO.N,/MCLR*%
X116006000Y-116078000D03*
%TD*%
D16*
%TO.P,R1,2*%
%TO.N,/MCLR*%
X118364000Y-98552000D03*
D14*
%TO.P,R1,1*%
%TO.N,/VBUS3V3*%
X110744000Y-98552000D03*
%TD*%
%TO.P,C6,2*%
%TO.N,/VBUS3V3*%
X128096000Y-89408000D03*
%TO.P,C6,1*%
%TO.N,/GND*%
X133096000Y-89408000D03*
%TD*%
%TO.P,C4,2*%
%TO.N,/VBUS3V3*%
X137748000Y-102616000D03*
%TO.P,C4,1*%
%TO.N,/GND*%
X142748000Y-102616000D03*
%TD*%
%TO.P,C3,2*%
%TO.N,/VBUS3V3*%
X122682000Y-93138000D03*
%TO.P,C3,1*%
%TO.N,Net-(C3-Pad1)*%
X122682000Y-88138000D03*
%TD*%
%TO.P,C2,2*%
%TO.N,/VBUS3V3*%
X124460000Y-109300000D03*
%TO.P,C2,1*%
%TO.N,/GND*%
X124460000Y-114300000D03*
%TD*%
%TO.P,C1,2*%
%TO.N,/VBUS3V3*%
X118284000Y-101346000D03*
%TO.P,C1,1*%
%TO.N,/GND*%
X113284000Y-101346000D03*
%TD*%
D17*
%TO.N,/VBUS3V3*%
X122682000Y-93392000D02*
X122682000Y-96694000D01*
X124112000Y-93392000D02*
X128096000Y-89408000D01*
X122682000Y-93392000D02*
X124112000Y-93392000D01*
X128096000Y-92964000D02*
X137748000Y-102616000D01*
X128096000Y-89408000D02*
X128096000Y-92964000D01*
X115490000Y-98552000D02*
X118284000Y-101346000D01*
X110744000Y-98552000D02*
X115490000Y-98552000D01*
X122682000Y-96948000D02*
X118284000Y-101346000D01*
X122682000Y-93138000D02*
X122682000Y-96948000D01*
X124634000Y-109474000D02*
X124460000Y-109300000D01*
X129667000Y-109474000D02*
X124634000Y-109474000D01*
%TO.N,/GND*%
X114046000Y-104140000D02*
X115062000Y-105156000D01*
X114046000Y-101092000D02*
X114046000Y-104140000D01*
X129493000Y-114300000D02*
X129667000Y-114474000D01*
X124460000Y-114300000D02*
X129493000Y-114300000D01*
X115316000Y-105156000D02*
X115062000Y-105156000D01*
X124460000Y-114300000D02*
X115316000Y-105156000D01*
X111506000Y-116078000D02*
X111506000Y-109578000D01*
X121356999Y-117403001D02*
X121920000Y-116840000D01*
X112831001Y-117403001D02*
X121356999Y-117403001D01*
X111506000Y-116078000D02*
X112831001Y-117403001D01*
X121920000Y-116840000D02*
X124460000Y-114300000D01*
X121610999Y-117149001D02*
X121920000Y-116840000D01*
X105664000Y-121920000D02*
X111506000Y-116078000D01*
X104394000Y-121920000D02*
X105664000Y-121920000D01*
X100678999Y-120744999D02*
X101854000Y-121920000D01*
X100678999Y-84995001D02*
X100678999Y-120744999D01*
X101854000Y-83820000D02*
X100678999Y-84995001D01*
X148844000Y-121920000D02*
X149606000Y-121158000D01*
X104394000Y-121920000D02*
X148844000Y-121920000D01*
X149606000Y-121158000D02*
X152146000Y-121158000D01*
X153321001Y-119982999D02*
X152146000Y-121158000D01*
X153321001Y-84233001D02*
X153321001Y-119982999D01*
X152146000Y-83058000D02*
X153321001Y-84233001D01*
X152146000Y-83058000D02*
X149606000Y-83058000D01*
X105156000Y-83058000D02*
X104394000Y-83820000D01*
X101854000Y-121920000D02*
X104394000Y-121920000D01*
X101854000Y-83820000D02*
X104394000Y-83820000D01*
X141525000Y-102616000D02*
X129667000Y-114474000D01*
X142748000Y-102616000D02*
X141525000Y-102616000D01*
X142922000Y-114474000D02*
X149606000Y-121158000D01*
X129667000Y-114474000D02*
X142922000Y-114474000D01*
X133096000Y-92964000D02*
X142748000Y-102616000D01*
X133096000Y-89408000D02*
X133096000Y-92964000D01*
X143256000Y-89408000D02*
X149606000Y-83058000D01*
X133096000Y-89408000D02*
X143256000Y-89408000D01*
X126746000Y-83058000D02*
X121920000Y-83058000D01*
X133096000Y-89408000D02*
X126746000Y-83058000D01*
X121920000Y-83058000D02*
X105156000Y-83058000D01*
X149606000Y-83058000D02*
X121920000Y-83058000D01*
%TO.N,/MCLR*%
X117238999Y-97426999D02*
X118364000Y-98552000D01*
X109618999Y-98011999D02*
X110203999Y-97426999D01*
X110203999Y-97426999D02*
X117238999Y-97426999D01*
X109618999Y-103190999D02*
X116006000Y-109578000D01*
X109618999Y-98011999D02*
X109618999Y-103190999D01*
X116006000Y-109578000D02*
X116006000Y-116078000D01*
%TD*%
M02*
