%TF.GenerationSoftware,KiCad,Pcbnew,5.1.10-88a1d61d58~90~ubuntu21.04.1*%
%TF.CreationDate,2021-08-24T17:57:03+02:00*%
%TF.ProjectId,hendrik,68656e64-7269-46b2-9e6b-696361645f70,rev?*%
%TF.SameCoordinates,Original*%
%TF.FileFunction,Copper,L1,Top*%
%TF.FilePolarity,Positive*%
%FSLAX46Y46*%
G04 Gerber Fmt 4.6, Leading zero omitted, Abs format (unit mm)*
G04 Created by KiCad (PCBNEW 5.1.10-88a1d61d58~90~ubuntu21.04.1) date 2021-08-24 17:57:03*
%MOMM*%
%LPD*%
G01*
G04 APERTURE LIST*
%TA.AperFunction,ComponentPad*%
%ADD10O,1.700000X1.700000*%
%TD*%
%TA.AperFunction,ComponentPad*%
%ADD11R,1.700000X1.700000*%
%TD*%
%TA.AperFunction,ComponentPad*%
%ADD12C,2.000000*%
%TD*%
%TA.AperFunction,ComponentPad*%
%ADD13R,1.500000X1.050000*%
%TD*%
%TA.AperFunction,ComponentPad*%
%ADD14O,1.500000X1.050000*%
%TD*%
%TA.AperFunction,SMDPad,CuDef*%
%ADD15R,2.000000X1.500000*%
%TD*%
%TA.AperFunction,SMDPad,CuDef*%
%ADD16R,2.000000X3.800000*%
%TD*%
%TA.AperFunction,SMDPad,CuDef*%
%ADD17R,1.205000X1.550000*%
%TD*%
%TA.AperFunction,SMDPad,CuDef*%
%ADD18R,1.910000X0.610000*%
%TD*%
%TA.AperFunction,SMDPad,CuDef*%
%ADD19R,1.200000X0.900000*%
%TD*%
%TA.AperFunction,ViaPad*%
%ADD20C,0.800000*%
%TD*%
%TA.AperFunction,Conductor*%
%ADD21C,0.250000*%
%TD*%
G04 APERTURE END LIST*
%TO.P,C6,2*%
%TO.N,/VCC*%
%TA.AperFunction,SMDPad,CuDef*%
G36*
G01*
X155813999Y-91070000D02*
X157114001Y-91070000D01*
G75*
G02*
X157364000Y-91319999I0J-249999D01*
G01*
X157364000Y-91970001D01*
G75*
G02*
X157114001Y-92220000I-249999J0D01*
G01*
X155813999Y-92220000D01*
G75*
G02*
X155564000Y-91970001I0J249999D01*
G01*
X155564000Y-91319999D01*
G75*
G02*
X155813999Y-91070000I249999J0D01*
G01*
G37*
%TD.AperFunction*%
%TO.P,C6,1*%
%TO.N,/GND*%
%TA.AperFunction,SMDPad,CuDef*%
G36*
G01*
X155813999Y-88120000D02*
X157114001Y-88120000D01*
G75*
G02*
X157364000Y-88369999I0J-249999D01*
G01*
X157364000Y-89020001D01*
G75*
G02*
X157114001Y-89270000I-249999J0D01*
G01*
X155813999Y-89270000D01*
G75*
G02*
X155564000Y-89020001I0J249999D01*
G01*
X155564000Y-88369999D01*
G75*
G02*
X155813999Y-88120000I249999J0D01*
G01*
G37*
%TD.AperFunction*%
%TD*%
D10*
%TO.P,Jult1,16*%
%TO.N,/GND*%
X136906000Y-112776000D03*
%TO.P,Jult1,15*%
X136906000Y-110236000D03*
%TO.P,Jult1,14*%
%TO.N,/ECHO3*%
X139446000Y-112776000D03*
%TO.P,Jult1,13*%
%TO.N,/ECHO2*%
X139446000Y-110236000D03*
%TO.P,Jult1,12*%
%TO.N,/TRIG3*%
X141986000Y-112776000D03*
%TO.P,Jult1,11*%
%TO.N,/TRIG2*%
X141986000Y-110236000D03*
%TO.P,Jult1,10*%
%TO.N,/VCC*%
X144526000Y-112776000D03*
%TO.P,Jult1,9*%
X144526000Y-110236000D03*
%TO.P,Jult1,8*%
%TO.N,/GND*%
X147066000Y-112776000D03*
%TO.P,Jult1,7*%
X147066000Y-110236000D03*
%TO.P,Jult1,6*%
%TO.N,/ECHO0*%
X149606000Y-112776000D03*
%TO.P,Jult1,5*%
%TO.N,/ECHO1*%
X149606000Y-110236000D03*
%TO.P,Jult1,4*%
%TO.N,/TRIG0*%
X152146000Y-112776000D03*
%TO.P,Jult1,3*%
%TO.N,/TRIG1*%
X152146000Y-110236000D03*
%TO.P,Jult1,2*%
%TO.N,/VCC*%
X154686000Y-112776000D03*
D11*
%TO.P,Jult1,1*%
X154686000Y-110236000D03*
%TD*%
D10*
%TO.P,Jpwm2,3*%
%TO.N,/L3*%
X113284000Y-103378000D03*
%TO.P,Jpwm2,2*%
%TO.N,/L4*%
X113284000Y-105918000D03*
D11*
%TO.P,Jpwm2,1*%
%TO.N,/PWM2*%
X113284000Y-108458000D03*
%TD*%
D10*
%TO.P,Jpwm1,3*%
%TO.N,/PWM1*%
X113284000Y-93980000D03*
%TO.P,Jpwm1,2*%
%TO.N,/L1*%
X113284000Y-96520000D03*
D11*
%TO.P,Jpwm1,1*%
%TO.N,/L2*%
X113284000Y-99060000D03*
%TD*%
%TO.P,C4,2*%
%TO.N,/VCC*%
%TA.AperFunction,SMDPad,CuDef*%
G36*
G01*
X146923999Y-78116000D02*
X148224001Y-78116000D01*
G75*
G02*
X148474000Y-78365999I0J-249999D01*
G01*
X148474000Y-79016001D01*
G75*
G02*
X148224001Y-79266000I-249999J0D01*
G01*
X146923999Y-79266000D01*
G75*
G02*
X146674000Y-79016001I0J249999D01*
G01*
X146674000Y-78365999D01*
G75*
G02*
X146923999Y-78116000I249999J0D01*
G01*
G37*
%TD.AperFunction*%
%TO.P,C4,1*%
%TO.N,/GND*%
%TA.AperFunction,SMDPad,CuDef*%
G36*
G01*
X146923999Y-75166000D02*
X148224001Y-75166000D01*
G75*
G02*
X148474000Y-75415999I0J-249999D01*
G01*
X148474000Y-76066001D01*
G75*
G02*
X148224001Y-76316000I-249999J0D01*
G01*
X146923999Y-76316000D01*
G75*
G02*
X146674000Y-76066001I0J249999D01*
G01*
X146674000Y-75415999D01*
G75*
G02*
X146923999Y-75166000I249999J0D01*
G01*
G37*
%TD.AperFunction*%
%TD*%
D12*
%TO.P,START,1*%
%TO.N,/GND*%
X161036000Y-78128000D03*
%TO.P,START,2*%
%TO.N,Net-(IC1-Pad46)*%
X156536000Y-78128000D03*
%TO.P,START,1*%
%TO.N,/GND*%
X161036000Y-71628000D03*
%TO.P,START,2*%
%TO.N,Net-(IC1-Pad46)*%
X156536000Y-71628000D03*
%TD*%
%TO.P,RESET,1*%
%TO.N,/GND*%
X125580000Y-95250000D03*
%TO.P,RESET,2*%
%TO.N,/MCLR*%
X125580000Y-90750000D03*
%TO.P,RESET,1*%
%TO.N,/GND*%
X132080000Y-95250000D03*
%TO.P,RESET,2*%
%TO.N,/MCLR*%
X132080000Y-90750000D03*
%TD*%
%TO.P,Ro2,2*%
%TO.N,/GND*%
%TA.AperFunction,SMDPad,CuDef*%
G36*
G01*
X136769001Y-70474000D02*
X135518999Y-70474000D01*
G75*
G02*
X135269000Y-70224001I0J249999D01*
G01*
X135269000Y-69598999D01*
G75*
G02*
X135518999Y-69349000I249999J0D01*
G01*
X136769001Y-69349000D01*
G75*
G02*
X137019000Y-69598999I0J-249999D01*
G01*
X137019000Y-70224001D01*
G75*
G02*
X136769001Y-70474000I-249999J0D01*
G01*
G37*
%TD.AperFunction*%
%TO.P,Ro2,1*%
%TO.N,Net-(IC2-Pad5)*%
%TA.AperFunction,SMDPad,CuDef*%
G36*
G01*
X136769001Y-73399000D02*
X135518999Y-73399000D01*
G75*
G02*
X135269000Y-73149001I0J249999D01*
G01*
X135269000Y-72523999D01*
G75*
G02*
X135518999Y-72274000I249999J0D01*
G01*
X136769001Y-72274000D01*
G75*
G02*
X137019000Y-72523999I0J-249999D01*
G01*
X137019000Y-73149001D01*
G75*
G02*
X136769001Y-73399000I-249999J0D01*
G01*
G37*
%TD.AperFunction*%
%TD*%
%TO.P,Ro1,2*%
%TO.N,Net-(IC2-Pad5)*%
%TA.AperFunction,SMDPad,CuDef*%
G36*
G01*
X138566999Y-72274000D02*
X139817001Y-72274000D01*
G75*
G02*
X140067000Y-72523999I0J-249999D01*
G01*
X140067000Y-73149001D01*
G75*
G02*
X139817001Y-73399000I-249999J0D01*
G01*
X138566999Y-73399000D01*
G75*
G02*
X138317000Y-73149001I0J249999D01*
G01*
X138317000Y-72523999D01*
G75*
G02*
X138566999Y-72274000I249999J0D01*
G01*
G37*
%TD.AperFunction*%
%TO.P,Ro1,1*%
%TO.N,Net-(C11-Pad1)*%
%TA.AperFunction,SMDPad,CuDef*%
G36*
G01*
X138566999Y-69349000D02*
X139817001Y-69349000D01*
G75*
G02*
X140067000Y-69598999I0J-249999D01*
G01*
X140067000Y-70224001D01*
G75*
G02*
X139817001Y-70474000I-249999J0D01*
G01*
X138566999Y-70474000D01*
G75*
G02*
X138317000Y-70224001I0J249999D01*
G01*
X138317000Y-69598999D01*
G75*
G02*
X138566999Y-69349000I249999J0D01*
G01*
G37*
%TD.AperFunction*%
%TD*%
%TO.P,R5,2*%
%TO.N,/SCL*%
%TA.AperFunction,SMDPad,CuDef*%
G36*
G01*
X155330999Y-98436000D02*
X156581001Y-98436000D01*
G75*
G02*
X156831000Y-98685999I0J-249999D01*
G01*
X156831000Y-99311001D01*
G75*
G02*
X156581001Y-99561000I-249999J0D01*
G01*
X155330999Y-99561000D01*
G75*
G02*
X155081000Y-99311001I0J249999D01*
G01*
X155081000Y-98685999D01*
G75*
G02*
X155330999Y-98436000I249999J0D01*
G01*
G37*
%TD.AperFunction*%
%TO.P,R5,1*%
%TO.N,/VCC*%
%TA.AperFunction,SMDPad,CuDef*%
G36*
G01*
X155330999Y-95511000D02*
X156581001Y-95511000D01*
G75*
G02*
X156831000Y-95760999I0J-249999D01*
G01*
X156831000Y-96386001D01*
G75*
G02*
X156581001Y-96636000I-249999J0D01*
G01*
X155330999Y-96636000D01*
G75*
G02*
X155081000Y-96386001I0J249999D01*
G01*
X155081000Y-95760999D01*
G75*
G02*
X155330999Y-95511000I249999J0D01*
G01*
G37*
%TD.AperFunction*%
%TD*%
%TO.P,R4,2*%
%TO.N,/SDA1*%
%TA.AperFunction,SMDPad,CuDef*%
G36*
G01*
X158632999Y-98436000D02*
X159883001Y-98436000D01*
G75*
G02*
X160133000Y-98685999I0J-249999D01*
G01*
X160133000Y-99311001D01*
G75*
G02*
X159883001Y-99561000I-249999J0D01*
G01*
X158632999Y-99561000D01*
G75*
G02*
X158383000Y-99311001I0J249999D01*
G01*
X158383000Y-98685999D01*
G75*
G02*
X158632999Y-98436000I249999J0D01*
G01*
G37*
%TD.AperFunction*%
%TO.P,R4,1*%
%TO.N,/VCC*%
%TA.AperFunction,SMDPad,CuDef*%
G36*
G01*
X158632999Y-95511000D02*
X159883001Y-95511000D01*
G75*
G02*
X160133000Y-95760999I0J-249999D01*
G01*
X160133000Y-96386001D01*
G75*
G02*
X159883001Y-96636000I-249999J0D01*
G01*
X158632999Y-96636000D01*
G75*
G02*
X158383000Y-96386001I0J249999D01*
G01*
X158383000Y-95760999D01*
G75*
G02*
X158632999Y-95511000I249999J0D01*
G01*
G37*
%TD.AperFunction*%
%TD*%
%TO.P,R3,2*%
%TO.N,/GND*%
%TA.AperFunction,SMDPad,CuDef*%
G36*
G01*
X133721001Y-70474000D02*
X132470999Y-70474000D01*
G75*
G02*
X132221000Y-70224001I0J249999D01*
G01*
X132221000Y-69598999D01*
G75*
G02*
X132470999Y-69349000I249999J0D01*
G01*
X133721001Y-69349000D01*
G75*
G02*
X133971000Y-69598999I0J-249999D01*
G01*
X133971000Y-70224001D01*
G75*
G02*
X133721001Y-70474000I-249999J0D01*
G01*
G37*
%TD.AperFunction*%
%TO.P,R3,1*%
%TO.N,Net-(C9-Pad2)*%
%TA.AperFunction,SMDPad,CuDef*%
G36*
G01*
X133721001Y-73399000D02*
X132470999Y-73399000D01*
G75*
G02*
X132221000Y-73149001I0J249999D01*
G01*
X132221000Y-72523999D01*
G75*
G02*
X132470999Y-72274000I249999J0D01*
G01*
X133721001Y-72274000D01*
G75*
G02*
X133971000Y-72523999I0J-249999D01*
G01*
X133971000Y-73149001D01*
G75*
G02*
X133721001Y-73399000I-249999J0D01*
G01*
G37*
%TD.AperFunction*%
%TD*%
%TO.P,R2,2*%
%TO.N,/VCC*%
%TA.AperFunction,SMDPad,CuDef*%
G36*
G01*
X151774999Y-79578500D02*
X153025001Y-79578500D01*
G75*
G02*
X153275000Y-79828499I0J-249999D01*
G01*
X153275000Y-80453501D01*
G75*
G02*
X153025001Y-80703500I-249999J0D01*
G01*
X151774999Y-80703500D01*
G75*
G02*
X151525000Y-80453501I0J249999D01*
G01*
X151525000Y-79828499D01*
G75*
G02*
X151774999Y-79578500I249999J0D01*
G01*
G37*
%TD.AperFunction*%
%TO.P,R2,1*%
%TO.N,Net-(IC1-Pad46)*%
%TA.AperFunction,SMDPad,CuDef*%
G36*
G01*
X151774999Y-76653500D02*
X153025001Y-76653500D01*
G75*
G02*
X153275000Y-76903499I0J-249999D01*
G01*
X153275000Y-77528501D01*
G75*
G02*
X153025001Y-77778500I-249999J0D01*
G01*
X151774999Y-77778500D01*
G75*
G02*
X151525000Y-77528501I0J249999D01*
G01*
X151525000Y-76903499D01*
G75*
G02*
X151774999Y-76653500I249999J0D01*
G01*
G37*
%TD.AperFunction*%
%TD*%
%TO.P,R1,2*%
%TO.N,/MCLR*%
%TA.AperFunction,SMDPad,CuDef*%
G36*
G01*
X121040999Y-91070000D02*
X122291001Y-91070000D01*
G75*
G02*
X122541000Y-91319999I0J-249999D01*
G01*
X122541000Y-91945001D01*
G75*
G02*
X122291001Y-92195000I-249999J0D01*
G01*
X121040999Y-92195000D01*
G75*
G02*
X120791000Y-91945001I0J249999D01*
G01*
X120791000Y-91319999D01*
G75*
G02*
X121040999Y-91070000I249999J0D01*
G01*
G37*
%TD.AperFunction*%
%TO.P,R1,1*%
%TO.N,/VCC*%
%TA.AperFunction,SMDPad,CuDef*%
G36*
G01*
X121040999Y-88145000D02*
X122291001Y-88145000D01*
G75*
G02*
X122541000Y-88394999I0J-249999D01*
G01*
X122541000Y-89020001D01*
G75*
G02*
X122291001Y-89270000I-249999J0D01*
G01*
X121040999Y-89270000D01*
G75*
G02*
X120791000Y-89020001I0J249999D01*
G01*
X120791000Y-88394999D01*
G75*
G02*
X121040999Y-88145000I249999J0D01*
G01*
G37*
%TD.AperFunction*%
%TD*%
D13*
%TO.P,Q1,1*%
%TO.N,/VCC*%
X122428000Y-74676000D03*
D14*
%TO.P,Q1,3*%
%TO.N,/5V*%
X122428000Y-77216000D03*
%TO.P,Q1,2*%
%TO.N,Net-(IC1-Pad64)*%
X122428000Y-75946000D03*
%TD*%
%TO.P,Lo1,2*%
%TO.N,Net-(C11-Pad1)*%
%TA.AperFunction,SMDPad,CuDef*%
G36*
G01*
X135141000Y-66353000D02*
X135141000Y-64203000D01*
G75*
G02*
X135391000Y-63953000I250000J0D01*
G01*
X136141000Y-63953000D01*
G75*
G02*
X136391000Y-64203000I0J-250000D01*
G01*
X136391000Y-66353000D01*
G75*
G02*
X136141000Y-66603000I-250000J0D01*
G01*
X135391000Y-66603000D01*
G75*
G02*
X135141000Y-66353000I0J250000D01*
G01*
G37*
%TD.AperFunction*%
%TO.P,Lo1,1*%
%TO.N,Net-(C8-Pad1)*%
%TA.AperFunction,SMDPad,CuDef*%
G36*
G01*
X132341000Y-66353000D02*
X132341000Y-64203000D01*
G75*
G02*
X132591000Y-63953000I250000J0D01*
G01*
X133341000Y-63953000D01*
G75*
G02*
X133591000Y-64203000I0J-250000D01*
G01*
X133591000Y-66353000D01*
G75*
G02*
X133341000Y-66603000I-250000J0D01*
G01*
X132591000Y-66603000D01*
G75*
G02*
X132341000Y-66353000I0J250000D01*
G01*
G37*
%TD.AperFunction*%
%TD*%
D10*
%TO.P,Jvac1,2*%
%TO.N,/5V*%
X112776000Y-74168000D03*
D11*
%TO.P,Jvac1,1*%
%TO.N,/GND*%
X112776000Y-71628000D03*
%TD*%
D10*
%TO.P,Juart1,4*%
%TO.N,/RX1*%
X165100000Y-72644000D03*
%TO.P,Juart1,3*%
%TO.N,/TX1*%
X165100000Y-70104000D03*
%TO.P,Juart1,2*%
%TO.N,/VCC*%
X165100000Y-67564000D03*
D11*
%TO.P,Juart1,1*%
%TO.N,/GND*%
X165100000Y-65024000D03*
%TD*%
D10*
%TO.P,Jpow1,2*%
%TO.N,/GND*%
X112776000Y-67564000D03*
D11*
%TO.P,Jpow1,1*%
%TO.N,/VCC*%
X112776000Y-65024000D03*
%TD*%
D10*
%TO.P,Jodo1,6*%
%TO.N,/VCC*%
X160528000Y-65024000D03*
%TO.P,Jodo1,5*%
X160528000Y-67564000D03*
%TO.P,Jodo1,4*%
%TO.N,/GND*%
X157988000Y-65024000D03*
%TO.P,Jodo1,3*%
X157988000Y-67564000D03*
%TO.P,Jodo1,2*%
%TO.N,/D1*%
X155448000Y-65024000D03*
D11*
%TO.P,Jodo1,1*%
%TO.N,/D2*%
X155448000Y-67564000D03*
%TD*%
D10*
%TO.P,Jir1,12*%
%TO.N,/IR1*%
X165354000Y-94742000D03*
%TO.P,Jir1,11*%
%TO.N,/IR2*%
X162814000Y-94742000D03*
%TO.P,Jir1,10*%
%TO.N,/GND*%
X165354000Y-92202000D03*
%TO.P,Jir1,9*%
X162814000Y-92202000D03*
%TO.P,Jir1,8*%
%TO.N,/VCC*%
X165354000Y-89662000D03*
%TO.P,Jir1,7*%
X162814000Y-89662000D03*
%TO.P,Jir1,6*%
%TO.N,/IR4*%
X165354000Y-87122000D03*
%TO.P,Jir1,5*%
%TO.N,/IR3*%
X162814000Y-87122000D03*
%TO.P,Jir1,4*%
%TO.N,/GND*%
X165354000Y-84582000D03*
%TO.P,Jir1,3*%
X162814000Y-84582000D03*
%TO.P,Jir1,2*%
%TO.N,/VCC*%
X165354000Y-82042000D03*
D11*
%TO.P,Jir1,1*%
X162814000Y-82042000D03*
%TD*%
D10*
%TO.P,Ji2c1,6*%
%TO.N,/INT1*%
X164846000Y-112522000D03*
%TO.P,Ji2c1,5*%
%TO.N,/GND*%
X164846000Y-109982000D03*
%TO.P,Ji2c1,4*%
%TO.N,/SDA1*%
X164846000Y-107442000D03*
%TO.P,Ji2c1,3*%
%TO.N,/SCL*%
X164846000Y-104902000D03*
%TO.P,Ji2c1,2*%
%TO.N,/GND*%
X164846000Y-102362000D03*
D11*
%TO.P,Ji2c1,1*%
%TO.N,/VCC*%
X164846000Y-99822000D03*
%TD*%
D10*
%TO.P,Jdbg1,5*%
%TO.N,/MCLR*%
X113284000Y-113030000D03*
%TO.P,Jdbg1,4*%
%TO.N,/VCC*%
X115824000Y-113030000D03*
%TO.P,Jdbg1,3*%
%TO.N,/GND*%
X118364000Y-113030000D03*
%TO.P,Jdbg1,2*%
%TO.N,/PGD*%
X120904000Y-113030000D03*
D11*
%TO.P,Jdbg1,1*%
%TO.N,/PGC*%
X123444000Y-113030000D03*
%TD*%
D10*
%TO.P,Jbat1,4*%
%TO.N,/BAT4*%
X113284000Y-80264000D03*
%TO.P,Jbat1,3*%
%TO.N,/BAT3*%
X113284000Y-82804000D03*
%TO.P,Jbat1,2*%
%TO.N,/BAT2*%
X113284000Y-85344000D03*
D11*
%TO.P,Jbat1,1*%
%TO.N,/BAT1*%
X113284000Y-87884000D03*
%TD*%
%TO.P,ICtrig1,16*%
%TO.N,/VCC*%
%TA.AperFunction,SMDPad,CuDef*%
G36*
G01*
X155287000Y-102473000D02*
X155287000Y-102273000D01*
G75*
G02*
X155387000Y-102173000I100000J0D01*
G01*
X156662000Y-102173000D01*
G75*
G02*
X156762000Y-102273000I0J-100000D01*
G01*
X156762000Y-102473000D01*
G75*
G02*
X156662000Y-102573000I-100000J0D01*
G01*
X155387000Y-102573000D01*
G75*
G02*
X155287000Y-102473000I0J100000D01*
G01*
G37*
%TD.AperFunction*%
%TO.P,ICtrig1,15*%
%TO.N,Net-(ICtrig1-Pad15)*%
%TA.AperFunction,SMDPad,CuDef*%
G36*
G01*
X155287000Y-103123000D02*
X155287000Y-102923000D01*
G75*
G02*
X155387000Y-102823000I100000J0D01*
G01*
X156662000Y-102823000D01*
G75*
G02*
X156762000Y-102923000I0J-100000D01*
G01*
X156762000Y-103123000D01*
G75*
G02*
X156662000Y-103223000I-100000J0D01*
G01*
X155387000Y-103223000D01*
G75*
G02*
X155287000Y-103123000I0J100000D01*
G01*
G37*
%TD.AperFunction*%
%TO.P,ICtrig1,14*%
%TO.N,Net-(ICtrig1-Pad14)*%
%TA.AperFunction,SMDPad,CuDef*%
G36*
G01*
X155287000Y-103773000D02*
X155287000Y-103573000D01*
G75*
G02*
X155387000Y-103473000I100000J0D01*
G01*
X156662000Y-103473000D01*
G75*
G02*
X156762000Y-103573000I0J-100000D01*
G01*
X156762000Y-103773000D01*
G75*
G02*
X156662000Y-103873000I-100000J0D01*
G01*
X155387000Y-103873000D01*
G75*
G02*
X155287000Y-103773000I0J100000D01*
G01*
G37*
%TD.AperFunction*%
%TO.P,ICtrig1,13*%
%TO.N,Net-(ICtrig1-Pad13)*%
%TA.AperFunction,SMDPad,CuDef*%
G36*
G01*
X155287000Y-104423000D02*
X155287000Y-104223000D01*
G75*
G02*
X155387000Y-104123000I100000J0D01*
G01*
X156662000Y-104123000D01*
G75*
G02*
X156762000Y-104223000I0J-100000D01*
G01*
X156762000Y-104423000D01*
G75*
G02*
X156662000Y-104523000I-100000J0D01*
G01*
X155387000Y-104523000D01*
G75*
G02*
X155287000Y-104423000I0J100000D01*
G01*
G37*
%TD.AperFunction*%
%TO.P,ICtrig1,12*%
%TO.N,Net-(ICtrig1-Pad12)*%
%TA.AperFunction,SMDPad,CuDef*%
G36*
G01*
X155287000Y-105073000D02*
X155287000Y-104873000D01*
G75*
G02*
X155387000Y-104773000I100000J0D01*
G01*
X156662000Y-104773000D01*
G75*
G02*
X156762000Y-104873000I0J-100000D01*
G01*
X156762000Y-105073000D01*
G75*
G02*
X156662000Y-105173000I-100000J0D01*
G01*
X155387000Y-105173000D01*
G75*
G02*
X155287000Y-105073000I0J100000D01*
G01*
G37*
%TD.AperFunction*%
%TO.P,ICtrig1,11*%
%TO.N,Net-(ICtrig1-Pad11)*%
%TA.AperFunction,SMDPad,CuDef*%
G36*
G01*
X155287000Y-105723000D02*
X155287000Y-105523000D01*
G75*
G02*
X155387000Y-105423000I100000J0D01*
G01*
X156662000Y-105423000D01*
G75*
G02*
X156762000Y-105523000I0J-100000D01*
G01*
X156762000Y-105723000D01*
G75*
G02*
X156662000Y-105823000I-100000J0D01*
G01*
X155387000Y-105823000D01*
G75*
G02*
X155287000Y-105723000I0J100000D01*
G01*
G37*
%TD.AperFunction*%
%TO.P,ICtrig1,10*%
%TO.N,Net-(ICtrig1-Pad10)*%
%TA.AperFunction,SMDPad,CuDef*%
G36*
G01*
X155287000Y-106373000D02*
X155287000Y-106173000D01*
G75*
G02*
X155387000Y-106073000I100000J0D01*
G01*
X156662000Y-106073000D01*
G75*
G02*
X156762000Y-106173000I0J-100000D01*
G01*
X156762000Y-106373000D01*
G75*
G02*
X156662000Y-106473000I-100000J0D01*
G01*
X155387000Y-106473000D01*
G75*
G02*
X155287000Y-106373000I0J100000D01*
G01*
G37*
%TD.AperFunction*%
%TO.P,ICtrig1,9*%
%TO.N,Net-(ICtrig1-Pad9)*%
%TA.AperFunction,SMDPad,CuDef*%
G36*
G01*
X155287000Y-107023000D02*
X155287000Y-106823000D01*
G75*
G02*
X155387000Y-106723000I100000J0D01*
G01*
X156662000Y-106723000D01*
G75*
G02*
X156762000Y-106823000I0J-100000D01*
G01*
X156762000Y-107023000D01*
G75*
G02*
X156662000Y-107123000I-100000J0D01*
G01*
X155387000Y-107123000D01*
G75*
G02*
X155287000Y-107023000I0J100000D01*
G01*
G37*
%TD.AperFunction*%
%TO.P,ICtrig1,8*%
%TO.N,/GND*%
%TA.AperFunction,SMDPad,CuDef*%
G36*
G01*
X149562000Y-107023000D02*
X149562000Y-106823000D01*
G75*
G02*
X149662000Y-106723000I100000J0D01*
G01*
X150937000Y-106723000D01*
G75*
G02*
X151037000Y-106823000I0J-100000D01*
G01*
X151037000Y-107023000D01*
G75*
G02*
X150937000Y-107123000I-100000J0D01*
G01*
X149662000Y-107123000D01*
G75*
G02*
X149562000Y-107023000I0J100000D01*
G01*
G37*
%TD.AperFunction*%
%TO.P,ICtrig1,7*%
%TO.N,/TRIG3*%
%TA.AperFunction,SMDPad,CuDef*%
G36*
G01*
X149562000Y-106373000D02*
X149562000Y-106173000D01*
G75*
G02*
X149662000Y-106073000I100000J0D01*
G01*
X150937000Y-106073000D01*
G75*
G02*
X151037000Y-106173000I0J-100000D01*
G01*
X151037000Y-106373000D01*
G75*
G02*
X150937000Y-106473000I-100000J0D01*
G01*
X149662000Y-106473000D01*
G75*
G02*
X149562000Y-106373000I0J100000D01*
G01*
G37*
%TD.AperFunction*%
%TO.P,ICtrig1,6*%
%TO.N,/TRIG2*%
%TA.AperFunction,SMDPad,CuDef*%
G36*
G01*
X149562000Y-105723000D02*
X149562000Y-105523000D01*
G75*
G02*
X149662000Y-105423000I100000J0D01*
G01*
X150937000Y-105423000D01*
G75*
G02*
X151037000Y-105523000I0J-100000D01*
G01*
X151037000Y-105723000D01*
G75*
G02*
X150937000Y-105823000I-100000J0D01*
G01*
X149662000Y-105823000D01*
G75*
G02*
X149562000Y-105723000I0J100000D01*
G01*
G37*
%TD.AperFunction*%
%TO.P,ICtrig1,5*%
%TO.N,/TRIG1*%
%TA.AperFunction,SMDPad,CuDef*%
G36*
G01*
X149562000Y-105073000D02*
X149562000Y-104873000D01*
G75*
G02*
X149662000Y-104773000I100000J0D01*
G01*
X150937000Y-104773000D01*
G75*
G02*
X151037000Y-104873000I0J-100000D01*
G01*
X151037000Y-105073000D01*
G75*
G02*
X150937000Y-105173000I-100000J0D01*
G01*
X149662000Y-105173000D01*
G75*
G02*
X149562000Y-105073000I0J100000D01*
G01*
G37*
%TD.AperFunction*%
%TO.P,ICtrig1,4*%
%TO.N,/TRIG0*%
%TA.AperFunction,SMDPad,CuDef*%
G36*
G01*
X149562000Y-104423000D02*
X149562000Y-104223000D01*
G75*
G02*
X149662000Y-104123000I100000J0D01*
G01*
X150937000Y-104123000D01*
G75*
G02*
X151037000Y-104223000I0J-100000D01*
G01*
X151037000Y-104423000D01*
G75*
G02*
X150937000Y-104523000I-100000J0D01*
G01*
X149662000Y-104523000D01*
G75*
G02*
X149562000Y-104423000I0J100000D01*
G01*
G37*
%TD.AperFunction*%
%TO.P,ICtrig1,3*%
%TO.N,Net-(IC1-Pad24)*%
%TA.AperFunction,SMDPad,CuDef*%
G36*
G01*
X149562000Y-103773000D02*
X149562000Y-103573000D01*
G75*
G02*
X149662000Y-103473000I100000J0D01*
G01*
X150937000Y-103473000D01*
G75*
G02*
X151037000Y-103573000I0J-100000D01*
G01*
X151037000Y-103773000D01*
G75*
G02*
X150937000Y-103873000I-100000J0D01*
G01*
X149662000Y-103873000D01*
G75*
G02*
X149562000Y-103773000I0J100000D01*
G01*
G37*
%TD.AperFunction*%
%TO.P,ICtrig1,2*%
%TO.N,Net-(IC1-Pad23)*%
%TA.AperFunction,SMDPad,CuDef*%
G36*
G01*
X149562000Y-103123000D02*
X149562000Y-102923000D01*
G75*
G02*
X149662000Y-102823000I100000J0D01*
G01*
X150937000Y-102823000D01*
G75*
G02*
X151037000Y-102923000I0J-100000D01*
G01*
X151037000Y-103123000D01*
G75*
G02*
X150937000Y-103223000I-100000J0D01*
G01*
X149662000Y-103223000D01*
G75*
G02*
X149562000Y-103123000I0J100000D01*
G01*
G37*
%TD.AperFunction*%
%TO.P,ICtrig1,1*%
%TO.N,Net-(IC1-Pad22)*%
%TA.AperFunction,SMDPad,CuDef*%
G36*
G01*
X149562000Y-102473000D02*
X149562000Y-102273000D01*
G75*
G02*
X149662000Y-102173000I100000J0D01*
G01*
X150937000Y-102173000D01*
G75*
G02*
X151037000Y-102273000I0J-100000D01*
G01*
X151037000Y-102473000D01*
G75*
G02*
X150937000Y-102573000I-100000J0D01*
G01*
X149662000Y-102573000D01*
G75*
G02*
X149562000Y-102473000I0J100000D01*
G01*
G37*
%TD.AperFunction*%
%TD*%
%TO.P,ICecho1,16*%
%TO.N,/VCC*%
%TA.AperFunction,SMDPad,CuDef*%
G36*
G01*
X136929000Y-101878000D02*
X136629000Y-101878000D01*
G75*
G02*
X136479000Y-101728000I0J150000D01*
G01*
X136479000Y-100078000D01*
G75*
G02*
X136629000Y-99928000I150000J0D01*
G01*
X136929000Y-99928000D01*
G75*
G02*
X137079000Y-100078000I0J-150000D01*
G01*
X137079000Y-101728000D01*
G75*
G02*
X136929000Y-101878000I-150000J0D01*
G01*
G37*
%TD.AperFunction*%
%TO.P,ICecho1,15*%
%TA.AperFunction,SMDPad,CuDef*%
G36*
G01*
X138199000Y-101878000D02*
X137899000Y-101878000D01*
G75*
G02*
X137749000Y-101728000I0J150000D01*
G01*
X137749000Y-100078000D01*
G75*
G02*
X137899000Y-99928000I150000J0D01*
G01*
X138199000Y-99928000D01*
G75*
G02*
X138349000Y-100078000I0J-150000D01*
G01*
X138349000Y-101728000D01*
G75*
G02*
X138199000Y-101878000I-150000J0D01*
G01*
G37*
%TD.AperFunction*%
%TO.P,ICecho1,14*%
%TO.N,Net-(IC1-Pad23)*%
%TA.AperFunction,SMDPad,CuDef*%
G36*
G01*
X139469000Y-101878000D02*
X139169000Y-101878000D01*
G75*
G02*
X139019000Y-101728000I0J150000D01*
G01*
X139019000Y-100078000D01*
G75*
G02*
X139169000Y-99928000I150000J0D01*
G01*
X139469000Y-99928000D01*
G75*
G02*
X139619000Y-100078000I0J-150000D01*
G01*
X139619000Y-101728000D01*
G75*
G02*
X139469000Y-101878000I-150000J0D01*
G01*
G37*
%TD.AperFunction*%
%TO.P,ICecho1,13*%
%TO.N,Net-(ICecho1-Pad13)*%
%TA.AperFunction,SMDPad,CuDef*%
G36*
G01*
X140739000Y-101878000D02*
X140439000Y-101878000D01*
G75*
G02*
X140289000Y-101728000I0J150000D01*
G01*
X140289000Y-100078000D01*
G75*
G02*
X140439000Y-99928000I150000J0D01*
G01*
X140739000Y-99928000D01*
G75*
G02*
X140889000Y-100078000I0J-150000D01*
G01*
X140889000Y-101728000D01*
G75*
G02*
X140739000Y-101878000I-150000J0D01*
G01*
G37*
%TD.AperFunction*%
%TO.P,ICecho1,12*%
%TO.N,Net-(ICecho1-Pad12)*%
%TA.AperFunction,SMDPad,CuDef*%
G36*
G01*
X142009000Y-101878000D02*
X141709000Y-101878000D01*
G75*
G02*
X141559000Y-101728000I0J150000D01*
G01*
X141559000Y-100078000D01*
G75*
G02*
X141709000Y-99928000I150000J0D01*
G01*
X142009000Y-99928000D01*
G75*
G02*
X142159000Y-100078000I0J-150000D01*
G01*
X142159000Y-101728000D01*
G75*
G02*
X142009000Y-101878000I-150000J0D01*
G01*
G37*
%TD.AperFunction*%
%TO.P,ICecho1,11*%
%TO.N,Net-(ICecho1-Pad11)*%
%TA.AperFunction,SMDPad,CuDef*%
G36*
G01*
X143279000Y-101878000D02*
X142979000Y-101878000D01*
G75*
G02*
X142829000Y-101728000I0J150000D01*
G01*
X142829000Y-100078000D01*
G75*
G02*
X142979000Y-99928000I150000J0D01*
G01*
X143279000Y-99928000D01*
G75*
G02*
X143429000Y-100078000I0J-150000D01*
G01*
X143429000Y-101728000D01*
G75*
G02*
X143279000Y-101878000I-150000J0D01*
G01*
G37*
%TD.AperFunction*%
%TO.P,ICecho1,10*%
%TO.N,Net-(ICecho1-Pad10)*%
%TA.AperFunction,SMDPad,CuDef*%
G36*
G01*
X144549000Y-101878000D02*
X144249000Y-101878000D01*
G75*
G02*
X144099000Y-101728000I0J150000D01*
G01*
X144099000Y-100078000D01*
G75*
G02*
X144249000Y-99928000I150000J0D01*
G01*
X144549000Y-99928000D01*
G75*
G02*
X144699000Y-100078000I0J-150000D01*
G01*
X144699000Y-101728000D01*
G75*
G02*
X144549000Y-101878000I-150000J0D01*
G01*
G37*
%TD.AperFunction*%
%TO.P,ICecho1,9*%
%TO.N,Net-(ICecho1-Pad9)*%
%TA.AperFunction,SMDPad,CuDef*%
G36*
G01*
X145819000Y-101878000D02*
X145519000Y-101878000D01*
G75*
G02*
X145369000Y-101728000I0J150000D01*
G01*
X145369000Y-100078000D01*
G75*
G02*
X145519000Y-99928000I150000J0D01*
G01*
X145819000Y-99928000D01*
G75*
G02*
X145969000Y-100078000I0J-150000D01*
G01*
X145969000Y-101728000D01*
G75*
G02*
X145819000Y-101878000I-150000J0D01*
G01*
G37*
%TD.AperFunction*%
%TO.P,ICecho1,8*%
%TO.N,/GND*%
%TA.AperFunction,SMDPad,CuDef*%
G36*
G01*
X145819000Y-106828000D02*
X145519000Y-106828000D01*
G75*
G02*
X145369000Y-106678000I0J150000D01*
G01*
X145369000Y-105028000D01*
G75*
G02*
X145519000Y-104878000I150000J0D01*
G01*
X145819000Y-104878000D01*
G75*
G02*
X145969000Y-105028000I0J-150000D01*
G01*
X145969000Y-106678000D01*
G75*
G02*
X145819000Y-106828000I-150000J0D01*
G01*
G37*
%TD.AperFunction*%
%TO.P,ICecho1,7*%
%TO.N,Net-(IC1-Pad21)*%
%TA.AperFunction,SMDPad,CuDef*%
G36*
G01*
X144549000Y-106828000D02*
X144249000Y-106828000D01*
G75*
G02*
X144099000Y-106678000I0J150000D01*
G01*
X144099000Y-105028000D01*
G75*
G02*
X144249000Y-104878000I150000J0D01*
G01*
X144549000Y-104878000D01*
G75*
G02*
X144699000Y-105028000I0J-150000D01*
G01*
X144699000Y-106678000D01*
G75*
G02*
X144549000Y-106828000I-150000J0D01*
G01*
G37*
%TD.AperFunction*%
%TO.P,ICecho1,6*%
%TO.N,/ECHO0*%
%TA.AperFunction,SMDPad,CuDef*%
G36*
G01*
X143279000Y-106828000D02*
X142979000Y-106828000D01*
G75*
G02*
X142829000Y-106678000I0J150000D01*
G01*
X142829000Y-105028000D01*
G75*
G02*
X142979000Y-104878000I150000J0D01*
G01*
X143279000Y-104878000D01*
G75*
G02*
X143429000Y-105028000I0J-150000D01*
G01*
X143429000Y-106678000D01*
G75*
G02*
X143279000Y-106828000I-150000J0D01*
G01*
G37*
%TD.AperFunction*%
%TO.P,ICecho1,5*%
%TO.N,/ECHO1*%
%TA.AperFunction,SMDPad,CuDef*%
G36*
G01*
X142009000Y-106828000D02*
X141709000Y-106828000D01*
G75*
G02*
X141559000Y-106678000I0J150000D01*
G01*
X141559000Y-105028000D01*
G75*
G02*
X141709000Y-104878000I150000J0D01*
G01*
X142009000Y-104878000D01*
G75*
G02*
X142159000Y-105028000I0J-150000D01*
G01*
X142159000Y-106678000D01*
G75*
G02*
X142009000Y-106828000I-150000J0D01*
G01*
G37*
%TD.AperFunction*%
%TO.P,ICecho1,4*%
%TO.N,/ECHO2*%
%TA.AperFunction,SMDPad,CuDef*%
G36*
G01*
X140739000Y-106828000D02*
X140439000Y-106828000D01*
G75*
G02*
X140289000Y-106678000I0J150000D01*
G01*
X140289000Y-105028000D01*
G75*
G02*
X140439000Y-104878000I150000J0D01*
G01*
X140739000Y-104878000D01*
G75*
G02*
X140889000Y-105028000I0J-150000D01*
G01*
X140889000Y-106678000D01*
G75*
G02*
X140739000Y-106828000I-150000J0D01*
G01*
G37*
%TD.AperFunction*%
%TO.P,ICecho1,3*%
%TO.N,/ECHO3*%
%TA.AperFunction,SMDPad,CuDef*%
G36*
G01*
X139469000Y-106828000D02*
X139169000Y-106828000D01*
G75*
G02*
X139019000Y-106678000I0J150000D01*
G01*
X139019000Y-105028000D01*
G75*
G02*
X139169000Y-104878000I150000J0D01*
G01*
X139469000Y-104878000D01*
G75*
G02*
X139619000Y-105028000I0J-150000D01*
G01*
X139619000Y-106678000D01*
G75*
G02*
X139469000Y-106828000I-150000J0D01*
G01*
G37*
%TD.AperFunction*%
%TO.P,ICecho1,2*%
%TO.N,Net-(IC1-Pad24)*%
%TA.AperFunction,SMDPad,CuDef*%
G36*
G01*
X138199000Y-106828000D02*
X137899000Y-106828000D01*
G75*
G02*
X137749000Y-106678000I0J150000D01*
G01*
X137749000Y-105028000D01*
G75*
G02*
X137899000Y-104878000I150000J0D01*
G01*
X138199000Y-104878000D01*
G75*
G02*
X138349000Y-105028000I0J-150000D01*
G01*
X138349000Y-106678000D01*
G75*
G02*
X138199000Y-106828000I-150000J0D01*
G01*
G37*
%TD.AperFunction*%
%TO.P,ICecho1,1*%
%TO.N,/GND*%
%TA.AperFunction,SMDPad,CuDef*%
G36*
G01*
X136929000Y-106828000D02*
X136629000Y-106828000D01*
G75*
G02*
X136479000Y-106678000I0J150000D01*
G01*
X136479000Y-105028000D01*
G75*
G02*
X136629000Y-104878000I150000J0D01*
G01*
X136929000Y-104878000D01*
G75*
G02*
X137079000Y-105028000I0J-150000D01*
G01*
X137079000Y-106678000D01*
G75*
G02*
X136929000Y-106828000I-150000J0D01*
G01*
G37*
%TD.AperFunction*%
%TD*%
%TO.P,ICbat1,16*%
%TO.N,/VCC*%
%TA.AperFunction,SMDPad,CuDef*%
G36*
G01*
X133835000Y-85320000D02*
X134135000Y-85320000D01*
G75*
G02*
X134285000Y-85470000I0J-150000D01*
G01*
X134285000Y-87120000D01*
G75*
G02*
X134135000Y-87270000I-150000J0D01*
G01*
X133835000Y-87270000D01*
G75*
G02*
X133685000Y-87120000I0J150000D01*
G01*
X133685000Y-85470000D01*
G75*
G02*
X133835000Y-85320000I150000J0D01*
G01*
G37*
%TD.AperFunction*%
%TO.P,ICbat1,15*%
%TA.AperFunction,SMDPad,CuDef*%
G36*
G01*
X132565000Y-85320000D02*
X132865000Y-85320000D01*
G75*
G02*
X133015000Y-85470000I0J-150000D01*
G01*
X133015000Y-87120000D01*
G75*
G02*
X132865000Y-87270000I-150000J0D01*
G01*
X132565000Y-87270000D01*
G75*
G02*
X132415000Y-87120000I0J150000D01*
G01*
X132415000Y-85470000D01*
G75*
G02*
X132565000Y-85320000I150000J0D01*
G01*
G37*
%TD.AperFunction*%
%TO.P,ICbat1,14*%
%TO.N,Net-(IC1-Pad5)*%
%TA.AperFunction,SMDPad,CuDef*%
G36*
G01*
X131295000Y-85320000D02*
X131595000Y-85320000D01*
G75*
G02*
X131745000Y-85470000I0J-150000D01*
G01*
X131745000Y-87120000D01*
G75*
G02*
X131595000Y-87270000I-150000J0D01*
G01*
X131295000Y-87270000D01*
G75*
G02*
X131145000Y-87120000I0J150000D01*
G01*
X131145000Y-85470000D01*
G75*
G02*
X131295000Y-85320000I150000J0D01*
G01*
G37*
%TD.AperFunction*%
%TO.P,ICbat1,13*%
%TO.N,Net-(ICbat1-Pad13)*%
%TA.AperFunction,SMDPad,CuDef*%
G36*
G01*
X130025000Y-85320000D02*
X130325000Y-85320000D01*
G75*
G02*
X130475000Y-85470000I0J-150000D01*
G01*
X130475000Y-87120000D01*
G75*
G02*
X130325000Y-87270000I-150000J0D01*
G01*
X130025000Y-87270000D01*
G75*
G02*
X129875000Y-87120000I0J150000D01*
G01*
X129875000Y-85470000D01*
G75*
G02*
X130025000Y-85320000I150000J0D01*
G01*
G37*
%TD.AperFunction*%
%TO.P,ICbat1,12*%
%TO.N,Net-(ICbat1-Pad12)*%
%TA.AperFunction,SMDPad,CuDef*%
G36*
G01*
X128755000Y-85320000D02*
X129055000Y-85320000D01*
G75*
G02*
X129205000Y-85470000I0J-150000D01*
G01*
X129205000Y-87120000D01*
G75*
G02*
X129055000Y-87270000I-150000J0D01*
G01*
X128755000Y-87270000D01*
G75*
G02*
X128605000Y-87120000I0J150000D01*
G01*
X128605000Y-85470000D01*
G75*
G02*
X128755000Y-85320000I150000J0D01*
G01*
G37*
%TD.AperFunction*%
%TO.P,ICbat1,11*%
%TO.N,Net-(ICbat1-Pad11)*%
%TA.AperFunction,SMDPad,CuDef*%
G36*
G01*
X127485000Y-85320000D02*
X127785000Y-85320000D01*
G75*
G02*
X127935000Y-85470000I0J-150000D01*
G01*
X127935000Y-87120000D01*
G75*
G02*
X127785000Y-87270000I-150000J0D01*
G01*
X127485000Y-87270000D01*
G75*
G02*
X127335000Y-87120000I0J150000D01*
G01*
X127335000Y-85470000D01*
G75*
G02*
X127485000Y-85320000I150000J0D01*
G01*
G37*
%TD.AperFunction*%
%TO.P,ICbat1,10*%
%TO.N,Net-(ICbat1-Pad10)*%
%TA.AperFunction,SMDPad,CuDef*%
G36*
G01*
X126215000Y-85320000D02*
X126515000Y-85320000D01*
G75*
G02*
X126665000Y-85470000I0J-150000D01*
G01*
X126665000Y-87120000D01*
G75*
G02*
X126515000Y-87270000I-150000J0D01*
G01*
X126215000Y-87270000D01*
G75*
G02*
X126065000Y-87120000I0J150000D01*
G01*
X126065000Y-85470000D01*
G75*
G02*
X126215000Y-85320000I150000J0D01*
G01*
G37*
%TD.AperFunction*%
%TO.P,ICbat1,9*%
%TO.N,Net-(ICbat1-Pad9)*%
%TA.AperFunction,SMDPad,CuDef*%
G36*
G01*
X124945000Y-85320000D02*
X125245000Y-85320000D01*
G75*
G02*
X125395000Y-85470000I0J-150000D01*
G01*
X125395000Y-87120000D01*
G75*
G02*
X125245000Y-87270000I-150000J0D01*
G01*
X124945000Y-87270000D01*
G75*
G02*
X124795000Y-87120000I0J150000D01*
G01*
X124795000Y-85470000D01*
G75*
G02*
X124945000Y-85320000I150000J0D01*
G01*
G37*
%TD.AperFunction*%
%TO.P,ICbat1,8*%
%TO.N,/GND*%
%TA.AperFunction,SMDPad,CuDef*%
G36*
G01*
X124945000Y-80370000D02*
X125245000Y-80370000D01*
G75*
G02*
X125395000Y-80520000I0J-150000D01*
G01*
X125395000Y-82170000D01*
G75*
G02*
X125245000Y-82320000I-150000J0D01*
G01*
X124945000Y-82320000D01*
G75*
G02*
X124795000Y-82170000I0J150000D01*
G01*
X124795000Y-80520000D01*
G75*
G02*
X124945000Y-80370000I150000J0D01*
G01*
G37*
%TD.AperFunction*%
%TO.P,ICbat1,7*%
%TO.N,Net-(IC1-Pad4)*%
%TA.AperFunction,SMDPad,CuDef*%
G36*
G01*
X126215000Y-80370000D02*
X126515000Y-80370000D01*
G75*
G02*
X126665000Y-80520000I0J-150000D01*
G01*
X126665000Y-82170000D01*
G75*
G02*
X126515000Y-82320000I-150000J0D01*
G01*
X126215000Y-82320000D01*
G75*
G02*
X126065000Y-82170000I0J150000D01*
G01*
X126065000Y-80520000D01*
G75*
G02*
X126215000Y-80370000I150000J0D01*
G01*
G37*
%TD.AperFunction*%
%TO.P,ICbat1,6*%
%TO.N,/BAT1*%
%TA.AperFunction,SMDPad,CuDef*%
G36*
G01*
X127485000Y-80370000D02*
X127785000Y-80370000D01*
G75*
G02*
X127935000Y-80520000I0J-150000D01*
G01*
X127935000Y-82170000D01*
G75*
G02*
X127785000Y-82320000I-150000J0D01*
G01*
X127485000Y-82320000D01*
G75*
G02*
X127335000Y-82170000I0J150000D01*
G01*
X127335000Y-80520000D01*
G75*
G02*
X127485000Y-80370000I150000J0D01*
G01*
G37*
%TD.AperFunction*%
%TO.P,ICbat1,5*%
%TO.N,/BAT2*%
%TA.AperFunction,SMDPad,CuDef*%
G36*
G01*
X128755000Y-80370000D02*
X129055000Y-80370000D01*
G75*
G02*
X129205000Y-80520000I0J-150000D01*
G01*
X129205000Y-82170000D01*
G75*
G02*
X129055000Y-82320000I-150000J0D01*
G01*
X128755000Y-82320000D01*
G75*
G02*
X128605000Y-82170000I0J150000D01*
G01*
X128605000Y-80520000D01*
G75*
G02*
X128755000Y-80370000I150000J0D01*
G01*
G37*
%TD.AperFunction*%
%TO.P,ICbat1,4*%
%TO.N,/BAT3*%
%TA.AperFunction,SMDPad,CuDef*%
G36*
G01*
X130025000Y-80370000D02*
X130325000Y-80370000D01*
G75*
G02*
X130475000Y-80520000I0J-150000D01*
G01*
X130475000Y-82170000D01*
G75*
G02*
X130325000Y-82320000I-150000J0D01*
G01*
X130025000Y-82320000D01*
G75*
G02*
X129875000Y-82170000I0J150000D01*
G01*
X129875000Y-80520000D01*
G75*
G02*
X130025000Y-80370000I150000J0D01*
G01*
G37*
%TD.AperFunction*%
%TO.P,ICbat1,3*%
%TO.N,/BAT4*%
%TA.AperFunction,SMDPad,CuDef*%
G36*
G01*
X131295000Y-80370000D02*
X131595000Y-80370000D01*
G75*
G02*
X131745000Y-80520000I0J-150000D01*
G01*
X131745000Y-82170000D01*
G75*
G02*
X131595000Y-82320000I-150000J0D01*
G01*
X131295000Y-82320000D01*
G75*
G02*
X131145000Y-82170000I0J150000D01*
G01*
X131145000Y-80520000D01*
G75*
G02*
X131295000Y-80370000I150000J0D01*
G01*
G37*
%TD.AperFunction*%
%TO.P,ICbat1,2*%
%TO.N,Net-(IC1-Pad6)*%
%TA.AperFunction,SMDPad,CuDef*%
G36*
G01*
X132565000Y-80370000D02*
X132865000Y-80370000D01*
G75*
G02*
X133015000Y-80520000I0J-150000D01*
G01*
X133015000Y-82170000D01*
G75*
G02*
X132865000Y-82320000I-150000J0D01*
G01*
X132565000Y-82320000D01*
G75*
G02*
X132415000Y-82170000I0J150000D01*
G01*
X132415000Y-80520000D01*
G75*
G02*
X132565000Y-80370000I150000J0D01*
G01*
G37*
%TD.AperFunction*%
%TO.P,ICbat1,1*%
%TO.N,/GND*%
%TA.AperFunction,SMDPad,CuDef*%
G36*
G01*
X133835000Y-80370000D02*
X134135000Y-80370000D01*
G75*
G02*
X134285000Y-80520000I0J-150000D01*
G01*
X134285000Y-82170000D01*
G75*
G02*
X134135000Y-82320000I-150000J0D01*
G01*
X133835000Y-82320000D01*
G75*
G02*
X133685000Y-82170000I0J150000D01*
G01*
X133685000Y-80520000D01*
G75*
G02*
X133835000Y-80370000I150000J0D01*
G01*
G37*
%TD.AperFunction*%
%TD*%
D15*
%TO.P,IC3,1*%
%TO.N,Net-(C11-Pad1)*%
X143662000Y-65772000D03*
%TO.P,IC3,3*%
%TO.N,Net-(C3-Pad1)*%
X143662000Y-70372000D03*
%TO.P,IC3,2*%
%TO.N,/GND*%
X143662000Y-68072000D03*
D16*
%TO.P,IC3,4*%
X149962000Y-68072000D03*
%TD*%
D17*
%TO.P,IC2,9*%
%TO.N,/GND*%
X122333500Y-69583000D03*
X122333500Y-71133000D03*
X123538500Y-69583000D03*
X123538500Y-71133000D03*
D18*
%TO.P,IC2,8*%
%TO.N,Net-(C8-Pad1)*%
X125716000Y-68453000D03*
%TO.P,IC2,7*%
%TO.N,/GND*%
X125716000Y-69723000D03*
%TO.P,IC2,6*%
%TO.N,Net-(C10-Pad1)*%
X125716000Y-70993000D03*
%TO.P,IC2,5*%
%TO.N,Net-(IC2-Pad5)*%
X125716000Y-72263000D03*
%TO.P,IC2,4*%
%TO.N,Net-(Css1-Pad1)*%
X120156000Y-72263000D03*
%TO.P,IC2,3*%
%TO.N,/VCC*%
X120156000Y-70993000D03*
%TO.P,IC2,2*%
X120156000Y-69723000D03*
%TO.P,IC2,1*%
%TO.N,Net-(C8-Pad2)*%
X120156000Y-68453000D03*
%TD*%
%TO.P,IC1,64*%
%TO.N,Net-(IC1-Pad64)*%
%TA.AperFunction,SMDPad,CuDef*%
G36*
G01*
X144182000Y-83392000D02*
X144182000Y-82067000D01*
G75*
G02*
X144257000Y-81992000I75000J0D01*
G01*
X144407000Y-81992000D01*
G75*
G02*
X144482000Y-82067000I0J-75000D01*
G01*
X144482000Y-83392000D01*
G75*
G02*
X144407000Y-83467000I-75000J0D01*
G01*
X144257000Y-83467000D01*
G75*
G02*
X144182000Y-83392000I0J75000D01*
G01*
G37*
%TD.AperFunction*%
%TO.P,IC1,63*%
%TO.N,/D2*%
%TA.AperFunction,SMDPad,CuDef*%
G36*
G01*
X144682000Y-83392000D02*
X144682000Y-82067000D01*
G75*
G02*
X144757000Y-81992000I75000J0D01*
G01*
X144907000Y-81992000D01*
G75*
G02*
X144982000Y-82067000I0J-75000D01*
G01*
X144982000Y-83392000D01*
G75*
G02*
X144907000Y-83467000I-75000J0D01*
G01*
X144757000Y-83467000D01*
G75*
G02*
X144682000Y-83392000I0J75000D01*
G01*
G37*
%TD.AperFunction*%
%TO.P,IC1,62*%
%TO.N,Net-(IC1-Pad62)*%
%TA.AperFunction,SMDPad,CuDef*%
G36*
G01*
X145182000Y-83392000D02*
X145182000Y-82067000D01*
G75*
G02*
X145257000Y-81992000I75000J0D01*
G01*
X145407000Y-81992000D01*
G75*
G02*
X145482000Y-82067000I0J-75000D01*
G01*
X145482000Y-83392000D01*
G75*
G02*
X145407000Y-83467000I-75000J0D01*
G01*
X145257000Y-83467000D01*
G75*
G02*
X145182000Y-83392000I0J75000D01*
G01*
G37*
%TD.AperFunction*%
%TO.P,IC1,61*%
%TO.N,/D1*%
%TA.AperFunction,SMDPad,CuDef*%
G36*
G01*
X145682000Y-83392000D02*
X145682000Y-82067000D01*
G75*
G02*
X145757000Y-81992000I75000J0D01*
G01*
X145907000Y-81992000D01*
G75*
G02*
X145982000Y-82067000I0J-75000D01*
G01*
X145982000Y-83392000D01*
G75*
G02*
X145907000Y-83467000I-75000J0D01*
G01*
X145757000Y-83467000D01*
G75*
G02*
X145682000Y-83392000I0J75000D01*
G01*
G37*
%TD.AperFunction*%
%TO.P,IC1,60*%
%TO.N,Net-(IC1-Pad60)*%
%TA.AperFunction,SMDPad,CuDef*%
G36*
G01*
X146182000Y-83392000D02*
X146182000Y-82067000D01*
G75*
G02*
X146257000Y-81992000I75000J0D01*
G01*
X146407000Y-81992000D01*
G75*
G02*
X146482000Y-82067000I0J-75000D01*
G01*
X146482000Y-83392000D01*
G75*
G02*
X146407000Y-83467000I-75000J0D01*
G01*
X146257000Y-83467000D01*
G75*
G02*
X146182000Y-83392000I0J75000D01*
G01*
G37*
%TD.AperFunction*%
%TO.P,IC1,59*%
%TO.N,/TX1*%
%TA.AperFunction,SMDPad,CuDef*%
G36*
G01*
X146682000Y-83392000D02*
X146682000Y-82067000D01*
G75*
G02*
X146757000Y-81992000I75000J0D01*
G01*
X146907000Y-81992000D01*
G75*
G02*
X146982000Y-82067000I0J-75000D01*
G01*
X146982000Y-83392000D01*
G75*
G02*
X146907000Y-83467000I-75000J0D01*
G01*
X146757000Y-83467000D01*
G75*
G02*
X146682000Y-83392000I0J75000D01*
G01*
G37*
%TD.AperFunction*%
%TO.P,IC1,58*%
%TO.N,/RX1*%
%TA.AperFunction,SMDPad,CuDef*%
G36*
G01*
X147182000Y-83392000D02*
X147182000Y-82067000D01*
G75*
G02*
X147257000Y-81992000I75000J0D01*
G01*
X147407000Y-81992000D01*
G75*
G02*
X147482000Y-82067000I0J-75000D01*
G01*
X147482000Y-83392000D01*
G75*
G02*
X147407000Y-83467000I-75000J0D01*
G01*
X147257000Y-83467000D01*
G75*
G02*
X147182000Y-83392000I0J75000D01*
G01*
G37*
%TD.AperFunction*%
%TO.P,IC1,57*%
%TO.N,/VCC*%
%TA.AperFunction,SMDPad,CuDef*%
G36*
G01*
X147682000Y-83392000D02*
X147682000Y-82067000D01*
G75*
G02*
X147757000Y-81992000I75000J0D01*
G01*
X147907000Y-81992000D01*
G75*
G02*
X147982000Y-82067000I0J-75000D01*
G01*
X147982000Y-83392000D01*
G75*
G02*
X147907000Y-83467000I-75000J0D01*
G01*
X147757000Y-83467000D01*
G75*
G02*
X147682000Y-83392000I0J75000D01*
G01*
G37*
%TD.AperFunction*%
%TO.P,IC1,56*%
%TO.N,/GND*%
%TA.AperFunction,SMDPad,CuDef*%
G36*
G01*
X148182000Y-83392000D02*
X148182000Y-82067000D01*
G75*
G02*
X148257000Y-81992000I75000J0D01*
G01*
X148407000Y-81992000D01*
G75*
G02*
X148482000Y-82067000I0J-75000D01*
G01*
X148482000Y-83392000D01*
G75*
G02*
X148407000Y-83467000I-75000J0D01*
G01*
X148257000Y-83467000D01*
G75*
G02*
X148182000Y-83392000I0J75000D01*
G01*
G37*
%TD.AperFunction*%
%TO.P,IC1,55*%
%TO.N,Net-(IC1-Pad55)*%
%TA.AperFunction,SMDPad,CuDef*%
G36*
G01*
X148682000Y-83392000D02*
X148682000Y-82067000D01*
G75*
G02*
X148757000Y-81992000I75000J0D01*
G01*
X148907000Y-81992000D01*
G75*
G02*
X148982000Y-82067000I0J-75000D01*
G01*
X148982000Y-83392000D01*
G75*
G02*
X148907000Y-83467000I-75000J0D01*
G01*
X148757000Y-83467000D01*
G75*
G02*
X148682000Y-83392000I0J75000D01*
G01*
G37*
%TD.AperFunction*%
%TO.P,IC1,54*%
%TO.N,Net-(IC1-Pad54)*%
%TA.AperFunction,SMDPad,CuDef*%
G36*
G01*
X149182000Y-83392000D02*
X149182000Y-82067000D01*
G75*
G02*
X149257000Y-81992000I75000J0D01*
G01*
X149407000Y-81992000D01*
G75*
G02*
X149482000Y-82067000I0J-75000D01*
G01*
X149482000Y-83392000D01*
G75*
G02*
X149407000Y-83467000I-75000J0D01*
G01*
X149257000Y-83467000D01*
G75*
G02*
X149182000Y-83392000I0J75000D01*
G01*
G37*
%TD.AperFunction*%
%TO.P,IC1,53*%
%TO.N,Net-(IC1-Pad53)*%
%TA.AperFunction,SMDPad,CuDef*%
G36*
G01*
X149682000Y-83392000D02*
X149682000Y-82067000D01*
G75*
G02*
X149757000Y-81992000I75000J0D01*
G01*
X149907000Y-81992000D01*
G75*
G02*
X149982000Y-82067000I0J-75000D01*
G01*
X149982000Y-83392000D01*
G75*
G02*
X149907000Y-83467000I-75000J0D01*
G01*
X149757000Y-83467000D01*
G75*
G02*
X149682000Y-83392000I0J75000D01*
G01*
G37*
%TD.AperFunction*%
%TO.P,IC1,52*%
%TO.N,Net-(IC1-Pad52)*%
%TA.AperFunction,SMDPad,CuDef*%
G36*
G01*
X150182000Y-83392000D02*
X150182000Y-82067000D01*
G75*
G02*
X150257000Y-81992000I75000J0D01*
G01*
X150407000Y-81992000D01*
G75*
G02*
X150482000Y-82067000I0J-75000D01*
G01*
X150482000Y-83392000D01*
G75*
G02*
X150407000Y-83467000I-75000J0D01*
G01*
X150257000Y-83467000D01*
G75*
G02*
X150182000Y-83392000I0J75000D01*
G01*
G37*
%TD.AperFunction*%
%TO.P,IC1,51*%
%TO.N,/IR4*%
%TA.AperFunction,SMDPad,CuDef*%
G36*
G01*
X150682000Y-83392000D02*
X150682000Y-82067000D01*
G75*
G02*
X150757000Y-81992000I75000J0D01*
G01*
X150907000Y-81992000D01*
G75*
G02*
X150982000Y-82067000I0J-75000D01*
G01*
X150982000Y-83392000D01*
G75*
G02*
X150907000Y-83467000I-75000J0D01*
G01*
X150757000Y-83467000D01*
G75*
G02*
X150682000Y-83392000I0J75000D01*
G01*
G37*
%TD.AperFunction*%
%TO.P,IC1,50*%
%TO.N,Net-(IC1-Pad50)*%
%TA.AperFunction,SMDPad,CuDef*%
G36*
G01*
X151182000Y-83392000D02*
X151182000Y-82067000D01*
G75*
G02*
X151257000Y-81992000I75000J0D01*
G01*
X151407000Y-81992000D01*
G75*
G02*
X151482000Y-82067000I0J-75000D01*
G01*
X151482000Y-83392000D01*
G75*
G02*
X151407000Y-83467000I-75000J0D01*
G01*
X151257000Y-83467000D01*
G75*
G02*
X151182000Y-83392000I0J75000D01*
G01*
G37*
%TD.AperFunction*%
%TO.P,IC1,49*%
%TO.N,Net-(IC1-Pad49)*%
%TA.AperFunction,SMDPad,CuDef*%
G36*
G01*
X151682000Y-83392000D02*
X151682000Y-82067000D01*
G75*
G02*
X151757000Y-81992000I75000J0D01*
G01*
X151907000Y-81992000D01*
G75*
G02*
X151982000Y-82067000I0J-75000D01*
G01*
X151982000Y-83392000D01*
G75*
G02*
X151907000Y-83467000I-75000J0D01*
G01*
X151757000Y-83467000D01*
G75*
G02*
X151682000Y-83392000I0J75000D01*
G01*
G37*
%TD.AperFunction*%
%TO.P,IC1,48*%
%TO.N,/IR3*%
%TA.AperFunction,SMDPad,CuDef*%
G36*
G01*
X153007000Y-84717000D02*
X153007000Y-84567000D01*
G75*
G02*
X153082000Y-84492000I75000J0D01*
G01*
X154407000Y-84492000D01*
G75*
G02*
X154482000Y-84567000I0J-75000D01*
G01*
X154482000Y-84717000D01*
G75*
G02*
X154407000Y-84792000I-75000J0D01*
G01*
X153082000Y-84792000D01*
G75*
G02*
X153007000Y-84717000I0J75000D01*
G01*
G37*
%TD.AperFunction*%
%TO.P,IC1,47*%
%TO.N,/IR2*%
%TA.AperFunction,SMDPad,CuDef*%
G36*
G01*
X153007000Y-85217000D02*
X153007000Y-85067000D01*
G75*
G02*
X153082000Y-84992000I75000J0D01*
G01*
X154407000Y-84992000D01*
G75*
G02*
X154482000Y-85067000I0J-75000D01*
G01*
X154482000Y-85217000D01*
G75*
G02*
X154407000Y-85292000I-75000J0D01*
G01*
X153082000Y-85292000D01*
G75*
G02*
X153007000Y-85217000I0J75000D01*
G01*
G37*
%TD.AperFunction*%
%TO.P,IC1,46*%
%TO.N,Net-(IC1-Pad46)*%
%TA.AperFunction,SMDPad,CuDef*%
G36*
G01*
X153007000Y-85717000D02*
X153007000Y-85567000D01*
G75*
G02*
X153082000Y-85492000I75000J0D01*
G01*
X154407000Y-85492000D01*
G75*
G02*
X154482000Y-85567000I0J-75000D01*
G01*
X154482000Y-85717000D01*
G75*
G02*
X154407000Y-85792000I-75000J0D01*
G01*
X153082000Y-85792000D01*
G75*
G02*
X153007000Y-85717000I0J75000D01*
G01*
G37*
%TD.AperFunction*%
%TO.P,IC1,45*%
%TO.N,/IR1*%
%TA.AperFunction,SMDPad,CuDef*%
G36*
G01*
X153007000Y-86217000D02*
X153007000Y-86067000D01*
G75*
G02*
X153082000Y-85992000I75000J0D01*
G01*
X154407000Y-85992000D01*
G75*
G02*
X154482000Y-86067000I0J-75000D01*
G01*
X154482000Y-86217000D01*
G75*
G02*
X154407000Y-86292000I-75000J0D01*
G01*
X153082000Y-86292000D01*
G75*
G02*
X153007000Y-86217000I0J75000D01*
G01*
G37*
%TD.AperFunction*%
%TO.P,IC1,44*%
%TO.N,/SDA1*%
%TA.AperFunction,SMDPad,CuDef*%
G36*
G01*
X153007000Y-86717000D02*
X153007000Y-86567000D01*
G75*
G02*
X153082000Y-86492000I75000J0D01*
G01*
X154407000Y-86492000D01*
G75*
G02*
X154482000Y-86567000I0J-75000D01*
G01*
X154482000Y-86717000D01*
G75*
G02*
X154407000Y-86792000I-75000J0D01*
G01*
X153082000Y-86792000D01*
G75*
G02*
X153007000Y-86717000I0J75000D01*
G01*
G37*
%TD.AperFunction*%
%TO.P,IC1,43*%
%TO.N,/SCL*%
%TA.AperFunction,SMDPad,CuDef*%
G36*
G01*
X153007000Y-87217000D02*
X153007000Y-87067000D01*
G75*
G02*
X153082000Y-86992000I75000J0D01*
G01*
X154407000Y-86992000D01*
G75*
G02*
X154482000Y-87067000I0J-75000D01*
G01*
X154482000Y-87217000D01*
G75*
G02*
X154407000Y-87292000I-75000J0D01*
G01*
X153082000Y-87292000D01*
G75*
G02*
X153007000Y-87217000I0J75000D01*
G01*
G37*
%TD.AperFunction*%
%TO.P,IC1,42*%
%TO.N,/INT1*%
%TA.AperFunction,SMDPad,CuDef*%
G36*
G01*
X153007000Y-87717000D02*
X153007000Y-87567000D01*
G75*
G02*
X153082000Y-87492000I75000J0D01*
G01*
X154407000Y-87492000D01*
G75*
G02*
X154482000Y-87567000I0J-75000D01*
G01*
X154482000Y-87717000D01*
G75*
G02*
X154407000Y-87792000I-75000J0D01*
G01*
X153082000Y-87792000D01*
G75*
G02*
X153007000Y-87717000I0J75000D01*
G01*
G37*
%TD.AperFunction*%
%TO.P,IC1,41*%
%TO.N,/GND*%
%TA.AperFunction,SMDPad,CuDef*%
G36*
G01*
X153007000Y-88217000D02*
X153007000Y-88067000D01*
G75*
G02*
X153082000Y-87992000I75000J0D01*
G01*
X154407000Y-87992000D01*
G75*
G02*
X154482000Y-88067000I0J-75000D01*
G01*
X154482000Y-88217000D01*
G75*
G02*
X154407000Y-88292000I-75000J0D01*
G01*
X153082000Y-88292000D01*
G75*
G02*
X153007000Y-88217000I0J75000D01*
G01*
G37*
%TD.AperFunction*%
%TO.P,IC1,40*%
%TO.N,Net-(IC1-Pad40)*%
%TA.AperFunction,SMDPad,CuDef*%
G36*
G01*
X153007000Y-88717000D02*
X153007000Y-88567000D01*
G75*
G02*
X153082000Y-88492000I75000J0D01*
G01*
X154407000Y-88492000D01*
G75*
G02*
X154482000Y-88567000I0J-75000D01*
G01*
X154482000Y-88717000D01*
G75*
G02*
X154407000Y-88792000I-75000J0D01*
G01*
X153082000Y-88792000D01*
G75*
G02*
X153007000Y-88717000I0J75000D01*
G01*
G37*
%TD.AperFunction*%
%TO.P,IC1,39*%
%TO.N,Net-(IC1-Pad39)*%
%TA.AperFunction,SMDPad,CuDef*%
G36*
G01*
X153007000Y-89217000D02*
X153007000Y-89067000D01*
G75*
G02*
X153082000Y-88992000I75000J0D01*
G01*
X154407000Y-88992000D01*
G75*
G02*
X154482000Y-89067000I0J-75000D01*
G01*
X154482000Y-89217000D01*
G75*
G02*
X154407000Y-89292000I-75000J0D01*
G01*
X153082000Y-89292000D01*
G75*
G02*
X153007000Y-89217000I0J75000D01*
G01*
G37*
%TD.AperFunction*%
%TO.P,IC1,38*%
%TO.N,/VCC*%
%TA.AperFunction,SMDPad,CuDef*%
G36*
G01*
X153007000Y-89717000D02*
X153007000Y-89567000D01*
G75*
G02*
X153082000Y-89492000I75000J0D01*
G01*
X154407000Y-89492000D01*
G75*
G02*
X154482000Y-89567000I0J-75000D01*
G01*
X154482000Y-89717000D01*
G75*
G02*
X154407000Y-89792000I-75000J0D01*
G01*
X153082000Y-89792000D01*
G75*
G02*
X153007000Y-89717000I0J75000D01*
G01*
G37*
%TD.AperFunction*%
%TO.P,IC1,37*%
%TO.N,Net-(IC1-Pad37)*%
%TA.AperFunction,SMDPad,CuDef*%
G36*
G01*
X153007000Y-90217000D02*
X153007000Y-90067000D01*
G75*
G02*
X153082000Y-89992000I75000J0D01*
G01*
X154407000Y-89992000D01*
G75*
G02*
X154482000Y-90067000I0J-75000D01*
G01*
X154482000Y-90217000D01*
G75*
G02*
X154407000Y-90292000I-75000J0D01*
G01*
X153082000Y-90292000D01*
G75*
G02*
X153007000Y-90217000I0J75000D01*
G01*
G37*
%TD.AperFunction*%
%TO.P,IC1,36*%
%TO.N,Net-(IC1-Pad36)*%
%TA.AperFunction,SMDPad,CuDef*%
G36*
G01*
X153007000Y-90717000D02*
X153007000Y-90567000D01*
G75*
G02*
X153082000Y-90492000I75000J0D01*
G01*
X154407000Y-90492000D01*
G75*
G02*
X154482000Y-90567000I0J-75000D01*
G01*
X154482000Y-90717000D01*
G75*
G02*
X154407000Y-90792000I-75000J0D01*
G01*
X153082000Y-90792000D01*
G75*
G02*
X153007000Y-90717000I0J75000D01*
G01*
G37*
%TD.AperFunction*%
%TO.P,IC1,35*%
%TO.N,/VCC*%
%TA.AperFunction,SMDPad,CuDef*%
G36*
G01*
X153007000Y-91217000D02*
X153007000Y-91067000D01*
G75*
G02*
X153082000Y-90992000I75000J0D01*
G01*
X154407000Y-90992000D01*
G75*
G02*
X154482000Y-91067000I0J-75000D01*
G01*
X154482000Y-91217000D01*
G75*
G02*
X154407000Y-91292000I-75000J0D01*
G01*
X153082000Y-91292000D01*
G75*
G02*
X153007000Y-91217000I0J75000D01*
G01*
G37*
%TD.AperFunction*%
%TO.P,IC1,34*%
%TO.N,Net-(IC1-Pad34)*%
%TA.AperFunction,SMDPad,CuDef*%
G36*
G01*
X153007000Y-91717000D02*
X153007000Y-91567000D01*
G75*
G02*
X153082000Y-91492000I75000J0D01*
G01*
X154407000Y-91492000D01*
G75*
G02*
X154482000Y-91567000I0J-75000D01*
G01*
X154482000Y-91717000D01*
G75*
G02*
X154407000Y-91792000I-75000J0D01*
G01*
X153082000Y-91792000D01*
G75*
G02*
X153007000Y-91717000I0J75000D01*
G01*
G37*
%TD.AperFunction*%
%TO.P,IC1,33*%
%TO.N,Net-(IC1-Pad33)*%
%TA.AperFunction,SMDPad,CuDef*%
G36*
G01*
X153007000Y-92217000D02*
X153007000Y-92067000D01*
G75*
G02*
X153082000Y-91992000I75000J0D01*
G01*
X154407000Y-91992000D01*
G75*
G02*
X154482000Y-92067000I0J-75000D01*
G01*
X154482000Y-92217000D01*
G75*
G02*
X154407000Y-92292000I-75000J0D01*
G01*
X153082000Y-92292000D01*
G75*
G02*
X153007000Y-92217000I0J75000D01*
G01*
G37*
%TD.AperFunction*%
%TO.P,IC1,32*%
%TO.N,Net-(IC1-Pad32)*%
%TA.AperFunction,SMDPad,CuDef*%
G36*
G01*
X151682000Y-94717000D02*
X151682000Y-93392000D01*
G75*
G02*
X151757000Y-93317000I75000J0D01*
G01*
X151907000Y-93317000D01*
G75*
G02*
X151982000Y-93392000I0J-75000D01*
G01*
X151982000Y-94717000D01*
G75*
G02*
X151907000Y-94792000I-75000J0D01*
G01*
X151757000Y-94792000D01*
G75*
G02*
X151682000Y-94717000I0J75000D01*
G01*
G37*
%TD.AperFunction*%
%TO.P,IC1,31*%
%TO.N,Net-(IC1-Pad31)*%
%TA.AperFunction,SMDPad,CuDef*%
G36*
G01*
X151182000Y-94717000D02*
X151182000Y-93392000D01*
G75*
G02*
X151257000Y-93317000I75000J0D01*
G01*
X151407000Y-93317000D01*
G75*
G02*
X151482000Y-93392000I0J-75000D01*
G01*
X151482000Y-94717000D01*
G75*
G02*
X151407000Y-94792000I-75000J0D01*
G01*
X151257000Y-94792000D01*
G75*
G02*
X151182000Y-94717000I0J75000D01*
G01*
G37*
%TD.AperFunction*%
%TO.P,IC1,30*%
%TO.N,Net-(IC1-Pad30)*%
%TA.AperFunction,SMDPad,CuDef*%
G36*
G01*
X150682000Y-94717000D02*
X150682000Y-93392000D01*
G75*
G02*
X150757000Y-93317000I75000J0D01*
G01*
X150907000Y-93317000D01*
G75*
G02*
X150982000Y-93392000I0J-75000D01*
G01*
X150982000Y-94717000D01*
G75*
G02*
X150907000Y-94792000I-75000J0D01*
G01*
X150757000Y-94792000D01*
G75*
G02*
X150682000Y-94717000I0J75000D01*
G01*
G37*
%TD.AperFunction*%
%TO.P,IC1,29*%
%TO.N,Net-(IC1-Pad29)*%
%TA.AperFunction,SMDPad,CuDef*%
G36*
G01*
X150182000Y-94717000D02*
X150182000Y-93392000D01*
G75*
G02*
X150257000Y-93317000I75000J0D01*
G01*
X150407000Y-93317000D01*
G75*
G02*
X150482000Y-93392000I0J-75000D01*
G01*
X150482000Y-94717000D01*
G75*
G02*
X150407000Y-94792000I-75000J0D01*
G01*
X150257000Y-94792000D01*
G75*
G02*
X150182000Y-94717000I0J75000D01*
G01*
G37*
%TD.AperFunction*%
%TO.P,IC1,28*%
%TO.N,Net-(IC1-Pad28)*%
%TA.AperFunction,SMDPad,CuDef*%
G36*
G01*
X149682000Y-94717000D02*
X149682000Y-93392000D01*
G75*
G02*
X149757000Y-93317000I75000J0D01*
G01*
X149907000Y-93317000D01*
G75*
G02*
X149982000Y-93392000I0J-75000D01*
G01*
X149982000Y-94717000D01*
G75*
G02*
X149907000Y-94792000I-75000J0D01*
G01*
X149757000Y-94792000D01*
G75*
G02*
X149682000Y-94717000I0J75000D01*
G01*
G37*
%TD.AperFunction*%
%TO.P,IC1,27*%
%TO.N,Net-(IC1-Pad27)*%
%TA.AperFunction,SMDPad,CuDef*%
G36*
G01*
X149182000Y-94717000D02*
X149182000Y-93392000D01*
G75*
G02*
X149257000Y-93317000I75000J0D01*
G01*
X149407000Y-93317000D01*
G75*
G02*
X149482000Y-93392000I0J-75000D01*
G01*
X149482000Y-94717000D01*
G75*
G02*
X149407000Y-94792000I-75000J0D01*
G01*
X149257000Y-94792000D01*
G75*
G02*
X149182000Y-94717000I0J75000D01*
G01*
G37*
%TD.AperFunction*%
%TO.P,IC1,26*%
%TO.N,/VCC*%
%TA.AperFunction,SMDPad,CuDef*%
G36*
G01*
X148682000Y-94717000D02*
X148682000Y-93392000D01*
G75*
G02*
X148757000Y-93317000I75000J0D01*
G01*
X148907000Y-93317000D01*
G75*
G02*
X148982000Y-93392000I0J-75000D01*
G01*
X148982000Y-94717000D01*
G75*
G02*
X148907000Y-94792000I-75000J0D01*
G01*
X148757000Y-94792000D01*
G75*
G02*
X148682000Y-94717000I0J75000D01*
G01*
G37*
%TD.AperFunction*%
%TO.P,IC1,25*%
%TO.N,/GND*%
%TA.AperFunction,SMDPad,CuDef*%
G36*
G01*
X148182000Y-94717000D02*
X148182000Y-93392000D01*
G75*
G02*
X148257000Y-93317000I75000J0D01*
G01*
X148407000Y-93317000D01*
G75*
G02*
X148482000Y-93392000I0J-75000D01*
G01*
X148482000Y-94717000D01*
G75*
G02*
X148407000Y-94792000I-75000J0D01*
G01*
X148257000Y-94792000D01*
G75*
G02*
X148182000Y-94717000I0J75000D01*
G01*
G37*
%TD.AperFunction*%
%TO.P,IC1,24*%
%TO.N,Net-(IC1-Pad24)*%
%TA.AperFunction,SMDPad,CuDef*%
G36*
G01*
X147682000Y-94717000D02*
X147682000Y-93392000D01*
G75*
G02*
X147757000Y-93317000I75000J0D01*
G01*
X147907000Y-93317000D01*
G75*
G02*
X147982000Y-93392000I0J-75000D01*
G01*
X147982000Y-94717000D01*
G75*
G02*
X147907000Y-94792000I-75000J0D01*
G01*
X147757000Y-94792000D01*
G75*
G02*
X147682000Y-94717000I0J75000D01*
G01*
G37*
%TD.AperFunction*%
%TO.P,IC1,23*%
%TO.N,Net-(IC1-Pad23)*%
%TA.AperFunction,SMDPad,CuDef*%
G36*
G01*
X147182000Y-94717000D02*
X147182000Y-93392000D01*
G75*
G02*
X147257000Y-93317000I75000J0D01*
G01*
X147407000Y-93317000D01*
G75*
G02*
X147482000Y-93392000I0J-75000D01*
G01*
X147482000Y-94717000D01*
G75*
G02*
X147407000Y-94792000I-75000J0D01*
G01*
X147257000Y-94792000D01*
G75*
G02*
X147182000Y-94717000I0J75000D01*
G01*
G37*
%TD.AperFunction*%
%TO.P,IC1,22*%
%TO.N,Net-(IC1-Pad22)*%
%TA.AperFunction,SMDPad,CuDef*%
G36*
G01*
X146682000Y-94717000D02*
X146682000Y-93392000D01*
G75*
G02*
X146757000Y-93317000I75000J0D01*
G01*
X146907000Y-93317000D01*
G75*
G02*
X146982000Y-93392000I0J-75000D01*
G01*
X146982000Y-94717000D01*
G75*
G02*
X146907000Y-94792000I-75000J0D01*
G01*
X146757000Y-94792000D01*
G75*
G02*
X146682000Y-94717000I0J75000D01*
G01*
G37*
%TD.AperFunction*%
%TO.P,IC1,21*%
%TO.N,Net-(IC1-Pad21)*%
%TA.AperFunction,SMDPad,CuDef*%
G36*
G01*
X146182000Y-94717000D02*
X146182000Y-93392000D01*
G75*
G02*
X146257000Y-93317000I75000J0D01*
G01*
X146407000Y-93317000D01*
G75*
G02*
X146482000Y-93392000I0J-75000D01*
G01*
X146482000Y-94717000D01*
G75*
G02*
X146407000Y-94792000I-75000J0D01*
G01*
X146257000Y-94792000D01*
G75*
G02*
X146182000Y-94717000I0J75000D01*
G01*
G37*
%TD.AperFunction*%
%TO.P,IC1,20*%
%TO.N,/GND*%
%TA.AperFunction,SMDPad,CuDef*%
G36*
G01*
X145682000Y-94717000D02*
X145682000Y-93392000D01*
G75*
G02*
X145757000Y-93317000I75000J0D01*
G01*
X145907000Y-93317000D01*
G75*
G02*
X145982000Y-93392000I0J-75000D01*
G01*
X145982000Y-94717000D01*
G75*
G02*
X145907000Y-94792000I-75000J0D01*
G01*
X145757000Y-94792000D01*
G75*
G02*
X145682000Y-94717000I0J75000D01*
G01*
G37*
%TD.AperFunction*%
%TO.P,IC1,19*%
%TO.N,/VCC*%
%TA.AperFunction,SMDPad,CuDef*%
G36*
G01*
X145182000Y-94717000D02*
X145182000Y-93392000D01*
G75*
G02*
X145257000Y-93317000I75000J0D01*
G01*
X145407000Y-93317000D01*
G75*
G02*
X145482000Y-93392000I0J-75000D01*
G01*
X145482000Y-94717000D01*
G75*
G02*
X145407000Y-94792000I-75000J0D01*
G01*
X145257000Y-94792000D01*
G75*
G02*
X145182000Y-94717000I0J75000D01*
G01*
G37*
%TD.AperFunction*%
%TO.P,IC1,18*%
%TO.N,/PGD*%
%TA.AperFunction,SMDPad,CuDef*%
G36*
G01*
X144682000Y-94717000D02*
X144682000Y-93392000D01*
G75*
G02*
X144757000Y-93317000I75000J0D01*
G01*
X144907000Y-93317000D01*
G75*
G02*
X144982000Y-93392000I0J-75000D01*
G01*
X144982000Y-94717000D01*
G75*
G02*
X144907000Y-94792000I-75000J0D01*
G01*
X144757000Y-94792000D01*
G75*
G02*
X144682000Y-94717000I0J75000D01*
G01*
G37*
%TD.AperFunction*%
%TO.P,IC1,17*%
%TO.N,/PGC*%
%TA.AperFunction,SMDPad,CuDef*%
G36*
G01*
X144182000Y-94717000D02*
X144182000Y-93392000D01*
G75*
G02*
X144257000Y-93317000I75000J0D01*
G01*
X144407000Y-93317000D01*
G75*
G02*
X144482000Y-93392000I0J-75000D01*
G01*
X144482000Y-94717000D01*
G75*
G02*
X144407000Y-94792000I-75000J0D01*
G01*
X144257000Y-94792000D01*
G75*
G02*
X144182000Y-94717000I0J75000D01*
G01*
G37*
%TD.AperFunction*%
%TO.P,IC1,16*%
%TO.N,/L4*%
%TA.AperFunction,SMDPad,CuDef*%
G36*
G01*
X141682000Y-92217000D02*
X141682000Y-92067000D01*
G75*
G02*
X141757000Y-91992000I75000J0D01*
G01*
X143082000Y-91992000D01*
G75*
G02*
X143157000Y-92067000I0J-75000D01*
G01*
X143157000Y-92217000D01*
G75*
G02*
X143082000Y-92292000I-75000J0D01*
G01*
X141757000Y-92292000D01*
G75*
G02*
X141682000Y-92217000I0J75000D01*
G01*
G37*
%TD.AperFunction*%
%TO.P,IC1,15*%
%TO.N,/L3*%
%TA.AperFunction,SMDPad,CuDef*%
G36*
G01*
X141682000Y-91717000D02*
X141682000Y-91567000D01*
G75*
G02*
X141757000Y-91492000I75000J0D01*
G01*
X143082000Y-91492000D01*
G75*
G02*
X143157000Y-91567000I0J-75000D01*
G01*
X143157000Y-91717000D01*
G75*
G02*
X143082000Y-91792000I-75000J0D01*
G01*
X141757000Y-91792000D01*
G75*
G02*
X141682000Y-91717000I0J75000D01*
G01*
G37*
%TD.AperFunction*%
%TO.P,IC1,14*%
%TO.N,/PWM2*%
%TA.AperFunction,SMDPad,CuDef*%
G36*
G01*
X141682000Y-91217000D02*
X141682000Y-91067000D01*
G75*
G02*
X141757000Y-90992000I75000J0D01*
G01*
X143082000Y-90992000D01*
G75*
G02*
X143157000Y-91067000I0J-75000D01*
G01*
X143157000Y-91217000D01*
G75*
G02*
X143082000Y-91292000I-75000J0D01*
G01*
X141757000Y-91292000D01*
G75*
G02*
X141682000Y-91217000I0J75000D01*
G01*
G37*
%TD.AperFunction*%
%TO.P,IC1,13*%
%TO.N,/PWM1*%
%TA.AperFunction,SMDPad,CuDef*%
G36*
G01*
X141682000Y-90717000D02*
X141682000Y-90567000D01*
G75*
G02*
X141757000Y-90492000I75000J0D01*
G01*
X143082000Y-90492000D01*
G75*
G02*
X143157000Y-90567000I0J-75000D01*
G01*
X143157000Y-90717000D01*
G75*
G02*
X143082000Y-90792000I-75000J0D01*
G01*
X141757000Y-90792000D01*
G75*
G02*
X141682000Y-90717000I0J75000D01*
G01*
G37*
%TD.AperFunction*%
%TO.P,IC1,12*%
%TO.N,/L2*%
%TA.AperFunction,SMDPad,CuDef*%
G36*
G01*
X141682000Y-90217000D02*
X141682000Y-90067000D01*
G75*
G02*
X141757000Y-89992000I75000J0D01*
G01*
X143082000Y-89992000D01*
G75*
G02*
X143157000Y-90067000I0J-75000D01*
G01*
X143157000Y-90217000D01*
G75*
G02*
X143082000Y-90292000I-75000J0D01*
G01*
X141757000Y-90292000D01*
G75*
G02*
X141682000Y-90217000I0J75000D01*
G01*
G37*
%TD.AperFunction*%
%TO.P,IC1,11*%
%TO.N,/L1*%
%TA.AperFunction,SMDPad,CuDef*%
G36*
G01*
X141682000Y-89717000D02*
X141682000Y-89567000D01*
G75*
G02*
X141757000Y-89492000I75000J0D01*
G01*
X143082000Y-89492000D01*
G75*
G02*
X143157000Y-89567000I0J-75000D01*
G01*
X143157000Y-89717000D01*
G75*
G02*
X143082000Y-89792000I-75000J0D01*
G01*
X141757000Y-89792000D01*
G75*
G02*
X141682000Y-89717000I0J75000D01*
G01*
G37*
%TD.AperFunction*%
%TO.P,IC1,10*%
%TO.N,/VCC*%
%TA.AperFunction,SMDPad,CuDef*%
G36*
G01*
X141682000Y-89217000D02*
X141682000Y-89067000D01*
G75*
G02*
X141757000Y-88992000I75000J0D01*
G01*
X143082000Y-88992000D01*
G75*
G02*
X143157000Y-89067000I0J-75000D01*
G01*
X143157000Y-89217000D01*
G75*
G02*
X143082000Y-89292000I-75000J0D01*
G01*
X141757000Y-89292000D01*
G75*
G02*
X141682000Y-89217000I0J75000D01*
G01*
G37*
%TD.AperFunction*%
%TO.P,IC1,9*%
%TO.N,/GND*%
%TA.AperFunction,SMDPad,CuDef*%
G36*
G01*
X141682000Y-88717000D02*
X141682000Y-88567000D01*
G75*
G02*
X141757000Y-88492000I75000J0D01*
G01*
X143082000Y-88492000D01*
G75*
G02*
X143157000Y-88567000I0J-75000D01*
G01*
X143157000Y-88717000D01*
G75*
G02*
X143082000Y-88792000I-75000J0D01*
G01*
X141757000Y-88792000D01*
G75*
G02*
X141682000Y-88717000I0J75000D01*
G01*
G37*
%TD.AperFunction*%
%TO.P,IC1,8*%
%TO.N,Net-(IC1-Pad8)*%
%TA.AperFunction,SMDPad,CuDef*%
G36*
G01*
X141682000Y-88217000D02*
X141682000Y-88067000D01*
G75*
G02*
X141757000Y-87992000I75000J0D01*
G01*
X143082000Y-87992000D01*
G75*
G02*
X143157000Y-88067000I0J-75000D01*
G01*
X143157000Y-88217000D01*
G75*
G02*
X143082000Y-88292000I-75000J0D01*
G01*
X141757000Y-88292000D01*
G75*
G02*
X141682000Y-88217000I0J75000D01*
G01*
G37*
%TD.AperFunction*%
%TO.P,IC1,7*%
%TO.N,/MCLR*%
%TA.AperFunction,SMDPad,CuDef*%
G36*
G01*
X141682000Y-87717000D02*
X141682000Y-87567000D01*
G75*
G02*
X141757000Y-87492000I75000J0D01*
G01*
X143082000Y-87492000D01*
G75*
G02*
X143157000Y-87567000I0J-75000D01*
G01*
X143157000Y-87717000D01*
G75*
G02*
X143082000Y-87792000I-75000J0D01*
G01*
X141757000Y-87792000D01*
G75*
G02*
X141682000Y-87717000I0J75000D01*
G01*
G37*
%TD.AperFunction*%
%TO.P,IC1,6*%
%TO.N,Net-(IC1-Pad6)*%
%TA.AperFunction,SMDPad,CuDef*%
G36*
G01*
X141682000Y-87217000D02*
X141682000Y-87067000D01*
G75*
G02*
X141757000Y-86992000I75000J0D01*
G01*
X143082000Y-86992000D01*
G75*
G02*
X143157000Y-87067000I0J-75000D01*
G01*
X143157000Y-87217000D01*
G75*
G02*
X143082000Y-87292000I-75000J0D01*
G01*
X141757000Y-87292000D01*
G75*
G02*
X141682000Y-87217000I0J75000D01*
G01*
G37*
%TD.AperFunction*%
%TO.P,IC1,5*%
%TO.N,Net-(IC1-Pad5)*%
%TA.AperFunction,SMDPad,CuDef*%
G36*
G01*
X141682000Y-86717000D02*
X141682000Y-86567000D01*
G75*
G02*
X141757000Y-86492000I75000J0D01*
G01*
X143082000Y-86492000D01*
G75*
G02*
X143157000Y-86567000I0J-75000D01*
G01*
X143157000Y-86717000D01*
G75*
G02*
X143082000Y-86792000I-75000J0D01*
G01*
X141757000Y-86792000D01*
G75*
G02*
X141682000Y-86717000I0J75000D01*
G01*
G37*
%TD.AperFunction*%
%TO.P,IC1,4*%
%TO.N,Net-(IC1-Pad4)*%
%TA.AperFunction,SMDPad,CuDef*%
G36*
G01*
X141682000Y-86217000D02*
X141682000Y-86067000D01*
G75*
G02*
X141757000Y-85992000I75000J0D01*
G01*
X143082000Y-85992000D01*
G75*
G02*
X143157000Y-86067000I0J-75000D01*
G01*
X143157000Y-86217000D01*
G75*
G02*
X143082000Y-86292000I-75000J0D01*
G01*
X141757000Y-86292000D01*
G75*
G02*
X141682000Y-86217000I0J75000D01*
G01*
G37*
%TD.AperFunction*%
%TO.P,IC1,3*%
%TO.N,Net-(IC1-Pad3)*%
%TA.AperFunction,SMDPad,CuDef*%
G36*
G01*
X141682000Y-85717000D02*
X141682000Y-85567000D01*
G75*
G02*
X141757000Y-85492000I75000J0D01*
G01*
X143082000Y-85492000D01*
G75*
G02*
X143157000Y-85567000I0J-75000D01*
G01*
X143157000Y-85717000D01*
G75*
G02*
X143082000Y-85792000I-75000J0D01*
G01*
X141757000Y-85792000D01*
G75*
G02*
X141682000Y-85717000I0J75000D01*
G01*
G37*
%TD.AperFunction*%
%TO.P,IC1,2*%
%TO.N,Net-(IC1-Pad2)*%
%TA.AperFunction,SMDPad,CuDef*%
G36*
G01*
X141682000Y-85217000D02*
X141682000Y-85067000D01*
G75*
G02*
X141757000Y-84992000I75000J0D01*
G01*
X143082000Y-84992000D01*
G75*
G02*
X143157000Y-85067000I0J-75000D01*
G01*
X143157000Y-85217000D01*
G75*
G02*
X143082000Y-85292000I-75000J0D01*
G01*
X141757000Y-85292000D01*
G75*
G02*
X141682000Y-85217000I0J75000D01*
G01*
G37*
%TD.AperFunction*%
%TO.P,IC1,1*%
%TO.N,Net-(Duser1-Pad2)*%
%TA.AperFunction,SMDPad,CuDef*%
G36*
G01*
X141682000Y-84717000D02*
X141682000Y-84567000D01*
G75*
G02*
X141757000Y-84492000I75000J0D01*
G01*
X143082000Y-84492000D01*
G75*
G02*
X143157000Y-84567000I0J-75000D01*
G01*
X143157000Y-84717000D01*
G75*
G02*
X143082000Y-84792000I-75000J0D01*
G01*
X141757000Y-84792000D01*
G75*
G02*
X141682000Y-84717000I0J75000D01*
G01*
G37*
%TD.AperFunction*%
%TD*%
%TO.P,ON,2*%
%TO.N,Net-(Duser1-Pad2)*%
%TA.AperFunction,SMDPad,CuDef*%
G36*
G01*
X138313000Y-81547000D02*
X139563000Y-81547000D01*
G75*
G02*
X139813000Y-81797000I0J-250000D01*
G01*
X139813000Y-82547000D01*
G75*
G02*
X139563000Y-82797000I-250000J0D01*
G01*
X138313000Y-82797000D01*
G75*
G02*
X138063000Y-82547000I0J250000D01*
G01*
X138063000Y-81797000D01*
G75*
G02*
X138313000Y-81547000I250000J0D01*
G01*
G37*
%TD.AperFunction*%
%TO.P,ON,1*%
%TO.N,/GND*%
%TA.AperFunction,SMDPad,CuDef*%
G36*
G01*
X138313000Y-78747000D02*
X139563000Y-78747000D01*
G75*
G02*
X139813000Y-78997000I0J-250000D01*
G01*
X139813000Y-79747000D01*
G75*
G02*
X139563000Y-79997000I-250000J0D01*
G01*
X138313000Y-79997000D01*
G75*
G02*
X138063000Y-79747000I0J250000D01*
G01*
X138063000Y-78997000D01*
G75*
G02*
X138313000Y-78747000I250000J0D01*
G01*
G37*
%TD.AperFunction*%
%TD*%
D19*
%TO.P,D1,2*%
%TO.N,/GND*%
X130048000Y-67690000D03*
%TO.P,D1,1*%
%TO.N,Net-(C8-Pad1)*%
X130048000Y-64390000D03*
%TD*%
%TO.P,Css1,2*%
%TO.N,/GND*%
%TA.AperFunction,SMDPad,CuDef*%
G36*
G01*
X116443999Y-75068000D02*
X117744001Y-75068000D01*
G75*
G02*
X117994000Y-75317999I0J-249999D01*
G01*
X117994000Y-75968001D01*
G75*
G02*
X117744001Y-76218000I-249999J0D01*
G01*
X116443999Y-76218000D01*
G75*
G02*
X116194000Y-75968001I0J249999D01*
G01*
X116194000Y-75317999D01*
G75*
G02*
X116443999Y-75068000I249999J0D01*
G01*
G37*
%TD.AperFunction*%
%TO.P,Css1,1*%
%TO.N,Net-(Css1-Pad1)*%
%TA.AperFunction,SMDPad,CuDef*%
G36*
G01*
X116443999Y-72118000D02*
X117744001Y-72118000D01*
G75*
G02*
X117994000Y-72367999I0J-249999D01*
G01*
X117994000Y-73018001D01*
G75*
G02*
X117744001Y-73268000I-249999J0D01*
G01*
X116443999Y-73268000D01*
G75*
G02*
X116194000Y-73018001I0J249999D01*
G01*
X116194000Y-72367999D01*
G75*
G02*
X116443999Y-72118000I249999J0D01*
G01*
G37*
%TD.AperFunction*%
%TD*%
%TO.P,C11,2*%
%TO.N,/GND*%
%TA.AperFunction,SMDPad,CuDef*%
G36*
G01*
X137779999Y-66940000D02*
X139080001Y-66940000D01*
G75*
G02*
X139330000Y-67189999I0J-249999D01*
G01*
X139330000Y-67840001D01*
G75*
G02*
X139080001Y-68090000I-249999J0D01*
G01*
X137779999Y-68090000D01*
G75*
G02*
X137530000Y-67840001I0J249999D01*
G01*
X137530000Y-67189999D01*
G75*
G02*
X137779999Y-66940000I249999J0D01*
G01*
G37*
%TD.AperFunction*%
%TO.P,C11,1*%
%TO.N,Net-(C11-Pad1)*%
%TA.AperFunction,SMDPad,CuDef*%
G36*
G01*
X137779999Y-63990000D02*
X139080001Y-63990000D01*
G75*
G02*
X139330000Y-64239999I0J-249999D01*
G01*
X139330000Y-64890001D01*
G75*
G02*
X139080001Y-65140000I-249999J0D01*
G01*
X137779999Y-65140000D01*
G75*
G02*
X137530000Y-64890001I0J249999D01*
G01*
X137530000Y-64239999D01*
G75*
G02*
X137779999Y-63990000I249999J0D01*
G01*
G37*
%TD.AperFunction*%
%TD*%
%TO.P,C10,2*%
%TO.N,/GND*%
%TA.AperFunction,SMDPad,CuDef*%
G36*
G01*
X130698001Y-70474000D02*
X129397999Y-70474000D01*
G75*
G02*
X129148000Y-70224001I0J249999D01*
G01*
X129148000Y-69573999D01*
G75*
G02*
X129397999Y-69324000I249999J0D01*
G01*
X130698001Y-69324000D01*
G75*
G02*
X130948000Y-69573999I0J-249999D01*
G01*
X130948000Y-70224001D01*
G75*
G02*
X130698001Y-70474000I-249999J0D01*
G01*
G37*
%TD.AperFunction*%
%TO.P,C10,1*%
%TO.N,Net-(C10-Pad1)*%
%TA.AperFunction,SMDPad,CuDef*%
G36*
G01*
X130698001Y-73424000D02*
X129397999Y-73424000D01*
G75*
G02*
X129148000Y-73174001I0J249999D01*
G01*
X129148000Y-72523999D01*
G75*
G02*
X129397999Y-72274000I249999J0D01*
G01*
X130698001Y-72274000D01*
G75*
G02*
X130948000Y-72523999I0J-249999D01*
G01*
X130948000Y-73174001D01*
G75*
G02*
X130698001Y-73424000I-249999J0D01*
G01*
G37*
%TD.AperFunction*%
%TD*%
%TO.P,C9,2*%
%TO.N,Net-(C9-Pad2)*%
%TA.AperFunction,SMDPad,CuDef*%
G36*
G01*
X132218000Y-76088001D02*
X132218000Y-74787999D01*
G75*
G02*
X132467999Y-74538000I249999J0D01*
G01*
X133118001Y-74538000D01*
G75*
G02*
X133368000Y-74787999I0J-249999D01*
G01*
X133368000Y-76088001D01*
G75*
G02*
X133118001Y-76338000I-249999J0D01*
G01*
X132467999Y-76338000D01*
G75*
G02*
X132218000Y-76088001I0J249999D01*
G01*
G37*
%TD.AperFunction*%
%TO.P,C9,1*%
%TO.N,Net-(C10-Pad1)*%
%TA.AperFunction,SMDPad,CuDef*%
G36*
G01*
X129268000Y-76088001D02*
X129268000Y-74787999D01*
G75*
G02*
X129517999Y-74538000I249999J0D01*
G01*
X130168001Y-74538000D01*
G75*
G02*
X130418000Y-74787999I0J-249999D01*
G01*
X130418000Y-76088001D01*
G75*
G02*
X130168001Y-76338000I-249999J0D01*
G01*
X129517999Y-76338000D01*
G75*
G02*
X129268000Y-76088001I0J249999D01*
G01*
G37*
%TD.AperFunction*%
%TD*%
%TO.P,C8,2*%
%TO.N,Net-(C8-Pad2)*%
%TA.AperFunction,SMDPad,CuDef*%
G36*
G01*
X122036000Y-65135999D02*
X122036000Y-66436001D01*
G75*
G02*
X121786001Y-66686000I-249999J0D01*
G01*
X121135999Y-66686000D01*
G75*
G02*
X120886000Y-66436001I0J249999D01*
G01*
X120886000Y-65135999D01*
G75*
G02*
X121135999Y-64886000I249999J0D01*
G01*
X121786001Y-64886000D01*
G75*
G02*
X122036000Y-65135999I0J-249999D01*
G01*
G37*
%TD.AperFunction*%
%TO.P,C8,1*%
%TO.N,Net-(C8-Pad1)*%
%TA.AperFunction,SMDPad,CuDef*%
G36*
G01*
X124986000Y-65135999D02*
X124986000Y-66436001D01*
G75*
G02*
X124736001Y-66686000I-249999J0D01*
G01*
X124085999Y-66686000D01*
G75*
G02*
X123836000Y-66436001I0J249999D01*
G01*
X123836000Y-65135999D01*
G75*
G02*
X124085999Y-64886000I249999J0D01*
G01*
X124736001Y-64886000D01*
G75*
G02*
X124986000Y-65135999I0J-249999D01*
G01*
G37*
%TD.AperFunction*%
%TD*%
%TO.P,C7,2*%
%TO.N,/VCC*%
%TA.AperFunction,SMDPad,CuDef*%
G36*
G01*
X116982001Y-67934000D02*
X115681999Y-67934000D01*
G75*
G02*
X115432000Y-67684001I0J249999D01*
G01*
X115432000Y-67033999D01*
G75*
G02*
X115681999Y-66784000I249999J0D01*
G01*
X116982001Y-66784000D01*
G75*
G02*
X117232000Y-67033999I0J-249999D01*
G01*
X117232000Y-67684001D01*
G75*
G02*
X116982001Y-67934000I-249999J0D01*
G01*
G37*
%TD.AperFunction*%
%TO.P,C7,1*%
%TO.N,/GND*%
%TA.AperFunction,SMDPad,CuDef*%
G36*
G01*
X116982001Y-70884000D02*
X115681999Y-70884000D01*
G75*
G02*
X115432000Y-70634001I0J249999D01*
G01*
X115432000Y-69983999D01*
G75*
G02*
X115681999Y-69734000I249999J0D01*
G01*
X116982001Y-69734000D01*
G75*
G02*
X117232000Y-69983999I0J-249999D01*
G01*
X117232000Y-70634001D01*
G75*
G02*
X116982001Y-70884000I-249999J0D01*
G01*
G37*
%TD.AperFunction*%
%TD*%
%TO.P,C5,2*%
%TO.N,/GND*%
%TA.AperFunction,SMDPad,CuDef*%
G36*
G01*
X150225999Y-99706000D02*
X151526001Y-99706000D01*
G75*
G02*
X151776000Y-99955999I0J-249999D01*
G01*
X151776000Y-100606001D01*
G75*
G02*
X151526001Y-100856000I-249999J0D01*
G01*
X150225999Y-100856000D01*
G75*
G02*
X149976000Y-100606001I0J249999D01*
G01*
X149976000Y-99955999D01*
G75*
G02*
X150225999Y-99706000I249999J0D01*
G01*
G37*
%TD.AperFunction*%
%TO.P,C5,1*%
%TO.N,/VCC*%
%TA.AperFunction,SMDPad,CuDef*%
G36*
G01*
X150225999Y-96756000D02*
X151526001Y-96756000D01*
G75*
G02*
X151776000Y-97005999I0J-249999D01*
G01*
X151776000Y-97656001D01*
G75*
G02*
X151526001Y-97906000I-249999J0D01*
G01*
X150225999Y-97906000D01*
G75*
G02*
X149976000Y-97656001I0J249999D01*
G01*
X149976000Y-97005999D01*
G75*
G02*
X150225999Y-96756000I249999J0D01*
G01*
G37*
%TD.AperFunction*%
%TD*%
%TO.P,C3,2*%
%TO.N,/VCC*%
%TA.AperFunction,SMDPad,CuDef*%
G36*
G01*
X141589999Y-75830000D02*
X142890001Y-75830000D01*
G75*
G02*
X143140000Y-76079999I0J-249999D01*
G01*
X143140000Y-76730001D01*
G75*
G02*
X142890001Y-76980000I-249999J0D01*
G01*
X141589999Y-76980000D01*
G75*
G02*
X141340000Y-76730001I0J249999D01*
G01*
X141340000Y-76079999D01*
G75*
G02*
X141589999Y-75830000I249999J0D01*
G01*
G37*
%TD.AperFunction*%
%TO.P,C3,1*%
%TO.N,Net-(C3-Pad1)*%
%TA.AperFunction,SMDPad,CuDef*%
G36*
G01*
X141589999Y-72880000D02*
X142890001Y-72880000D01*
G75*
G02*
X143140000Y-73129999I0J-249999D01*
G01*
X143140000Y-73780001D01*
G75*
G02*
X142890001Y-74030000I-249999J0D01*
G01*
X141589999Y-74030000D01*
G75*
G02*
X141340000Y-73780001I0J249999D01*
G01*
X141340000Y-73129999D01*
G75*
G02*
X141589999Y-72880000I249999J0D01*
G01*
G37*
%TD.AperFunction*%
%TD*%
%TO.P,C2,2*%
%TO.N,/VCC*%
%TA.AperFunction,SMDPad,CuDef*%
G36*
G01*
X144156000Y-98440001D02*
X144156000Y-97139999D01*
G75*
G02*
X144405999Y-96890000I249999J0D01*
G01*
X145056001Y-96890000D01*
G75*
G02*
X145306000Y-97139999I0J-249999D01*
G01*
X145306000Y-98440001D01*
G75*
G02*
X145056001Y-98690000I-249999J0D01*
G01*
X144405999Y-98690000D01*
G75*
G02*
X144156000Y-98440001I0J249999D01*
G01*
G37*
%TD.AperFunction*%
%TO.P,C2,1*%
%TO.N,/GND*%
%TA.AperFunction,SMDPad,CuDef*%
G36*
G01*
X141206000Y-98440001D02*
X141206000Y-97139999D01*
G75*
G02*
X141455999Y-96890000I249999J0D01*
G01*
X142106001Y-96890000D01*
G75*
G02*
X142356000Y-97139999I0J-249999D01*
G01*
X142356000Y-98440001D01*
G75*
G02*
X142106001Y-98690000I-249999J0D01*
G01*
X141455999Y-98690000D01*
G75*
G02*
X141206000Y-98440001I0J249999D01*
G01*
G37*
%TD.AperFunction*%
%TD*%
%TO.P,C1,2*%
%TO.N,/VCC*%
%TA.AperFunction,SMDPad,CuDef*%
G36*
G01*
X137552000Y-90312001D02*
X137552000Y-89011999D01*
G75*
G02*
X137801999Y-88762000I249999J0D01*
G01*
X138452001Y-88762000D01*
G75*
G02*
X138702000Y-89011999I0J-249999D01*
G01*
X138702000Y-90312001D01*
G75*
G02*
X138452001Y-90562000I-249999J0D01*
G01*
X137801999Y-90562000D01*
G75*
G02*
X137552000Y-90312001I0J249999D01*
G01*
G37*
%TD.AperFunction*%
%TO.P,C1,1*%
%TO.N,/GND*%
%TA.AperFunction,SMDPad,CuDef*%
G36*
G01*
X134602000Y-90312001D02*
X134602000Y-89011999D01*
G75*
G02*
X134851999Y-88762000I249999J0D01*
G01*
X135502001Y-88762000D01*
G75*
G02*
X135752000Y-89011999I0J-249999D01*
G01*
X135752000Y-90312001D01*
G75*
G02*
X135502001Y-90562000I-249999J0D01*
G01*
X134851999Y-90562000D01*
G75*
G02*
X134602000Y-90312001I0J249999D01*
G01*
G37*
%TD.AperFunction*%
%TD*%
D20*
%TO.N,/GND*%
X145796000Y-105918000D03*
X136652000Y-105918000D03*
X125222000Y-81788000D03*
X122936000Y-70612000D03*
X150622000Y-100076000D03*
X141732000Y-98044000D03*
X136402010Y-88436990D03*
X150114000Y-68834000D03*
X138938000Y-79372000D03*
X148799010Y-76966010D03*
X156439500Y-88670500D03*
%TO.N,/VCC*%
X155956000Y-102108000D03*
X147574000Y-78486000D03*
X142240000Y-76454000D03*
X138127000Y-89662000D03*
X133923000Y-86295000D03*
X156464000Y-91645000D03*
X155956000Y-96073500D03*
X116229500Y-67461500D03*
%TD*%
D21*
%TO.N,Net-(C3-Pad1)*%
X143662000Y-72033000D02*
X142240000Y-73455000D01*
X143662000Y-70372000D02*
X143662000Y-72033000D01*
%TO.N,/GND*%
X123678500Y-69723000D02*
X123538500Y-69583000D01*
X125716000Y-69723000D02*
X123678500Y-69723000D01*
X123538500Y-69583000D02*
X122333500Y-69583000D01*
X123538500Y-69583000D02*
X123538500Y-71133000D01*
X122333500Y-71133000D02*
X123538500Y-71133000D01*
X125716000Y-69723000D02*
X130937000Y-69723000D01*
X133083500Y-69899000D02*
X133096000Y-69911500D01*
X130048000Y-69899000D02*
X133083500Y-69899000D01*
X133096000Y-69911500D02*
X136144000Y-69911500D01*
X122333500Y-71133000D02*
X122333500Y-72158000D01*
X130048000Y-67690000D02*
X130048000Y-69899000D01*
X136144000Y-69801000D02*
X136144000Y-69911500D01*
X138430000Y-67515000D02*
X136144000Y-69801000D01*
X115757000Y-74306000D02*
X117094000Y-75643000D01*
X116332000Y-70309000D02*
X115757000Y-70884000D01*
X143662000Y-68072000D02*
X149860000Y-68072000D01*
X149860000Y-68072000D02*
X149962000Y-68072000D01*
X136965000Y-81345000D02*
X138938000Y-79372000D01*
X133985000Y-81345000D02*
X136965000Y-81345000D01*
X138938000Y-79372000D02*
X138938000Y-79372000D01*
X136402010Y-88436990D02*
X136402010Y-88436990D01*
X142419500Y-88642000D02*
X138895190Y-88642000D01*
X138895190Y-88642000D02*
X138690180Y-88436990D01*
X138690180Y-88436990D02*
X136402010Y-88436990D01*
X136402010Y-88436990D02*
X135177000Y-89662000D01*
X125580000Y-95250000D02*
X132080000Y-95250000D01*
X135177000Y-92153000D02*
X132080000Y-95250000D01*
X135177000Y-89662000D02*
X135177000Y-92153000D01*
X148332000Y-94054500D02*
X148332000Y-95423410D01*
X148332000Y-95423410D02*
X149606000Y-96697410D01*
X149606000Y-99011000D02*
X150876000Y-100281000D01*
X149606000Y-96697410D02*
X149606000Y-99011000D01*
X112776000Y-67564000D02*
X114300000Y-67564000D01*
X116332000Y-69596000D02*
X116332000Y-70309000D01*
X114300000Y-67564000D02*
X116332000Y-69596000D01*
X115436000Y-71628000D02*
X115757000Y-71949000D01*
X112776000Y-71628000D02*
X115436000Y-71628000D01*
X115757000Y-71949000D02*
X115757000Y-74306000D01*
X115757000Y-70884000D02*
X115757000Y-71949000D01*
X122333500Y-72158000D02*
X121339500Y-73152000D01*
X119585000Y-73152000D02*
X117094000Y-75643000D01*
X121339500Y-73152000D02*
X119585000Y-73152000D01*
X148332000Y-79721190D02*
X148332000Y-82729500D01*
X148799010Y-76966010D02*
X148799010Y-79254180D01*
X148799010Y-79254180D02*
X148332000Y-79721190D01*
X147574000Y-75741000D02*
X148799010Y-76966010D01*
X148799010Y-76966010D02*
X148799010Y-76966010D01*
X143006010Y-99015010D02*
X141781000Y-97790000D01*
X145294180Y-99015010D02*
X143006010Y-99015010D01*
X145782010Y-98527180D02*
X145294180Y-99015010D01*
X145782010Y-95517990D02*
X145782010Y-98527180D01*
X145832000Y-95468000D02*
X145782010Y-95517990D01*
X145832000Y-94054500D02*
X145832000Y-95468000D01*
X148241001Y-113951001D02*
X147066000Y-112776000D01*
X152748999Y-113951001D02*
X148241001Y-113951001D01*
X153321001Y-113378999D02*
X152748999Y-113951001D01*
X153321001Y-112401997D02*
X153321001Y-113378999D01*
X154121999Y-111600999D02*
X153321001Y-112401997D01*
X155861001Y-111346999D02*
X155607001Y-111600999D01*
X155861001Y-109125999D02*
X155861001Y-111346999D01*
X155447002Y-108712000D02*
X155861001Y-109125999D01*
X152400000Y-108712000D02*
X155447002Y-108712000D01*
X150611000Y-106923000D02*
X152400000Y-108712000D01*
X155607001Y-111600999D02*
X154121999Y-111600999D01*
X150299500Y-106923000D02*
X150611000Y-106923000D01*
X155911000Y-88142000D02*
X156439500Y-88670500D01*
X153744500Y-88142000D02*
X155911000Y-88142000D01*
X156439500Y-88670500D02*
X156464000Y-88695000D01*
%TO.N,Net-(C8-Pad2)*%
X120156000Y-67091000D02*
X121461000Y-65786000D01*
X120156000Y-68453000D02*
X120156000Y-67091000D01*
%TO.N,Net-(C8-Pad1)*%
X125716000Y-67091000D02*
X124411000Y-65786000D01*
X125716000Y-68453000D02*
X125716000Y-67091000D01*
X128417000Y-64390000D02*
X125716000Y-67091000D01*
X130048000Y-64390000D02*
X128417000Y-64390000D01*
X132078000Y-64390000D02*
X132966000Y-65278000D01*
X130048000Y-64390000D02*
X132078000Y-64390000D01*
%TO.N,Net-(C9-Pad2)*%
X132793000Y-73139500D02*
X133096000Y-72836500D01*
X132793000Y-75438000D02*
X132793000Y-73139500D01*
%TO.N,Net-(C10-Pad1)*%
X128192000Y-70993000D02*
X130048000Y-72849000D01*
X125716000Y-70993000D02*
X128192000Y-70993000D01*
X130048000Y-75741000D02*
X129843000Y-75946000D01*
X130048000Y-72849000D02*
X130048000Y-75741000D01*
%TO.N,Net-(C11-Pad1)*%
X136479000Y-64565000D02*
X135766000Y-65278000D01*
X138430000Y-64565000D02*
X136479000Y-64565000D01*
X139655010Y-69448490D02*
X139192000Y-69911500D01*
X139655010Y-65790010D02*
X139655010Y-69448490D01*
X138430000Y-64565000D02*
X139655010Y-65790010D01*
X139673020Y-65772000D02*
X139655010Y-65790010D01*
X143662000Y-65772000D02*
X139673020Y-65772000D01*
%TO.N,Net-(Css1-Pad1)*%
X117524000Y-72263000D02*
X117094000Y-72693000D01*
X120156000Y-72263000D02*
X117524000Y-72263000D01*
%TO.N,Net-(Duser1-Pad2)*%
X141432990Y-84666990D02*
X138938000Y-82172000D01*
X142409010Y-84666990D02*
X141432990Y-84666990D01*
X142419500Y-84656500D02*
X142409010Y-84666990D01*
X142419500Y-84642000D02*
X142419500Y-84656500D01*
%TO.N,Net-(IC1-Pad64)*%
X144356990Y-82719010D02*
X144356990Y-81872990D01*
X144346500Y-82729500D02*
X144356990Y-82719010D01*
X144332000Y-82729500D02*
X144346500Y-82729500D01*
X140455980Y-77971980D02*
X141732000Y-79248000D01*
X129952380Y-77971980D02*
X140455980Y-77971980D01*
X122428000Y-75946000D02*
X127926400Y-75946000D01*
X127926400Y-75946000D02*
X129952380Y-77971980D01*
X144356990Y-81872990D02*
X141732000Y-79248000D01*
%TO.N,Net-(IC1-Pad46)*%
X152941298Y-85642000D02*
X153744500Y-85642000D01*
X152681990Y-85382692D02*
X152941298Y-85642000D01*
X152681990Y-83819122D02*
X152681990Y-85382692D01*
X153854010Y-82647102D02*
X152681990Y-83819122D01*
X153854010Y-78670010D02*
X153854010Y-82647102D01*
X152400000Y-77216000D02*
X153854010Y-78670010D01*
X155993990Y-78670010D02*
X156536000Y-78128000D01*
X153854010Y-78670010D02*
X155993990Y-78670010D01*
%TO.N,Net-(IC1-Pad24)*%
X151812020Y-102897980D02*
X151812019Y-101910551D01*
X151037000Y-103673000D02*
X151812020Y-102897980D01*
X150299500Y-103673000D02*
X151037000Y-103673000D01*
X138049000Y-104878000D02*
X138049000Y-105853000D01*
X151082478Y-101181010D02*
X149987820Y-101181010D01*
X149987820Y-101181010D02*
X149155990Y-100349180D01*
X151812019Y-101910551D02*
X151082478Y-101181010D01*
X147832000Y-95559820D02*
X147832000Y-94054500D01*
X149155990Y-96883810D02*
X147832000Y-95559820D01*
X149155990Y-100349180D02*
X149155990Y-96883810D01*
X150245491Y-103618991D02*
X150299500Y-103673000D01*
X149521581Y-103618991D02*
X150245491Y-103618991D01*
X148555610Y-102653020D02*
X149521581Y-103618991D01*
X140235802Y-102653020D02*
X148555610Y-102653020D01*
X138049000Y-104839822D02*
X140235802Y-102653020D01*
X138049000Y-105853000D02*
X138049000Y-104839822D01*
%TO.N,Net-(IC1-Pad23)*%
X151362011Y-102649048D02*
X151362011Y-102096953D01*
X150988058Y-103023000D02*
X151362011Y-102649048D01*
X150896078Y-101631020D02*
X149801420Y-101631020D01*
X151362011Y-102096953D02*
X150896078Y-101631020D01*
X150299500Y-103023000D02*
X150988058Y-103023000D01*
X149801420Y-101631020D02*
X148705980Y-100535580D01*
X148705980Y-97070210D02*
X148705980Y-97420020D01*
X147332000Y-95696230D02*
X148705980Y-97070210D01*
X147332000Y-94054500D02*
X147332000Y-95696230D01*
X148705980Y-97420020D02*
X148705980Y-97143980D01*
X148705980Y-100535580D02*
X148705980Y-97420020D01*
X149562000Y-103023000D02*
X150299500Y-103023000D01*
X148742010Y-102203010D02*
X149562000Y-103023000D01*
X139644010Y-102203010D02*
X148742010Y-102203010D01*
X139319000Y-101878000D02*
X139644010Y-102203010D01*
X139319000Y-100903000D02*
X139319000Y-101878000D01*
%TO.N,Net-(IC1-Pad22)*%
X146832000Y-95832640D02*
X146832000Y-94054500D01*
X148255970Y-97256610D02*
X146832000Y-95832640D01*
X148255970Y-100721980D02*
X148255970Y-97256610D01*
X149906990Y-102373000D02*
X148255970Y-100721980D01*
X150299500Y-102373000D02*
X149906990Y-102373000D01*
%TO.N,Net-(IC1-Pad21)*%
X144399000Y-104878000D02*
X144399000Y-105853000D01*
X143623980Y-104102980D02*
X144399000Y-104878000D01*
X141325842Y-104102980D02*
X143623980Y-104102980D01*
X140875832Y-104552990D02*
X141325842Y-104102980D01*
X137423990Y-104828422D02*
X137423990Y-106874758D01*
X145480581Y-99465019D02*
X139110213Y-99465019D01*
X139110213Y-99465019D02*
X138674010Y-99901222D01*
X146332000Y-98613600D02*
X145480581Y-99465019D01*
X138674010Y-104851222D02*
X138972242Y-104552990D01*
X138395758Y-107153010D02*
X138674010Y-106874758D01*
X138674010Y-99901222D02*
X138674010Y-103578402D01*
X138674010Y-103578402D02*
X137423990Y-104828422D01*
X138674010Y-106874758D02*
X138674010Y-104851222D01*
X137423990Y-106874758D02*
X137702242Y-107153010D01*
X146332000Y-94054500D02*
X146332000Y-98613600D01*
X138972242Y-104552990D02*
X140875832Y-104552990D01*
X137702242Y-107153010D02*
X138395758Y-107153010D01*
%TO.N,Net-(IC1-Pad6)*%
X144018000Y-86614000D02*
X143490000Y-87142000D01*
X144018000Y-84328000D02*
X144018000Y-86614000D01*
X143490000Y-87142000D02*
X142419500Y-87142000D01*
X140716000Y-81026000D02*
X144018000Y-84328000D01*
X132715000Y-81345000D02*
X132715000Y-82320000D01*
X140716000Y-79336810D02*
X140716000Y-81026000D01*
X139801180Y-78421990D02*
X140716000Y-79336810D01*
X134663010Y-78421990D02*
X139801180Y-78421990D01*
X132715000Y-80370000D02*
X134663010Y-78421990D01*
X132715000Y-81345000D02*
X132715000Y-80370000D01*
%TO.N,Net-(IC1-Pad5)*%
X137313590Y-86642000D02*
X142419500Y-86642000D01*
X135666580Y-84994990D02*
X137313590Y-86642000D01*
X131770010Y-84994990D02*
X135666580Y-84994990D01*
X131445000Y-85320000D02*
X131770010Y-84994990D01*
X131445000Y-86295000D02*
X131445000Y-85320000D01*
%TO.N,Net-(IC1-Pad4)*%
X126365000Y-82320000D02*
X127865000Y-83820000D01*
X126365000Y-81345000D02*
X126365000Y-82320000D01*
X127865000Y-83820000D02*
X135128000Y-83820000D01*
X137450000Y-86142000D02*
X142419500Y-86142000D01*
X135128000Y-83820000D02*
X137450000Y-86142000D01*
%TO.N,Net-(IC2-Pad5)*%
X125716000Y-72263000D02*
X126365000Y-72263000D01*
X126365000Y-72263000D02*
X128524000Y-74422000D01*
X136144000Y-73875190D02*
X136144000Y-72836500D01*
X133356180Y-76663010D02*
X136144000Y-73875190D01*
X129279820Y-76663010D02*
X133356180Y-76663010D01*
X128524000Y-75907190D02*
X129279820Y-76663010D01*
X128524000Y-74422000D02*
X128524000Y-75907190D01*
X136144000Y-72836500D02*
X139192000Y-72836500D01*
%TO.N,/VCC*%
X147828000Y-82725500D02*
X147832000Y-82729500D01*
X142252000Y-89142000D02*
X142227010Y-89166990D01*
X142419500Y-89142000D02*
X142252000Y-89142000D01*
X147832000Y-83054000D02*
X147832000Y-82729500D01*
X147828000Y-83058000D02*
X147832000Y-83054000D01*
X147816000Y-89142000D02*
X147828000Y-89130000D01*
X142419500Y-89142000D02*
X147816000Y-89142000D01*
X148316000Y-89642000D02*
X147816000Y-89142000D01*
X148832000Y-90158000D02*
X147816000Y-89142000D01*
X148832000Y-94054500D02*
X148832000Y-90158000D01*
X145356990Y-91601010D02*
X147816000Y-89142000D01*
X145356990Y-93999010D02*
X145356990Y-91601010D01*
X145332000Y-94024000D02*
X145356990Y-93999010D01*
X145332000Y-94054500D02*
X145332000Y-94024000D01*
X147832000Y-82729500D02*
X147832000Y-78949000D01*
X133985000Y-86295000D02*
X133923000Y-86295000D01*
X142227010Y-89166990D02*
X138622010Y-89166990D01*
X138622010Y-89166990D02*
X138127000Y-89662000D01*
X131277500Y-88707500D02*
X132715000Y-87270000D01*
X132715000Y-87270000D02*
X132715000Y-86295000D01*
X121666000Y-88707500D02*
X131277500Y-88707500D01*
X138127000Y-89662000D02*
X138127000Y-89662000D01*
X133923000Y-86295000D02*
X132715000Y-86295000D01*
X148832000Y-95287000D02*
X148832000Y-94054500D01*
X150876000Y-97331000D02*
X148832000Y-95287000D01*
X138049000Y-100903000D02*
X136779000Y-100903000D01*
X138049000Y-100903000D02*
X138049000Y-99443820D01*
X148054010Y-83792010D02*
X147828000Y-83566000D01*
X152072692Y-83792010D02*
X148054010Y-83792010D01*
X147828000Y-83566000D02*
X147828000Y-83058000D01*
X147828000Y-89130000D02*
X147828000Y-83566000D01*
X152681990Y-89848010D02*
X152888000Y-89642000D01*
X152941298Y-91142000D02*
X152681990Y-90882692D01*
X153744500Y-91142000D02*
X152941298Y-91142000D01*
X153744500Y-89642000D02*
X152888000Y-89642000D01*
X152307010Y-80233990D02*
X152400000Y-80141000D01*
X152307010Y-83557692D02*
X152307010Y-80233990D01*
X152072692Y-83792010D02*
X152307010Y-83557692D01*
X160528000Y-65024000D02*
X160528000Y-67564000D01*
X145332000Y-97189000D02*
X144731000Y-97790000D01*
X145332000Y-94054500D02*
X145332000Y-97189000D01*
X140927830Y-96564990D02*
X138049000Y-99443820D01*
X143505990Y-96564990D02*
X140927830Y-96564990D01*
X144731000Y-97790000D02*
X143505990Y-96564990D01*
X116999001Y-114205001D02*
X115824000Y-113030000D01*
X150982500Y-97331000D02*
X150876000Y-97331000D01*
X156024500Y-102373000D02*
X150982500Y-97331000D01*
X160528000Y-67564000D02*
X165100000Y-67564000D01*
X152467980Y-90158000D02*
X152681990Y-89943990D01*
X148832000Y-90158000D02*
X152467980Y-90158000D01*
X152681990Y-89943990D02*
X152681990Y-89848010D01*
X152681990Y-90882692D02*
X152681990Y-89943990D01*
X156464000Y-91558298D02*
X156464000Y-91645000D01*
X154547702Y-89642000D02*
X156464000Y-91558298D01*
X153744500Y-89642000D02*
X154547702Y-89642000D01*
X155956000Y-96073500D02*
X155956000Y-96073500D01*
X161097500Y-96073500D02*
X164846000Y-99822000D01*
X159258000Y-96073500D02*
X161097500Y-96073500D01*
X166275001Y-69539999D02*
X166275001Y-81120999D01*
X166275001Y-81120999D02*
X165354000Y-82042000D01*
X165100000Y-68364998D02*
X166275001Y-69539999D01*
X165100000Y-67564000D02*
X165100000Y-68364998D01*
X165354000Y-82042000D02*
X162814000Y-82042000D01*
X166529001Y-88486999D02*
X165354000Y-89662000D01*
X166529001Y-83217001D02*
X166529001Y-88486999D01*
X165354000Y-82042000D02*
X166529001Y-83217001D01*
X165354000Y-89662000D02*
X162814000Y-89662000D01*
X166529001Y-98138999D02*
X164846000Y-99822000D01*
X166529001Y-90837001D02*
X166529001Y-98138999D01*
X165354000Y-89662000D02*
X166529001Y-90837001D01*
X156464000Y-91645000D02*
X156464000Y-91645000D01*
X155956000Y-96073500D02*
X159258000Y-96073500D01*
X120156000Y-69723000D02*
X120156000Y-70993000D01*
X118696000Y-69723000D02*
X120156000Y-69723000D01*
X116332000Y-67359000D02*
X118696000Y-69723000D01*
X116127000Y-67564000D02*
X116229500Y-67461500D01*
X116229500Y-67461500D02*
X116332000Y-67359000D01*
X113997000Y-65024000D02*
X116332000Y-67359000D01*
X112776000Y-65024000D02*
X113997000Y-65024000D01*
X120153599Y-114655011D02*
X124103991Y-114655011D01*
X119703589Y-114205001D02*
X120153599Y-114655011D01*
X124103991Y-114655011D02*
X124619001Y-114140001D01*
X116999001Y-114205001D02*
X119703589Y-114205001D01*
X124619001Y-113062999D02*
X136779000Y-100903000D01*
X124619001Y-114140001D02*
X124619001Y-113062999D01*
%TO.N,/PGD*%
X144043430Y-96114980D02*
X138455430Y-96114980D01*
X144832000Y-95326410D02*
X144043430Y-96114980D01*
X144832000Y-94054500D02*
X144832000Y-95326410D01*
X138108401Y-96462009D02*
X138107991Y-96462009D01*
X138455430Y-96114980D02*
X138108401Y-96462009D01*
X138107991Y-96462009D02*
X134020000Y-100550000D01*
X121158998Y-113030000D02*
X120904000Y-113030000D01*
X133638998Y-100550000D02*
X121158998Y-113030000D01*
X134020000Y-100550000D02*
X133638998Y-100550000D01*
%TO.N,/PGC*%
X138269030Y-95664970D02*
X137922000Y-96012000D01*
X143857030Y-95664970D02*
X138269030Y-95664970D01*
X144332000Y-95190000D02*
X143857030Y-95664970D01*
X144332000Y-94054500D02*
X144332000Y-95190000D01*
X138176000Y-95758000D02*
X137922000Y-96012000D01*
X122268999Y-114205001D02*
X123444000Y-113030000D01*
X120339999Y-114205001D02*
X122268999Y-114205001D01*
X119728999Y-113594001D02*
X120339999Y-114205001D01*
X119728999Y-112465999D02*
X119728999Y-113594001D01*
X120868704Y-111326294D02*
X119728999Y-112465999D01*
X133452597Y-100099991D02*
X122226294Y-111326294D01*
X122226294Y-111326294D02*
X120868704Y-111326294D01*
X133833600Y-100099990D02*
X133452597Y-100099991D01*
X137921590Y-96012000D02*
X133833600Y-100099990D01*
X137922000Y-96012000D02*
X137921590Y-96012000D01*
%TO.N,/MCLR*%
X135188000Y-87642000D02*
X132080000Y-90750000D01*
X142419500Y-87642000D02*
X135188000Y-87642000D01*
X125580000Y-90750000D02*
X132080000Y-90750000D01*
X124697500Y-91632500D02*
X125580000Y-90750000D01*
X121666000Y-91632500D02*
X124697500Y-91632500D01*
X121666000Y-91632500D02*
X113638498Y-91632500D01*
X113638498Y-91632500D02*
X111658989Y-93612009D01*
X111658989Y-111404989D02*
X111658989Y-111150989D01*
X113284000Y-113030000D02*
X111658989Y-111404989D01*
X111658989Y-93612009D02*
X111658989Y-111150989D01*
%TO.N,/ECHO0*%
X149606000Y-112776000D02*
X148430999Y-111600999D01*
X148430999Y-109822999D02*
X148430999Y-110395001D01*
X147574000Y-108966000D02*
X148430999Y-109822999D01*
X141233990Y-106943990D02*
X143256000Y-108966000D01*
X141233990Y-104831242D02*
X141233990Y-106943990D01*
X141512242Y-104552990D02*
X141233990Y-104831242D01*
X143129000Y-104878000D02*
X142803990Y-104552990D01*
X143256000Y-108966000D02*
X147574000Y-108966000D01*
X143129000Y-105853000D02*
X143129000Y-104878000D01*
X142803990Y-104552990D02*
X141512242Y-104552990D01*
X148430999Y-111600999D02*
X148430999Y-110395001D01*
%TO.N,/ECHO1*%
X141859000Y-105853000D02*
X141859000Y-106299000D01*
X141859000Y-106229768D02*
X141859000Y-105853000D01*
X141859000Y-105853000D02*
X141859000Y-106553000D01*
X141859000Y-106828000D02*
X143489000Y-108458000D01*
X141859000Y-105853000D02*
X141859000Y-106828000D01*
X147828000Y-108458000D02*
X149606000Y-110236000D01*
X143489000Y-108458000D02*
X147828000Y-108458000D01*
%TO.N,/ECHO2*%
X140589000Y-109093000D02*
X140462000Y-109220000D01*
X140589000Y-105853000D02*
X140589000Y-109093000D01*
X140462000Y-109220000D02*
X139446000Y-110236000D01*
%TO.N,/ECHO3*%
X139319000Y-105853000D02*
X139286999Y-105885001D01*
X138270999Y-111600999D02*
X139446000Y-112776000D01*
X138270999Y-109671999D02*
X138270999Y-111600999D01*
X139319000Y-108623998D02*
X138270999Y-109671999D01*
X139319000Y-108623998D02*
X139319000Y-105853000D01*
%TO.N,/TRIG3*%
X150299500Y-106357500D02*
X150259010Y-106397990D01*
X150299500Y-106273000D02*
X150299500Y-106357500D01*
X150299500Y-106273000D02*
X150988058Y-106273000D01*
X154799991Y-114401011D02*
X143611011Y-114401011D01*
X143611011Y-114401011D02*
X143002000Y-113792000D01*
X143002000Y-113792000D02*
X141986000Y-112776000D01*
X143161001Y-113951001D02*
X143002000Y-113792000D01*
X156311011Y-112889991D02*
X155809501Y-113391501D01*
X156311011Y-108939599D02*
X156311011Y-112889991D01*
X153727990Y-108261990D02*
X155633402Y-108261990D01*
X151739000Y-106273000D02*
X153727990Y-108261990D01*
X150299500Y-106273000D02*
X151739000Y-106273000D01*
X155809501Y-113391501D02*
X155956000Y-113245002D01*
X155633402Y-108261990D02*
X156311011Y-108939599D01*
X154799991Y-114401011D02*
X155809501Y-113391501D01*
%TO.N,/TRIG2*%
X150299500Y-105623000D02*
X150988058Y-105623000D01*
X140810999Y-111411001D02*
X141986000Y-110236000D01*
X140810999Y-113340001D02*
X140810999Y-111411001D01*
X141243499Y-113772501D02*
X140810999Y-113340001D01*
X141872009Y-114401011D02*
X141243499Y-113772501D01*
X154986391Y-114851021D02*
X142322019Y-114851021D01*
X156761019Y-113076393D02*
X154986391Y-114851021D01*
X155819803Y-107811981D02*
X156761021Y-108753199D01*
X154039980Y-107811980D02*
X155819803Y-107811981D01*
X156761021Y-108753199D02*
X156761019Y-113076393D01*
X151851000Y-105623000D02*
X154039980Y-107811980D01*
X142322019Y-114851021D02*
X141243499Y-113772501D01*
X150299500Y-105623000D02*
X151851000Y-105623000D01*
%TO.N,/TRIG1*%
X152019942Y-110109942D02*
X152146000Y-110236000D01*
X150299500Y-105087500D02*
X150299500Y-104973000D01*
X150289010Y-105097990D02*
X150299500Y-105087500D01*
X149236990Y-107199048D02*
X149236990Y-105346952D01*
X149485952Y-107448010D02*
X149236990Y-107199048D01*
X150374010Y-107448010D02*
X149485952Y-107448010D01*
X152146000Y-109220000D02*
X150374010Y-107448010D01*
X152146000Y-110236000D02*
X152146000Y-109220000D01*
X149610942Y-104973000D02*
X149236990Y-105346952D01*
X150299500Y-104973000D02*
X149610942Y-104973000D01*
%TO.N,/TRIG0*%
X150781001Y-108491411D02*
X150781001Y-111411001D01*
X150781001Y-111411001D02*
X151130000Y-111760000D01*
X150187610Y-107898020D02*
X150781001Y-108491411D01*
X149299552Y-107898020D02*
X150187610Y-107898020D01*
X148786980Y-104844020D02*
X148786981Y-107385449D01*
X148786981Y-107385449D02*
X149299552Y-107898020D01*
X151130000Y-111760000D02*
X150970999Y-111600999D01*
X152146000Y-112776000D02*
X151130000Y-111760000D01*
X149308000Y-104323000D02*
X150299500Y-104323000D01*
X148786980Y-104844020D02*
X149308000Y-104323000D01*
%TO.N,/D2*%
X153955002Y-67564000D02*
X155448000Y-67564000D01*
X148251022Y-73267980D02*
X153955002Y-67564000D01*
X146349600Y-73267980D02*
X148251022Y-73267980D01*
X144548952Y-75068628D02*
X146349600Y-73267980D01*
X144548953Y-81246598D02*
X144548952Y-75068628D01*
X144832000Y-81529647D02*
X144548953Y-81246598D01*
X144832000Y-82729500D02*
X144832000Y-81529647D01*
%TO.N,/D1*%
X156623001Y-68674001D02*
X156623001Y-66199001D01*
X156623001Y-66199001D02*
X155448000Y-65024000D01*
X148532010Y-73717990D02*
X153416000Y-68834000D01*
X144998962Y-75255028D02*
X146536000Y-73717990D01*
X156463002Y-68834000D02*
X156623001Y-68674001D01*
X146536000Y-73717990D02*
X148532010Y-73717990D01*
X144998962Y-81060200D02*
X144998962Y-75255028D01*
X145832000Y-81893236D02*
X144998962Y-81060200D01*
X145832000Y-82729500D02*
X145832000Y-81893236D01*
X153416000Y-68834000D02*
X156463002Y-68834000D01*
%TO.N,/TX1*%
X164338000Y-69342000D02*
X165100000Y-70104000D01*
X145898981Y-74991419D02*
X146722400Y-74168000D01*
X146722400Y-74168000D02*
X148718411Y-74167999D01*
X145898980Y-80687400D02*
X145898981Y-74991419D01*
X146832000Y-81620420D02*
X145898980Y-80687400D01*
X153544410Y-69342000D02*
X164338000Y-69342000D01*
X148718411Y-74167999D02*
X153544410Y-69342000D01*
X146832000Y-82729500D02*
X146832000Y-81620420D01*
%TO.N,/IR4*%
X150832000Y-77033310D02*
X151648311Y-76216999D01*
X150832000Y-82729500D02*
X150832000Y-77033310D01*
X151648311Y-76216999D02*
X161086001Y-76216999D01*
X164178999Y-85946999D02*
X165354000Y-87122000D01*
X162400999Y-85946999D02*
X164178999Y-85946999D01*
X161544000Y-85090000D02*
X162400999Y-85946999D01*
X161544000Y-81026998D02*
X161544000Y-85090000D01*
X162361001Y-80209997D02*
X161544000Y-81026998D01*
X162361001Y-77491999D02*
X162361001Y-80209997D01*
X161086001Y-76216999D02*
X162361001Y-77491999D01*
%TO.N,/IR3*%
X160334000Y-84642000D02*
X162814000Y-87122000D01*
X153744500Y-84642000D02*
X160334000Y-84642000D01*
%TO.N,/IR2*%
X153872000Y-85142000D02*
X153896990Y-85166990D01*
X153744500Y-85142000D02*
X153872000Y-85142000D01*
X159534040Y-87431210D02*
X159534040Y-91462040D01*
X157244830Y-85142000D02*
X159534040Y-87431210D01*
X159534040Y-91462040D02*
X162814000Y-94742000D01*
X153744500Y-85142000D02*
X157244830Y-85142000D01*
%TO.N,/IR1*%
X164178999Y-95917001D02*
X165354000Y-94742000D01*
X162249999Y-95917001D02*
X164178999Y-95917001D01*
X159084030Y-87617610D02*
X159084031Y-92751033D01*
X159084031Y-92751033D02*
X162249999Y-95917001D01*
X157608420Y-86142000D02*
X159084030Y-87617610D01*
X153744500Y-86142000D02*
X157608420Y-86142000D01*
%TO.N,/SDA1*%
X153744500Y-86642000D02*
X157472010Y-86642000D01*
X157472010Y-86642000D02*
X158634020Y-87804010D01*
X158634020Y-87804010D02*
X158634020Y-91948000D01*
X158370490Y-98110990D02*
X159258000Y-98998500D01*
X156242800Y-98110990D02*
X158370490Y-98110990D01*
X154755990Y-96624180D02*
X156242800Y-98110990D01*
X154755990Y-95522820D02*
X154755990Y-96624180D01*
X155092820Y-95185990D02*
X154755990Y-95522820D01*
X155984020Y-95185990D02*
X155092820Y-95185990D01*
X158634018Y-92535992D02*
X155984020Y-95185990D01*
X158634020Y-91948000D02*
X158634018Y-92535992D01*
X159258000Y-98998500D02*
X163068000Y-102808500D01*
X163068000Y-105664000D02*
X164846000Y-107442000D01*
X163068000Y-102808500D02*
X163068000Y-105664000D01*
%TO.N,/SCL*%
X154305980Y-97348480D02*
X155956000Y-98998500D01*
X154305980Y-95336420D02*
X154305980Y-97348480D01*
X155797620Y-94735980D02*
X154906420Y-94735980D01*
X158184010Y-87990410D02*
X158184009Y-92349591D01*
X157335600Y-87142000D02*
X158184010Y-87990410D01*
X154906420Y-94735980D02*
X154305980Y-95336420D01*
X158184009Y-92349591D02*
X155797620Y-94735980D01*
X153744500Y-87142000D02*
X157335600Y-87142000D01*
X166021001Y-106077001D02*
X164846000Y-104902000D01*
X166021001Y-108006001D02*
X166021001Y-106077001D01*
X165410001Y-108617001D02*
X166021001Y-108006001D01*
X164281999Y-108617001D02*
X165410001Y-108617001D01*
X155956000Y-100291002D02*
X164281999Y-108617001D01*
X155956000Y-98998500D02*
X155956000Y-100291002D01*
%TO.N,/INT1*%
X153855970Y-98865912D02*
X163670999Y-108680941D01*
X153855970Y-95150020D02*
X153855970Y-98865912D01*
X155611220Y-94285970D02*
X154720019Y-94285971D01*
X157734000Y-92163190D02*
X155611220Y-94285970D01*
X163670999Y-111346999D02*
X164846000Y-112522000D01*
X157734000Y-88176810D02*
X157734000Y-92163190D01*
X163670999Y-108680941D02*
X163670999Y-111346999D01*
X157199190Y-87642000D02*
X157734000Y-88176810D01*
X154720019Y-94285971D02*
X153855970Y-95150020D01*
X153744500Y-87642000D02*
X157199190Y-87642000D01*
%TO.N,/L4*%
X142419500Y-92142000D02*
X140656050Y-92142000D01*
X132369950Y-99532050D02*
X133266001Y-99532049D01*
X133266001Y-99532049D02*
X140656050Y-92142000D01*
X119669950Y-99532050D02*
X119380000Y-99822000D01*
X132369950Y-99532050D02*
X119669950Y-99532050D01*
X119380000Y-99822000D02*
X119634000Y-99568000D01*
X113284000Y-105918000D02*
X119380000Y-99822000D01*
%TO.N,/L3*%
X117579960Y-99082040D02*
X113284000Y-103378000D01*
X133079600Y-99082040D02*
X117579960Y-99082040D01*
X140519640Y-91642000D02*
X133079600Y-99082040D01*
X142419500Y-91642000D02*
X140519640Y-91642000D01*
%TO.N,/PWM2*%
X112108999Y-107282999D02*
X113284000Y-108458000D01*
X112108999Y-101505001D02*
X112108999Y-107282999D01*
X112522000Y-101092000D02*
X112108999Y-101505001D01*
X114173412Y-101092000D02*
X112522000Y-101092000D01*
X116633382Y-98632030D02*
X114173412Y-101092000D01*
X132893200Y-98632030D02*
X116633382Y-98632030D01*
X140383230Y-91142000D02*
X132893200Y-98632030D01*
X142419500Y-91142000D02*
X140383230Y-91142000D01*
%TO.N,/PWM1*%
X140246820Y-90642000D02*
X142419500Y-90642000D01*
X132706800Y-98182020D02*
X140246820Y-90642000D01*
X116446982Y-98182020D02*
X132706800Y-98182020D01*
X114394001Y-100235001D02*
X116446982Y-98182020D01*
X112108999Y-100170001D02*
X112173999Y-100235001D01*
X112173999Y-100235001D02*
X114394001Y-100235001D01*
X112108999Y-95155001D02*
X112108999Y-100170001D01*
X113284000Y-93980000D02*
X112108999Y-95155001D01*
%TO.N,/L2*%
X140110410Y-90142000D02*
X132520400Y-97732010D01*
X142419500Y-90142000D02*
X140110410Y-90142000D01*
X114611990Y-97732010D02*
X113284000Y-99060000D01*
X132520400Y-97732010D02*
X114611990Y-97732010D01*
%TO.N,/L1*%
X139974000Y-89642000D02*
X132334000Y-97282000D01*
X142419500Y-89642000D02*
X139974000Y-89642000D01*
X114046000Y-97282000D02*
X113284000Y-96520000D01*
X132334000Y-97282000D02*
X114046000Y-97282000D01*
%TO.N,/BAT1*%
X127635000Y-80370000D02*
X127021000Y-79756000D01*
X127635000Y-81345000D02*
X127635000Y-80370000D01*
X116909232Y-87884000D02*
X113284000Y-87884000D01*
X125037232Y-79756000D02*
X116909232Y-87884000D01*
X127021000Y-79756000D02*
X125037232Y-79756000D01*
%TO.N,/BAT2*%
X127840990Y-79305990D02*
X124850831Y-79305991D01*
X128905000Y-80370000D02*
X127840990Y-79305990D01*
X128905000Y-81345000D02*
X128905000Y-80370000D01*
X118812822Y-85344000D02*
X113284000Y-85344000D01*
X124850831Y-79305991D02*
X118812822Y-85344000D01*
%TO.N,/BAT3*%
X128660982Y-78855982D02*
X124664430Y-78855982D01*
X130175000Y-80370000D02*
X128660982Y-78855982D01*
X130175000Y-81345000D02*
X130175000Y-80370000D01*
X120716412Y-82804000D02*
X113284000Y-82804000D01*
X124664430Y-78855982D02*
X120716412Y-82804000D01*
%TO.N,/BAT4*%
X131445000Y-80370000D02*
X129480972Y-78405972D01*
X131445000Y-81345000D02*
X131445000Y-80370000D01*
X129480972Y-78405972D02*
X124478029Y-78405973D01*
X122620002Y-80264000D02*
X113284000Y-80264000D01*
X124478029Y-78405973D02*
X122620002Y-80264000D01*
%TO.N,/5V*%
X112776000Y-74168000D02*
X113792000Y-74168000D01*
X115824000Y-77216000D02*
X122428000Y-77216000D01*
X112776000Y-74168000D02*
X115824000Y-77216000D01*
%TO.N,/RX1*%
X148904812Y-74618008D02*
X153672820Y-69850000D01*
X147123992Y-74618008D02*
X148904812Y-74618008D01*
X153672820Y-69850000D02*
X162306000Y-69850000D01*
X147066000Y-74676000D02*
X147123992Y-74618008D01*
X146348990Y-75177820D02*
X146850810Y-74676000D01*
X146850810Y-74676000D02*
X147066000Y-74676000D01*
X146348990Y-80501000D02*
X146348990Y-75177820D01*
X162306000Y-69850000D02*
X165100000Y-72644000D01*
X147332000Y-81484010D02*
X146348990Y-80501000D01*
X147332000Y-82729500D02*
X147332000Y-81484010D01*
%TD*%
M02*
