%TF.GenerationSoftware,KiCad,Pcbnew,5.1.10-88a1d61d58~90~ubuntu21.04.1*%
%TF.CreationDate,2021-08-16T14:07:41+02:00*%
%TF.ProjectId,hendrik,68656e64-7269-46b2-9e6b-696361645f70,rev?*%
%TF.SameCoordinates,Original*%
%TF.FileFunction,Legend,Top*%
%TF.FilePolarity,Positive*%
%FSLAX46Y46*%
G04 Gerber Fmt 4.6, Leading zero omitted, Abs format (unit mm)*
G04 Created by KiCad (PCBNEW 5.1.10-88a1d61d58~90~ubuntu21.04.1) date 2021-08-16 14:07:41*
%MOMM*%
%LPD*%
G01*
G04 APERTURE LIST*
%ADD10C,0.150000*%
%ADD11C,0.120000*%
G04 APERTURE END LIST*
D10*
X154432095Y-120658000D02*
X154336857Y-120610380D01*
X154194000Y-120610380D01*
X154051142Y-120658000D01*
X153955904Y-120753238D01*
X153908285Y-120848476D01*
X153860666Y-121038952D01*
X153860666Y-121181809D01*
X153908285Y-121372285D01*
X153955904Y-121467523D01*
X154051142Y-121562761D01*
X154194000Y-121610380D01*
X154289238Y-121610380D01*
X154432095Y-121562761D01*
X154479714Y-121515142D01*
X154479714Y-121181809D01*
X154289238Y-121181809D01*
X154908285Y-121610380D02*
X154908285Y-120610380D01*
X155479714Y-121610380D01*
X155479714Y-120610380D01*
X155955904Y-121610380D02*
X155955904Y-120610380D01*
X156194000Y-120610380D01*
X156336857Y-120658000D01*
X156432095Y-120753238D01*
X156479714Y-120848476D01*
X156527333Y-121038952D01*
X156527333Y-121181809D01*
X156479714Y-121372285D01*
X156432095Y-121467523D01*
X156336857Y-121562761D01*
X156194000Y-121610380D01*
X155955904Y-121610380D01*
X154313047Y-114244380D02*
X154313047Y-113244380D01*
X154551142Y-113244380D01*
X154694000Y-113292000D01*
X154789238Y-113387238D01*
X154836857Y-113482476D01*
X154884476Y-113672952D01*
X154884476Y-113815809D01*
X154836857Y-114006285D01*
X154789238Y-114101523D01*
X154694000Y-114196761D01*
X154551142Y-114244380D01*
X154313047Y-114244380D01*
X155313047Y-113863428D02*
X156074952Y-113863428D01*
X155694000Y-114244380D02*
X155694000Y-113482476D01*
X154559142Y-86304380D02*
X154225809Y-85828190D01*
X153987714Y-86304380D02*
X153987714Y-85304380D01*
X154368666Y-85304380D01*
X154463904Y-85352000D01*
X154511523Y-85399619D01*
X154559142Y-85494857D01*
X154559142Y-85637714D01*
X154511523Y-85732952D01*
X154463904Y-85780571D01*
X154368666Y-85828190D01*
X153987714Y-85828190D01*
X155321047Y-85780571D02*
X155463904Y-85828190D01*
X155511523Y-85875809D01*
X155559142Y-85971047D01*
X155559142Y-86113904D01*
X155511523Y-86209142D01*
X155463904Y-86256761D01*
X155368666Y-86304380D01*
X154987714Y-86304380D01*
X154987714Y-85304380D01*
X155321047Y-85304380D01*
X155416285Y-85352000D01*
X155463904Y-85399619D01*
X155511523Y-85494857D01*
X155511523Y-85590095D01*
X155463904Y-85685333D01*
X155416285Y-85732952D01*
X155321047Y-85780571D01*
X154987714Y-85780571D01*
X156511523Y-86304380D02*
X155940095Y-86304380D01*
X156225809Y-86304380D02*
X156225809Y-85304380D01*
X156130571Y-85447238D01*
X156035333Y-85542476D01*
X155940095Y-85590095D01*
X156844857Y-85304380D02*
X157463904Y-85304380D01*
X157130571Y-85685333D01*
X157273428Y-85685333D01*
X157368666Y-85732952D01*
X157416285Y-85780571D01*
X157463904Y-85875809D01*
X157463904Y-86113904D01*
X157416285Y-86209142D01*
X157368666Y-86256761D01*
X157273428Y-86304380D01*
X156987714Y-86304380D01*
X156892476Y-86256761D01*
X156844857Y-86209142D01*
X154527333Y-99004380D02*
X154194000Y-98528190D01*
X153955904Y-99004380D02*
X153955904Y-98004380D01*
X154336857Y-98004380D01*
X154432095Y-98052000D01*
X154479714Y-98099619D01*
X154527333Y-98194857D01*
X154527333Y-98337714D01*
X154479714Y-98432952D01*
X154432095Y-98480571D01*
X154336857Y-98528190D01*
X153955904Y-98528190D01*
X155527333Y-98909142D02*
X155479714Y-98956761D01*
X155336857Y-99004380D01*
X155241619Y-99004380D01*
X155098761Y-98956761D01*
X155003523Y-98861523D01*
X154955904Y-98766285D01*
X154908285Y-98575809D01*
X154908285Y-98432952D01*
X154955904Y-98242476D01*
X155003523Y-98147238D01*
X155098761Y-98052000D01*
X155241619Y-98004380D01*
X155336857Y-98004380D01*
X155479714Y-98052000D01*
X155527333Y-98099619D01*
X155860666Y-98004380D02*
X156527333Y-98004380D01*
X156098761Y-99004380D01*
X154559142Y-111704380D02*
X154225809Y-111228190D01*
X153987714Y-111704380D02*
X153987714Y-110704380D01*
X154368666Y-110704380D01*
X154463904Y-110752000D01*
X154511523Y-110799619D01*
X154559142Y-110894857D01*
X154559142Y-111037714D01*
X154511523Y-111132952D01*
X154463904Y-111180571D01*
X154368666Y-111228190D01*
X153987714Y-111228190D01*
X155559142Y-111609142D02*
X155511523Y-111656761D01*
X155368666Y-111704380D01*
X155273428Y-111704380D01*
X155130571Y-111656761D01*
X155035333Y-111561523D01*
X154987714Y-111466285D01*
X154940095Y-111275809D01*
X154940095Y-111132952D01*
X154987714Y-110942476D01*
X155035333Y-110847238D01*
X155130571Y-110752000D01*
X155273428Y-110704380D01*
X155368666Y-110704380D01*
X155511523Y-110752000D01*
X155559142Y-110799619D01*
X156511523Y-111704380D02*
X155940095Y-111704380D01*
X156225809Y-111704380D02*
X156225809Y-110704380D01*
X156130571Y-110847238D01*
X156035333Y-110942476D01*
X155940095Y-110990095D01*
X157416285Y-110704380D02*
X156940095Y-110704380D01*
X156892476Y-111180571D01*
X156940095Y-111132952D01*
X157035333Y-111085333D01*
X157273428Y-111085333D01*
X157368666Y-111132952D01*
X157416285Y-111180571D01*
X157463904Y-111275809D01*
X157463904Y-111513904D01*
X157416285Y-111609142D01*
X157368666Y-111656761D01*
X157273428Y-111704380D01*
X157035333Y-111704380D01*
X156940095Y-111656761D01*
X156892476Y-111609142D01*
X154559142Y-104084380D02*
X154225809Y-103608190D01*
X153987714Y-104084380D02*
X153987714Y-103084380D01*
X154368666Y-103084380D01*
X154463904Y-103132000D01*
X154511523Y-103179619D01*
X154559142Y-103274857D01*
X154559142Y-103417714D01*
X154511523Y-103512952D01*
X154463904Y-103560571D01*
X154368666Y-103608190D01*
X153987714Y-103608190D01*
X155559142Y-103989142D02*
X155511523Y-104036761D01*
X155368666Y-104084380D01*
X155273428Y-104084380D01*
X155130571Y-104036761D01*
X155035333Y-103941523D01*
X154987714Y-103846285D01*
X154940095Y-103655809D01*
X154940095Y-103512952D01*
X154987714Y-103322476D01*
X155035333Y-103227238D01*
X155130571Y-103132000D01*
X155273428Y-103084380D01*
X155368666Y-103084380D01*
X155511523Y-103132000D01*
X155559142Y-103179619D01*
X156511523Y-104084380D02*
X155940095Y-104084380D01*
X156225809Y-104084380D02*
X156225809Y-103084380D01*
X156130571Y-103227238D01*
X156035333Y-103322476D01*
X155940095Y-103370095D01*
X156844857Y-103084380D02*
X157463904Y-103084380D01*
X157130571Y-103465333D01*
X157273428Y-103465333D01*
X157368666Y-103512952D01*
X157416285Y-103560571D01*
X157463904Y-103655809D01*
X157463904Y-103893904D01*
X157416285Y-103989142D01*
X157368666Y-104036761D01*
X157273428Y-104084380D01*
X156987714Y-104084380D01*
X156892476Y-104036761D01*
X156844857Y-103989142D01*
X154527333Y-93924380D02*
X154194000Y-93448190D01*
X153955904Y-93924380D02*
X153955904Y-92924380D01*
X154336857Y-92924380D01*
X154432095Y-92972000D01*
X154479714Y-93019619D01*
X154527333Y-93114857D01*
X154527333Y-93257714D01*
X154479714Y-93352952D01*
X154432095Y-93400571D01*
X154336857Y-93448190D01*
X153955904Y-93448190D01*
X155527333Y-93829142D02*
X155479714Y-93876761D01*
X155336857Y-93924380D01*
X155241619Y-93924380D01*
X155098761Y-93876761D01*
X155003523Y-93781523D01*
X154955904Y-93686285D01*
X154908285Y-93495809D01*
X154908285Y-93352952D01*
X154955904Y-93162476D01*
X155003523Y-93067238D01*
X155098761Y-92972000D01*
X155241619Y-92924380D01*
X155336857Y-92924380D01*
X155479714Y-92972000D01*
X155527333Y-93019619D01*
X156003523Y-93924380D02*
X156194000Y-93924380D01*
X156289238Y-93876761D01*
X156336857Y-93829142D01*
X156432095Y-93686285D01*
X156479714Y-93495809D01*
X156479714Y-93114857D01*
X156432095Y-93019619D01*
X156384476Y-92972000D01*
X156289238Y-92924380D01*
X156098761Y-92924380D01*
X156003523Y-92972000D01*
X155955904Y-93019619D01*
X155908285Y-93114857D01*
X155908285Y-93352952D01*
X155955904Y-93448190D01*
X156003523Y-93495809D01*
X156098761Y-93543428D01*
X156289238Y-93543428D01*
X156384476Y-93495809D01*
X156432095Y-93448190D01*
X156479714Y-93352952D01*
X154559142Y-106624380D02*
X154225809Y-106148190D01*
X153987714Y-106624380D02*
X153987714Y-105624380D01*
X154368666Y-105624380D01*
X154463904Y-105672000D01*
X154511523Y-105719619D01*
X154559142Y-105814857D01*
X154559142Y-105957714D01*
X154511523Y-106052952D01*
X154463904Y-106100571D01*
X154368666Y-106148190D01*
X153987714Y-106148190D01*
X155559142Y-106529142D02*
X155511523Y-106576761D01*
X155368666Y-106624380D01*
X155273428Y-106624380D01*
X155130571Y-106576761D01*
X155035333Y-106481523D01*
X154987714Y-106386285D01*
X154940095Y-106195809D01*
X154940095Y-106052952D01*
X154987714Y-105862476D01*
X155035333Y-105767238D01*
X155130571Y-105672000D01*
X155273428Y-105624380D01*
X155368666Y-105624380D01*
X155511523Y-105672000D01*
X155559142Y-105719619D01*
X156511523Y-106624380D02*
X155940095Y-106624380D01*
X156225809Y-106624380D02*
X156225809Y-105624380D01*
X156130571Y-105767238D01*
X156035333Y-105862476D01*
X155940095Y-105910095D01*
X157130571Y-105624380D02*
X157225809Y-105624380D01*
X157321047Y-105672000D01*
X157368666Y-105719619D01*
X157416285Y-105814857D01*
X157463904Y-106005333D01*
X157463904Y-106243428D01*
X157416285Y-106433904D01*
X157368666Y-106529142D01*
X157321047Y-106576761D01*
X157225809Y-106624380D01*
X157130571Y-106624380D01*
X157035333Y-106576761D01*
X156987714Y-106529142D01*
X156940095Y-106433904D01*
X156892476Y-106243428D01*
X156892476Y-106005333D01*
X156940095Y-105814857D01*
X156987714Y-105719619D01*
X157035333Y-105672000D01*
X157130571Y-105624380D01*
X154598761Y-91384380D02*
X154265428Y-90908190D01*
X154027333Y-91384380D02*
X154027333Y-90384380D01*
X154408285Y-90384380D01*
X154503523Y-90432000D01*
X154551142Y-90479619D01*
X154598761Y-90574857D01*
X154598761Y-90717714D01*
X154551142Y-90812952D01*
X154503523Y-90860571D01*
X154408285Y-90908190D01*
X154027333Y-90908190D01*
X155360666Y-90860571D02*
X155027333Y-90860571D01*
X155027333Y-91384380D02*
X155027333Y-90384380D01*
X155503523Y-90384380D01*
X156408285Y-91384380D02*
X155836857Y-91384380D01*
X156122571Y-91384380D02*
X156122571Y-90384380D01*
X156027333Y-90527238D01*
X155932095Y-90622476D01*
X155836857Y-90670095D01*
X154527333Y-101544380D02*
X154194000Y-101068190D01*
X153955904Y-101544380D02*
X153955904Y-100544380D01*
X154336857Y-100544380D01*
X154432095Y-100592000D01*
X154479714Y-100639619D01*
X154527333Y-100734857D01*
X154527333Y-100877714D01*
X154479714Y-100972952D01*
X154432095Y-101020571D01*
X154336857Y-101068190D01*
X153955904Y-101068190D01*
X155289238Y-101020571D02*
X155432095Y-101068190D01*
X155479714Y-101115809D01*
X155527333Y-101211047D01*
X155527333Y-101353904D01*
X155479714Y-101449142D01*
X155432095Y-101496761D01*
X155336857Y-101544380D01*
X154955904Y-101544380D01*
X154955904Y-100544380D01*
X155289238Y-100544380D01*
X155384476Y-100592000D01*
X155432095Y-100639619D01*
X155479714Y-100734857D01*
X155479714Y-100830095D01*
X155432095Y-100925333D01*
X155384476Y-100972952D01*
X155289238Y-101020571D01*
X154955904Y-101020571D01*
X156003523Y-101544380D02*
X156194000Y-101544380D01*
X156289238Y-101496761D01*
X156336857Y-101449142D01*
X156432095Y-101306285D01*
X156479714Y-101115809D01*
X156479714Y-100734857D01*
X156432095Y-100639619D01*
X156384476Y-100592000D01*
X156289238Y-100544380D01*
X156098761Y-100544380D01*
X156003523Y-100592000D01*
X155955904Y-100639619D01*
X155908285Y-100734857D01*
X155908285Y-100972952D01*
X155955904Y-101068190D01*
X156003523Y-101115809D01*
X156098761Y-101163428D01*
X156289238Y-101163428D01*
X156384476Y-101115809D01*
X156432095Y-101068190D01*
X156479714Y-100972952D01*
X153646476Y-115784380D02*
X153979809Y-116784380D01*
X154313142Y-115784380D01*
X154979809Y-116260571D02*
X155122666Y-116308190D01*
X155170285Y-116355809D01*
X155217904Y-116451047D01*
X155217904Y-116593904D01*
X155170285Y-116689142D01*
X155122666Y-116736761D01*
X155027428Y-116784380D01*
X154646476Y-116784380D01*
X154646476Y-115784380D01*
X154979809Y-115784380D01*
X155075047Y-115832000D01*
X155122666Y-115879619D01*
X155170285Y-115974857D01*
X155170285Y-116070095D01*
X155122666Y-116165333D01*
X155075047Y-116212952D01*
X154979809Y-116260571D01*
X154646476Y-116260571D01*
X155646476Y-115784380D02*
X155646476Y-116593904D01*
X155694095Y-116689142D01*
X155741714Y-116736761D01*
X155836952Y-116784380D01*
X156027428Y-116784380D01*
X156122666Y-116736761D01*
X156170285Y-116689142D01*
X156217904Y-116593904D01*
X156217904Y-115784380D01*
X156646476Y-116736761D02*
X156789333Y-116784380D01*
X157027428Y-116784380D01*
X157122666Y-116736761D01*
X157170285Y-116689142D01*
X157217904Y-116593904D01*
X157217904Y-116498666D01*
X157170285Y-116403428D01*
X157122666Y-116355809D01*
X157027428Y-116308190D01*
X156836952Y-116260571D01*
X156741714Y-116212952D01*
X156694095Y-116165333D01*
X156646476Y-116070095D01*
X156646476Y-115974857D01*
X156694095Y-115879619D01*
X156741714Y-115832000D01*
X156836952Y-115784380D01*
X157075047Y-115784380D01*
X157217904Y-115832000D01*
X157551238Y-115784380D02*
X158170285Y-115784380D01*
X157836952Y-116165333D01*
X157979809Y-116165333D01*
X158075047Y-116212952D01*
X158122666Y-116260571D01*
X158170285Y-116355809D01*
X158170285Y-116593904D01*
X158122666Y-116689142D01*
X158075047Y-116736761D01*
X157979809Y-116784380D01*
X157694095Y-116784380D01*
X157598857Y-116736761D01*
X157551238Y-116689142D01*
X154559142Y-88844380D02*
X154225809Y-88368190D01*
X153987714Y-88844380D02*
X153987714Y-87844380D01*
X154368666Y-87844380D01*
X154463904Y-87892000D01*
X154511523Y-87939619D01*
X154559142Y-88034857D01*
X154559142Y-88177714D01*
X154511523Y-88272952D01*
X154463904Y-88320571D01*
X154368666Y-88368190D01*
X153987714Y-88368190D01*
X155321047Y-88320571D02*
X155463904Y-88368190D01*
X155511523Y-88415809D01*
X155559142Y-88511047D01*
X155559142Y-88653904D01*
X155511523Y-88749142D01*
X155463904Y-88796761D01*
X155368666Y-88844380D01*
X154987714Y-88844380D01*
X154987714Y-87844380D01*
X155321047Y-87844380D01*
X155416285Y-87892000D01*
X155463904Y-87939619D01*
X155511523Y-88034857D01*
X155511523Y-88130095D01*
X155463904Y-88225333D01*
X155416285Y-88272952D01*
X155321047Y-88320571D01*
X154987714Y-88320571D01*
X156511523Y-88844380D02*
X155940095Y-88844380D01*
X156225809Y-88844380D02*
X156225809Y-87844380D01*
X156130571Y-87987238D01*
X156035333Y-88082476D01*
X155940095Y-88130095D01*
X157463904Y-88844380D02*
X156892476Y-88844380D01*
X157178190Y-88844380D02*
X157178190Y-87844380D01*
X157082952Y-87987238D01*
X156987714Y-88082476D01*
X156892476Y-88130095D01*
X154598761Y-119324380D02*
X154265428Y-118848190D01*
X154027333Y-119324380D02*
X154027333Y-118324380D01*
X154408285Y-118324380D01*
X154503523Y-118372000D01*
X154551142Y-118419619D01*
X154598761Y-118514857D01*
X154598761Y-118657714D01*
X154551142Y-118752952D01*
X154503523Y-118800571D01*
X154408285Y-118848190D01*
X154027333Y-118848190D01*
X154979714Y-119038666D02*
X155455904Y-119038666D01*
X154884476Y-119324380D02*
X155217809Y-118324380D01*
X155551142Y-119324380D01*
X156313047Y-118657714D02*
X156313047Y-119324380D01*
X156074952Y-118276761D02*
X155836857Y-118991047D01*
X156455904Y-118991047D01*
X154432095Y-82558000D02*
X154336857Y-82510380D01*
X154194000Y-82510380D01*
X154051142Y-82558000D01*
X153955904Y-82653238D01*
X153908285Y-82748476D01*
X153860666Y-82938952D01*
X153860666Y-83081809D01*
X153908285Y-83272285D01*
X153955904Y-83367523D01*
X154051142Y-83462761D01*
X154194000Y-83510380D01*
X154289238Y-83510380D01*
X154432095Y-83462761D01*
X154479714Y-83415142D01*
X154479714Y-83081809D01*
X154289238Y-83081809D01*
X154908285Y-83510380D02*
X154908285Y-82510380D01*
X155479714Y-83510380D01*
X155479714Y-82510380D01*
X155955904Y-83510380D02*
X155955904Y-82510380D01*
X156194000Y-82510380D01*
X156336857Y-82558000D01*
X156432095Y-82653238D01*
X156479714Y-82748476D01*
X156527333Y-82938952D01*
X156527333Y-83081809D01*
X156479714Y-83272285D01*
X156432095Y-83367523D01*
X156336857Y-83462761D01*
X156194000Y-83510380D01*
X155955904Y-83510380D01*
X154527333Y-96464380D02*
X154194000Y-95988190D01*
X153955904Y-96464380D02*
X153955904Y-95464380D01*
X154336857Y-95464380D01*
X154432095Y-95512000D01*
X154479714Y-95559619D01*
X154527333Y-95654857D01*
X154527333Y-95797714D01*
X154479714Y-95892952D01*
X154432095Y-95940571D01*
X154336857Y-95988190D01*
X153955904Y-95988190D01*
X154955904Y-96464380D02*
X154955904Y-95464380D01*
X155194000Y-95464380D01*
X155336857Y-95512000D01*
X155432095Y-95607238D01*
X155479714Y-95702476D01*
X155527333Y-95892952D01*
X155527333Y-96035809D01*
X155479714Y-96226285D01*
X155432095Y-96321523D01*
X155336857Y-96416761D01*
X155194000Y-96464380D01*
X154955904Y-96464380D01*
X156432095Y-95464380D02*
X155955904Y-95464380D01*
X155908285Y-95940571D01*
X155955904Y-95892952D01*
X156051142Y-95845333D01*
X156289238Y-95845333D01*
X156384476Y-95892952D01*
X156432095Y-95940571D01*
X156479714Y-96035809D01*
X156479714Y-96273904D01*
X156432095Y-96369142D01*
X156384476Y-96416761D01*
X156289238Y-96464380D01*
X156051142Y-96464380D01*
X155955904Y-96416761D01*
X155908285Y-96369142D01*
X154527333Y-109164380D02*
X154194000Y-108688190D01*
X153955904Y-109164380D02*
X153955904Y-108164380D01*
X154336857Y-108164380D01*
X154432095Y-108212000D01*
X154479714Y-108259619D01*
X154527333Y-108354857D01*
X154527333Y-108497714D01*
X154479714Y-108592952D01*
X154432095Y-108640571D01*
X154336857Y-108688190D01*
X153955904Y-108688190D01*
X155289238Y-108640571D02*
X155432095Y-108688190D01*
X155479714Y-108735809D01*
X155527333Y-108831047D01*
X155527333Y-108973904D01*
X155479714Y-109069142D01*
X155432095Y-109116761D01*
X155336857Y-109164380D01*
X154955904Y-109164380D01*
X154955904Y-108164380D01*
X155289238Y-108164380D01*
X155384476Y-108212000D01*
X155432095Y-108259619D01*
X155479714Y-108354857D01*
X155479714Y-108450095D01*
X155432095Y-108545333D01*
X155384476Y-108592952D01*
X155289238Y-108640571D01*
X154955904Y-108640571D01*
X156432095Y-108164380D02*
X155955904Y-108164380D01*
X155908285Y-108640571D01*
X155955904Y-108592952D01*
X156051142Y-108545333D01*
X156289238Y-108545333D01*
X156384476Y-108592952D01*
X156432095Y-108640571D01*
X156479714Y-108735809D01*
X156479714Y-108973904D01*
X156432095Y-109069142D01*
X156384476Y-109116761D01*
X156289238Y-109164380D01*
X156051142Y-109164380D01*
X155955904Y-109116761D01*
X155908285Y-109069142D01*
X145542095Y-120912000D02*
X145446857Y-120864380D01*
X145304000Y-120864380D01*
X145161142Y-120912000D01*
X145065904Y-121007238D01*
X145018285Y-121102476D01*
X144970666Y-121292952D01*
X144970666Y-121435809D01*
X145018285Y-121626285D01*
X145065904Y-121721523D01*
X145161142Y-121816761D01*
X145304000Y-121864380D01*
X145399238Y-121864380D01*
X145542095Y-121816761D01*
X145589714Y-121769142D01*
X145589714Y-121435809D01*
X145399238Y-121435809D01*
X146018285Y-121864380D02*
X146018285Y-120864380D01*
X146589714Y-121864380D01*
X146589714Y-120864380D01*
X147065904Y-121864380D02*
X147065904Y-120864380D01*
X147304000Y-120864380D01*
X147446857Y-120912000D01*
X147542095Y-121007238D01*
X147589714Y-121102476D01*
X147637333Y-121292952D01*
X147637333Y-121435809D01*
X147589714Y-121626285D01*
X147542095Y-121721523D01*
X147446857Y-121816761D01*
X147304000Y-121864380D01*
X147065904Y-121864380D01*
X144907142Y-114498380D02*
X144573809Y-114022190D01*
X144335714Y-114498380D02*
X144335714Y-113498380D01*
X144716666Y-113498380D01*
X144811904Y-113546000D01*
X144859523Y-113593619D01*
X144907142Y-113688857D01*
X144907142Y-113831714D01*
X144859523Y-113926952D01*
X144811904Y-113974571D01*
X144716666Y-114022190D01*
X144335714Y-114022190D01*
X145907142Y-114403142D02*
X145859523Y-114450761D01*
X145716666Y-114498380D01*
X145621428Y-114498380D01*
X145478571Y-114450761D01*
X145383333Y-114355523D01*
X145335714Y-114260285D01*
X145288095Y-114069809D01*
X145288095Y-113926952D01*
X145335714Y-113736476D01*
X145383333Y-113641238D01*
X145478571Y-113546000D01*
X145621428Y-113498380D01*
X145716666Y-113498380D01*
X145859523Y-113546000D01*
X145907142Y-113593619D01*
X146859523Y-114498380D02*
X146288095Y-114498380D01*
X146573809Y-114498380D02*
X146573809Y-113498380D01*
X146478571Y-113641238D01*
X146383333Y-113736476D01*
X146288095Y-113784095D01*
X147240476Y-113593619D02*
X147288095Y-113546000D01*
X147383333Y-113498380D01*
X147621428Y-113498380D01*
X147716666Y-113546000D01*
X147764285Y-113593619D01*
X147811904Y-113688857D01*
X147811904Y-113784095D01*
X147764285Y-113926952D01*
X147192857Y-114498380D01*
X147811904Y-114498380D01*
X144978571Y-86304380D02*
X144645238Y-85828190D01*
X144407142Y-86304380D02*
X144407142Y-85304380D01*
X144788095Y-85304380D01*
X144883333Y-85352000D01*
X144930952Y-85399619D01*
X144978571Y-85494857D01*
X144978571Y-85637714D01*
X144930952Y-85732952D01*
X144883333Y-85780571D01*
X144788095Y-85828190D01*
X144407142Y-85828190D01*
X145359523Y-86018666D02*
X145835714Y-86018666D01*
X145264285Y-86304380D02*
X145597619Y-85304380D01*
X145930952Y-86304380D01*
X146788095Y-86304380D02*
X146216666Y-86304380D01*
X146502380Y-86304380D02*
X146502380Y-85304380D01*
X146407142Y-85447238D01*
X146311904Y-85542476D01*
X146216666Y-85590095D01*
X147407142Y-85304380D02*
X147502380Y-85304380D01*
X147597619Y-85352000D01*
X147645238Y-85399619D01*
X147692857Y-85494857D01*
X147740476Y-85685333D01*
X147740476Y-85923428D01*
X147692857Y-86113904D01*
X147645238Y-86209142D01*
X147597619Y-86256761D01*
X147502380Y-86304380D01*
X147407142Y-86304380D01*
X147311904Y-86256761D01*
X147264285Y-86209142D01*
X147216666Y-86113904D01*
X147169047Y-85923428D01*
X147169047Y-85685333D01*
X147216666Y-85494857D01*
X147264285Y-85399619D01*
X147311904Y-85352000D01*
X147407142Y-85304380D01*
X145637333Y-99258380D02*
X145304000Y-98782190D01*
X145065904Y-99258380D02*
X145065904Y-98258380D01*
X145446857Y-98258380D01*
X145542095Y-98306000D01*
X145589714Y-98353619D01*
X145637333Y-98448857D01*
X145637333Y-98591714D01*
X145589714Y-98686952D01*
X145542095Y-98734571D01*
X145446857Y-98782190D01*
X145065904Y-98782190D01*
X146637333Y-99163142D02*
X146589714Y-99210761D01*
X146446857Y-99258380D01*
X146351619Y-99258380D01*
X146208761Y-99210761D01*
X146113523Y-99115523D01*
X146065904Y-99020285D01*
X146018285Y-98829809D01*
X146018285Y-98686952D01*
X146065904Y-98496476D01*
X146113523Y-98401238D01*
X146208761Y-98306000D01*
X146351619Y-98258380D01*
X146446857Y-98258380D01*
X146589714Y-98306000D01*
X146637333Y-98353619D01*
X147208761Y-98686952D02*
X147113523Y-98639333D01*
X147065904Y-98591714D01*
X147018285Y-98496476D01*
X147018285Y-98448857D01*
X147065904Y-98353619D01*
X147113523Y-98306000D01*
X147208761Y-98258380D01*
X147399238Y-98258380D01*
X147494476Y-98306000D01*
X147542095Y-98353619D01*
X147589714Y-98448857D01*
X147589714Y-98496476D01*
X147542095Y-98591714D01*
X147494476Y-98639333D01*
X147399238Y-98686952D01*
X147208761Y-98686952D01*
X147113523Y-98734571D01*
X147065904Y-98782190D01*
X147018285Y-98877428D01*
X147018285Y-99067904D01*
X147065904Y-99163142D01*
X147113523Y-99210761D01*
X147208761Y-99258380D01*
X147399238Y-99258380D01*
X147494476Y-99210761D01*
X147542095Y-99163142D01*
X147589714Y-99067904D01*
X147589714Y-98877428D01*
X147542095Y-98782190D01*
X147494476Y-98734571D01*
X147399238Y-98686952D01*
X145637333Y-111958380D02*
X145304000Y-111482190D01*
X145065904Y-111958380D02*
X145065904Y-110958380D01*
X145446857Y-110958380D01*
X145542095Y-111006000D01*
X145589714Y-111053619D01*
X145637333Y-111148857D01*
X145637333Y-111291714D01*
X145589714Y-111386952D01*
X145542095Y-111434571D01*
X145446857Y-111482190D01*
X145065904Y-111482190D01*
X146065904Y-111958380D02*
X146065904Y-110958380D01*
X146304000Y-110958380D01*
X146446857Y-111006000D01*
X146542095Y-111101238D01*
X146589714Y-111196476D01*
X146637333Y-111386952D01*
X146637333Y-111529809D01*
X146589714Y-111720285D01*
X146542095Y-111815523D01*
X146446857Y-111910761D01*
X146304000Y-111958380D01*
X146065904Y-111958380D01*
X147208761Y-111386952D02*
X147113523Y-111339333D01*
X147065904Y-111291714D01*
X147018285Y-111196476D01*
X147018285Y-111148857D01*
X147065904Y-111053619D01*
X147113523Y-111006000D01*
X147208761Y-110958380D01*
X147399238Y-110958380D01*
X147494476Y-111006000D01*
X147542095Y-111053619D01*
X147589714Y-111148857D01*
X147589714Y-111196476D01*
X147542095Y-111291714D01*
X147494476Y-111339333D01*
X147399238Y-111386952D01*
X147208761Y-111386952D01*
X147113523Y-111434571D01*
X147065904Y-111482190D01*
X147018285Y-111577428D01*
X147018285Y-111767904D01*
X147065904Y-111863142D01*
X147113523Y-111910761D01*
X147208761Y-111958380D01*
X147399238Y-111958380D01*
X147494476Y-111910761D01*
X147542095Y-111863142D01*
X147589714Y-111767904D01*
X147589714Y-111577428D01*
X147542095Y-111482190D01*
X147494476Y-111434571D01*
X147399238Y-111386952D01*
X145637333Y-104338380D02*
X145304000Y-103862190D01*
X145065904Y-104338380D02*
X145065904Y-103338380D01*
X145446857Y-103338380D01*
X145542095Y-103386000D01*
X145589714Y-103433619D01*
X145637333Y-103528857D01*
X145637333Y-103671714D01*
X145589714Y-103766952D01*
X145542095Y-103814571D01*
X145446857Y-103862190D01*
X145065904Y-103862190D01*
X146399238Y-103814571D02*
X146542095Y-103862190D01*
X146589714Y-103909809D01*
X146637333Y-104005047D01*
X146637333Y-104147904D01*
X146589714Y-104243142D01*
X146542095Y-104290761D01*
X146446857Y-104338380D01*
X146065904Y-104338380D01*
X146065904Y-103338380D01*
X146399238Y-103338380D01*
X146494476Y-103386000D01*
X146542095Y-103433619D01*
X146589714Y-103528857D01*
X146589714Y-103624095D01*
X146542095Y-103719333D01*
X146494476Y-103766952D01*
X146399238Y-103814571D01*
X146065904Y-103814571D01*
X147208761Y-103766952D02*
X147113523Y-103719333D01*
X147065904Y-103671714D01*
X147018285Y-103576476D01*
X147018285Y-103528857D01*
X147065904Y-103433619D01*
X147113523Y-103386000D01*
X147208761Y-103338380D01*
X147399238Y-103338380D01*
X147494476Y-103386000D01*
X147542095Y-103433619D01*
X147589714Y-103528857D01*
X147589714Y-103576476D01*
X147542095Y-103671714D01*
X147494476Y-103719333D01*
X147399238Y-103766952D01*
X147208761Y-103766952D01*
X147113523Y-103814571D01*
X147065904Y-103862190D01*
X147018285Y-103957428D01*
X147018285Y-104147904D01*
X147065904Y-104243142D01*
X147113523Y-104290761D01*
X147208761Y-104338380D01*
X147399238Y-104338380D01*
X147494476Y-104290761D01*
X147542095Y-104243142D01*
X147589714Y-104147904D01*
X147589714Y-103957428D01*
X147542095Y-103862190D01*
X147494476Y-103814571D01*
X147399238Y-103766952D01*
X145708761Y-94178380D02*
X145375428Y-93702190D01*
X145137333Y-94178380D02*
X145137333Y-93178380D01*
X145518285Y-93178380D01*
X145613523Y-93226000D01*
X145661142Y-93273619D01*
X145708761Y-93368857D01*
X145708761Y-93511714D01*
X145661142Y-93606952D01*
X145613523Y-93654571D01*
X145518285Y-93702190D01*
X145137333Y-93702190D01*
X146470666Y-93654571D02*
X146137333Y-93654571D01*
X146137333Y-94178380D02*
X146137333Y-93178380D01*
X146613523Y-93178380D01*
X147184952Y-93178380D02*
X147280190Y-93178380D01*
X147375428Y-93226000D01*
X147423047Y-93273619D01*
X147470666Y-93368857D01*
X147518285Y-93559333D01*
X147518285Y-93797428D01*
X147470666Y-93987904D01*
X147423047Y-94083142D01*
X147375428Y-94130761D01*
X147280190Y-94178380D01*
X147184952Y-94178380D01*
X147089714Y-94130761D01*
X147042095Y-94083142D01*
X146994476Y-93987904D01*
X146946857Y-93797428D01*
X146946857Y-93559333D01*
X146994476Y-93368857D01*
X147042095Y-93273619D01*
X147089714Y-93226000D01*
X147184952Y-93178380D01*
X145637333Y-106878380D02*
X145304000Y-106402190D01*
X145065904Y-106878380D02*
X145065904Y-105878380D01*
X145446857Y-105878380D01*
X145542095Y-105926000D01*
X145589714Y-105973619D01*
X145637333Y-106068857D01*
X145637333Y-106211714D01*
X145589714Y-106306952D01*
X145542095Y-106354571D01*
X145446857Y-106402190D01*
X145065904Y-106402190D01*
X146399238Y-106354571D02*
X146542095Y-106402190D01*
X146589714Y-106449809D01*
X146637333Y-106545047D01*
X146637333Y-106687904D01*
X146589714Y-106783142D01*
X146542095Y-106830761D01*
X146446857Y-106878380D01*
X146065904Y-106878380D01*
X146065904Y-105878380D01*
X146399238Y-105878380D01*
X146494476Y-105926000D01*
X146542095Y-105973619D01*
X146589714Y-106068857D01*
X146589714Y-106164095D01*
X146542095Y-106259333D01*
X146494476Y-106306952D01*
X146399238Y-106354571D01*
X146065904Y-106354571D01*
X146970666Y-105878380D02*
X147637333Y-105878380D01*
X147208761Y-106878380D01*
X144907142Y-91638380D02*
X144573809Y-91162190D01*
X144335714Y-91638380D02*
X144335714Y-90638380D01*
X144716666Y-90638380D01*
X144811904Y-90686000D01*
X144859523Y-90733619D01*
X144907142Y-90828857D01*
X144907142Y-90971714D01*
X144859523Y-91066952D01*
X144811904Y-91114571D01*
X144716666Y-91162190D01*
X144335714Y-91162190D01*
X145669047Y-91114571D02*
X145811904Y-91162190D01*
X145859523Y-91209809D01*
X145907142Y-91305047D01*
X145907142Y-91447904D01*
X145859523Y-91543142D01*
X145811904Y-91590761D01*
X145716666Y-91638380D01*
X145335714Y-91638380D01*
X145335714Y-90638380D01*
X145669047Y-90638380D01*
X145764285Y-90686000D01*
X145811904Y-90733619D01*
X145859523Y-90828857D01*
X145859523Y-90924095D01*
X145811904Y-91019333D01*
X145764285Y-91066952D01*
X145669047Y-91114571D01*
X145335714Y-91114571D01*
X146859523Y-91638380D02*
X146288095Y-91638380D01*
X146573809Y-91638380D02*
X146573809Y-90638380D01*
X146478571Y-90781238D01*
X146383333Y-90876476D01*
X146288095Y-90924095D01*
X147478571Y-90638380D02*
X147573809Y-90638380D01*
X147669047Y-90686000D01*
X147716666Y-90733619D01*
X147764285Y-90828857D01*
X147811904Y-91019333D01*
X147811904Y-91257428D01*
X147764285Y-91447904D01*
X147716666Y-91543142D01*
X147669047Y-91590761D01*
X147573809Y-91638380D01*
X147478571Y-91638380D01*
X147383333Y-91590761D01*
X147335714Y-91543142D01*
X147288095Y-91447904D01*
X147240476Y-91257428D01*
X147240476Y-91019333D01*
X147288095Y-90828857D01*
X147335714Y-90733619D01*
X147383333Y-90686000D01*
X147478571Y-90638380D01*
X145637333Y-101798380D02*
X145304000Y-101322190D01*
X145065904Y-101798380D02*
X145065904Y-100798380D01*
X145446857Y-100798380D01*
X145542095Y-100846000D01*
X145589714Y-100893619D01*
X145637333Y-100988857D01*
X145637333Y-101131714D01*
X145589714Y-101226952D01*
X145542095Y-101274571D01*
X145446857Y-101322190D01*
X145065904Y-101322190D01*
X146637333Y-101703142D02*
X146589714Y-101750761D01*
X146446857Y-101798380D01*
X146351619Y-101798380D01*
X146208761Y-101750761D01*
X146113523Y-101655523D01*
X146065904Y-101560285D01*
X146018285Y-101369809D01*
X146018285Y-101226952D01*
X146065904Y-101036476D01*
X146113523Y-100941238D01*
X146208761Y-100846000D01*
X146351619Y-100798380D01*
X146446857Y-100798380D01*
X146589714Y-100846000D01*
X146637333Y-100893619D01*
X147494476Y-100798380D02*
X147304000Y-100798380D01*
X147208761Y-100846000D01*
X147161142Y-100893619D01*
X147065904Y-101036476D01*
X147018285Y-101226952D01*
X147018285Y-101607904D01*
X147065904Y-101703142D01*
X147113523Y-101750761D01*
X147208761Y-101798380D01*
X147399238Y-101798380D01*
X147494476Y-101750761D01*
X147542095Y-101703142D01*
X147589714Y-101607904D01*
X147589714Y-101369809D01*
X147542095Y-101274571D01*
X147494476Y-101226952D01*
X147399238Y-101179333D01*
X147208761Y-101179333D01*
X147113523Y-101226952D01*
X147065904Y-101274571D01*
X147018285Y-101369809D01*
X145423047Y-117038380D02*
X145423047Y-116038380D01*
X145661142Y-116038380D01*
X145804000Y-116086000D01*
X145899238Y-116181238D01*
X145946857Y-116276476D01*
X145994476Y-116466952D01*
X145994476Y-116609809D01*
X145946857Y-116800285D01*
X145899238Y-116895523D01*
X145804000Y-116990761D01*
X145661142Y-117038380D01*
X145423047Y-117038380D01*
X146423047Y-116657428D02*
X147184952Y-116657428D01*
X144653142Y-89098380D02*
X144319809Y-88622190D01*
X144081714Y-89098380D02*
X144081714Y-88098380D01*
X144462666Y-88098380D01*
X144557904Y-88146000D01*
X144605523Y-88193619D01*
X144653142Y-88288857D01*
X144653142Y-88431714D01*
X144605523Y-88526952D01*
X144557904Y-88574571D01*
X144462666Y-88622190D01*
X144081714Y-88622190D01*
X145415047Y-88574571D02*
X145557904Y-88622190D01*
X145605523Y-88669809D01*
X145653142Y-88765047D01*
X145653142Y-88907904D01*
X145605523Y-89003142D01*
X145557904Y-89050761D01*
X145462666Y-89098380D01*
X145081714Y-89098380D01*
X145081714Y-88098380D01*
X145415047Y-88098380D01*
X145510285Y-88146000D01*
X145557904Y-88193619D01*
X145605523Y-88288857D01*
X145605523Y-88384095D01*
X145557904Y-88479333D01*
X145510285Y-88526952D01*
X145415047Y-88574571D01*
X145081714Y-88574571D01*
X146605523Y-89098380D02*
X146034095Y-89098380D01*
X146319809Y-89098380D02*
X146319809Y-88098380D01*
X146224571Y-88241238D01*
X146129333Y-88336476D01*
X146034095Y-88384095D01*
X146986476Y-88193619D02*
X147034095Y-88146000D01*
X147129333Y-88098380D01*
X147367428Y-88098380D01*
X147462666Y-88146000D01*
X147510285Y-88193619D01*
X147557904Y-88288857D01*
X147557904Y-88384095D01*
X147510285Y-88526952D01*
X146938857Y-89098380D01*
X147557904Y-89098380D01*
X144216666Y-118578380D02*
X144550000Y-119578380D01*
X144883333Y-118578380D01*
X145550000Y-119054571D02*
X145692857Y-119102190D01*
X145740476Y-119149809D01*
X145788095Y-119245047D01*
X145788095Y-119387904D01*
X145740476Y-119483142D01*
X145692857Y-119530761D01*
X145597619Y-119578380D01*
X145216666Y-119578380D01*
X145216666Y-118578380D01*
X145550000Y-118578380D01*
X145645238Y-118626000D01*
X145692857Y-118673619D01*
X145740476Y-118768857D01*
X145740476Y-118864095D01*
X145692857Y-118959333D01*
X145645238Y-119006952D01*
X145550000Y-119054571D01*
X145216666Y-119054571D01*
X146216666Y-118578380D02*
X146216666Y-119387904D01*
X146264285Y-119483142D01*
X146311904Y-119530761D01*
X146407142Y-119578380D01*
X146597619Y-119578380D01*
X146692857Y-119530761D01*
X146740476Y-119483142D01*
X146788095Y-119387904D01*
X146788095Y-118578380D01*
X147216666Y-119530761D02*
X147359523Y-119578380D01*
X147597619Y-119578380D01*
X147692857Y-119530761D01*
X147740476Y-119483142D01*
X147788095Y-119387904D01*
X147788095Y-119292666D01*
X147740476Y-119197428D01*
X147692857Y-119149809D01*
X147597619Y-119102190D01*
X147407142Y-119054571D01*
X147311904Y-119006952D01*
X147264285Y-118959333D01*
X147216666Y-118864095D01*
X147216666Y-118768857D01*
X147264285Y-118673619D01*
X147311904Y-118626000D01*
X147407142Y-118578380D01*
X147645238Y-118578380D01*
X147788095Y-118626000D01*
X145542095Y-82812000D02*
X145446857Y-82764380D01*
X145304000Y-82764380D01*
X145161142Y-82812000D01*
X145065904Y-82907238D01*
X145018285Y-83002476D01*
X144970666Y-83192952D01*
X144970666Y-83335809D01*
X145018285Y-83526285D01*
X145065904Y-83621523D01*
X145161142Y-83716761D01*
X145304000Y-83764380D01*
X145399238Y-83764380D01*
X145542095Y-83716761D01*
X145589714Y-83669142D01*
X145589714Y-83335809D01*
X145399238Y-83335809D01*
X146018285Y-83764380D02*
X146018285Y-82764380D01*
X146589714Y-83764380D01*
X146589714Y-82764380D01*
X147065904Y-83764380D02*
X147065904Y-82764380D01*
X147304000Y-82764380D01*
X147446857Y-82812000D01*
X147542095Y-82907238D01*
X147589714Y-83002476D01*
X147637333Y-83192952D01*
X147637333Y-83335809D01*
X147589714Y-83526285D01*
X147542095Y-83621523D01*
X147446857Y-83716761D01*
X147304000Y-83764380D01*
X147065904Y-83764380D01*
X145637333Y-96718380D02*
X145304000Y-96242190D01*
X145065904Y-96718380D02*
X145065904Y-95718380D01*
X145446857Y-95718380D01*
X145542095Y-95766000D01*
X145589714Y-95813619D01*
X145637333Y-95908857D01*
X145637333Y-96051714D01*
X145589714Y-96146952D01*
X145542095Y-96194571D01*
X145446857Y-96242190D01*
X145065904Y-96242190D01*
X146065904Y-96718380D02*
X146065904Y-95718380D01*
X146304000Y-95718380D01*
X146446857Y-95766000D01*
X146542095Y-95861238D01*
X146589714Y-95956476D01*
X146637333Y-96146952D01*
X146637333Y-96289809D01*
X146589714Y-96480285D01*
X146542095Y-96575523D01*
X146446857Y-96670761D01*
X146304000Y-96718380D01*
X146065904Y-96718380D01*
X147494476Y-95718380D02*
X147304000Y-95718380D01*
X147208761Y-95766000D01*
X147161142Y-95813619D01*
X147065904Y-95956476D01*
X147018285Y-96146952D01*
X147018285Y-96527904D01*
X147065904Y-96623142D01*
X147113523Y-96670761D01*
X147208761Y-96718380D01*
X147399238Y-96718380D01*
X147494476Y-96670761D01*
X147542095Y-96623142D01*
X147589714Y-96527904D01*
X147589714Y-96289809D01*
X147542095Y-96194571D01*
X147494476Y-96146952D01*
X147399238Y-96099333D01*
X147208761Y-96099333D01*
X147113523Y-96146952D01*
X147065904Y-96194571D01*
X147018285Y-96289809D01*
X145637333Y-109418380D02*
X145304000Y-108942190D01*
X145065904Y-109418380D02*
X145065904Y-108418380D01*
X145446857Y-108418380D01*
X145542095Y-108466000D01*
X145589714Y-108513619D01*
X145637333Y-108608857D01*
X145637333Y-108751714D01*
X145589714Y-108846952D01*
X145542095Y-108894571D01*
X145446857Y-108942190D01*
X145065904Y-108942190D01*
X146399238Y-108894571D02*
X146542095Y-108942190D01*
X146589714Y-108989809D01*
X146637333Y-109085047D01*
X146637333Y-109227904D01*
X146589714Y-109323142D01*
X146542095Y-109370761D01*
X146446857Y-109418380D01*
X146065904Y-109418380D01*
X146065904Y-108418380D01*
X146399238Y-108418380D01*
X146494476Y-108466000D01*
X146542095Y-108513619D01*
X146589714Y-108608857D01*
X146589714Y-108704095D01*
X146542095Y-108799333D01*
X146494476Y-108846952D01*
X146399238Y-108894571D01*
X146065904Y-108894571D01*
X147494476Y-108418380D02*
X147304000Y-108418380D01*
X147208761Y-108466000D01*
X147161142Y-108513619D01*
X147065904Y-108656476D01*
X147018285Y-108846952D01*
X147018285Y-109227904D01*
X147065904Y-109323142D01*
X147113523Y-109370761D01*
X147208761Y-109418380D01*
X147399238Y-109418380D01*
X147494476Y-109370761D01*
X147542095Y-109323142D01*
X147589714Y-109227904D01*
X147589714Y-108989809D01*
X147542095Y-108894571D01*
X147494476Y-108846952D01*
X147399238Y-108799333D01*
X147208761Y-108799333D01*
X147113523Y-108846952D01*
X147065904Y-108894571D01*
X147018285Y-108989809D01*
X106680095Y-121420000D02*
X106584857Y-121372380D01*
X106442000Y-121372380D01*
X106299142Y-121420000D01*
X106203904Y-121515238D01*
X106156285Y-121610476D01*
X106108666Y-121800952D01*
X106108666Y-121943809D01*
X106156285Y-122134285D01*
X106203904Y-122229523D01*
X106299142Y-122324761D01*
X106442000Y-122372380D01*
X106537238Y-122372380D01*
X106680095Y-122324761D01*
X106727714Y-122277142D01*
X106727714Y-121943809D01*
X106537238Y-121943809D01*
X107156285Y-122372380D02*
X107156285Y-121372380D01*
X107727714Y-122372380D01*
X107727714Y-121372380D01*
X108203904Y-122372380D02*
X108203904Y-121372380D01*
X108442000Y-121372380D01*
X108584857Y-121420000D01*
X108680095Y-121515238D01*
X108727714Y-121610476D01*
X108775333Y-121800952D01*
X108775333Y-121943809D01*
X108727714Y-122134285D01*
X108680095Y-122229523D01*
X108584857Y-122324761D01*
X108442000Y-122372380D01*
X108203904Y-122372380D01*
X106854761Y-114752380D02*
X106521428Y-114276190D01*
X106283333Y-114752380D02*
X106283333Y-113752380D01*
X106664285Y-113752380D01*
X106759523Y-113800000D01*
X106807142Y-113847619D01*
X106854761Y-113942857D01*
X106854761Y-114085714D01*
X106807142Y-114180952D01*
X106759523Y-114228571D01*
X106664285Y-114276190D01*
X106283333Y-114276190D01*
X107283333Y-114228571D02*
X107616666Y-114228571D01*
X107759523Y-114752380D02*
X107283333Y-114752380D01*
X107283333Y-113752380D01*
X107759523Y-113752380D01*
X108711904Y-114752380D02*
X108140476Y-114752380D01*
X108426190Y-114752380D02*
X108426190Y-113752380D01*
X108330952Y-113895238D01*
X108235714Y-113990476D01*
X108140476Y-114038095D01*
X109045238Y-113752380D02*
X109664285Y-113752380D01*
X109330952Y-114133333D01*
X109473809Y-114133333D01*
X109569047Y-114180952D01*
X109616666Y-114228571D01*
X109664285Y-114323809D01*
X109664285Y-114561904D01*
X109616666Y-114657142D01*
X109569047Y-114704761D01*
X109473809Y-114752380D01*
X109188095Y-114752380D01*
X109092857Y-114704761D01*
X109045238Y-114657142D01*
X106807142Y-87066380D02*
X106473809Y-86590190D01*
X106235714Y-87066380D02*
X106235714Y-86066380D01*
X106616666Y-86066380D01*
X106711904Y-86114000D01*
X106759523Y-86161619D01*
X106807142Y-86256857D01*
X106807142Y-86399714D01*
X106759523Y-86494952D01*
X106711904Y-86542571D01*
X106616666Y-86590190D01*
X106235714Y-86590190D01*
X107569047Y-86542571D02*
X107711904Y-86590190D01*
X107759523Y-86637809D01*
X107807142Y-86733047D01*
X107807142Y-86875904D01*
X107759523Y-86971142D01*
X107711904Y-87018761D01*
X107616666Y-87066380D01*
X107235714Y-87066380D01*
X107235714Y-86066380D01*
X107569047Y-86066380D01*
X107664285Y-86114000D01*
X107711904Y-86161619D01*
X107759523Y-86256857D01*
X107759523Y-86352095D01*
X107711904Y-86447333D01*
X107664285Y-86494952D01*
X107569047Y-86542571D01*
X107235714Y-86542571D01*
X108759523Y-87066380D02*
X108188095Y-87066380D01*
X108473809Y-87066380D02*
X108473809Y-86066380D01*
X108378571Y-86209238D01*
X108283333Y-86304476D01*
X108188095Y-86352095D01*
X109616666Y-86399714D02*
X109616666Y-87066380D01*
X109378571Y-86018761D02*
X109140476Y-86733047D01*
X109759523Y-86733047D01*
X106878571Y-99512380D02*
X106545238Y-99036190D01*
X106307142Y-99512380D02*
X106307142Y-98512380D01*
X106688095Y-98512380D01*
X106783333Y-98560000D01*
X106830952Y-98607619D01*
X106878571Y-98702857D01*
X106878571Y-98845714D01*
X106830952Y-98940952D01*
X106783333Y-98988571D01*
X106688095Y-99036190D01*
X106307142Y-99036190D01*
X107259523Y-99226666D02*
X107735714Y-99226666D01*
X107164285Y-99512380D02*
X107497619Y-98512380D01*
X107830952Y-99512380D01*
X108688095Y-99512380D02*
X108116666Y-99512380D01*
X108402380Y-99512380D02*
X108402380Y-98512380D01*
X108307142Y-98655238D01*
X108211904Y-98750476D01*
X108116666Y-98798095D01*
X109640476Y-99512380D02*
X109069047Y-99512380D01*
X109354761Y-99512380D02*
X109354761Y-98512380D01*
X109259523Y-98655238D01*
X109164285Y-98750476D01*
X109069047Y-98798095D01*
X106807142Y-112212380D02*
X106473809Y-111736190D01*
X106235714Y-112212380D02*
X106235714Y-111212380D01*
X106616666Y-111212380D01*
X106711904Y-111260000D01*
X106759523Y-111307619D01*
X106807142Y-111402857D01*
X106807142Y-111545714D01*
X106759523Y-111640952D01*
X106711904Y-111688571D01*
X106616666Y-111736190D01*
X106235714Y-111736190D01*
X107807142Y-112117142D02*
X107759523Y-112164761D01*
X107616666Y-112212380D01*
X107521428Y-112212380D01*
X107378571Y-112164761D01*
X107283333Y-112069523D01*
X107235714Y-111974285D01*
X107188095Y-111783809D01*
X107188095Y-111640952D01*
X107235714Y-111450476D01*
X107283333Y-111355238D01*
X107378571Y-111260000D01*
X107521428Y-111212380D01*
X107616666Y-111212380D01*
X107759523Y-111260000D01*
X107807142Y-111307619D01*
X108759523Y-112212380D02*
X108188095Y-112212380D01*
X108473809Y-112212380D02*
X108473809Y-111212380D01*
X108378571Y-111355238D01*
X108283333Y-111450476D01*
X108188095Y-111498095D01*
X109711904Y-112212380D02*
X109140476Y-112212380D01*
X109426190Y-112212380D02*
X109426190Y-111212380D01*
X109330952Y-111355238D01*
X109235714Y-111450476D01*
X109140476Y-111498095D01*
X106775333Y-104592380D02*
X106442000Y-104116190D01*
X106203904Y-104592380D02*
X106203904Y-103592380D01*
X106584857Y-103592380D01*
X106680095Y-103640000D01*
X106727714Y-103687619D01*
X106775333Y-103782857D01*
X106775333Y-103925714D01*
X106727714Y-104020952D01*
X106680095Y-104068571D01*
X106584857Y-104116190D01*
X106203904Y-104116190D01*
X107537238Y-104068571D02*
X107680095Y-104116190D01*
X107727714Y-104163809D01*
X107775333Y-104259047D01*
X107775333Y-104401904D01*
X107727714Y-104497142D01*
X107680095Y-104544761D01*
X107584857Y-104592380D01*
X107203904Y-104592380D01*
X107203904Y-103592380D01*
X107537238Y-103592380D01*
X107632476Y-103640000D01*
X107680095Y-103687619D01*
X107727714Y-103782857D01*
X107727714Y-103878095D01*
X107680095Y-103973333D01*
X107632476Y-104020952D01*
X107537238Y-104068571D01*
X107203904Y-104068571D01*
X108727714Y-104592380D02*
X108156285Y-104592380D01*
X108442000Y-104592380D02*
X108442000Y-103592380D01*
X108346761Y-103735238D01*
X108251523Y-103830476D01*
X108156285Y-103878095D01*
X106775333Y-94432380D02*
X106442000Y-93956190D01*
X106203904Y-94432380D02*
X106203904Y-93432380D01*
X106584857Y-93432380D01*
X106680095Y-93480000D01*
X106727714Y-93527619D01*
X106775333Y-93622857D01*
X106775333Y-93765714D01*
X106727714Y-93860952D01*
X106680095Y-93908571D01*
X106584857Y-93956190D01*
X106203904Y-93956190D01*
X107727714Y-93480000D02*
X107632476Y-93432380D01*
X107489619Y-93432380D01*
X107346761Y-93480000D01*
X107251523Y-93575238D01*
X107203904Y-93670476D01*
X107156285Y-93860952D01*
X107156285Y-94003809D01*
X107203904Y-94194285D01*
X107251523Y-94289523D01*
X107346761Y-94384761D01*
X107489619Y-94432380D01*
X107584857Y-94432380D01*
X107727714Y-94384761D01*
X107775333Y-94337142D01*
X107775333Y-94003809D01*
X107584857Y-94003809D01*
X108251523Y-94432380D02*
X108442000Y-94432380D01*
X108537238Y-94384761D01*
X108584857Y-94337142D01*
X108680095Y-94194285D01*
X108727714Y-94003809D01*
X108727714Y-93622857D01*
X108680095Y-93527619D01*
X108632476Y-93480000D01*
X108537238Y-93432380D01*
X108346761Y-93432380D01*
X108251523Y-93480000D01*
X108203904Y-93527619D01*
X108156285Y-93622857D01*
X108156285Y-93860952D01*
X108203904Y-93956190D01*
X108251523Y-94003809D01*
X108346761Y-94051428D01*
X108537238Y-94051428D01*
X108632476Y-94003809D01*
X108680095Y-93956190D01*
X108727714Y-93860952D01*
X106775333Y-107132380D02*
X106442000Y-106656190D01*
X106203904Y-107132380D02*
X106203904Y-106132380D01*
X106584857Y-106132380D01*
X106680095Y-106180000D01*
X106727714Y-106227619D01*
X106775333Y-106322857D01*
X106775333Y-106465714D01*
X106727714Y-106560952D01*
X106680095Y-106608571D01*
X106584857Y-106656190D01*
X106203904Y-106656190D01*
X107537238Y-106608571D02*
X107680095Y-106656190D01*
X107727714Y-106703809D01*
X107775333Y-106799047D01*
X107775333Y-106941904D01*
X107727714Y-107037142D01*
X107680095Y-107084761D01*
X107584857Y-107132380D01*
X107203904Y-107132380D01*
X107203904Y-106132380D01*
X107537238Y-106132380D01*
X107632476Y-106180000D01*
X107680095Y-106227619D01*
X107727714Y-106322857D01*
X107727714Y-106418095D01*
X107680095Y-106513333D01*
X107632476Y-106560952D01*
X107537238Y-106608571D01*
X107203904Y-106608571D01*
X108108666Y-106132380D02*
X108727714Y-106132380D01*
X108394380Y-106513333D01*
X108537238Y-106513333D01*
X108632476Y-106560952D01*
X108680095Y-106608571D01*
X108727714Y-106703809D01*
X108727714Y-106941904D01*
X108680095Y-107037142D01*
X108632476Y-107084761D01*
X108537238Y-107132380D01*
X108251523Y-107132380D01*
X108156285Y-107084761D01*
X108108666Y-107037142D01*
X106775333Y-91892380D02*
X106442000Y-91416190D01*
X106203904Y-91892380D02*
X106203904Y-90892380D01*
X106584857Y-90892380D01*
X106680095Y-90940000D01*
X106727714Y-90987619D01*
X106775333Y-91082857D01*
X106775333Y-91225714D01*
X106727714Y-91320952D01*
X106680095Y-91368571D01*
X106584857Y-91416190D01*
X106203904Y-91416190D01*
X107727714Y-90940000D02*
X107632476Y-90892380D01*
X107489619Y-90892380D01*
X107346761Y-90940000D01*
X107251523Y-91035238D01*
X107203904Y-91130476D01*
X107156285Y-91320952D01*
X107156285Y-91463809D01*
X107203904Y-91654285D01*
X107251523Y-91749523D01*
X107346761Y-91844761D01*
X107489619Y-91892380D01*
X107584857Y-91892380D01*
X107727714Y-91844761D01*
X107775333Y-91797142D01*
X107775333Y-91463809D01*
X107584857Y-91463809D01*
X108346761Y-91320952D02*
X108251523Y-91273333D01*
X108203904Y-91225714D01*
X108156285Y-91130476D01*
X108156285Y-91082857D01*
X108203904Y-90987619D01*
X108251523Y-90940000D01*
X108346761Y-90892380D01*
X108537238Y-90892380D01*
X108632476Y-90940000D01*
X108680095Y-90987619D01*
X108727714Y-91082857D01*
X108727714Y-91130476D01*
X108680095Y-91225714D01*
X108632476Y-91273333D01*
X108537238Y-91320952D01*
X108346761Y-91320952D01*
X108251523Y-91368571D01*
X108203904Y-91416190D01*
X108156285Y-91511428D01*
X108156285Y-91701904D01*
X108203904Y-91797142D01*
X108251523Y-91844761D01*
X108346761Y-91892380D01*
X108537238Y-91892380D01*
X108632476Y-91844761D01*
X108680095Y-91797142D01*
X108727714Y-91701904D01*
X108727714Y-91511428D01*
X108680095Y-91416190D01*
X108632476Y-91368571D01*
X108537238Y-91320952D01*
X106846761Y-102052380D02*
X106513428Y-101576190D01*
X106275333Y-102052380D02*
X106275333Y-101052380D01*
X106656285Y-101052380D01*
X106751523Y-101100000D01*
X106799142Y-101147619D01*
X106846761Y-101242857D01*
X106846761Y-101385714D01*
X106799142Y-101480952D01*
X106751523Y-101528571D01*
X106656285Y-101576190D01*
X106275333Y-101576190D01*
X107227714Y-101766666D02*
X107703904Y-101766666D01*
X107132476Y-102052380D02*
X107465809Y-101052380D01*
X107799142Y-102052380D01*
X108656285Y-102052380D02*
X108084857Y-102052380D01*
X108370571Y-102052380D02*
X108370571Y-101052380D01*
X108275333Y-101195238D01*
X108180095Y-101290476D01*
X108084857Y-101338095D01*
X106854761Y-117292380D02*
X106521428Y-116816190D01*
X106283333Y-117292380D02*
X106283333Y-116292380D01*
X106664285Y-116292380D01*
X106759523Y-116340000D01*
X106807142Y-116387619D01*
X106854761Y-116482857D01*
X106854761Y-116625714D01*
X106807142Y-116720952D01*
X106759523Y-116768571D01*
X106664285Y-116816190D01*
X106283333Y-116816190D01*
X107283333Y-116768571D02*
X107616666Y-116768571D01*
X107759523Y-117292380D02*
X107283333Y-117292380D01*
X107283333Y-116292380D01*
X107759523Y-116292380D01*
X108711904Y-117292380D02*
X108140476Y-117292380D01*
X108426190Y-117292380D02*
X108426190Y-116292380D01*
X108330952Y-116435238D01*
X108235714Y-116530476D01*
X108140476Y-116578095D01*
X109616666Y-116292380D02*
X109140476Y-116292380D01*
X109092857Y-116768571D01*
X109140476Y-116720952D01*
X109235714Y-116673333D01*
X109473809Y-116673333D01*
X109569047Y-116720952D01*
X109616666Y-116768571D01*
X109664285Y-116863809D01*
X109664285Y-117101904D01*
X109616666Y-117197142D01*
X109569047Y-117244761D01*
X109473809Y-117292380D01*
X109235714Y-117292380D01*
X109140476Y-117244761D01*
X109092857Y-117197142D01*
X106775333Y-89352380D02*
X106442000Y-88876190D01*
X106203904Y-89352380D02*
X106203904Y-88352380D01*
X106584857Y-88352380D01*
X106680095Y-88400000D01*
X106727714Y-88447619D01*
X106775333Y-88542857D01*
X106775333Y-88685714D01*
X106727714Y-88780952D01*
X106680095Y-88828571D01*
X106584857Y-88876190D01*
X106203904Y-88876190D01*
X107727714Y-88400000D02*
X107632476Y-88352380D01*
X107489619Y-88352380D01*
X107346761Y-88400000D01*
X107251523Y-88495238D01*
X107203904Y-88590476D01*
X107156285Y-88780952D01*
X107156285Y-88923809D01*
X107203904Y-89114285D01*
X107251523Y-89209523D01*
X107346761Y-89304761D01*
X107489619Y-89352380D01*
X107584857Y-89352380D01*
X107727714Y-89304761D01*
X107775333Y-89257142D01*
X107775333Y-88923809D01*
X107584857Y-88923809D01*
X108632476Y-88352380D02*
X108442000Y-88352380D01*
X108346761Y-88400000D01*
X108299142Y-88447619D01*
X108203904Y-88590476D01*
X108156285Y-88780952D01*
X108156285Y-89161904D01*
X108203904Y-89257142D01*
X108251523Y-89304761D01*
X108346761Y-89352380D01*
X108537238Y-89352380D01*
X108632476Y-89304761D01*
X108680095Y-89257142D01*
X108727714Y-89161904D01*
X108727714Y-88923809D01*
X108680095Y-88828571D01*
X108632476Y-88780952D01*
X108537238Y-88733333D01*
X108346761Y-88733333D01*
X108251523Y-88780952D01*
X108203904Y-88828571D01*
X108156285Y-88923809D01*
X106775333Y-119832380D02*
X106442000Y-119356190D01*
X106203904Y-119832380D02*
X106203904Y-118832380D01*
X106584857Y-118832380D01*
X106680095Y-118880000D01*
X106727714Y-118927619D01*
X106775333Y-119022857D01*
X106775333Y-119165714D01*
X106727714Y-119260952D01*
X106680095Y-119308571D01*
X106584857Y-119356190D01*
X106203904Y-119356190D01*
X107537238Y-119308571D02*
X107680095Y-119356190D01*
X107727714Y-119403809D01*
X107775333Y-119499047D01*
X107775333Y-119641904D01*
X107727714Y-119737142D01*
X107680095Y-119784761D01*
X107584857Y-119832380D01*
X107203904Y-119832380D01*
X107203904Y-118832380D01*
X107537238Y-118832380D01*
X107632476Y-118880000D01*
X107680095Y-118927619D01*
X107727714Y-119022857D01*
X107727714Y-119118095D01*
X107680095Y-119213333D01*
X107632476Y-119260952D01*
X107537238Y-119308571D01*
X107203904Y-119308571D01*
X108632476Y-119165714D02*
X108632476Y-119832380D01*
X108394380Y-118784761D02*
X108156285Y-119499047D01*
X108775333Y-119499047D01*
X106680095Y-83574000D02*
X106584857Y-83526380D01*
X106442000Y-83526380D01*
X106299142Y-83574000D01*
X106203904Y-83669238D01*
X106156285Y-83764476D01*
X106108666Y-83954952D01*
X106108666Y-84097809D01*
X106156285Y-84288285D01*
X106203904Y-84383523D01*
X106299142Y-84478761D01*
X106442000Y-84526380D01*
X106537238Y-84526380D01*
X106680095Y-84478761D01*
X106727714Y-84431142D01*
X106727714Y-84097809D01*
X106537238Y-84097809D01*
X107156285Y-84526380D02*
X107156285Y-83526380D01*
X107727714Y-84526380D01*
X107727714Y-83526380D01*
X108203904Y-84526380D02*
X108203904Y-83526380D01*
X108442000Y-83526380D01*
X108584857Y-83574000D01*
X108680095Y-83669238D01*
X108727714Y-83764476D01*
X108775333Y-83954952D01*
X108775333Y-84097809D01*
X108727714Y-84288285D01*
X108680095Y-84383523D01*
X108584857Y-84478761D01*
X108442000Y-84526380D01*
X108203904Y-84526380D01*
X106203904Y-95972380D02*
X106822952Y-95972380D01*
X106489619Y-96353333D01*
X106632476Y-96353333D01*
X106727714Y-96400952D01*
X106775333Y-96448571D01*
X106822952Y-96543809D01*
X106822952Y-96781904D01*
X106775333Y-96877142D01*
X106727714Y-96924761D01*
X106632476Y-96972380D01*
X106346761Y-96972380D01*
X106251523Y-96924761D01*
X106203904Y-96877142D01*
X107108666Y-95972380D02*
X107442000Y-96972380D01*
X107775333Y-95972380D01*
X108013428Y-95972380D02*
X108632476Y-95972380D01*
X108299142Y-96353333D01*
X108442000Y-96353333D01*
X108537238Y-96400952D01*
X108584857Y-96448571D01*
X108632476Y-96543809D01*
X108632476Y-96781904D01*
X108584857Y-96877142D01*
X108537238Y-96924761D01*
X108442000Y-96972380D01*
X108156285Y-96972380D01*
X108061047Y-96924761D01*
X108013428Y-96877142D01*
X106775333Y-109672380D02*
X106442000Y-109196190D01*
X106203904Y-109672380D02*
X106203904Y-108672380D01*
X106584857Y-108672380D01*
X106680095Y-108720000D01*
X106727714Y-108767619D01*
X106775333Y-108862857D01*
X106775333Y-109005714D01*
X106727714Y-109100952D01*
X106680095Y-109148571D01*
X106584857Y-109196190D01*
X106203904Y-109196190D01*
X107775333Y-109577142D02*
X107727714Y-109624761D01*
X107584857Y-109672380D01*
X107489619Y-109672380D01*
X107346761Y-109624761D01*
X107251523Y-109529523D01*
X107203904Y-109434285D01*
X107156285Y-109243809D01*
X107156285Y-109100952D01*
X107203904Y-108910476D01*
X107251523Y-108815238D01*
X107346761Y-108720000D01*
X107489619Y-108672380D01*
X107584857Y-108672380D01*
X107727714Y-108720000D01*
X107775333Y-108767619D01*
X108727714Y-109672380D02*
X108156285Y-109672380D01*
X108442000Y-109672380D02*
X108442000Y-108672380D01*
X108346761Y-108815238D01*
X108251523Y-108910476D01*
X108156285Y-108958095D01*
X98044095Y-121420000D02*
X97948857Y-121372380D01*
X97806000Y-121372380D01*
X97663142Y-121420000D01*
X97567904Y-121515238D01*
X97520285Y-121610476D01*
X97472666Y-121800952D01*
X97472666Y-121943809D01*
X97520285Y-122134285D01*
X97567904Y-122229523D01*
X97663142Y-122324761D01*
X97806000Y-122372380D01*
X97901238Y-122372380D01*
X98044095Y-122324761D01*
X98091714Y-122277142D01*
X98091714Y-121943809D01*
X97901238Y-121943809D01*
X98520285Y-122372380D02*
X98520285Y-121372380D01*
X99091714Y-122372380D01*
X99091714Y-121372380D01*
X99567904Y-122372380D02*
X99567904Y-121372380D01*
X99806000Y-121372380D01*
X99948857Y-121420000D01*
X100044095Y-121515238D01*
X100091714Y-121610476D01*
X100139333Y-121800952D01*
X100139333Y-121943809D01*
X100091714Y-122134285D01*
X100044095Y-122229523D01*
X99948857Y-122324761D01*
X99806000Y-122372380D01*
X99567904Y-122372380D01*
X97202761Y-115006380D02*
X96869428Y-114530190D01*
X96631333Y-115006380D02*
X96631333Y-114006380D01*
X97012285Y-114006380D01*
X97107523Y-114054000D01*
X97155142Y-114101619D01*
X97202761Y-114196857D01*
X97202761Y-114339714D01*
X97155142Y-114434952D01*
X97107523Y-114482571D01*
X97012285Y-114530190D01*
X96631333Y-114530190D01*
X97631333Y-114482571D02*
X97964666Y-114482571D01*
X98107523Y-115006380D02*
X97631333Y-115006380D01*
X97631333Y-114006380D01*
X98107523Y-114006380D01*
X99059904Y-115006380D02*
X98488476Y-115006380D01*
X98774190Y-115006380D02*
X98774190Y-114006380D01*
X98678952Y-114149238D01*
X98583714Y-114244476D01*
X98488476Y-114292095D01*
X99440857Y-114101619D02*
X99488476Y-114054000D01*
X99583714Y-114006380D01*
X99821809Y-114006380D01*
X99917047Y-114054000D01*
X99964666Y-114101619D01*
X100012285Y-114196857D01*
X100012285Y-114292095D01*
X99964666Y-114434952D01*
X99393238Y-115006380D01*
X100012285Y-115006380D01*
X98210761Y-87066380D02*
X97877428Y-86590190D01*
X97639333Y-87066380D02*
X97639333Y-86066380D01*
X98020285Y-86066380D01*
X98115523Y-86114000D01*
X98163142Y-86161619D01*
X98210761Y-86256857D01*
X98210761Y-86399714D01*
X98163142Y-86494952D01*
X98115523Y-86542571D01*
X98020285Y-86590190D01*
X97639333Y-86590190D01*
X98591714Y-86780666D02*
X99067904Y-86780666D01*
X98496476Y-87066380D02*
X98829809Y-86066380D01*
X99163142Y-87066380D01*
X99401238Y-86066380D02*
X100067904Y-86066380D01*
X99639333Y-87066380D01*
X97226571Y-99512380D02*
X96893238Y-99036190D01*
X96655142Y-99512380D02*
X96655142Y-98512380D01*
X97036095Y-98512380D01*
X97131333Y-98560000D01*
X97178952Y-98607619D01*
X97226571Y-98702857D01*
X97226571Y-98845714D01*
X97178952Y-98940952D01*
X97131333Y-98988571D01*
X97036095Y-99036190D01*
X96655142Y-99036190D01*
X97607523Y-99226666D02*
X98083714Y-99226666D01*
X97512285Y-99512380D02*
X97845619Y-98512380D01*
X98178952Y-99512380D01*
X99036095Y-99512380D02*
X98464666Y-99512380D01*
X98750380Y-99512380D02*
X98750380Y-98512380D01*
X98655142Y-98655238D01*
X98559904Y-98750476D01*
X98464666Y-98798095D01*
X99417047Y-98607619D02*
X99464666Y-98560000D01*
X99559904Y-98512380D01*
X99798000Y-98512380D01*
X99893238Y-98560000D01*
X99940857Y-98607619D01*
X99988476Y-98702857D01*
X99988476Y-98798095D01*
X99940857Y-98940952D01*
X99369428Y-99512380D01*
X99988476Y-99512380D01*
X98139333Y-112212380D02*
X97806000Y-111736190D01*
X97567904Y-112212380D02*
X97567904Y-111212380D01*
X97948857Y-111212380D01*
X98044095Y-111260000D01*
X98091714Y-111307619D01*
X98139333Y-111402857D01*
X98139333Y-111545714D01*
X98091714Y-111640952D01*
X98044095Y-111688571D01*
X97948857Y-111736190D01*
X97567904Y-111736190D01*
X99139333Y-112117142D02*
X99091714Y-112164761D01*
X98948857Y-112212380D01*
X98853619Y-112212380D01*
X98710761Y-112164761D01*
X98615523Y-112069523D01*
X98567904Y-111974285D01*
X98520285Y-111783809D01*
X98520285Y-111640952D01*
X98567904Y-111450476D01*
X98615523Y-111355238D01*
X98710761Y-111260000D01*
X98853619Y-111212380D01*
X98948857Y-111212380D01*
X99091714Y-111260000D01*
X99139333Y-111307619D01*
X99520285Y-111307619D02*
X99567904Y-111260000D01*
X99663142Y-111212380D01*
X99901238Y-111212380D01*
X99996476Y-111260000D01*
X100044095Y-111307619D01*
X100091714Y-111402857D01*
X100091714Y-111498095D01*
X100044095Y-111640952D01*
X99472666Y-112212380D01*
X100091714Y-112212380D01*
X98139333Y-104592380D02*
X97806000Y-104116190D01*
X97567904Y-104592380D02*
X97567904Y-103592380D01*
X97948857Y-103592380D01*
X98044095Y-103640000D01*
X98091714Y-103687619D01*
X98139333Y-103782857D01*
X98139333Y-103925714D01*
X98091714Y-104020952D01*
X98044095Y-104068571D01*
X97948857Y-104116190D01*
X97567904Y-104116190D01*
X98901238Y-104068571D02*
X99044095Y-104116190D01*
X99091714Y-104163809D01*
X99139333Y-104259047D01*
X99139333Y-104401904D01*
X99091714Y-104497142D01*
X99044095Y-104544761D01*
X98948857Y-104592380D01*
X98567904Y-104592380D01*
X98567904Y-103592380D01*
X98901238Y-103592380D01*
X98996476Y-103640000D01*
X99044095Y-103687619D01*
X99091714Y-103782857D01*
X99091714Y-103878095D01*
X99044095Y-103973333D01*
X98996476Y-104020952D01*
X98901238Y-104068571D01*
X98567904Y-104068571D01*
X99758380Y-103592380D02*
X99853619Y-103592380D01*
X99948857Y-103640000D01*
X99996476Y-103687619D01*
X100044095Y-103782857D01*
X100091714Y-103973333D01*
X100091714Y-104211428D01*
X100044095Y-104401904D01*
X99996476Y-104497142D01*
X99948857Y-104544761D01*
X99853619Y-104592380D01*
X99758380Y-104592380D01*
X99663142Y-104544761D01*
X99615523Y-104497142D01*
X99567904Y-104401904D01*
X99520285Y-104211428D01*
X99520285Y-103973333D01*
X99567904Y-103782857D01*
X99615523Y-103687619D01*
X99663142Y-103640000D01*
X99758380Y-103592380D01*
X96305904Y-94432380D02*
X96305904Y-93432380D01*
X96639238Y-94146666D01*
X96972571Y-93432380D01*
X96972571Y-94432380D01*
X98020190Y-94337142D02*
X97972571Y-94384761D01*
X97829714Y-94432380D01*
X97734476Y-94432380D01*
X97591619Y-94384761D01*
X97496380Y-94289523D01*
X97448761Y-94194285D01*
X97401142Y-94003809D01*
X97401142Y-93860952D01*
X97448761Y-93670476D01*
X97496380Y-93575238D01*
X97591619Y-93480000D01*
X97734476Y-93432380D01*
X97829714Y-93432380D01*
X97972571Y-93480000D01*
X98020190Y-93527619D01*
X98924952Y-94432380D02*
X98448761Y-94432380D01*
X98448761Y-93432380D01*
X99829714Y-94432380D02*
X99496380Y-93956190D01*
X99258285Y-94432380D02*
X99258285Y-93432380D01*
X99639238Y-93432380D01*
X99734476Y-93480000D01*
X99782095Y-93527619D01*
X99829714Y-93622857D01*
X99829714Y-93765714D01*
X99782095Y-93860952D01*
X99734476Y-93908571D01*
X99639238Y-93956190D01*
X99258285Y-93956190D01*
X98139333Y-107132380D02*
X97806000Y-106656190D01*
X97567904Y-107132380D02*
X97567904Y-106132380D01*
X97948857Y-106132380D01*
X98044095Y-106180000D01*
X98091714Y-106227619D01*
X98139333Y-106322857D01*
X98139333Y-106465714D01*
X98091714Y-106560952D01*
X98044095Y-106608571D01*
X97948857Y-106656190D01*
X97567904Y-106656190D01*
X98901238Y-106608571D02*
X99044095Y-106656190D01*
X99091714Y-106703809D01*
X99139333Y-106799047D01*
X99139333Y-106941904D01*
X99091714Y-107037142D01*
X99044095Y-107084761D01*
X98948857Y-107132380D01*
X98567904Y-107132380D01*
X98567904Y-106132380D01*
X98901238Y-106132380D01*
X98996476Y-106180000D01*
X99044095Y-106227619D01*
X99091714Y-106322857D01*
X99091714Y-106418095D01*
X99044095Y-106513333D01*
X98996476Y-106560952D01*
X98901238Y-106608571D01*
X98567904Y-106608571D01*
X99520285Y-106227619D02*
X99567904Y-106180000D01*
X99663142Y-106132380D01*
X99901238Y-106132380D01*
X99996476Y-106180000D01*
X100044095Y-106227619D01*
X100091714Y-106322857D01*
X100091714Y-106418095D01*
X100044095Y-106560952D01*
X99472666Y-107132380D01*
X100091714Y-107132380D01*
X98139333Y-91638380D02*
X97806000Y-91162190D01*
X97567904Y-91638380D02*
X97567904Y-90638380D01*
X97948857Y-90638380D01*
X98044095Y-90686000D01*
X98091714Y-90733619D01*
X98139333Y-90828857D01*
X98139333Y-90971714D01*
X98091714Y-91066952D01*
X98044095Y-91114571D01*
X97948857Y-91162190D01*
X97567904Y-91162190D01*
X99091714Y-90686000D02*
X98996476Y-90638380D01*
X98853619Y-90638380D01*
X98710761Y-90686000D01*
X98615523Y-90781238D01*
X98567904Y-90876476D01*
X98520285Y-91066952D01*
X98520285Y-91209809D01*
X98567904Y-91400285D01*
X98615523Y-91495523D01*
X98710761Y-91590761D01*
X98853619Y-91638380D01*
X98948857Y-91638380D01*
X99091714Y-91590761D01*
X99139333Y-91543142D01*
X99139333Y-91209809D01*
X98948857Y-91209809D01*
X99472666Y-90638380D02*
X100139333Y-90638380D01*
X99710761Y-91638380D01*
X98210761Y-102052380D02*
X97877428Y-101576190D01*
X97639333Y-102052380D02*
X97639333Y-101052380D01*
X98020285Y-101052380D01*
X98115523Y-101100000D01*
X98163142Y-101147619D01*
X98210761Y-101242857D01*
X98210761Y-101385714D01*
X98163142Y-101480952D01*
X98115523Y-101528571D01*
X98020285Y-101576190D01*
X97639333Y-101576190D01*
X98591714Y-101766666D02*
X99067904Y-101766666D01*
X98496476Y-102052380D02*
X98829809Y-101052380D01*
X99163142Y-102052380D01*
X99686952Y-101052380D02*
X99782190Y-101052380D01*
X99877428Y-101100000D01*
X99925047Y-101147619D01*
X99972666Y-101242857D01*
X100020285Y-101433333D01*
X100020285Y-101671428D01*
X99972666Y-101861904D01*
X99925047Y-101957142D01*
X99877428Y-102004761D01*
X99782190Y-102052380D01*
X99686952Y-102052380D01*
X99591714Y-102004761D01*
X99544095Y-101957142D01*
X99496476Y-101861904D01*
X99448857Y-101671428D01*
X99448857Y-101433333D01*
X99496476Y-101242857D01*
X99544095Y-101147619D01*
X99591714Y-101100000D01*
X99686952Y-101052380D01*
X97202761Y-117546380D02*
X96869428Y-117070190D01*
X96631333Y-117546380D02*
X96631333Y-116546380D01*
X97012285Y-116546380D01*
X97107523Y-116594000D01*
X97155142Y-116641619D01*
X97202761Y-116736857D01*
X97202761Y-116879714D01*
X97155142Y-116974952D01*
X97107523Y-117022571D01*
X97012285Y-117070190D01*
X96631333Y-117070190D01*
X97631333Y-117022571D02*
X97964666Y-117022571D01*
X98107523Y-117546380D02*
X97631333Y-117546380D01*
X97631333Y-116546380D01*
X98107523Y-116546380D01*
X99059904Y-117546380D02*
X98488476Y-117546380D01*
X98774190Y-117546380D02*
X98774190Y-116546380D01*
X98678952Y-116689238D01*
X98583714Y-116784476D01*
X98488476Y-116832095D01*
X99917047Y-116879714D02*
X99917047Y-117546380D01*
X99678952Y-116498761D02*
X99440857Y-117213047D01*
X100059904Y-117213047D01*
X97155142Y-89352380D02*
X96821809Y-88876190D01*
X96583714Y-89352380D02*
X96583714Y-88352380D01*
X96964666Y-88352380D01*
X97059904Y-88400000D01*
X97107523Y-88447619D01*
X97155142Y-88542857D01*
X97155142Y-88685714D01*
X97107523Y-88780952D01*
X97059904Y-88828571D01*
X96964666Y-88876190D01*
X96583714Y-88876190D01*
X97917047Y-88828571D02*
X98059904Y-88876190D01*
X98107523Y-88923809D01*
X98155142Y-89019047D01*
X98155142Y-89161904D01*
X98107523Y-89257142D01*
X98059904Y-89304761D01*
X97964666Y-89352380D01*
X97583714Y-89352380D01*
X97583714Y-88352380D01*
X97917047Y-88352380D01*
X98012285Y-88400000D01*
X98059904Y-88447619D01*
X98107523Y-88542857D01*
X98107523Y-88638095D01*
X98059904Y-88733333D01*
X98012285Y-88780952D01*
X97917047Y-88828571D01*
X97583714Y-88828571D01*
X99107523Y-89352380D02*
X98536095Y-89352380D01*
X98821809Y-89352380D02*
X98821809Y-88352380D01*
X98726571Y-88495238D01*
X98631333Y-88590476D01*
X98536095Y-88638095D01*
X100012285Y-88352380D02*
X99536095Y-88352380D01*
X99488476Y-88828571D01*
X99536095Y-88780952D01*
X99631333Y-88733333D01*
X99869428Y-88733333D01*
X99964666Y-88780952D01*
X100012285Y-88828571D01*
X100059904Y-88923809D01*
X100059904Y-89161904D01*
X100012285Y-89257142D01*
X99964666Y-89304761D01*
X99869428Y-89352380D01*
X99631333Y-89352380D01*
X99536095Y-89304761D01*
X99488476Y-89257142D01*
X98210761Y-120086380D02*
X97877428Y-119610190D01*
X97639333Y-120086380D02*
X97639333Y-119086380D01*
X98020285Y-119086380D01*
X98115523Y-119134000D01*
X98163142Y-119181619D01*
X98210761Y-119276857D01*
X98210761Y-119419714D01*
X98163142Y-119514952D01*
X98115523Y-119562571D01*
X98020285Y-119610190D01*
X97639333Y-119610190D01*
X98591714Y-119800666D02*
X99067904Y-119800666D01*
X98496476Y-120086380D02*
X98829809Y-119086380D01*
X99163142Y-120086380D01*
X99639333Y-119514952D02*
X99544095Y-119467333D01*
X99496476Y-119419714D01*
X99448857Y-119324476D01*
X99448857Y-119276857D01*
X99496476Y-119181619D01*
X99544095Y-119134000D01*
X99639333Y-119086380D01*
X99829809Y-119086380D01*
X99925047Y-119134000D01*
X99972666Y-119181619D01*
X100020285Y-119276857D01*
X100020285Y-119324476D01*
X99972666Y-119419714D01*
X99925047Y-119467333D01*
X99829809Y-119514952D01*
X99639333Y-119514952D01*
X99544095Y-119562571D01*
X99496476Y-119610190D01*
X99448857Y-119705428D01*
X99448857Y-119895904D01*
X99496476Y-119991142D01*
X99544095Y-120038761D01*
X99639333Y-120086380D01*
X99829809Y-120086380D01*
X99925047Y-120038761D01*
X99972666Y-119991142D01*
X100020285Y-119895904D01*
X100020285Y-119705428D01*
X99972666Y-119610190D01*
X99925047Y-119562571D01*
X99829809Y-119514952D01*
X98044095Y-83320000D02*
X97948857Y-83272380D01*
X97806000Y-83272380D01*
X97663142Y-83320000D01*
X97567904Y-83415238D01*
X97520285Y-83510476D01*
X97472666Y-83700952D01*
X97472666Y-83843809D01*
X97520285Y-84034285D01*
X97567904Y-84129523D01*
X97663142Y-84224761D01*
X97806000Y-84272380D01*
X97901238Y-84272380D01*
X98044095Y-84224761D01*
X98091714Y-84177142D01*
X98091714Y-83843809D01*
X97901238Y-83843809D01*
X98520285Y-84272380D02*
X98520285Y-83272380D01*
X99091714Y-84272380D01*
X99091714Y-83272380D01*
X99567904Y-84272380D02*
X99567904Y-83272380D01*
X99806000Y-83272380D01*
X99948857Y-83320000D01*
X100044095Y-83415238D01*
X100091714Y-83510476D01*
X100139333Y-83700952D01*
X100139333Y-83843809D01*
X100091714Y-84034285D01*
X100044095Y-84129523D01*
X99948857Y-84224761D01*
X99806000Y-84272380D01*
X99567904Y-84272380D01*
X97790095Y-96020000D02*
X97694857Y-95972380D01*
X97552000Y-95972380D01*
X97409142Y-96020000D01*
X97313904Y-96115238D01*
X97266285Y-96210476D01*
X97218666Y-96400952D01*
X97218666Y-96543809D01*
X97266285Y-96734285D01*
X97313904Y-96829523D01*
X97409142Y-96924761D01*
X97552000Y-96972380D01*
X97647238Y-96972380D01*
X97790095Y-96924761D01*
X97837714Y-96877142D01*
X97837714Y-96543809D01*
X97647238Y-96543809D01*
X98266285Y-96972380D02*
X98266285Y-95972380D01*
X98837714Y-96972380D01*
X98837714Y-95972380D01*
X99313904Y-96972380D02*
X99313904Y-95972380D01*
X99552000Y-95972380D01*
X99694857Y-96020000D01*
X99790095Y-96115238D01*
X99837714Y-96210476D01*
X99885333Y-96400952D01*
X99885333Y-96543809D01*
X99837714Y-96734285D01*
X99790095Y-96829523D01*
X99694857Y-96924761D01*
X99552000Y-96972380D01*
X99313904Y-96972380D01*
X98139333Y-109672380D02*
X97806000Y-109196190D01*
X97567904Y-109672380D02*
X97567904Y-108672380D01*
X97948857Y-108672380D01*
X98044095Y-108720000D01*
X98091714Y-108767619D01*
X98139333Y-108862857D01*
X98139333Y-109005714D01*
X98091714Y-109100952D01*
X98044095Y-109148571D01*
X97948857Y-109196190D01*
X97567904Y-109196190D01*
X99139333Y-109577142D02*
X99091714Y-109624761D01*
X98948857Y-109672380D01*
X98853619Y-109672380D01*
X98710761Y-109624761D01*
X98615523Y-109529523D01*
X98567904Y-109434285D01*
X98520285Y-109243809D01*
X98520285Y-109100952D01*
X98567904Y-108910476D01*
X98615523Y-108815238D01*
X98710761Y-108720000D01*
X98853619Y-108672380D01*
X98948857Y-108672380D01*
X99091714Y-108720000D01*
X99139333Y-108767619D01*
X99758380Y-108672380D02*
X99853619Y-108672380D01*
X99948857Y-108720000D01*
X99996476Y-108767619D01*
X100044095Y-108862857D01*
X100091714Y-109053333D01*
X100091714Y-109291428D01*
X100044095Y-109481904D01*
X99996476Y-109577142D01*
X99948857Y-109624761D01*
X99853619Y-109672380D01*
X99758380Y-109672380D01*
X99663142Y-109624761D01*
X99615523Y-109577142D01*
X99567904Y-109481904D01*
X99520285Y-109291428D01*
X99520285Y-109053333D01*
X99567904Y-108862857D01*
X99615523Y-108767619D01*
X99663142Y-108720000D01*
X99758380Y-108672380D01*
D11*
%TO.C,J2*%
X153476000Y-122488000D02*
X152146000Y-122488000D01*
X153476000Y-121158000D02*
X153476000Y-122488000D01*
X150876000Y-122488000D02*
X148276000Y-122488000D01*
X150876000Y-119888000D02*
X150876000Y-122488000D01*
X153476000Y-119888000D02*
X150876000Y-119888000D01*
X148276000Y-122488000D02*
X148276000Y-81728000D01*
X153476000Y-119888000D02*
X153476000Y-81728000D01*
X153476000Y-81728000D02*
X148276000Y-81728000D01*
%TO.C,J1*%
X100524000Y-82490000D02*
X101854000Y-82490000D01*
X100524000Y-83820000D02*
X100524000Y-82490000D01*
X103124000Y-82490000D02*
X105724000Y-82490000D01*
X103124000Y-85090000D02*
X103124000Y-82490000D01*
X100524000Y-85090000D02*
X103124000Y-85090000D01*
X105724000Y-82490000D02*
X105724000Y-123250000D01*
X100524000Y-85090000D02*
X100524000Y-123250000D01*
X100524000Y-123250000D02*
X105724000Y-123250000D01*
%TO.C,D1*%
X114772000Y-106236000D02*
X114772000Y-106392000D01*
X114772000Y-103920000D02*
X114772000Y-104076000D01*
X117373130Y-106235837D02*
G75*
G02*
X115291039Y-106236000I-1041130J1079837D01*
G01*
X117373130Y-104076163D02*
G75*
G03*
X115291039Y-104076000I-1041130J-1079837D01*
G01*
X118004335Y-106234608D02*
G75*
G02*
X114772000Y-106391516I-1672335J1078608D01*
G01*
X118004335Y-104077392D02*
G75*
G03*
X114772000Y-103920484I-1672335J-1078608D01*
G01*
%TO.C,C5*%
X128612000Y-114594000D02*
X128297000Y-114594000D01*
X131037000Y-114594000D02*
X130722000Y-114594000D01*
X128612000Y-109354000D02*
X128297000Y-109354000D01*
X131037000Y-109354000D02*
X130722000Y-109354000D01*
X128297000Y-109354000D02*
X128297000Y-114594000D01*
X131037000Y-109354000D02*
X131037000Y-114594000D01*
%TO.C,U1*%
X120432000Y-91802000D02*
X114422000Y-91802000D01*
X118182000Y-84982000D02*
X114422000Y-84982000D01*
X114422000Y-91802000D02*
X114422000Y-90542000D01*
X114422000Y-84982000D02*
X114422000Y-86242000D01*
%TO.C,SW1*%
X114506000Y-109328000D02*
X113006000Y-109328000D01*
X110506000Y-110578000D02*
X110506000Y-115078000D01*
X113006000Y-116328000D02*
X114506000Y-116328000D01*
X117006000Y-115078000D02*
X117006000Y-110578000D01*
%TO.C,R1*%
X117824000Y-99922000D02*
X117824000Y-99592000D01*
X111284000Y-99922000D02*
X117824000Y-99922000D01*
X111284000Y-99592000D02*
X111284000Y-99922000D01*
X117824000Y-97182000D02*
X117824000Y-97512000D01*
X111284000Y-97182000D02*
X117824000Y-97182000D01*
X111284000Y-97512000D02*
X111284000Y-97182000D01*
%TO.C,IC1*%
X123160000Y-96170000D02*
X121870000Y-96170000D01*
X123160000Y-95220000D02*
X123160000Y-96170000D01*
X124110000Y-95220000D02*
X123160000Y-95220000D01*
X133380000Y-95220000D02*
X133380000Y-96170000D01*
X132430000Y-95220000D02*
X133380000Y-95220000D01*
X123160000Y-105440000D02*
X123160000Y-104490000D01*
X124110000Y-105440000D02*
X123160000Y-105440000D01*
X133380000Y-105440000D02*
X133380000Y-104490000D01*
X132430000Y-105440000D02*
X133380000Y-105440000D01*
%TO.C,C6*%
X127976000Y-88353000D02*
X127976000Y-88038000D01*
X127976000Y-90778000D02*
X127976000Y-90463000D01*
X133216000Y-88353000D02*
X133216000Y-88038000D01*
X133216000Y-90778000D02*
X133216000Y-90463000D01*
X133216000Y-88038000D02*
X127976000Y-88038000D01*
X133216000Y-90778000D02*
X127976000Y-90778000D01*
%TO.C,C4*%
X137628000Y-101561000D02*
X137628000Y-101246000D01*
X137628000Y-103986000D02*
X137628000Y-103671000D01*
X142868000Y-101561000D02*
X142868000Y-101246000D01*
X142868000Y-103986000D02*
X142868000Y-103671000D01*
X142868000Y-101246000D02*
X137628000Y-101246000D01*
X142868000Y-103986000D02*
X137628000Y-103986000D01*
%TO.C,C3*%
X121627000Y-93258000D02*
X121312000Y-93258000D01*
X124052000Y-93258000D02*
X123737000Y-93258000D01*
X121627000Y-88018000D02*
X121312000Y-88018000D01*
X124052000Y-88018000D02*
X123737000Y-88018000D01*
X121312000Y-88018000D02*
X121312000Y-93258000D01*
X124052000Y-88018000D02*
X124052000Y-93258000D01*
%TO.C,C2*%
X125515000Y-109180000D02*
X125830000Y-109180000D01*
X123090000Y-109180000D02*
X123405000Y-109180000D01*
X125515000Y-114420000D02*
X125830000Y-114420000D01*
X123090000Y-114420000D02*
X123405000Y-114420000D01*
X125830000Y-114420000D02*
X125830000Y-109180000D01*
X123090000Y-114420000D02*
X123090000Y-109180000D01*
%TO.C,C1*%
X118404000Y-102401000D02*
X118404000Y-102716000D01*
X118404000Y-99976000D02*
X118404000Y-100291000D01*
X113164000Y-102401000D02*
X113164000Y-102716000D01*
X113164000Y-99976000D02*
X113164000Y-100291000D01*
X113164000Y-102716000D02*
X118404000Y-102716000D01*
X113164000Y-99976000D02*
X118404000Y-99976000D01*
%TO.C,J2*%
D10*
X150542666Y-122940380D02*
X150542666Y-123654666D01*
X150495047Y-123797523D01*
X150399809Y-123892761D01*
X150256952Y-123940380D01*
X150161714Y-123940380D01*
X150971238Y-123035619D02*
X151018857Y-122988000D01*
X151114095Y-122940380D01*
X151352190Y-122940380D01*
X151447428Y-122988000D01*
X151495047Y-123035619D01*
X151542666Y-123130857D01*
X151542666Y-123226095D01*
X151495047Y-123368952D01*
X150923619Y-123940380D01*
X151542666Y-123940380D01*
%TO.C,J1*%
X102790666Y-80942380D02*
X102790666Y-81656666D01*
X102743047Y-81799523D01*
X102647809Y-81894761D01*
X102504952Y-81942380D01*
X102409714Y-81942380D01*
X103790666Y-81942380D02*
X103219238Y-81942380D01*
X103504952Y-81942380D02*
X103504952Y-80942380D01*
X103409714Y-81085238D01*
X103314476Y-81180476D01*
X103219238Y-81228095D01*
%TO.C,D1*%
X115593904Y-102648380D02*
X115593904Y-101648380D01*
X115832000Y-101648380D01*
X115974857Y-101696000D01*
X116070095Y-101791238D01*
X116117714Y-101886476D01*
X116165333Y-102076952D01*
X116165333Y-102219809D01*
X116117714Y-102410285D01*
X116070095Y-102505523D01*
X115974857Y-102600761D01*
X115832000Y-102648380D01*
X115593904Y-102648380D01*
X117117714Y-102648380D02*
X116546285Y-102648380D01*
X116832000Y-102648380D02*
X116832000Y-101648380D01*
X116736761Y-101791238D01*
X116641523Y-101886476D01*
X116546285Y-101934095D01*
%TO.C,C5*%
X132524142Y-112140666D02*
X132571761Y-112188285D01*
X132619380Y-112331142D01*
X132619380Y-112426380D01*
X132571761Y-112569238D01*
X132476523Y-112664476D01*
X132381285Y-112712095D01*
X132190809Y-112759714D01*
X132047952Y-112759714D01*
X131857476Y-112712095D01*
X131762238Y-112664476D01*
X131667000Y-112569238D01*
X131619380Y-112426380D01*
X131619380Y-112331142D01*
X131667000Y-112188285D01*
X131714619Y-112140666D01*
X131619380Y-111235904D02*
X131619380Y-111712095D01*
X132095571Y-111759714D01*
X132047952Y-111712095D01*
X132000333Y-111616857D01*
X132000333Y-111378761D01*
X132047952Y-111283523D01*
X132095571Y-111235904D01*
X132190809Y-111188285D01*
X132428904Y-111188285D01*
X132524142Y-111235904D01*
X132571761Y-111283523D01*
X132619380Y-111378761D01*
X132619380Y-111616857D01*
X132571761Y-111712095D01*
X132524142Y-111759714D01*
%TO.C,U1*%
X115570095Y-92344380D02*
X115570095Y-93153904D01*
X115617714Y-93249142D01*
X115665333Y-93296761D01*
X115760571Y-93344380D01*
X115951047Y-93344380D01*
X116046285Y-93296761D01*
X116093904Y-93249142D01*
X116141523Y-93153904D01*
X116141523Y-92344380D01*
X117141523Y-93344380D02*
X116570095Y-93344380D01*
X116855809Y-93344380D02*
X116855809Y-92344380D01*
X116760571Y-92487238D01*
X116665333Y-92582476D01*
X116570095Y-92630095D01*
%TO.C,SW1*%
X109910761Y-114161333D02*
X109958380Y-114018476D01*
X109958380Y-113780380D01*
X109910761Y-113685142D01*
X109863142Y-113637523D01*
X109767904Y-113589904D01*
X109672666Y-113589904D01*
X109577428Y-113637523D01*
X109529809Y-113685142D01*
X109482190Y-113780380D01*
X109434571Y-113970857D01*
X109386952Y-114066095D01*
X109339333Y-114113714D01*
X109244095Y-114161333D01*
X109148857Y-114161333D01*
X109053619Y-114113714D01*
X109006000Y-114066095D01*
X108958380Y-113970857D01*
X108958380Y-113732761D01*
X109006000Y-113589904D01*
X108958380Y-113256571D02*
X109958380Y-113018476D01*
X109244095Y-112828000D01*
X109958380Y-112637523D01*
X108958380Y-112399428D01*
X109958380Y-111494666D02*
X109958380Y-112066095D01*
X109958380Y-111780380D02*
X108958380Y-111780380D01*
X109101238Y-111875619D01*
X109196476Y-111970857D01*
X109244095Y-112066095D01*
%TO.C,R1*%
X114387333Y-96634380D02*
X114054000Y-96158190D01*
X113815904Y-96634380D02*
X113815904Y-95634380D01*
X114196857Y-95634380D01*
X114292095Y-95682000D01*
X114339714Y-95729619D01*
X114387333Y-95824857D01*
X114387333Y-95967714D01*
X114339714Y-96062952D01*
X114292095Y-96110571D01*
X114196857Y-96158190D01*
X113815904Y-96158190D01*
X115339714Y-96634380D02*
X114768285Y-96634380D01*
X115054000Y-96634380D02*
X115054000Y-95634380D01*
X114958761Y-95777238D01*
X114863523Y-95872476D01*
X114768285Y-95920095D01*
%TO.C,IC1*%
X127293809Y-93432380D02*
X127293809Y-92432380D01*
X128341428Y-93337142D02*
X128293809Y-93384761D01*
X128150952Y-93432380D01*
X128055714Y-93432380D01*
X127912857Y-93384761D01*
X127817619Y-93289523D01*
X127770000Y-93194285D01*
X127722380Y-93003809D01*
X127722380Y-92860952D01*
X127770000Y-92670476D01*
X127817619Y-92575238D01*
X127912857Y-92480000D01*
X128055714Y-92432380D01*
X128150952Y-92432380D01*
X128293809Y-92480000D01*
X128341428Y-92527619D01*
X129293809Y-93432380D02*
X128722380Y-93432380D01*
X129008095Y-93432380D02*
X129008095Y-92432380D01*
X128912857Y-92575238D01*
X128817619Y-92670476D01*
X128722380Y-92718095D01*
%TO.C,C6*%
X130429333Y-92265142D02*
X130381714Y-92312761D01*
X130238857Y-92360380D01*
X130143619Y-92360380D01*
X130000761Y-92312761D01*
X129905523Y-92217523D01*
X129857904Y-92122285D01*
X129810285Y-91931809D01*
X129810285Y-91788952D01*
X129857904Y-91598476D01*
X129905523Y-91503238D01*
X130000761Y-91408000D01*
X130143619Y-91360380D01*
X130238857Y-91360380D01*
X130381714Y-91408000D01*
X130429333Y-91455619D01*
X131286476Y-91360380D02*
X131096000Y-91360380D01*
X131000761Y-91408000D01*
X130953142Y-91455619D01*
X130857904Y-91598476D01*
X130810285Y-91788952D01*
X130810285Y-92169904D01*
X130857904Y-92265142D01*
X130905523Y-92312761D01*
X131000761Y-92360380D01*
X131191238Y-92360380D01*
X131286476Y-92312761D01*
X131334095Y-92265142D01*
X131381714Y-92169904D01*
X131381714Y-91931809D01*
X131334095Y-91836571D01*
X131286476Y-91788952D01*
X131191238Y-91741333D01*
X131000761Y-91741333D01*
X130905523Y-91788952D01*
X130857904Y-91836571D01*
X130810285Y-91931809D01*
%TO.C,C4*%
X140081333Y-105473142D02*
X140033714Y-105520761D01*
X139890857Y-105568380D01*
X139795619Y-105568380D01*
X139652761Y-105520761D01*
X139557523Y-105425523D01*
X139509904Y-105330285D01*
X139462285Y-105139809D01*
X139462285Y-104996952D01*
X139509904Y-104806476D01*
X139557523Y-104711238D01*
X139652761Y-104616000D01*
X139795619Y-104568380D01*
X139890857Y-104568380D01*
X140033714Y-104616000D01*
X140081333Y-104663619D01*
X140938476Y-104901714D02*
X140938476Y-105568380D01*
X140700380Y-104520761D02*
X140462285Y-105235047D01*
X141081333Y-105235047D01*
%TO.C,C3*%
X125539142Y-90804666D02*
X125586761Y-90852285D01*
X125634380Y-90995142D01*
X125634380Y-91090380D01*
X125586761Y-91233238D01*
X125491523Y-91328476D01*
X125396285Y-91376095D01*
X125205809Y-91423714D01*
X125062952Y-91423714D01*
X124872476Y-91376095D01*
X124777238Y-91328476D01*
X124682000Y-91233238D01*
X124634380Y-91090380D01*
X124634380Y-90995142D01*
X124682000Y-90852285D01*
X124729619Y-90804666D01*
X124634380Y-90471333D02*
X124634380Y-89852285D01*
X125015333Y-90185619D01*
X125015333Y-90042761D01*
X125062952Y-89947523D01*
X125110571Y-89899904D01*
X125205809Y-89852285D01*
X125443904Y-89852285D01*
X125539142Y-89899904D01*
X125586761Y-89947523D01*
X125634380Y-90042761D01*
X125634380Y-90328476D01*
X125586761Y-90423714D01*
X125539142Y-90471333D01*
%TO.C,C2*%
X122317142Y-111966666D02*
X122364761Y-112014285D01*
X122412380Y-112157142D01*
X122412380Y-112252380D01*
X122364761Y-112395238D01*
X122269523Y-112490476D01*
X122174285Y-112538095D01*
X121983809Y-112585714D01*
X121840952Y-112585714D01*
X121650476Y-112538095D01*
X121555238Y-112490476D01*
X121460000Y-112395238D01*
X121412380Y-112252380D01*
X121412380Y-112157142D01*
X121460000Y-112014285D01*
X121507619Y-111966666D01*
X121507619Y-111585714D02*
X121460000Y-111538095D01*
X121412380Y-111442857D01*
X121412380Y-111204761D01*
X121460000Y-111109523D01*
X121507619Y-111061904D01*
X121602857Y-111014285D01*
X121698095Y-111014285D01*
X121840952Y-111061904D01*
X122412380Y-111633333D01*
X122412380Y-111014285D01*
%TO.C,C1*%
X115617333Y-99203142D02*
X115569714Y-99250761D01*
X115426857Y-99298380D01*
X115331619Y-99298380D01*
X115188761Y-99250761D01*
X115093523Y-99155523D01*
X115045904Y-99060285D01*
X114998285Y-98869809D01*
X114998285Y-98726952D01*
X115045904Y-98536476D01*
X115093523Y-98441238D01*
X115188761Y-98346000D01*
X115331619Y-98298380D01*
X115426857Y-98298380D01*
X115569714Y-98346000D01*
X115617333Y-98393619D01*
X116569714Y-99298380D02*
X115998285Y-99298380D01*
X116284000Y-99298380D02*
X116284000Y-98298380D01*
X116188761Y-98441238D01*
X116093523Y-98536476D01*
X115998285Y-98584095D01*
%TD*%
M02*
