M48
; DRILL file {KiCad 5.1.10-88a1d61d58~90~ubuntu21.04.1} date Tue Aug 24 17:57:06 2021
; FORMAT={-:-/ absolute / metric / decimal}
; #@! TF.CreationDate,2021-08-24T17:57:06+02:00
; #@! TF.GenerationSoftware,Kicad,Pcbnew,5.1.10-88a1d61d58~90~ubuntu21.04.1
FMAT,2
METRIC
T1C0.400
T2C0.750
T3C1.000
T4C1.100
%
G90
G05
T1
X116.23Y-67.462
X122.936Y-70.612
X125.222Y-81.788
X133.923Y-86.295
X136.402Y-88.437
X136.652Y-105.918
X138.127Y-89.662
X138.938Y-79.372
X141.732Y-98.044
X142.24Y-76.454
X145.796Y-105.918
X147.574Y-78.486
X148.799Y-76.966
X150.114Y-68.834
X150.622Y-100.076
X155.956Y-96.073
X155.956Y-102.108
X156.439Y-88.67
X156.464Y-91.645
T2
X122.428Y-74.676
X122.428Y-75.946
X122.428Y-77.216
T3
X112.776Y-65.024
X112.776Y-67.564
X112.776Y-71.628
X112.776Y-74.168
X113.284Y-80.264
X113.284Y-82.804
X113.284Y-85.344
X113.284Y-87.884
X113.284Y-93.98
X113.284Y-96.52
X113.284Y-99.06
X113.284Y-103.378
X113.284Y-105.918
X113.284Y-108.458
X113.284Y-113.03
X115.824Y-113.03
X118.364Y-113.03
X120.904Y-113.03
X123.444Y-113.03
X136.906Y-110.236
X136.906Y-112.776
X139.446Y-110.236
X139.446Y-112.776
X141.986Y-110.236
X141.986Y-112.776
X144.526Y-110.236
X144.526Y-112.776
X147.066Y-110.236
X147.066Y-112.776
X149.606Y-110.236
X149.606Y-112.776
X152.146Y-110.236
X152.146Y-112.776
X154.686Y-110.236
X154.686Y-112.776
X155.448Y-65.024
X155.448Y-67.564
X157.988Y-65.024
X157.988Y-67.564
X160.528Y-65.024
X160.528Y-67.564
X162.814Y-82.042
X162.814Y-84.582
X162.814Y-87.122
X162.814Y-89.662
X162.814Y-92.202
X162.814Y-94.742
X164.846Y-99.822
X164.846Y-102.362
X164.846Y-104.902
X164.846Y-107.442
X164.846Y-109.982
X164.846Y-112.522
X165.1Y-65.024
X165.1Y-67.564
X165.1Y-70.104
X165.1Y-72.644
X165.354Y-82.042
X165.354Y-84.582
X165.354Y-87.122
X165.354Y-89.662
X165.354Y-92.202
X165.354Y-94.742
T4
X125.58Y-90.75
X125.58Y-95.25
X132.08Y-90.75
X132.08Y-95.25
X156.536Y-71.628
X156.536Y-78.128
X161.036Y-71.628
X161.036Y-78.128
T0
M30
