%TF.GenerationSoftware,KiCad,Pcbnew,5.1.10-88a1d61d58~90~ubuntu21.04.1*%
%TF.CreationDate,2021-08-16T14:07:41+02:00*%
%TF.ProjectId,hendrik,68656e64-7269-46b2-9e6b-696361645f70,rev?*%
%TF.SameCoordinates,Original*%
%TF.FileFunction,Paste,Top*%
%TF.FilePolarity,Positive*%
%FSLAX46Y46*%
G04 Gerber Fmt 4.6, Leading zero omitted, Abs format (unit mm)*
G04 Created by KiCad (PCBNEW 5.1.10-88a1d61d58~90~ubuntu21.04.1) date 2021-08-16 14:07:41*
%MOMM*%
%LPD*%
G01*
G04 APERTURE LIST*
%ADD10R,2.000000X1.500000*%
%ADD11R,2.000000X3.800000*%
G04 APERTURE END LIST*
D10*
%TO.C,U1*%
X119482000Y-90692000D03*
X119482000Y-86092000D03*
X119482000Y-88392000D03*
D11*
X113182000Y-88392000D03*
%TD*%
%TO.C,IC1*%
G36*
G01*
X124370000Y-95330000D02*
X124370000Y-94005000D01*
G75*
G02*
X124445000Y-93930000I75000J0D01*
G01*
X124595000Y-93930000D01*
G75*
G02*
X124670000Y-94005000I0J-75000D01*
G01*
X124670000Y-95330000D01*
G75*
G02*
X124595000Y-95405000I-75000J0D01*
G01*
X124445000Y-95405000D01*
G75*
G02*
X124370000Y-95330000I0J75000D01*
G01*
G37*
G36*
G01*
X124870000Y-95330000D02*
X124870000Y-94005000D01*
G75*
G02*
X124945000Y-93930000I75000J0D01*
G01*
X125095000Y-93930000D01*
G75*
G02*
X125170000Y-94005000I0J-75000D01*
G01*
X125170000Y-95330000D01*
G75*
G02*
X125095000Y-95405000I-75000J0D01*
G01*
X124945000Y-95405000D01*
G75*
G02*
X124870000Y-95330000I0J75000D01*
G01*
G37*
G36*
G01*
X125370000Y-95330000D02*
X125370000Y-94005000D01*
G75*
G02*
X125445000Y-93930000I75000J0D01*
G01*
X125595000Y-93930000D01*
G75*
G02*
X125670000Y-94005000I0J-75000D01*
G01*
X125670000Y-95330000D01*
G75*
G02*
X125595000Y-95405000I-75000J0D01*
G01*
X125445000Y-95405000D01*
G75*
G02*
X125370000Y-95330000I0J75000D01*
G01*
G37*
G36*
G01*
X125870000Y-95330000D02*
X125870000Y-94005000D01*
G75*
G02*
X125945000Y-93930000I75000J0D01*
G01*
X126095000Y-93930000D01*
G75*
G02*
X126170000Y-94005000I0J-75000D01*
G01*
X126170000Y-95330000D01*
G75*
G02*
X126095000Y-95405000I-75000J0D01*
G01*
X125945000Y-95405000D01*
G75*
G02*
X125870000Y-95330000I0J75000D01*
G01*
G37*
G36*
G01*
X126370000Y-95330000D02*
X126370000Y-94005000D01*
G75*
G02*
X126445000Y-93930000I75000J0D01*
G01*
X126595000Y-93930000D01*
G75*
G02*
X126670000Y-94005000I0J-75000D01*
G01*
X126670000Y-95330000D01*
G75*
G02*
X126595000Y-95405000I-75000J0D01*
G01*
X126445000Y-95405000D01*
G75*
G02*
X126370000Y-95330000I0J75000D01*
G01*
G37*
G36*
G01*
X126870000Y-95330000D02*
X126870000Y-94005000D01*
G75*
G02*
X126945000Y-93930000I75000J0D01*
G01*
X127095000Y-93930000D01*
G75*
G02*
X127170000Y-94005000I0J-75000D01*
G01*
X127170000Y-95330000D01*
G75*
G02*
X127095000Y-95405000I-75000J0D01*
G01*
X126945000Y-95405000D01*
G75*
G02*
X126870000Y-95330000I0J75000D01*
G01*
G37*
G36*
G01*
X127370000Y-95330000D02*
X127370000Y-94005000D01*
G75*
G02*
X127445000Y-93930000I75000J0D01*
G01*
X127595000Y-93930000D01*
G75*
G02*
X127670000Y-94005000I0J-75000D01*
G01*
X127670000Y-95330000D01*
G75*
G02*
X127595000Y-95405000I-75000J0D01*
G01*
X127445000Y-95405000D01*
G75*
G02*
X127370000Y-95330000I0J75000D01*
G01*
G37*
G36*
G01*
X127870000Y-95330000D02*
X127870000Y-94005000D01*
G75*
G02*
X127945000Y-93930000I75000J0D01*
G01*
X128095000Y-93930000D01*
G75*
G02*
X128170000Y-94005000I0J-75000D01*
G01*
X128170000Y-95330000D01*
G75*
G02*
X128095000Y-95405000I-75000J0D01*
G01*
X127945000Y-95405000D01*
G75*
G02*
X127870000Y-95330000I0J75000D01*
G01*
G37*
G36*
G01*
X128370000Y-95330000D02*
X128370000Y-94005000D01*
G75*
G02*
X128445000Y-93930000I75000J0D01*
G01*
X128595000Y-93930000D01*
G75*
G02*
X128670000Y-94005000I0J-75000D01*
G01*
X128670000Y-95330000D01*
G75*
G02*
X128595000Y-95405000I-75000J0D01*
G01*
X128445000Y-95405000D01*
G75*
G02*
X128370000Y-95330000I0J75000D01*
G01*
G37*
G36*
G01*
X128870000Y-95330000D02*
X128870000Y-94005000D01*
G75*
G02*
X128945000Y-93930000I75000J0D01*
G01*
X129095000Y-93930000D01*
G75*
G02*
X129170000Y-94005000I0J-75000D01*
G01*
X129170000Y-95330000D01*
G75*
G02*
X129095000Y-95405000I-75000J0D01*
G01*
X128945000Y-95405000D01*
G75*
G02*
X128870000Y-95330000I0J75000D01*
G01*
G37*
G36*
G01*
X129370000Y-95330000D02*
X129370000Y-94005000D01*
G75*
G02*
X129445000Y-93930000I75000J0D01*
G01*
X129595000Y-93930000D01*
G75*
G02*
X129670000Y-94005000I0J-75000D01*
G01*
X129670000Y-95330000D01*
G75*
G02*
X129595000Y-95405000I-75000J0D01*
G01*
X129445000Y-95405000D01*
G75*
G02*
X129370000Y-95330000I0J75000D01*
G01*
G37*
G36*
G01*
X129870000Y-95330000D02*
X129870000Y-94005000D01*
G75*
G02*
X129945000Y-93930000I75000J0D01*
G01*
X130095000Y-93930000D01*
G75*
G02*
X130170000Y-94005000I0J-75000D01*
G01*
X130170000Y-95330000D01*
G75*
G02*
X130095000Y-95405000I-75000J0D01*
G01*
X129945000Y-95405000D01*
G75*
G02*
X129870000Y-95330000I0J75000D01*
G01*
G37*
G36*
G01*
X130370000Y-95330000D02*
X130370000Y-94005000D01*
G75*
G02*
X130445000Y-93930000I75000J0D01*
G01*
X130595000Y-93930000D01*
G75*
G02*
X130670000Y-94005000I0J-75000D01*
G01*
X130670000Y-95330000D01*
G75*
G02*
X130595000Y-95405000I-75000J0D01*
G01*
X130445000Y-95405000D01*
G75*
G02*
X130370000Y-95330000I0J75000D01*
G01*
G37*
G36*
G01*
X130870000Y-95330000D02*
X130870000Y-94005000D01*
G75*
G02*
X130945000Y-93930000I75000J0D01*
G01*
X131095000Y-93930000D01*
G75*
G02*
X131170000Y-94005000I0J-75000D01*
G01*
X131170000Y-95330000D01*
G75*
G02*
X131095000Y-95405000I-75000J0D01*
G01*
X130945000Y-95405000D01*
G75*
G02*
X130870000Y-95330000I0J75000D01*
G01*
G37*
G36*
G01*
X131370000Y-95330000D02*
X131370000Y-94005000D01*
G75*
G02*
X131445000Y-93930000I75000J0D01*
G01*
X131595000Y-93930000D01*
G75*
G02*
X131670000Y-94005000I0J-75000D01*
G01*
X131670000Y-95330000D01*
G75*
G02*
X131595000Y-95405000I-75000J0D01*
G01*
X131445000Y-95405000D01*
G75*
G02*
X131370000Y-95330000I0J75000D01*
G01*
G37*
G36*
G01*
X131870000Y-95330000D02*
X131870000Y-94005000D01*
G75*
G02*
X131945000Y-93930000I75000J0D01*
G01*
X132095000Y-93930000D01*
G75*
G02*
X132170000Y-94005000I0J-75000D01*
G01*
X132170000Y-95330000D01*
G75*
G02*
X132095000Y-95405000I-75000J0D01*
G01*
X131945000Y-95405000D01*
G75*
G02*
X131870000Y-95330000I0J75000D01*
G01*
G37*
G36*
G01*
X133195000Y-96655000D02*
X133195000Y-96505000D01*
G75*
G02*
X133270000Y-96430000I75000J0D01*
G01*
X134595000Y-96430000D01*
G75*
G02*
X134670000Y-96505000I0J-75000D01*
G01*
X134670000Y-96655000D01*
G75*
G02*
X134595000Y-96730000I-75000J0D01*
G01*
X133270000Y-96730000D01*
G75*
G02*
X133195000Y-96655000I0J75000D01*
G01*
G37*
G36*
G01*
X133195000Y-97155000D02*
X133195000Y-97005000D01*
G75*
G02*
X133270000Y-96930000I75000J0D01*
G01*
X134595000Y-96930000D01*
G75*
G02*
X134670000Y-97005000I0J-75000D01*
G01*
X134670000Y-97155000D01*
G75*
G02*
X134595000Y-97230000I-75000J0D01*
G01*
X133270000Y-97230000D01*
G75*
G02*
X133195000Y-97155000I0J75000D01*
G01*
G37*
G36*
G01*
X133195000Y-97655000D02*
X133195000Y-97505000D01*
G75*
G02*
X133270000Y-97430000I75000J0D01*
G01*
X134595000Y-97430000D01*
G75*
G02*
X134670000Y-97505000I0J-75000D01*
G01*
X134670000Y-97655000D01*
G75*
G02*
X134595000Y-97730000I-75000J0D01*
G01*
X133270000Y-97730000D01*
G75*
G02*
X133195000Y-97655000I0J75000D01*
G01*
G37*
G36*
G01*
X133195000Y-98155000D02*
X133195000Y-98005000D01*
G75*
G02*
X133270000Y-97930000I75000J0D01*
G01*
X134595000Y-97930000D01*
G75*
G02*
X134670000Y-98005000I0J-75000D01*
G01*
X134670000Y-98155000D01*
G75*
G02*
X134595000Y-98230000I-75000J0D01*
G01*
X133270000Y-98230000D01*
G75*
G02*
X133195000Y-98155000I0J75000D01*
G01*
G37*
G36*
G01*
X133195000Y-98655000D02*
X133195000Y-98505000D01*
G75*
G02*
X133270000Y-98430000I75000J0D01*
G01*
X134595000Y-98430000D01*
G75*
G02*
X134670000Y-98505000I0J-75000D01*
G01*
X134670000Y-98655000D01*
G75*
G02*
X134595000Y-98730000I-75000J0D01*
G01*
X133270000Y-98730000D01*
G75*
G02*
X133195000Y-98655000I0J75000D01*
G01*
G37*
G36*
G01*
X133195000Y-99155000D02*
X133195000Y-99005000D01*
G75*
G02*
X133270000Y-98930000I75000J0D01*
G01*
X134595000Y-98930000D01*
G75*
G02*
X134670000Y-99005000I0J-75000D01*
G01*
X134670000Y-99155000D01*
G75*
G02*
X134595000Y-99230000I-75000J0D01*
G01*
X133270000Y-99230000D01*
G75*
G02*
X133195000Y-99155000I0J75000D01*
G01*
G37*
G36*
G01*
X133195000Y-99655000D02*
X133195000Y-99505000D01*
G75*
G02*
X133270000Y-99430000I75000J0D01*
G01*
X134595000Y-99430000D01*
G75*
G02*
X134670000Y-99505000I0J-75000D01*
G01*
X134670000Y-99655000D01*
G75*
G02*
X134595000Y-99730000I-75000J0D01*
G01*
X133270000Y-99730000D01*
G75*
G02*
X133195000Y-99655000I0J75000D01*
G01*
G37*
G36*
G01*
X133195000Y-100155000D02*
X133195000Y-100005000D01*
G75*
G02*
X133270000Y-99930000I75000J0D01*
G01*
X134595000Y-99930000D01*
G75*
G02*
X134670000Y-100005000I0J-75000D01*
G01*
X134670000Y-100155000D01*
G75*
G02*
X134595000Y-100230000I-75000J0D01*
G01*
X133270000Y-100230000D01*
G75*
G02*
X133195000Y-100155000I0J75000D01*
G01*
G37*
G36*
G01*
X133195000Y-100655000D02*
X133195000Y-100505000D01*
G75*
G02*
X133270000Y-100430000I75000J0D01*
G01*
X134595000Y-100430000D01*
G75*
G02*
X134670000Y-100505000I0J-75000D01*
G01*
X134670000Y-100655000D01*
G75*
G02*
X134595000Y-100730000I-75000J0D01*
G01*
X133270000Y-100730000D01*
G75*
G02*
X133195000Y-100655000I0J75000D01*
G01*
G37*
G36*
G01*
X133195000Y-101155000D02*
X133195000Y-101005000D01*
G75*
G02*
X133270000Y-100930000I75000J0D01*
G01*
X134595000Y-100930000D01*
G75*
G02*
X134670000Y-101005000I0J-75000D01*
G01*
X134670000Y-101155000D01*
G75*
G02*
X134595000Y-101230000I-75000J0D01*
G01*
X133270000Y-101230000D01*
G75*
G02*
X133195000Y-101155000I0J75000D01*
G01*
G37*
G36*
G01*
X133195000Y-101655000D02*
X133195000Y-101505000D01*
G75*
G02*
X133270000Y-101430000I75000J0D01*
G01*
X134595000Y-101430000D01*
G75*
G02*
X134670000Y-101505000I0J-75000D01*
G01*
X134670000Y-101655000D01*
G75*
G02*
X134595000Y-101730000I-75000J0D01*
G01*
X133270000Y-101730000D01*
G75*
G02*
X133195000Y-101655000I0J75000D01*
G01*
G37*
G36*
G01*
X133195000Y-102155000D02*
X133195000Y-102005000D01*
G75*
G02*
X133270000Y-101930000I75000J0D01*
G01*
X134595000Y-101930000D01*
G75*
G02*
X134670000Y-102005000I0J-75000D01*
G01*
X134670000Y-102155000D01*
G75*
G02*
X134595000Y-102230000I-75000J0D01*
G01*
X133270000Y-102230000D01*
G75*
G02*
X133195000Y-102155000I0J75000D01*
G01*
G37*
G36*
G01*
X133195000Y-102655000D02*
X133195000Y-102505000D01*
G75*
G02*
X133270000Y-102430000I75000J0D01*
G01*
X134595000Y-102430000D01*
G75*
G02*
X134670000Y-102505000I0J-75000D01*
G01*
X134670000Y-102655000D01*
G75*
G02*
X134595000Y-102730000I-75000J0D01*
G01*
X133270000Y-102730000D01*
G75*
G02*
X133195000Y-102655000I0J75000D01*
G01*
G37*
G36*
G01*
X133195000Y-103155000D02*
X133195000Y-103005000D01*
G75*
G02*
X133270000Y-102930000I75000J0D01*
G01*
X134595000Y-102930000D01*
G75*
G02*
X134670000Y-103005000I0J-75000D01*
G01*
X134670000Y-103155000D01*
G75*
G02*
X134595000Y-103230000I-75000J0D01*
G01*
X133270000Y-103230000D01*
G75*
G02*
X133195000Y-103155000I0J75000D01*
G01*
G37*
G36*
G01*
X133195000Y-103655000D02*
X133195000Y-103505000D01*
G75*
G02*
X133270000Y-103430000I75000J0D01*
G01*
X134595000Y-103430000D01*
G75*
G02*
X134670000Y-103505000I0J-75000D01*
G01*
X134670000Y-103655000D01*
G75*
G02*
X134595000Y-103730000I-75000J0D01*
G01*
X133270000Y-103730000D01*
G75*
G02*
X133195000Y-103655000I0J75000D01*
G01*
G37*
G36*
G01*
X133195000Y-104155000D02*
X133195000Y-104005000D01*
G75*
G02*
X133270000Y-103930000I75000J0D01*
G01*
X134595000Y-103930000D01*
G75*
G02*
X134670000Y-104005000I0J-75000D01*
G01*
X134670000Y-104155000D01*
G75*
G02*
X134595000Y-104230000I-75000J0D01*
G01*
X133270000Y-104230000D01*
G75*
G02*
X133195000Y-104155000I0J75000D01*
G01*
G37*
G36*
G01*
X131870000Y-106655000D02*
X131870000Y-105330000D01*
G75*
G02*
X131945000Y-105255000I75000J0D01*
G01*
X132095000Y-105255000D01*
G75*
G02*
X132170000Y-105330000I0J-75000D01*
G01*
X132170000Y-106655000D01*
G75*
G02*
X132095000Y-106730000I-75000J0D01*
G01*
X131945000Y-106730000D01*
G75*
G02*
X131870000Y-106655000I0J75000D01*
G01*
G37*
G36*
G01*
X131370000Y-106655000D02*
X131370000Y-105330000D01*
G75*
G02*
X131445000Y-105255000I75000J0D01*
G01*
X131595000Y-105255000D01*
G75*
G02*
X131670000Y-105330000I0J-75000D01*
G01*
X131670000Y-106655000D01*
G75*
G02*
X131595000Y-106730000I-75000J0D01*
G01*
X131445000Y-106730000D01*
G75*
G02*
X131370000Y-106655000I0J75000D01*
G01*
G37*
G36*
G01*
X130870000Y-106655000D02*
X130870000Y-105330000D01*
G75*
G02*
X130945000Y-105255000I75000J0D01*
G01*
X131095000Y-105255000D01*
G75*
G02*
X131170000Y-105330000I0J-75000D01*
G01*
X131170000Y-106655000D01*
G75*
G02*
X131095000Y-106730000I-75000J0D01*
G01*
X130945000Y-106730000D01*
G75*
G02*
X130870000Y-106655000I0J75000D01*
G01*
G37*
G36*
G01*
X130370000Y-106655000D02*
X130370000Y-105330000D01*
G75*
G02*
X130445000Y-105255000I75000J0D01*
G01*
X130595000Y-105255000D01*
G75*
G02*
X130670000Y-105330000I0J-75000D01*
G01*
X130670000Y-106655000D01*
G75*
G02*
X130595000Y-106730000I-75000J0D01*
G01*
X130445000Y-106730000D01*
G75*
G02*
X130370000Y-106655000I0J75000D01*
G01*
G37*
G36*
G01*
X129870000Y-106655000D02*
X129870000Y-105330000D01*
G75*
G02*
X129945000Y-105255000I75000J0D01*
G01*
X130095000Y-105255000D01*
G75*
G02*
X130170000Y-105330000I0J-75000D01*
G01*
X130170000Y-106655000D01*
G75*
G02*
X130095000Y-106730000I-75000J0D01*
G01*
X129945000Y-106730000D01*
G75*
G02*
X129870000Y-106655000I0J75000D01*
G01*
G37*
G36*
G01*
X129370000Y-106655000D02*
X129370000Y-105330000D01*
G75*
G02*
X129445000Y-105255000I75000J0D01*
G01*
X129595000Y-105255000D01*
G75*
G02*
X129670000Y-105330000I0J-75000D01*
G01*
X129670000Y-106655000D01*
G75*
G02*
X129595000Y-106730000I-75000J0D01*
G01*
X129445000Y-106730000D01*
G75*
G02*
X129370000Y-106655000I0J75000D01*
G01*
G37*
G36*
G01*
X128870000Y-106655000D02*
X128870000Y-105330000D01*
G75*
G02*
X128945000Y-105255000I75000J0D01*
G01*
X129095000Y-105255000D01*
G75*
G02*
X129170000Y-105330000I0J-75000D01*
G01*
X129170000Y-106655000D01*
G75*
G02*
X129095000Y-106730000I-75000J0D01*
G01*
X128945000Y-106730000D01*
G75*
G02*
X128870000Y-106655000I0J75000D01*
G01*
G37*
G36*
G01*
X128370000Y-106655000D02*
X128370000Y-105330000D01*
G75*
G02*
X128445000Y-105255000I75000J0D01*
G01*
X128595000Y-105255000D01*
G75*
G02*
X128670000Y-105330000I0J-75000D01*
G01*
X128670000Y-106655000D01*
G75*
G02*
X128595000Y-106730000I-75000J0D01*
G01*
X128445000Y-106730000D01*
G75*
G02*
X128370000Y-106655000I0J75000D01*
G01*
G37*
G36*
G01*
X127870000Y-106655000D02*
X127870000Y-105330000D01*
G75*
G02*
X127945000Y-105255000I75000J0D01*
G01*
X128095000Y-105255000D01*
G75*
G02*
X128170000Y-105330000I0J-75000D01*
G01*
X128170000Y-106655000D01*
G75*
G02*
X128095000Y-106730000I-75000J0D01*
G01*
X127945000Y-106730000D01*
G75*
G02*
X127870000Y-106655000I0J75000D01*
G01*
G37*
G36*
G01*
X127370000Y-106655000D02*
X127370000Y-105330000D01*
G75*
G02*
X127445000Y-105255000I75000J0D01*
G01*
X127595000Y-105255000D01*
G75*
G02*
X127670000Y-105330000I0J-75000D01*
G01*
X127670000Y-106655000D01*
G75*
G02*
X127595000Y-106730000I-75000J0D01*
G01*
X127445000Y-106730000D01*
G75*
G02*
X127370000Y-106655000I0J75000D01*
G01*
G37*
G36*
G01*
X126870000Y-106655000D02*
X126870000Y-105330000D01*
G75*
G02*
X126945000Y-105255000I75000J0D01*
G01*
X127095000Y-105255000D01*
G75*
G02*
X127170000Y-105330000I0J-75000D01*
G01*
X127170000Y-106655000D01*
G75*
G02*
X127095000Y-106730000I-75000J0D01*
G01*
X126945000Y-106730000D01*
G75*
G02*
X126870000Y-106655000I0J75000D01*
G01*
G37*
G36*
G01*
X126370000Y-106655000D02*
X126370000Y-105330000D01*
G75*
G02*
X126445000Y-105255000I75000J0D01*
G01*
X126595000Y-105255000D01*
G75*
G02*
X126670000Y-105330000I0J-75000D01*
G01*
X126670000Y-106655000D01*
G75*
G02*
X126595000Y-106730000I-75000J0D01*
G01*
X126445000Y-106730000D01*
G75*
G02*
X126370000Y-106655000I0J75000D01*
G01*
G37*
G36*
G01*
X125870000Y-106655000D02*
X125870000Y-105330000D01*
G75*
G02*
X125945000Y-105255000I75000J0D01*
G01*
X126095000Y-105255000D01*
G75*
G02*
X126170000Y-105330000I0J-75000D01*
G01*
X126170000Y-106655000D01*
G75*
G02*
X126095000Y-106730000I-75000J0D01*
G01*
X125945000Y-106730000D01*
G75*
G02*
X125870000Y-106655000I0J75000D01*
G01*
G37*
G36*
G01*
X125370000Y-106655000D02*
X125370000Y-105330000D01*
G75*
G02*
X125445000Y-105255000I75000J0D01*
G01*
X125595000Y-105255000D01*
G75*
G02*
X125670000Y-105330000I0J-75000D01*
G01*
X125670000Y-106655000D01*
G75*
G02*
X125595000Y-106730000I-75000J0D01*
G01*
X125445000Y-106730000D01*
G75*
G02*
X125370000Y-106655000I0J75000D01*
G01*
G37*
G36*
G01*
X124870000Y-106655000D02*
X124870000Y-105330000D01*
G75*
G02*
X124945000Y-105255000I75000J0D01*
G01*
X125095000Y-105255000D01*
G75*
G02*
X125170000Y-105330000I0J-75000D01*
G01*
X125170000Y-106655000D01*
G75*
G02*
X125095000Y-106730000I-75000J0D01*
G01*
X124945000Y-106730000D01*
G75*
G02*
X124870000Y-106655000I0J75000D01*
G01*
G37*
G36*
G01*
X124370000Y-106655000D02*
X124370000Y-105330000D01*
G75*
G02*
X124445000Y-105255000I75000J0D01*
G01*
X124595000Y-105255000D01*
G75*
G02*
X124670000Y-105330000I0J-75000D01*
G01*
X124670000Y-106655000D01*
G75*
G02*
X124595000Y-106730000I-75000J0D01*
G01*
X124445000Y-106730000D01*
G75*
G02*
X124370000Y-106655000I0J75000D01*
G01*
G37*
G36*
G01*
X121870000Y-104155000D02*
X121870000Y-104005000D01*
G75*
G02*
X121945000Y-103930000I75000J0D01*
G01*
X123270000Y-103930000D01*
G75*
G02*
X123345000Y-104005000I0J-75000D01*
G01*
X123345000Y-104155000D01*
G75*
G02*
X123270000Y-104230000I-75000J0D01*
G01*
X121945000Y-104230000D01*
G75*
G02*
X121870000Y-104155000I0J75000D01*
G01*
G37*
G36*
G01*
X121870000Y-103655000D02*
X121870000Y-103505000D01*
G75*
G02*
X121945000Y-103430000I75000J0D01*
G01*
X123270000Y-103430000D01*
G75*
G02*
X123345000Y-103505000I0J-75000D01*
G01*
X123345000Y-103655000D01*
G75*
G02*
X123270000Y-103730000I-75000J0D01*
G01*
X121945000Y-103730000D01*
G75*
G02*
X121870000Y-103655000I0J75000D01*
G01*
G37*
G36*
G01*
X121870000Y-103155000D02*
X121870000Y-103005000D01*
G75*
G02*
X121945000Y-102930000I75000J0D01*
G01*
X123270000Y-102930000D01*
G75*
G02*
X123345000Y-103005000I0J-75000D01*
G01*
X123345000Y-103155000D01*
G75*
G02*
X123270000Y-103230000I-75000J0D01*
G01*
X121945000Y-103230000D01*
G75*
G02*
X121870000Y-103155000I0J75000D01*
G01*
G37*
G36*
G01*
X121870000Y-102655000D02*
X121870000Y-102505000D01*
G75*
G02*
X121945000Y-102430000I75000J0D01*
G01*
X123270000Y-102430000D01*
G75*
G02*
X123345000Y-102505000I0J-75000D01*
G01*
X123345000Y-102655000D01*
G75*
G02*
X123270000Y-102730000I-75000J0D01*
G01*
X121945000Y-102730000D01*
G75*
G02*
X121870000Y-102655000I0J75000D01*
G01*
G37*
G36*
G01*
X121870000Y-102155000D02*
X121870000Y-102005000D01*
G75*
G02*
X121945000Y-101930000I75000J0D01*
G01*
X123270000Y-101930000D01*
G75*
G02*
X123345000Y-102005000I0J-75000D01*
G01*
X123345000Y-102155000D01*
G75*
G02*
X123270000Y-102230000I-75000J0D01*
G01*
X121945000Y-102230000D01*
G75*
G02*
X121870000Y-102155000I0J75000D01*
G01*
G37*
G36*
G01*
X121870000Y-101655000D02*
X121870000Y-101505000D01*
G75*
G02*
X121945000Y-101430000I75000J0D01*
G01*
X123270000Y-101430000D01*
G75*
G02*
X123345000Y-101505000I0J-75000D01*
G01*
X123345000Y-101655000D01*
G75*
G02*
X123270000Y-101730000I-75000J0D01*
G01*
X121945000Y-101730000D01*
G75*
G02*
X121870000Y-101655000I0J75000D01*
G01*
G37*
G36*
G01*
X121870000Y-101155000D02*
X121870000Y-101005000D01*
G75*
G02*
X121945000Y-100930000I75000J0D01*
G01*
X123270000Y-100930000D01*
G75*
G02*
X123345000Y-101005000I0J-75000D01*
G01*
X123345000Y-101155000D01*
G75*
G02*
X123270000Y-101230000I-75000J0D01*
G01*
X121945000Y-101230000D01*
G75*
G02*
X121870000Y-101155000I0J75000D01*
G01*
G37*
G36*
G01*
X121870000Y-100655000D02*
X121870000Y-100505000D01*
G75*
G02*
X121945000Y-100430000I75000J0D01*
G01*
X123270000Y-100430000D01*
G75*
G02*
X123345000Y-100505000I0J-75000D01*
G01*
X123345000Y-100655000D01*
G75*
G02*
X123270000Y-100730000I-75000J0D01*
G01*
X121945000Y-100730000D01*
G75*
G02*
X121870000Y-100655000I0J75000D01*
G01*
G37*
G36*
G01*
X121870000Y-100155000D02*
X121870000Y-100005000D01*
G75*
G02*
X121945000Y-99930000I75000J0D01*
G01*
X123270000Y-99930000D01*
G75*
G02*
X123345000Y-100005000I0J-75000D01*
G01*
X123345000Y-100155000D01*
G75*
G02*
X123270000Y-100230000I-75000J0D01*
G01*
X121945000Y-100230000D01*
G75*
G02*
X121870000Y-100155000I0J75000D01*
G01*
G37*
G36*
G01*
X121870000Y-99655000D02*
X121870000Y-99505000D01*
G75*
G02*
X121945000Y-99430000I75000J0D01*
G01*
X123270000Y-99430000D01*
G75*
G02*
X123345000Y-99505000I0J-75000D01*
G01*
X123345000Y-99655000D01*
G75*
G02*
X123270000Y-99730000I-75000J0D01*
G01*
X121945000Y-99730000D01*
G75*
G02*
X121870000Y-99655000I0J75000D01*
G01*
G37*
G36*
G01*
X121870000Y-99155000D02*
X121870000Y-99005000D01*
G75*
G02*
X121945000Y-98930000I75000J0D01*
G01*
X123270000Y-98930000D01*
G75*
G02*
X123345000Y-99005000I0J-75000D01*
G01*
X123345000Y-99155000D01*
G75*
G02*
X123270000Y-99230000I-75000J0D01*
G01*
X121945000Y-99230000D01*
G75*
G02*
X121870000Y-99155000I0J75000D01*
G01*
G37*
G36*
G01*
X121870000Y-98655000D02*
X121870000Y-98505000D01*
G75*
G02*
X121945000Y-98430000I75000J0D01*
G01*
X123270000Y-98430000D01*
G75*
G02*
X123345000Y-98505000I0J-75000D01*
G01*
X123345000Y-98655000D01*
G75*
G02*
X123270000Y-98730000I-75000J0D01*
G01*
X121945000Y-98730000D01*
G75*
G02*
X121870000Y-98655000I0J75000D01*
G01*
G37*
G36*
G01*
X121870000Y-98155000D02*
X121870000Y-98005000D01*
G75*
G02*
X121945000Y-97930000I75000J0D01*
G01*
X123270000Y-97930000D01*
G75*
G02*
X123345000Y-98005000I0J-75000D01*
G01*
X123345000Y-98155000D01*
G75*
G02*
X123270000Y-98230000I-75000J0D01*
G01*
X121945000Y-98230000D01*
G75*
G02*
X121870000Y-98155000I0J75000D01*
G01*
G37*
G36*
G01*
X121870000Y-97655000D02*
X121870000Y-97505000D01*
G75*
G02*
X121945000Y-97430000I75000J0D01*
G01*
X123270000Y-97430000D01*
G75*
G02*
X123345000Y-97505000I0J-75000D01*
G01*
X123345000Y-97655000D01*
G75*
G02*
X123270000Y-97730000I-75000J0D01*
G01*
X121945000Y-97730000D01*
G75*
G02*
X121870000Y-97655000I0J75000D01*
G01*
G37*
G36*
G01*
X121870000Y-97155000D02*
X121870000Y-97005000D01*
G75*
G02*
X121945000Y-96930000I75000J0D01*
G01*
X123270000Y-96930000D01*
G75*
G02*
X123345000Y-97005000I0J-75000D01*
G01*
X123345000Y-97155000D01*
G75*
G02*
X123270000Y-97230000I-75000J0D01*
G01*
X121945000Y-97230000D01*
G75*
G02*
X121870000Y-97155000I0J75000D01*
G01*
G37*
G36*
G01*
X121870000Y-96655000D02*
X121870000Y-96505000D01*
G75*
G02*
X121945000Y-96430000I75000J0D01*
G01*
X123270000Y-96430000D01*
G75*
G02*
X123345000Y-96505000I0J-75000D01*
G01*
X123345000Y-96655000D01*
G75*
G02*
X123270000Y-96730000I-75000J0D01*
G01*
X121945000Y-96730000D01*
G75*
G02*
X121870000Y-96655000I0J75000D01*
G01*
G37*
%TD*%
M02*
