M48
; DRILL file {KiCad 5.1.10-88a1d61d58~90~ubuntu21.04.1} date Mon Aug 16 09:57:02 2021
; FORMAT={-:-/ absolute / inch / decimal}
; #@! TF.CreationDate,2021-08-16T09:57:02+02:00
; #@! TF.GenerationSoftware,Kicad,Pcbnew,5.1.10-88a1d61d58~90~ubuntu21.04.1
; #@! TF.FileFunction,Plated,1,2,PTH
FMAT,2
INCH
T1C0.0315
T2C0.0354
T3C0.0394
T4C0.0433
%
G90
G05
T1
X4.36Y-3.88
X4.46Y-3.99
X4.6569Y-3.99
X4.66Y-3.88
X4.83Y-3.47
X4.83Y-3.6669
X4.9Y-4.3031
X4.9Y-4.5
X5.0431Y-3.52
X5.105Y-4.31
X5.105Y-4.5069
X5.24Y-3.52
X5.4231Y-4.04
X5.62Y-4.04
T2
X4.53Y-4.14
X4.63Y-4.14
T3
X4.01Y-3.4
X4.01Y-3.5
X4.01Y-3.6
X4.01Y-3.7
X4.01Y-3.8
X4.01Y-3.9
X4.01Y-4.0
X4.01Y-4.1
X4.01Y-4.2
X4.01Y-4.3
X4.01Y-4.4
X4.01Y-4.5
X4.01Y-4.6
X4.01Y-4.7
X4.11Y-3.4
X4.11Y-3.5
X4.11Y-3.6
X4.11Y-3.7
X4.11Y-3.8
X4.11Y-3.9
X4.11Y-4.0
X4.11Y-4.1
X4.11Y-4.2
X4.11Y-4.3
X4.11Y-4.4
X4.11Y-4.5
X4.11Y-4.6
X4.11Y-4.7
X5.87Y-3.37
X5.87Y-3.47
X5.87Y-3.57
X5.87Y-3.67
X5.87Y-3.77
X5.87Y-3.87
X5.87Y-3.97
X5.87Y-4.07
X5.87Y-4.17
X5.87Y-4.27
X5.87Y-4.37
X5.87Y-4.47
X5.87Y-4.57
X5.87Y-4.67
X5.97Y-3.37
X5.97Y-3.47
X5.97Y-3.57
X5.97Y-3.67
X5.97Y-3.77
X5.97Y-3.87
X5.97Y-3.97
X5.97Y-4.07
X5.97Y-4.17
X5.97Y-4.27
X5.97Y-4.37
X5.97Y-4.47
X5.97Y-4.57
X5.97Y-4.67
T4
X4.39Y-4.3141
X4.39Y-4.57
X4.5672Y-4.3141
X4.5672Y-4.57
T0
M30
